<svg width="48" height="48" viewBox="0 0 48 48" fill="none" xmlns="http://www.w3.org/2000/svg">
<g clip-path="url(#clip0_736_20746)">
<circle cx="24" cy="24" r="23.5" fill="white" stroke="#E2E8F0"/>
<path d="M23.0651 29.8849C20.5076 29.8849 18.5551 27.8774 18.5551 24.2474C18.5551 20.5625 20.5901 18.6375 23.0651 18.6375C24.8526 18.6375 25.7326 19.71 26.09 20.48H26.2275V18.885H28.895V26.2274C28.9225 27.1624 29.3075 27.6024 30.05 27.6024C31.4525 27.6024 32.36 25.9799 32.36 23.5324C32.3875 18.7475 29.005 15.6125 24.0001 15.6125C18.8851 15.6125 15.6126 19.325 15.6126 24.2474C15.6126 29.5824 18.4726 32.9374 23.9176 32.9099C25.8701 32.9099 27.3275 32.7449 28.895 32.3324V34.8624C27.4375 35.2749 25.7326 35.5224 23.9176 35.5224C17.0151 35.5224 13.0001 31.1224 13.0001 24.2474C12.9726 17.73 17.5376 13 24.0001 13C30.49 13 35 17.4275 35 23.4499C35 27.6299 32.8825 30.0224 29.8025 30.0224C27.9738 30.0224 26.5988 29.1424 26.3375 27.9049H26.2C25.8426 28.6749 24.9351 29.8849 23.0651 29.8849ZM23.8901 27.3549C25.4576 27.3824 26.2825 26.1449 26.2825 24.2474C26.2825 22.3499 25.4576 21.14 23.8901 21.14C22.3776 21.14 21.5251 22.4324 21.5526 24.2474C21.5251 26.0624 22.4051 27.3549 23.8901 27.3549Z" fill="#94A3B8"/>
</g>
<defs>
<clipPath id="clip0_736_20746">
<rect width="48" height="48" fill="white"/>
</clipPath>
</defs>
</svg>
