<svg width="32" height="32" viewBox="0 0 32 32" fill="none" xmlns="http://www.w3.org/2000/svg">
<g clip-path="url(#clip0_14868_36040)">
<circle cx="16" cy="16" r="15.5" fill="white" stroke="#E2E8F0"/>
<mask id="path-2-inside-1_14868_36040" fill="white">
<path fill-rule="evenodd" clip-rule="evenodd" d="M16.0023 7.33594C12.7139 7.33594 10.0482 10.0017 10.0482 13.2901V16.8563C10.0482 17.1833 9.88234 17.4881 9.60773 17.6657L8.83105 18.1682C8.55644 18.3459 8.39062 18.6506 8.39062 18.9777V19.7622C8.39062 20.2947 8.82228 20.7263 9.35474 20.7263H22.649C23.1815 20.7263 23.6131 20.2947 23.6131 19.7622V19.0019C23.6131 18.6617 23.4338 18.3467 23.1413 18.1729L22.4284 17.7496C22.1358 17.5759 21.9565 17.2608 21.9565 16.9206V13.2901C21.9565 10.0017 19.2907 7.33594 16.0023 7.33594Z"/>
</mask>
<path d="M22.4284 17.7496L23.0325 16.7322L22.4284 17.7496ZM23.1413 18.1729L22.5371 19.1904L23.1413 18.1729ZM8.83105 18.1682L9.4738 19.1617L8.83105 18.1682ZM9.60773 17.6657L8.96498 16.6722L9.60773 17.6657ZM11.2315 13.2901C11.2315 10.6552 13.3675 8.51923 16.0023 8.51923V6.15264C12.0604 6.15264 8.86486 9.3482 8.86486 13.2901H11.2315ZM11.2315 16.8563V13.2901H8.86486V16.8563H11.2315ZM9.4738 19.1617L10.2505 18.6593L8.96498 16.6722L8.1883 17.1747L9.4738 19.1617ZM9.57392 19.7622V18.9777H7.20733V19.7622H9.57392ZM22.649 19.543H9.35474V21.9096H22.649V19.543ZM22.4298 19.0019V19.7622H24.7964V19.0019H22.4298ZM21.8242 18.767L22.5371 19.1904L23.7455 17.1555L23.0325 16.7322L21.8242 18.767ZM20.7732 13.2901V16.9206H23.1398V13.2901H20.7732ZM16.0023 8.51923C18.6372 8.51923 20.7732 10.6552 20.7732 13.2901H23.1398C23.1398 9.3482 19.9443 6.15264 16.0023 6.15264V8.51923ZM23.0325 16.7322C23.099 16.7717 23.1398 16.8433 23.1398 16.9206H20.7732C20.7732 17.6784 21.1726 18.3801 21.8242 18.767L23.0325 16.7322ZM24.7964 19.0019C24.7964 18.2441 24.397 17.5424 23.7455 17.1555L22.5371 19.1904C22.4706 19.1509 22.4298 19.0793 22.4298 19.0019H24.7964ZM22.649 21.9096C23.835 21.9096 24.7964 20.9482 24.7964 19.7622H22.4298C22.4298 19.6412 22.528 19.543 22.649 19.543V21.9096ZM7.20733 19.7622C7.20733 20.9482 8.16876 21.9096 9.35474 21.9096V19.543C9.47579 19.543 9.57392 19.6412 9.57392 19.7622H7.20733ZM8.1883 17.1747C7.57666 17.5704 7.20733 18.2492 7.20733 18.9777H9.57392C9.57392 19.0521 9.53623 19.1213 9.4738 19.1617L8.1883 17.1747ZM8.86486 16.8563C8.86486 16.7819 8.90255 16.7126 8.96498 16.6722L10.2505 18.6593C10.8621 18.2636 11.2315 17.5847 11.2315 16.8563H8.86486Z" fill="#475569" mask="url(#path-2-inside-1_14868_36040)"/>
<path d="M18.3675 22.9824C18.3675 23.9116 17.312 24.6649 16.0099 24.6649C14.7079 24.6649 13.6523 23.9116 13.6523 22.9824" stroke="#475569" stroke-width="1.1833" stroke-linecap="round"/>
</g>
<defs>
<clipPath id="clip0_14868_36040">
<rect width="32" height="32" fill="white"/>
</clipPath>
</defs>
</svg>
