<svg width="20" height="22" viewBox="0 0 20 22" fill="none" xmlns="http://www.w3.org/2000/svg">
<path fill-rule="evenodd" clip-rule="evenodd" d="M17.0001 2.74141V6.00041C17.394 6.00041 17.7841 6.078 18.1481 6.22877C18.5121 6.37953 18.8428 6.60051 19.1214 6.87909C19.3999 7.15766 19.6209 7.48838 19.7717 7.85236C19.9225 8.21633 20.0001 8.60644 20.0001 9.00041C20.0001 9.39437 19.9225 9.78448 19.7717 10.1485C19.6209 10.5124 19.3999 10.8432 19.1214 11.1217C18.8428 11.4003 18.5121 11.6213 18.1481 11.772C17.7841 11.9228 17.394 12.0004 17.0001 12.0004V15.0004C17.0001 16.6484 15.1191 17.5894 13.8001 16.6004L11.7401 15.0544C10.6389 14.2288 9.35678 13.6776 8.00005 13.4464V16.2904C8.00016 16.9442 7.76395 17.5759 7.33495 18.0692C6.90596 18.5625 6.3131 18.8841 5.66567 18.9747C5.01824 19.0653 4.35987 18.9188 3.81193 18.5623C3.26399 18.2057 2.86342 17.6631 2.68405 17.0344L1.11405 11.5384C0.549071 10.8712 0.18139 10.0596 0.0523397 9.19491C-0.0767104 8.33021 0.0379864 7.44664 0.383537 6.64354C0.729088 5.84044 1.29179 5.14965 2.0084 4.6488C2.72501 4.14796 3.56711 3.85692 4.44005 3.80841L7.45805 3.64041C8.9347 3.55839 10.3708 3.12688 11.6481 2.38141L13.9921 1.01341C15.3261 0.236406 17.0001 1.19741 17.0001 2.74141ZM3.63405 13.0784L4.60705 16.4854C4.65388 16.6503 4.75879 16.7927 4.90243 16.8863C5.04606 16.9799 5.2187 17.0184 5.38848 16.9946C5.55826 16.9709 5.71371 16.8865 5.82612 16.757C5.93853 16.6276 6.00031 16.4618 6.00005 16.2904V13.2804L4.44005 13.1934C4.16871 13.177 3.89915 13.1386 3.63405 13.0784ZM15.0001 2.74141L12.6551 4.11041C11.231 4.94212 9.64215 5.45205 8.00005 5.60441V11.4234C9.78705 11.6694 11.4881 12.3664 12.9401 13.4544L15.0001 15.0004V2.74141ZM6.00005 5.72441L4.55005 5.80441C3.8755 5.84165 3.23942 6.13043 2.76737 6.61373C2.29532 7.09703 2.0216 7.73973 2.00026 8.41498C1.97891 9.09022 2.21148 9.74894 2.65205 10.2611C3.09263 10.7732 3.7092 11.1016 4.38005 11.1814L4.55005 11.1964L6.00005 11.2764V5.72441ZM17.0001 8.00041V10.0004C17.2549 10.0001 17.5001 9.90253 17.6854 9.72756C17.8708 9.55259 17.9823 9.31345 17.9972 9.05901C18.0122 8.80457 17.9294 8.55403 17.7658 8.35857C17.6022 8.16312 17.3701 8.03751 17.1171 8.00741L17.0001 8.00041Z" fill="#475569"/>
</svg>
