<svg width="116" height="23" viewBox="0 0 116 23" fill="none" xmlns="http://www.w3.org/2000/svg">
<g id="Group 6">
<g id="Group 4">
<path id="Union" fill-rule="evenodd" clip-rule="evenodd" d="M15.9184 2.09181C15.9184 1.40684 16.4736 0.851562 17.1586 0.851562H21.0455C21.7304 0.851562 22.2857 1.40684 22.2857 2.09182V8.19727C22.2857 9.30222 23.6216 9.85558 24.403 9.07427L29.1433 4.33394C29.6276 3.84959 30.4129 3.84959 30.8973 4.33394L33.7357 7.1724C34.2201 7.65675 34.2201 8.44204 33.7357 8.92638L28.4012 14.2609C27.6198 15.0423 28.1732 16.3782 29.2781 16.3782H35.3724C36.0574 16.3782 36.6127 16.9335 36.6127 17.6184V21.6337C36.6127 22.3186 36.0574 22.8739 35.3724 22.8739H23.0899C22.4049 22.8739 21.8497 22.3186 21.8497 21.6337V19.2698C21.8497 18.9409 21.719 18.6254 21.4864 18.3928L21.0227 17.9291C20.7901 17.6965 20.4746 17.5658 20.1457 17.5658H17.184C16.499 17.5658 15.9437 18.1211 15.9437 18.8061V21.6337C15.9437 22.3186 15.3884 22.8739 14.7035 22.8739H7.14513C6.46015 22.8739 5.90487 22.3186 5.90487 21.6337V18.943C5.90487 18.258 5.34959 17.7028 4.66462 17.7028H1.24025C0.555279 17.7028 0 17.1475 0 16.4625V2.26592C0 1.58095 0.55528 1.02567 1.24025 1.02567H5.25444C5.93941 1.02567 6.49469 1.58095 6.49469 2.26592V15.1379C6.49469 15.8229 7.04997 16.3782 7.73494 16.3782H14.6781C15.3631 16.3782 15.9184 15.8229 15.9184 15.1379V2.09181Z" fill="#2563EB"/>
</g>
<g id="Group 5">
<path id="Vector" d="M45.4844 20.5577V2.5H49.0003V17.4215H58.1135V20.5577H45.4844Z" fill="#2563EB"/>
<path id="Vector_2" d="M100.107 5.87717C100.037 5.77873 99.9946 5.66622 99.9664 5.55371C99.8117 4.8646 99.9664 4.30205 100.416 3.85202C100.867 3.41605 101.429 3.26134 102.118 3.40198C102.231 3.43011 102.357 3.4723 102.456 3.54262C103.032 3.92233 103.328 4.42862 103.328 5.04742C103.328 5.51152 103.159 5.91937 102.821 6.24283C102.484 6.58035 102.076 6.73505 101.612 6.73505C100.993 6.74912 100.487 6.46784 100.107 5.87717Z" fill="#2563EB"/>
<path id="Vector_3" d="M61.0739 5.86155C61.0036 5.7631 60.9614 5.6506 60.9332 5.53809C60.7785 4.84897 60.9332 4.28643 61.3833 3.83639C61.8333 3.40042 62.3958 3.24572 63.085 3.38636C63.1975 3.41448 63.324 3.45667 63.4225 3.52699C63.9991 3.90671 64.2944 4.413 64.2944 5.0318C64.2944 5.4959 64.1257 5.90374 63.7881 6.2272C63.4506 6.56473 63.0428 6.71943 62.5787 6.71943C61.9599 6.73349 61.4536 6.45222 61.0739 5.86155Z" fill="#2563EB"/>
<path id="Vector_4" d="M103.3 9.14062H99.9531V20.4759H103.3V9.14062Z" fill="#2563EB"/>
<path id="Vector_5" d="M64.2221 9.14062H60.875V20.4759H64.2221V9.14062Z" fill="#2563EB"/>
<path id="Vector_6" d="M67.9717 20.5526V6.91096H71.3048V8.37358L71.361 8.4017C72.697 7.2063 74.1878 6.60156 75.8473 6.60156C77.3802 6.60156 78.5756 7.07972 79.4476 8.03605C80.2211 8.8658 80.6149 10.2018 80.6149 12.0582V20.5386H77.2677V12.6348C77.2677 11.5098 77.0849 10.7363 76.7192 10.3003C76.3114 9.80806 75.7067 9.55492 74.9191 9.55492C73.5831 9.55492 72.4017 10.1315 71.3469 11.2707V20.5245H67.9717V20.5526Z" fill="#2563EB"/>
<path id="Vector_7" d="M84.4961 20.4748V2.44531H87.8432V12.7117L87.8995 12.7399L93.328 6.83315H97.3221L91.6123 12.9368L97.8424 20.4748H93.7077L87.8854 13.3024L87.8292 13.3305V20.4889H84.4961V20.4748Z" fill="#2563EB"/>
<path id="Vector_8" d="M109.319 19.4451C108.573 18.6575 108.208 17.3496 108.208 15.5354V9.68493H105.831V6.83001H108.208V3.20161L111.555 2.625V6.84408H115.408V9.69899H111.555V15.0713C111.555 15.9573 111.682 16.6464 111.935 17.1386C112.188 17.6309 112.666 17.8699 113.355 17.8699C114.016 17.8699 114.705 17.673 115.408 17.2933V20.1482C114.691 20.5701 113.763 20.7811 112.638 20.7811C111.231 20.7811 110.12 20.3311 109.319 19.4451Z" fill="#2563EB"/>
</g>
</g>
</svg>
