<svg width="24" height="24" viewBox="0 0 24 24" fill="none" xmlns="http://www.w3.org/2000/svg">
<path d="M17.5003 13.306L7.57333 3.65602C7.43011 3.51698 7.25998 3.40869 7.0734 3.33777C6.88682 3.26685 6.68771 3.23481 6.4883 3.24361C6.28889 3.25242 6.09338 3.30188 5.91377 3.38896C5.73416 3.47604 5.57424 3.59891 5.44383 3.75002C5.16848 4.06979 5.02464 4.48209 5.04135 4.90374C5.05805 5.3254 5.23404 5.72503 5.53383 6.02202L10.5458 10.987" stroke="#475569" stroke-width="2" stroke-linecap="round"/>
<path d="M10.5454 10.9861L5.08937 5.57557C4.77748 5.26633 4.36034 5.08625 3.92139 5.07132C3.48244 5.05639 3.05404 5.20773 2.72187 5.49507C2.5651 5.63049 2.43778 5.79663 2.34777 5.9832C2.25775 6.16978 2.20696 6.37284 2.19852 6.57982C2.19009 6.78681 2.22419 6.99332 2.29873 7.18661C2.37326 7.37989 2.48664 7.55584 2.63187 7.70357L8.12837 13.3051" stroke="#475569" stroke-width="2" stroke-linecap="round" stroke-linejoin="round"/>
<path d="M8.12778 13.3058L5.00028 10.2488C4.69684 9.93911 4.28372 9.76131 3.85023 9.75382C3.41674 9.74634 2.99772 9.90977 2.68378 10.2088C2.52939 10.3559 2.40566 10.5322 2.31971 10.7274C2.23375 10.9226 2.18727 11.1329 2.18295 11.3461C2.17863 11.5593 2.21655 11.7713 2.29452 11.9698C2.3725 12.1684 2.48898 12.3495 2.63728 12.5028C7.25228 17.2708 9.64728 19.5228 10.5458 20.2753C12.0003 21.4938 14.8678 21.9988 16.3653 20.9988C17.8628 19.9988 19.2163 18.5758 19.8588 17.1633C20.2411 16.3216 20.9841 13.7281 22.0878 9.38278C22.142 9.1695 22.153 8.94754 22.1202 8.72994C22.0875 8.51233 22.0116 8.30346 21.897 8.11558C21.7824 7.9277 21.6315 7.7646 21.453 7.63584C21.2746 7.50709 21.0722 7.41527 20.8578 7.36578C20.4168 7.26384 19.9534 7.33673 19.565 7.56916C19.1766 7.80158 18.8934 8.17546 18.7748 8.61228L17.5003 13.3058M15.8583 6.33178C14.785 4.72946 13.2628 3.47944 11.4823 2.73828M2.59728 16.8868C3.58528 18.5431 5.04001 19.871 6.77928 20.7043" stroke="#475569" stroke-width="2" stroke-linecap="round"/>
</svg>
