<svg width="48" height="48" viewBox="0 0 48 48" fill="none" xmlns="http://www.w3.org/2000/svg">
<g clip-path="url(#clip0_14214_47549)">
<circle cx="24" cy="24" r="23.5" fill="white" stroke="#E2E8F0"/>
<path d="M29.8005 33.6246C28.9617 33.6246 27.7835 33.3212 26.0192 32.3355C23.8738 31.1324 22.2143 30.0217 20.0805 27.8934C18.0232 25.8374 17.022 24.5062 15.6208 21.9564C14.0378 19.0775 14.3077 17.5685 14.6093 16.9235C14.9685 16.1526 15.4987 15.6916 16.1841 15.234C16.5734 14.9789 16.9853 14.7603 17.4147 14.5809C17.4577 14.5624 17.4977 14.5448 17.5333 14.5289C17.746 14.433 18.0683 14.2882 18.4765 14.4429C18.7489 14.5452 18.9921 14.7544 19.3728 15.1304C20.1536 15.9004 21.2205 17.6153 21.6141 18.4575C21.8783 19.0251 22.0532 19.3998 22.0536 19.82C22.0536 20.312 21.8061 20.6914 21.5058 21.1009C21.4495 21.1778 21.3936 21.2513 21.3395 21.3226C21.0125 21.7523 20.9407 21.8765 20.988 22.0982C21.0838 22.5438 21.7984 23.8703 22.9727 25.042C24.1471 26.2138 25.4353 26.8832 25.8826 26.9786C26.1137 27.028 26.2405 26.9533 26.6839 26.6147C26.7475 26.5661 26.8128 26.5159 26.8812 26.4656C27.3392 26.1248 27.701 25.8838 28.1814 25.8838H28.184C28.6021 25.8838 28.96 26.0651 29.553 26.3642C30.3264 26.7543 32.0928 27.8075 32.8676 28.5891C33.2444 28.9689 33.4545 29.2113 33.5572 29.4833C33.7119 29.8928 33.5662 30.2137 33.4713 30.4286C33.4554 30.4642 33.4378 30.5034 33.4193 30.5467C33.2384 30.9754 33.0185 31.3865 32.7623 31.7748C32.3055 32.458 31.8428 32.9869 31.0702 33.3466C30.6735 33.5343 30.2393 33.6293 29.8005 33.6246Z" fill="#94A3B8"/>
</g>
<defs>
<clipPath id="clip0_14214_47549">
<rect width="48" height="48" fill="white"/>
</clipPath>
</defs>
</svg>
