<svg width="32" height="32" viewBox="0 0 32 32" fill="none" xmlns="http://www.w3.org/2000/svg">
<g clip-path="url(#clip0_1205_22742)">
<circle cx="16" cy="16" r="15.5" fill="white" stroke="#E2E8F0"/>
<circle cx="12.75" cy="15.75" r="0.75" fill="#64748B"/>
<circle cx="15.75" cy="15.75" r="0.75" fill="#64748B"/>
<circle cx="18.75" cy="15.75" r="0.75" fill="#64748B"/>
<mask id="path-5-inside-1_1205_22742" fill="white">
<path fill-rule="evenodd" clip-rule="evenodd" d="M23.3191 18.547C23.309 18.5024 23.3146 18.4558 23.3343 18.4145C23.763 17.5185 24 16.5337 24 15.5C24 11.3579 20.1944 8 15.5 8C10.8056 8 7 11.3579 7 15.5C7 19.6421 10.8056 23 15.5 23C17.1505 23 18.6911 22.5849 19.9951 21.8666C20.0372 21.8434 20.0861 21.8357 20.1332 21.8454L23.9544 22.6265C24.0968 22.6556 24.2217 22.5281 24.1895 22.3864L23.3191 18.547Z"/>
</mask>
<path d="M19.9951 21.8666L19.4161 20.8156L19.9951 21.8666ZM20.1332 21.8454L20.3736 20.6697L20.1332 21.8454ZM24.1895 22.3864L23.0192 22.6517L24.1895 22.3864ZM23.3343 18.4145L22.2518 17.8966L23.3343 18.4145ZM23.3191 18.547L22.1488 18.8124L23.3191 18.547ZM22.8 15.5C22.8 16.3474 22.6063 17.1558 22.2518 17.8966L24.4168 18.9324C24.9197 17.8813 25.2 16.72 25.2 15.5H22.8ZM15.5 9.2C19.6772 9.2 22.8 12.1573 22.8 15.5H25.2C25.2 10.5584 20.7116 6.8 15.5 6.8V9.2ZM8.2 15.5C8.2 12.1573 11.3228 9.2 15.5 9.2V6.8C10.2884 6.8 5.8 10.5584 5.8 15.5H8.2ZM15.5 21.8C11.3228 21.8 8.2 18.8427 8.2 15.5H5.8C5.8 20.4416 10.2884 24.2 15.5 24.2V21.8ZM19.4161 20.8156C18.2903 21.4357 16.949 21.8 15.5 21.8V24.2C17.3519 24.2 19.0918 23.7342 20.574 22.9177L19.4161 20.8156ZM24.1948 21.4508L20.3736 20.6697L19.8929 23.021L23.7141 23.8022L24.1948 21.4508ZM22.1488 18.8124L23.0192 22.6517L25.3598 22.121L24.4894 18.2817L22.1488 18.8124ZM20.574 22.9177C20.371 23.0296 20.1299 23.0695 19.8929 23.021L20.3736 20.6697C20.0423 20.6019 19.7034 20.6573 19.4161 20.8156L20.574 22.9177ZM23.7141 23.8022C24.7105 24.0059 25.5847 23.1128 25.3598 22.121L23.0192 22.6517C22.8586 21.9433 23.4831 21.3054 24.1948 21.4508L23.7141 23.8022ZM22.2518 17.8966C22.1182 18.1759 22.0776 18.4981 22.1488 18.8124L24.4894 18.2817C24.5405 18.5068 24.511 18.7357 24.4168 18.9324L22.2518 17.8966Z" fill="#64748B" mask="url(#path-5-inside-1_1205_22742)"/>
</g>
<defs>
<clipPath id="clip0_1205_22742">
<rect width="32" height="32" fill="white"/>
</clipPath>
</defs>
</svg>
