<svg width="20" height="20" viewBox="0 0 20 20" fill="none" xmlns="http://www.w3.org/2000/svg">
<circle cx="6.75" cy="9.75" r="0.75" fill="white"/>
<circle cx="9.75" cy="9.75" r="0.75" fill="white"/>
<circle cx="12.75" cy="9.75" r="0.75" fill="white"/>
<mask id="path-4-inside-1_963_26079" fill="white">
<path fill-rule="evenodd" clip-rule="evenodd" d="M17.3191 12.547C17.309 12.5024 17.3146 12.4558 17.3343 12.4145C17.763 11.5185 18 10.5337 18 9.5C18 5.35786 14.1944 2 9.5 2C4.80558 2 1 5.35786 1 9.5C1 13.6421 4.80558 17 9.5 17C11.1505 17 12.6911 16.5849 13.9951 15.8666C14.0372 15.8434 14.0861 15.8357 14.1332 15.8454L17.9544 16.6265C18.0968 16.6556 18.2217 16.5281 18.1895 16.3864L17.3191 12.547Z"/>
</mask>
<path d="M13.9951 15.8666L13.4161 14.8156L13.9951 15.8666ZM14.1332 15.8454L14.3736 14.6697L14.1332 15.8454ZM18.1895 16.3864L17.0192 16.6517L18.1895 16.3864ZM17.3343 12.4145L16.2518 11.8966L17.3343 12.4145ZM17.3191 12.547L16.1488 12.8124L17.3191 12.547ZM16.8 9.5C16.8 10.3474 16.6063 11.1558 16.2518 11.8966L18.4168 12.9324C18.9197 11.8813 19.2 10.72 19.2 9.5H16.8ZM9.5 3.2C13.6772 3.2 16.8 6.15735 16.8 9.5H19.2C19.2 4.55838 14.7116 0.8 9.5 0.8V3.2ZM2.2 9.5C2.2 6.15735 5.32277 3.2 9.5 3.2V0.8C4.28839 0.8 -0.2 4.55838 -0.2 9.5H2.2ZM9.5 15.8C5.32277 15.8 2.2 12.8427 2.2 9.5H-0.2C-0.2 14.4416 4.28839 18.2 9.5 18.2V15.8ZM13.4161 14.8156C12.2903 15.4357 10.949 15.8 9.5 15.8V18.2C11.3519 18.2 13.0918 17.7342 14.574 16.9177L13.4161 14.8156ZM18.1948 15.4508L14.3736 14.6697L13.8929 17.021L17.7141 17.8022L18.1948 15.4508ZM16.1488 12.8124L17.0192 16.6517L19.3598 16.121L18.4894 12.2817L16.1488 12.8124ZM14.574 16.9177C14.371 17.0296 14.1299 17.0695 13.8929 17.021L14.3736 14.6697C14.0423 14.6019 13.7034 14.6573 13.4161 14.8156L14.574 16.9177ZM17.7141 17.8022C18.7105 18.0059 19.5847 17.1128 19.3598 16.121L17.0192 16.6517C16.8586 15.9433 17.4831 15.3054 18.1948 15.4508L17.7141 17.8022ZM16.2518 11.8966C16.1182 12.1759 16.0776 12.4981 16.1488 12.8124L18.4894 12.2817C18.5405 12.5068 18.511 12.7357 18.4168 12.9324L16.2518 11.8966Z" fill="white" mask="url(#path-4-inside-1_963_26079)"/>
</svg>
