<svg width="207" height="32" viewBox="0 0 207 32" fill="none" xmlns="http://www.w3.org/2000/svg">
<g opacity="0.9">
<path d="M206.63 15.8201C206.78 15.8931 206.78 16.1069 206.63 16.1799L193.037 22.7884C192.905 22.853 192.75 22.7563 192.75 22.6086V9.39142C192.75 9.24371 192.905 9.14697 193.037 9.21155L206.63 15.8201Z" fill="url(#paint0_linear_1384_25878)"/>
<path d="M0 16C0 7.16344 7.16344 0 16 0H184C192.837 0 200 7.16344 200 16C200 24.8366 192.837 32 184 32H16C7.16344 32 0 24.8366 0 16Z" fill="url(#paint1_linear_1384_25878)"/>
</g>
<path d="M27.0684 10.584V11.8145H22.6387V12.9629H26.7129V14.1523H22.6387V15.3691C24.9492 15.3623 26.3574 15.3213 27.9844 15.0547L28.1348 16.2441C26.3574 16.5586 24.8125 16.5859 22.1465 16.5723H21.0938V10.584H27.0684ZM30.7051 9.87305V17.2148H29.1738V9.87305H30.7051ZM30.7051 17.7617V22.0684H22.502V17.7617H30.7051ZM24.0059 18.9375V20.8379H29.2148V18.9375H24.0059Z" fill="white"/>
<path d="M40.2617 11.8145C40.248 13.3594 41.2461 14.8359 43.1738 15.4512L42.4082 16.6406C41.0137 16.1963 40.0361 15.2666 39.5098 14.084C38.9629 15.3555 37.958 16.3467 36.5156 16.832L35.7363 15.6289C37.7324 14.9727 38.7305 13.3867 38.7305 11.6914V10.502H40.2617V11.8145ZM45.5801 9.85938V12.9629H47.3027V14.2344H45.5801V17.3379H44.0625V9.85938H45.5801ZM45.5801 17.8848V22.2188H44.0625V19.1016H37.3496V17.8848H45.5801Z" fill="white"/>
<path d="M58.5684 9.85938V22.2188H57.1191V9.85938H58.5684ZM56.0527 10.0918V21.6172H54.6172V15.3965H52.8398V14.166H54.6172V10.0918H56.0527ZM51.7461 13.2363C51.7461 15.3281 52.498 17.4199 54.2617 18.4316L53.3594 19.5527C52.2178 18.8691 51.459 17.6934 51.0352 16.2852C50.5977 17.8096 49.8115 19.1084 48.6426 19.8398L47.7129 18.7051C49.5039 17.625 50.2832 15.3828 50.2832 13.2363V12.416H48.1367V11.1855H53.7422V12.416H51.7461V13.2363Z" fill="white"/>
<path d="M74.6465 19.4707V20.7148H63.3535V19.4707H65.9648V16.3398C64.9805 15.7793 64.3857 14.8975 64.3926 13.7969C64.3789 11.8281 66.3203 10.5293 68.9727 10.5293C71.6387 10.5293 73.5801 11.8281 73.5801 13.7969C73.5801 14.877 73.0059 15.7451 72.0488 16.3125V19.4707H74.6465ZM68.9727 11.7324C67.127 11.7324 65.8691 12.5117 65.8828 13.7969C65.8691 15.0684 67.127 15.8613 68.9727 15.8613C70.8184 15.8613 72.0898 15.0684 72.0898 13.7969C72.0898 12.5117 70.8184 11.7324 68.9727 11.7324ZM67.4688 19.4707H70.5039V16.8867C70.0322 16.9961 69.5195 17.0508 68.9727 17.0508C68.4395 17.0508 67.9336 16.9961 67.4688 16.9004V19.4707Z" fill="white"/>
<path d="M79.8965 12.498C79.8965 13.8516 80.9492 15.1914 82.8906 15.7109L82.1797 16.8867C80.751 16.4971 79.7256 15.6631 79.1582 14.5898C78.625 15.8066 77.5928 16.7637 76.123 17.2012L75.4121 16.0254C77.3398 15.4375 78.3789 13.9883 78.3789 12.498V12.4297H75.7949V11.2266H78.3789V9.80469H79.9102V11.2266H82.4805V12.4297H79.8965V12.498ZM85.8027 9.85938V17.3379H84.2852V14.4805H82.1113V13.25H84.2852V9.85938H85.8027ZM81.6191 17.584C84.2305 17.584 85.8438 18.418 85.8438 19.8809C85.8438 21.3574 84.2305 22.2051 81.6191 22.2051C79.0215 22.2051 77.4082 21.3574 77.4219 19.8809C77.4082 18.418 79.0215 17.584 81.6191 17.584ZM81.6191 18.7461C79.8965 18.7598 78.9258 19.1426 78.9258 19.8809C78.9258 20.6191 79.8965 21.0293 81.6191 21.0293C83.3691 21.0293 84.3262 20.6191 84.3262 19.8809C84.3262 19.1426 83.3691 18.7598 81.6191 18.7461Z" fill="white"/>
<path d="M98.2168 9.85938V22.2188H96.7539V9.85938H98.2168ZM95.6738 10.0781V21.6172H94.2246V15.7383H93.0488C92.9053 18.1445 91.873 19.6348 90.3418 19.6211C88.7285 19.6348 87.6758 17.9258 87.6758 15.2051C87.6758 12.4844 88.7285 10.8027 90.3418 10.8027C91.8389 10.8027 92.8574 12.1973 93.0352 14.5078H94.2246V10.0781H95.6738ZM90.3418 12.2383C89.5625 12.2246 89.0703 13.2773 89.084 15.2051C89.0703 17.1328 89.5625 18.1855 90.3418 18.1719C91.1621 18.1855 91.6543 17.1328 91.6543 15.2051C91.6543 13.2773 91.1621 12.2246 90.3418 12.2383Z" fill="white"/>
<path d="M114.24 15.7246V16.9277H102.975V15.7246H114.24ZM108.594 17.7344C111.26 17.7207 112.859 18.5273 112.873 19.9766C112.859 21.4121 111.26 22.2188 108.594 22.2188C105.9 22.2188 104.287 21.4121 104.287 19.9766C104.287 18.5273 105.9 17.7207 108.594 17.7344ZM108.594 18.8828C106.789 18.8828 105.818 19.252 105.832 19.9766C105.818 20.6875 106.789 21.043 108.594 21.043C110.357 21.043 111.342 20.6875 111.355 19.9766C111.342 19.252 110.357 18.8828 108.594 18.8828ZM108.594 10.1465C111.301 10.1465 113.037 11.0625 113.051 12.5391C113.037 14.043 111.301 14.9316 108.594 14.9316C105.887 14.9316 104.137 14.043 104.137 12.5391C104.137 11.0625 105.887 10.1465 108.594 10.1465ZM108.594 11.3359C106.789 11.3359 105.709 11.7461 105.723 12.5391C105.709 13.332 106.789 13.7422 108.594 13.7422C110.398 13.7422 111.479 13.332 111.479 12.5391C111.479 11.7461 110.398 11.3359 108.594 11.3359Z" fill="white"/>
<path d="M124.822 9.85938V12.6074H126.545V13.8652H124.822V16.4629H123.305V9.85938H124.822ZM121.09 10.625V11.8555H117.098V14.8906C119.422 14.8838 120.714 14.8154 122.184 14.4941L122.348 15.7246C120.734 16.0664 119.285 16.1348 116.592 16.1348H115.594V10.625H121.09ZM118.328 17.0781V18.3496H123.305V17.0781H124.822V22.041H116.811V17.0781H118.328ZM118.328 20.8105H123.305V19.5527H118.328V20.8105Z" fill="white"/>
<path d="M133.203 11.8281V13.0449H127.146V11.8281H129.443V10.2148H130.947V11.8281H133.203ZM130.195 13.7012C131.768 13.7012 132.889 14.8906 132.889 16.5723C132.889 18.2812 131.768 19.4844 130.195 19.4844C128.637 19.4844 127.488 18.2812 127.502 16.5723C127.488 14.8906 128.637 13.7012 130.195 13.7012ZM130.195 14.959C129.389 14.959 128.828 15.6016 128.842 16.5723C128.828 17.5703 129.389 18.1992 130.195 18.1855C130.988 18.1992 131.549 17.5703 131.549 16.5723C131.549 15.6016 130.988 14.959 130.195 14.959ZM137.797 9.85938V22.2188H136.348V16.1758H135.145V21.6582H133.723V10.1191H135.145V14.9453H136.348V9.85938H137.797Z" fill="white"/>
<path d="M153.861 16.75V17.9805H148.953V22.2051H147.449V17.9805H142.596V16.75H153.861ZM152.822 10.5566V11.7598H149.117C149.206 13.1133 150.833 14.4121 153.273 14.7266L152.727 15.916C150.621 15.6221 148.98 14.6582 148.229 13.3184C147.477 14.6582 145.836 15.6221 143.758 15.916L143.184 14.7266C145.61 14.4121 147.237 13.1133 147.354 11.7598H143.635V10.5566H152.822Z" fill="white"/>
<path d="M158.551 13.0996C158.551 15.0957 159.248 17.1738 160.916 18.2266L160.082 19.3887C158.968 18.7188 158.243 17.5635 157.84 16.2031C157.389 17.7002 156.596 18.9648 155.434 19.6758L154.49 18.541C156.281 17.4473 157.088 15.2734 157.088 13.168V10.9531H158.551V13.0996ZM165.359 9.85938V22.2188H163.896V9.85938H165.359ZM162.789 10.0781V21.6172H161.354V15.3691H159.59V14.1113H161.354V10.0781H162.789Z" fill="white"/>
<path d="M178.088 19.4707V20.7148H166.795V19.4707H169.406V16.3398C168.422 15.7793 167.827 14.8975 167.834 13.7969C167.82 11.8281 169.762 10.5293 172.414 10.5293C175.08 10.5293 177.021 11.8281 177.021 13.7969C177.021 14.877 176.447 15.7451 175.49 16.3125V19.4707H178.088ZM172.414 11.7324C170.568 11.7324 169.311 12.5117 169.324 13.7969C169.311 15.0684 170.568 15.8613 172.414 15.8613C174.26 15.8613 175.531 15.0684 175.531 13.7969C175.531 12.5117 174.26 11.7324 172.414 11.7324ZM170.91 19.4707H173.945V16.8867C173.474 16.9961 172.961 17.0508 172.414 17.0508C171.881 17.0508 171.375 16.9961 170.91 16.9004V19.4707Z" fill="white"/>
<defs>
<linearGradient id="paint0_linear_1384_25878" x1="0" y1="0" x2="219.784" y2="197.387" gradientUnits="userSpaceOnUse">
<stop stop-color="#4D82F3"/>
<stop offset="0.714747" stop-color="#FF345F"/>
</linearGradient>
<linearGradient id="paint1_linear_1384_25878" x1="0" y1="0" x2="219.784" y2="197.387" gradientUnits="userSpaceOnUse">
<stop stop-color="#4D82F3"/>
<stop offset="0.714747" stop-color="#FF345F"/>
</linearGradient>
</defs>
</svg>
