<svg width="20" height="20" viewBox="0 0 20 20" fill="none" xmlns="http://www.w3.org/2000/svg">
<path d="M10.7498 9.99809L16.3778 4.36459C16.4771 4.26481 16.5328 4.12975 16.5327 3.98899C16.5326 3.84823 16.4767 3.71324 16.3773 3.61359C16.1783 3.41559 15.8278 3.41459 15.6268 3.61459L10.0003 9.24809L4.37179 3.61309C4.17179 3.41559 3.82129 3.41659 3.62229 3.61409C3.57289 3.66329 3.53379 3.72183 3.50726 3.7863C3.48074 3.85077 3.46732 3.91988 3.46779 3.98959C3.46779 4.13159 3.52279 4.26459 3.62229 4.36309L9.25029 9.99759L3.62279 15.6326C3.52348 15.7325 3.46786 15.8678 3.46815 16.0087C3.46843 16.1495 3.52458 16.2846 3.62429 16.3841C3.72079 16.4796 3.85729 16.5346 3.99829 16.5346H4.00129C4.14279 16.5341 4.27929 16.4786 4.37379 16.3821L10.0003 10.7486L15.6288 16.3836C15.7283 16.4826 15.8613 16.5376 16.0023 16.5376C16.072 16.5377 16.141 16.524 16.2054 16.4973C16.2698 16.4707 16.3283 16.4316 16.3776 16.3824C16.4268 16.3331 16.4659 16.2746 16.4925 16.2102C16.5192 16.1458 16.5329 16.0768 16.5328 16.0071C16.5328 15.8656 16.4778 15.7321 16.3778 15.6336L10.7498 9.99809Z" fill="#475569"/>
</svg>
