<svg width="32" height="32" viewBox="0 0 32 32" fill="none" xmlns="http://www.w3.org/2000/svg">
<path d="M32 16C32 24.8366 24.8366 32 16 32C7.16344 32 0 24.8366 0 16C0 7.16344 7.16344 0 16 0C24.8366 0 32 7.16344 32 16Z" fill="#27364B"/>
<path d="M9.25 19.9354V22.7479H12.0625L20.3575 14.4529L17.545 11.6404L9.25 19.9354ZM22.5325 12.2779C22.602 12.2085 22.6572 12.1261 22.6948 12.0354C22.7325 11.9447 22.7518 11.8474 22.7518 11.7492C22.7518 11.651 22.7325 11.5537 22.6948 11.463C22.6572 11.3722 22.602 11.2898 22.5325 11.2204L20.7775 9.46543C20.7081 9.3959 20.6257 9.34074 20.535 9.3031C20.4442 9.26547 20.347 9.24609 20.2488 9.24609C20.1505 9.24609 20.0533 9.26547 19.9625 9.3031C19.8718 9.34074 19.7894 9.3959 19.72 9.46543L18.3475 10.8379L21.16 13.6504L22.5325 12.2779Z" fill="white"/>
</svg>
