<svg width="24" height="24" viewBox="0 0 24 24" fill="none" xmlns="http://www.w3.org/2000/svg">
<path d="M3 14V9H11V14H3ZM3 7V5C3 4.45 3.196 3.97933 3.588 3.588C3.98 3.19667 4.45067 3.00067 5 3H19C19.55 3 20.021 3.196 20.413 3.588C20.805 3.98 21.0007 4.45067 21 5V7H3ZM14 22C13.7167 22 13.4793 21.904 13.288 21.712C13.0967 21.52 13.0007 21.2827 13 21V19.75C13 19.4833 13.0543 19.229 13.163 18.987C13.2717 18.745 13.4173 18.5327 13.6 18.35L18.525 13.425C18.675 13.275 18.8417 13.1667 19.025 13.1C19.2083 13.0333 19.3917 13 19.575 13C19.775 13 19.9667 13.0377 20.15 13.113C20.3333 13.1883 20.5 13.3007 20.65 13.45L21.575 14.375C21.7083 14.525 21.8127 14.6917 21.888 14.875C21.9633 15.0583 22.0007 15.2417 22 15.425C21.9993 15.6083 21.966 15.796 21.9 15.988C21.834 16.18 21.7257 16.3507 21.575 16.5L16.65 21.425C16.4667 21.6083 16.2543 21.75 16.013 21.85C15.7717 21.95 15.5173 22 15.25 22H14ZM19.575 16.4L20.5 15.425L19.575 14.5L18.625 15.45L19.575 16.4ZM5 21C4.45 21 3.97933 20.8043 3.588 20.413C3.19667 20.0217 3.00067 19.5507 3 19V16H11V21H5ZM13 14V9H21V11.3C20.3667 11.0167 19.6917 10.9333 18.975 11.05C18.2583 11.1667 17.6333 11.4917 17.1 12.025L15.125 14H13Z" fill="#64748B"/>
</svg>
