<svg width="16" height="16" viewBox="0 0 16 16" fill="none" xmlns="http://www.w3.org/2000/svg">
<g id="icn_link">
<path id="Vector" d="M6.66721 11.7004L5.48721 12.8471C5.17779 13.1565 4.75813 13.3303 4.32054 13.3303C3.88296 13.3303 3.46329 13.1565 3.15388 12.8471C2.84446 12.5376 2.67063 12.118 2.67063 11.6804C2.67063 11.2428 2.84446 10.8231 3.15388 10.5137L6.18054 7.48039C6.47762 7.18235 6.87789 7.00991 7.29855 6.99874C7.71921 6.98757 8.12807 7.13853 8.44054 7.42039L8.52054 7.48705C8.64696 7.61082 8.81737 7.6793 8.99428 7.67743C9.17119 7.67555 9.34011 7.60348 9.46388 7.47706C9.58764 7.35064 9.65612 7.18023 9.65425 7.00332C9.65237 6.82641 9.5803 6.65749 9.45388 6.53372C9.41605 6.48524 9.37601 6.43852 9.33388 6.39372C8.76478 5.8986 8.02876 5.63829 7.27492 5.66552C6.52108 5.69275 5.80576 6.00549 5.27388 6.54039L2.20721 9.57372C1.68611 10.1409 1.40429 10.8875 1.42059 11.6576C1.43689 12.4276 1.75006 13.1616 2.2947 13.7062C2.83933 14.2509 3.57332 14.564 4.34337 14.5803C5.11343 14.5966 5.86001 14.3148 6.42721 13.7937L7.58054 12.6671C7.69442 12.5428 7.75702 12.3801 7.75575 12.2115C7.75448 12.043 7.68942 11.8812 7.57368 11.7587C7.45794 11.6362 7.3001 11.5621 7.13192 11.5513C6.96374 11.5405 6.7977 11.5937 6.66721 11.7004ZM13.7939 2.20706C13.2331 1.64973 12.4745 1.33691 11.6839 1.33691C10.8932 1.33691 10.1347 1.64973 9.57388 2.20706L8.42054 3.33372C8.30666 3.45796 8.24406 3.62071 8.24534 3.78923C8.24661 3.95776 8.31166 4.11955 8.4274 4.24205C8.54314 4.36455 8.70098 4.43866 8.86916 4.44949C9.03735 4.46031 9.20339 4.40704 9.33388 4.30039L10.4872 3.15372C10.7966 2.8443 11.2163 2.67047 11.6539 2.67047C12.0915 2.67047 12.5111 2.8443 12.8205 3.15372C13.13 3.46314 13.3038 3.8828 13.3038 4.32039C13.3038 4.75797 13.13 5.17764 12.8205 5.48705L9.79388 8.52039C9.4968 8.81843 9.09653 8.99087 8.67587 9.00204C8.25521 9.01321 7.84635 8.86225 7.53388 8.58039L7.45388 8.51372C7.32746 8.38995 7.15705 8.32148 6.98014 8.32335C6.80323 8.32523 6.63431 8.3973 6.51054 8.52372C6.38677 8.65014 6.3183 8.82055 6.32017 8.99746C6.32205 9.17437 6.39412 9.34329 6.52054 9.46706C6.56919 9.51635 6.62038 9.56308 6.67388 9.60706C7.24366 10.1007 7.97936 10.36 8.73274 10.3328C9.48612 10.3056 10.2012 9.99385 10.7339 9.46039L13.7672 6.42706C14.3281 5.86977 14.6457 5.11321 14.6507 4.32255C14.6557 3.5319 14.3477 2.77138 13.7939 2.20706Z" fill="#4D82F3"/>
</g>
</svg>
