<svg width="20" height="20" viewBox="0 0 20 20" fill="none" xmlns="http://www.w3.org/2000/svg">
<path d="M1.25 11H4.93C5.25918 11 5.58329 11.0812 5.87357 11.2364C6.16384 11.3917 6.4113 11.6162 6.594 11.89L7.406 13.11C7.5887 13.3838 7.83616 13.6083 8.12643 13.7636C8.41671 13.9188 8.74082 14 9.07 14H10.93C11.2592 14 11.5833 13.9188 11.8736 13.7636C12.1638 13.6083 12.4113 13.3838 12.594 13.11L13.406 11.89C13.5887 11.6162 13.8362 11.3917 14.1264 11.2364C14.4167 11.0812 14.7408 11 15.07 11H18.75" stroke="#475569" stroke-width="1.5" stroke-linecap="round" stroke-linejoin="round"/>
<path d="M3.45 2.11L1.288 9.957C1.09707 10.6492 1.0002 11.364 1 12.082V17C1 17.5304 1.21071 18.0391 1.58579 18.4142C1.96086 18.7893 2.46957 19 3 19H17C17.5304 19 18.0391 18.7893 18.4142 18.4142C18.7893 18.0391 19 17.5304 19 17V12.082C18.9998 11.364 18.9029 10.6492 18.712 9.957L16.55 2.11C16.3844 1.77679 16.1292 1.49637 15.813 1.30028C15.4967 1.10419 15.1321 1.0002 14.76 1H5.24C4.86792 1.0002 4.50326 1.10419 4.18704 1.30028C3.87083 1.49637 3.61558 1.77679 3.45 2.11Z" stroke="#475569" stroke-width="1.5" stroke-linecap="round" stroke-linejoin="round"/>
<path d="M8.30005 6.742L9.33405 7.924C9.42905 8.032 9.60005 8.024 9.68405 7.907L11.784 5" stroke="#475569" stroke-width="1.5" stroke-linecap="round" stroke-linejoin="round"/>
</svg>
