<svg width="20" height="20" viewBox="0 0 20 20" fill="none" xmlns="http://www.w3.org/2000/svg">
<path fill-rule="evenodd" clip-rule="evenodd" d="M10.4 2H9.6C7.88684 2 6.72225 2.00156 5.82208 2.0751C4.94524 2.14674 4.49684 2.27659 4.18404 2.43597C3.43139 2.81947 2.81947 3.43139 2.43597 4.18404C2.27659 4.49684 2.14674 4.94524 2.0751 5.82208C2.00156 6.72225 2 7.88684 2 9.6V10.4C2 12.1132 2.00156 13.2777 2.0751 14.1779C2.14674 15.0548 2.27659 15.5032 2.43597 15.816C2.81947 16.5686 3.43139 17.1805 4.18404 17.564C4.49684 17.7234 4.94524 17.8533 5.82208 17.9249C6.72225 17.9984 7.88684 18 9.6 18H10.4C12.1132 18 13.2777 17.9984 14.1779 17.9249C15.0548 17.8533 15.5032 17.7234 15.816 17.564C16.5686 17.1805 17.1805 16.5686 17.564 15.816C17.7234 15.5032 17.8533 15.0548 17.9249 14.1779C17.9984 13.2777 18 12.1132 18 10.4V9.6C18 7.88684 17.9984 6.72225 17.9249 5.82208C17.8533 4.94524 17.7234 4.49684 17.564 4.18404C17.1805 3.43139 16.5686 2.81947 15.816 2.43597C15.5032 2.27659 15.0548 2.14674 14.1779 2.0751C13.2777 2.00156 12.1132 2 10.4 2ZM0.653961 3.27606C0 4.55953 0 6.23969 0 9.6V10.4C0 13.7603 0 15.4405 0.653961 16.7239C1.2292 17.8529 2.14708 18.7708 3.27606 19.346C4.55953 20 6.23969 20 9.6 20H10.4C13.7603 20 15.4405 20 16.7239 19.346C17.8529 18.7708 18.7708 17.8529 19.346 16.7239C20 15.4405 20 13.7603 20 10.4V9.6C20 6.23969 20 4.55953 19.346 3.27606C18.7708 2.14708 17.8529 1.2292 16.7239 0.653961C15.4405 0 13.7603 0 10.4 0H9.6C6.23969 0 4.55953 0 3.27606 0.653961C2.14708 1.2292 1.2292 2.14708 0.653961 3.27606Z" fill="#27364B"/>
<path fill-rule="evenodd" clip-rule="evenodd" d="M10 13C11.6569 13 13 11.6569 13 10C13 8.34315 11.6569 7 10 7C8.34315 7 7 8.34315 7 10C7 11.6569 8.34315 13 10 13ZM10 15C12.7614 15 15 12.7614 15 10C15 7.23858 12.7614 5 10 5C7.23858 5 5 7.23858 5 10C5 12.7614 7.23858 15 10 15Z" fill="#27364B"/>
<path d="M16.5851 4.66724C16.5851 5.3402 16.0396 5.88574 15.3666 5.88574C14.6937 5.88574 14.1481 5.3402 14.1481 4.66724C14.1481 3.99427 14.6937 3.44873 15.3666 3.44873C16.0396 3.44873 16.5851 3.99427 16.5851 4.66724Z" fill="#27364B"/>
</svg>
