<svg width="20" height="20" viewBox="0 0 20 20" fill="none" xmlns="http://www.w3.org/2000/svg">
<g id="nonicons:loading-16" clip-path="url(#clip0_13996_13062)">
<path id="Vector" fill-rule="evenodd" clip-rule="evenodd" d="M9.63422 0.360745C9.35672 0.450745 9.19672 0.610745 9.11922 0.871995C9.07547 1.01825 9.06797 1.35825 9.06797 3.13325C9.06797 5.4845 9.06547 5.4545 9.30547 5.6945C9.62672 6.0145 10.3767 6.0145 10.698 5.6945C10.938 5.4545 10.9355 5.4845 10.9355 3.13325C10.9355 0.858245 10.9317 0.818245 10.7467 0.598245C10.5917 0.414495 10.4255 0.353245 10.0517 0.343245C9.91232 0.335348 9.77248 0.34121 9.63422 0.360745ZM3.44297 2.83075C3.24547 2.92075 2.95422 3.20575 2.85297 3.40825C2.80088 3.50934 2.77246 3.62095 2.76986 3.73464C2.76726 3.84833 2.79055 3.96113 2.83797 4.0645C2.93047 4.27075 5.83547 7.18575 6.06422 7.302C6.38922 7.46866 6.71964 7.38783 7.05547 7.0595C7.38547 6.737 7.47297 6.387 7.30547 6.06075C7.18922 5.832 4.27422 2.927 4.06797 2.8345C3.96938 2.79196 3.86323 2.7697 3.75585 2.76906C3.64848 2.76841 3.54207 2.78939 3.44297 2.83075ZM16.068 2.85075C15.9142 2.922 15.6517 3.16825 14.3992 4.4245C13.248 5.57825 12.8967 5.95075 12.8405 6.07325C12.794 6.17488 12.77 6.28537 12.7702 6.39713C12.7705 6.5089 12.7948 6.61929 12.8417 6.72075C12.9292 6.90825 13.2167 7.20325 13.4105 7.30449C13.6067 7.407 13.898 7.40575 14.1017 7.302C14.3105 7.1945 17.198 4.307 17.3055 4.09825C17.3565 3.99072 17.3833 3.8733 17.3839 3.75429C17.3846 3.63527 17.3591 3.51757 17.3092 3.4095C17.1709 3.17816 16.9755 2.98621 16.7417 2.852C16.6382 2.79622 16.5226 2.76692 16.405 2.7667C16.2874 2.76648 16.1717 2.79536 16.068 2.85075ZM0.875472 9.11325C0.507138 9.22908 0.323388 9.52366 0.324222 9.997C0.325472 10.4807 0.505472 10.7707 0.874222 10.8807C1.02172 10.9245 1.35047 10.932 3.13672 10.932C4.99797 10.932 5.24672 10.9257 5.39922 10.8757C5.51134 10.8391 5.61323 10.7766 5.69664 10.6932C5.78004 10.6098 5.84259 10.5079 5.87922 10.3957C5.98672 10.0645 5.93297 9.5945 5.76172 9.362C5.69346 9.28696 5.61268 9.22436 5.52297 9.177L5.35172 9.082L3.18547 9.0745C1.44172 9.0695 0.990472 9.07699 0.875472 9.11325ZM14.683 9.09575C14.514 9.14249 14.3613 9.23508 14.2417 9.36325C14.0705 9.5945 14.0167 10.0645 14.1242 10.3957C14.1967 10.6207 14.3792 10.8032 14.6042 10.8757C14.7567 10.9257 15.0055 10.932 16.8667 10.932C18.653 10.932 18.9817 10.9245 19.1292 10.8807C19.498 10.7707 19.678 10.4807 19.6792 9.997C19.6792 9.51575 19.4955 9.227 19.1142 9.112C18.9855 9.07325 18.5817 9.06575 16.8717 9.06824C15.7242 9.07075 14.7392 9.08325 14.683 9.09575ZM6.06797 12.8507C5.91422 12.922 5.65172 13.1682 4.39922 14.4245C3.24797 15.5782 2.89672 15.9507 2.84047 16.0732C2.79398 16.1749 2.77002 16.2854 2.77023 16.3971C2.77045 16.5089 2.79484 16.6193 2.84172 16.7207C2.92922 16.9082 3.21672 17.2032 3.41047 17.3045C3.60672 17.407 3.89797 17.4057 4.10172 17.302C4.31047 17.1945 7.19797 14.307 7.30547 14.0982C7.3565 13.9907 7.38329 13.8733 7.38394 13.7543C7.38459 13.6353 7.35908 13.5176 7.30922 13.4095C7.17088 13.1782 6.97548 12.9862 6.74172 12.852C6.63824 12.7962 6.52256 12.7669 6.405 12.7667C6.28745 12.7665 6.17166 12.7954 6.06797 12.8507ZM13.443 12.8307C13.2455 12.9207 12.9542 13.2057 12.853 13.4082C12.8009 13.5093 12.7725 13.6209 12.7699 13.7346C12.7673 13.8483 12.7906 13.9611 12.838 14.0645C12.9305 14.2707 15.8355 17.1857 16.0642 17.302C16.3892 17.4687 16.7196 17.3878 17.0555 17.0595C17.3855 16.737 17.473 16.387 17.3055 16.0607C17.1892 15.832 14.2742 12.927 14.068 12.8345C13.9694 12.792 13.8632 12.7697 13.7559 12.7691C13.6485 12.7684 13.5421 12.7894 13.443 12.8307ZM9.68297 14.0945C9.51414 14.1422 9.36156 14.2351 9.24172 14.3632C9.06922 14.5957 9.06797 14.612 9.06797 16.8595C9.06797 18.6495 9.07547 18.9782 9.11922 19.1257C9.22756 19.4924 9.52172 19.6753 10.0017 19.6745C10.4817 19.6762 10.7759 19.4932 10.8842 19.1257C10.9617 18.8607 10.9605 14.842 10.8817 14.6107C10.8574 14.5176 10.813 14.4308 10.7517 14.3566C10.6904 14.2823 10.6136 14.2223 10.5267 14.1807C10.3892 14.1057 10.3092 14.087 10.073 14.0782C9.94276 14.0701 9.81205 14.0755 9.68297 14.0945Z" fill="#4D82F3"/>
</g>
<defs>
<clipPath id="clip0_13996_13062">
<rect width="20" height="20" fill="white"/>
</clipPath>
</defs>
</svg>
