<svg width="18" height="18" viewBox="0 0 18 18" fill="none" xmlns="http://www.w3.org/2000/svg">
<g id="Frame 1487651770" clip-path="url(#clip0_13336_7406)">
<g id="Logout">
<path id="Rectangle 74" d="M11.0293 14.0278V14.7184C11.0293 15.9495 10.0314 16.9474 8.80033 16.9474H3.22901C1.99798 16.9474 1.00004 15.9495 1.00004 14.7184V3.27975C1.00004 2.04872 1.99798 1.05078 3.22901 1.05078H8.80033C10.0314 1.05078 11.0293 2.04872 11.0293 3.27975V4.5553" stroke="#64748B" stroke-width="1.89462" stroke-linecap="round"/>
</g>
<path id="Union" fill-rule="evenodd" clip-rule="evenodd" d="M13.3769 12.7543C13.3769 12.9686 13.634 13.0782 13.7886 12.9298L17.6979 9.17643C17.7976 9.08071 17.7976 8.92125 17.6979 8.82552L13.7886 5.07217C13.634 4.92373 13.3769 5.0333 13.3769 5.24763V6.77431C13.3769 6.90864 13.268 7.01754 13.1337 7.01754H7.253C7.11867 7.01754 7.00977 7.12645 7.00977 7.26078V10.7435C7.00977 10.8779 7.11867 10.9868 7.253 10.9868H13.1337C13.268 10.9868 13.3769 11.0957 13.3769 11.23V12.7543Z" fill="#64748B"/>
</g>
<defs>
<clipPath id="clip0_13336_7406">
<rect width="18" height="18" fill="white"/>
</clipPath>
</defs>
</svg>
