<svg width="18" height="18" viewBox="0 0 18 18" fill="none" xmlns="http://www.w3.org/2000/svg">
<g id="Frame 1487651763" clip-path="url(#clip0_13336_7398)">
<path id="Icon" fill-rule="evenodd" clip-rule="evenodd" d="M0.344727 1.91704C0.344727 1.04814 1.04296 0.34375 1.91802 0.34375H6.63941C7.50832 0.34375 8.21271 1.04198 8.21271 1.91704V6.63844C8.21271 7.50734 7.51448 8.21173 6.63941 8.21173H1.91802C1.04911 8.21173 0.344727 7.5135 0.344727 6.63844V1.91704ZM9.78711 1.91704C9.78711 1.04814 10.4853 0.34375 11.3604 0.34375H16.0818C16.9507 0.34375 17.6551 1.04198 17.6551 1.91704V6.63844C17.6551 7.50734 16.9569 8.21173 16.0818 8.21173H11.3604C10.4915 8.21173 9.78711 7.5135 9.78711 6.63844V1.91704ZM9.78711 11.3584C9.78711 10.4895 10.4853 9.78516 11.3604 9.78516H16.0818C16.9507 9.78516 17.6551 10.4834 17.6551 11.3584V16.0798C17.6551 16.9487 16.9569 17.6531 16.0818 17.6531H11.3604C10.4915 17.6531 9.78711 16.9549 9.78711 16.0798V11.3584ZM0.344727 11.3584C0.344727 10.4895 1.04296 9.78516 1.91802 9.78516H6.63941C7.50832 9.78516 8.21271 10.4834 8.21271 11.3584V16.0798C8.21271 16.9487 7.51448 17.6531 6.63941 17.6531H1.91802C1.04911 17.6531 0.344727 16.9549 0.344727 16.0798V11.3584Z" fill="#64748B"/>
</g>
<defs>
<clipPath id="clip0_13336_7398">
<rect width="18" height="18" fill="white"/>
</clipPath>
</defs>
</svg>
