<svg width="16" height="16" viewBox="0 0 16 16" fill="none" xmlns="http://www.w3.org/2000/svg">
<path fill-rule="evenodd" clip-rule="evenodd" d="M14.5 8C14.5 9.72391 13.8152 11.3772 12.5962 12.5962C11.3772 13.8152 9.72391 14.5 8 14.5C6.27609 14.5 4.62279 13.8152 3.40381 12.5962C2.18482 11.3772 1.5 9.72391 1.5 8C1.5 6.27609 2.18482 4.62279 3.40381 3.40381C4.62279 2.18482 6.27609 1.5 8 1.5C9.72391 1.5 11.3772 2.18482 12.5962 3.40381C13.8152 4.62279 14.5 6.27609 14.5 8ZM16 8C16 10.1217 15.1571 12.1566 13.6569 13.6569C12.1566 15.1571 10.1217 16 8 16C5.87827 16 3.84344 15.1571 2.34315 13.6569C0.842855 12.1566 0 10.1217 0 8C0 5.87827 0.842855 3.84344 2.34315 2.34315C3.84344 0.842855 5.87827 0 8 0C10.1217 0 12.1566 0.842855 13.6569 2.34315C15.1571 3.84344 16 5.87827 16 8ZM8 10.25C8 10.6478 7.84196 11.0294 7.56066 11.3107C7.27936 11.592 6.89782 11.75 6.5 11.75C6.10218 11.75 5.72064 11.592 5.43934 11.3107C5.15804 11.0294 5 10.6478 5 10.25C5 9.85218 5.15804 9.47064 5.43934 9.18934C5.72064 8.90804 6.10218 8.75 6.5 8.75C6.89782 8.75 7.27936 8.90804 7.56066 9.18934C7.84196 9.47064 8 9.85218 8 10.25ZM4.516 8C4.15799 8.31587 3.88054 8.71263 3.70672 9.1573C3.53289 9.60197 3.4677 10.0817 3.51657 10.5566C3.56544 11.0316 3.72696 11.488 3.9877 11.8879C4.24844 12.2879 4.60087 12.6198 5.0157 12.8562C5.43053 13.0925 5.89578 13.2264 6.37278 13.2468C6.84979 13.2672 7.32476 13.1734 7.75824 12.9733C8.19171 12.7732 8.57117 12.4725 8.86506 12.0963C9.15896 11.72 9.35881 11.279 9.448 10.81C9.90181 10.9797 10.39 11.0369 10.8707 10.9768C11.3515 10.9167 11.8105 10.7411 12.2086 10.465C12.6067 10.1888 12.932 9.82033 13.1567 9.39106C13.3813 8.96179 13.4987 8.4845 13.4987 8C13.4987 7.5155 13.3813 7.03821 13.1567 6.60894C12.932 6.17967 12.6067 5.81121 12.2086 5.53505C11.8105 5.25889 11.3515 5.08325 10.8707 5.02316C10.39 4.96307 9.90181 5.02032 9.448 5.19C9.35881 4.72097 9.15896 4.28 8.86506 3.90374C8.57117 3.52748 8.19171 3.22679 7.75824 3.02668C7.32476 2.82657 6.84979 2.7328 6.37278 2.75317C5.89578 2.77355 5.43053 2.90748 5.0157 3.14383C4.60087 3.38018 4.24844 3.71212 3.9877 4.11207C3.72696 4.51203 3.56544 4.96843 3.51657 5.44336C3.4677 5.91829 3.53289 6.39803 3.70672 6.8427C3.88054 7.28737 4.15799 7.68413 4.516 8ZM6.5 7.25C6.89782 7.25 7.27936 7.09196 7.56066 6.81066C7.84196 6.52936 8 6.14782 8 5.75C8 5.35218 7.84196 4.97064 7.56066 4.68934C7.27936 4.40804 6.89782 4.25 6.5 4.25C6.10218 4.25 5.72064 4.40804 5.43934 4.68934C5.15804 4.97064 5 5.35218 5 5.75C5 6.14782 5.15804 6.52936 5.43934 6.81066C5.72064 7.09196 6.10218 7.25 6.5 7.25ZM10.5 9.5C10.8978 9.5 11.2794 9.34196 11.5607 9.06066C11.842 8.77936 12 8.39782 12 8C12 7.60218 11.842 7.22064 11.5607 6.93934C11.2794 6.65804 10.8978 6.5 10.5 6.5C10.1022 6.5 9.72064 6.65804 9.43934 6.93934C9.15804 7.22064 9 7.60218 9 8C9 8.39782 9.15804 8.77936 9.43934 9.06066C9.72064 9.34196 10.1022 9.5 10.5 9.5Z" fill="#475569"/>
</svg>
