<svg width="20" height="20" viewBox="0 0 20 20" fill="none" xmlns="http://www.w3.org/2000/svg">
<g id="icn_matching">
<path id="Vector" d="M18.5093 1.36583C18.3521 1.20875 18.1559 1.09641 17.9409 1.04038C17.7258 0.984353 17.4997 0.986667 17.2859 1.04708H17.2742L2.27884 5.59708C2.0354 5.66724 1.81903 5.80972 1.65839 6.00563C1.49775 6.20154 1.40044 6.44164 1.37934 6.69411C1.35825 6.94658 1.41436 7.1995 1.54026 7.41936C1.66616 7.63921 1.85589 7.81562 2.08431 7.92521L8.71869 11.1565L11.9452 17.7869C12.0456 18.0011 12.2052 18.1821 12.4051 18.3084C12.605 18.4348 12.8369 18.5014 13.0734 18.5002C13.1093 18.5002 13.1452 18.4986 13.1812 18.4955C13.4335 18.4751 13.6734 18.378 13.8689 18.2173C14.0644 18.0565 14.2061 17.8399 14.2749 17.5963L18.8218 2.60099V2.58927C18.883 2.37596 18.8863 2.1502 18.8314 1.93519C18.7765 1.72018 18.6653 1.52366 18.5093 1.36583ZM13.0804 17.2385L13.0765 17.2494V17.244L9.94681 10.8143L13.6968 7.06427C13.8091 6.94611 13.8707 6.78876 13.8686 6.62579C13.8666 6.46281 13.8009 6.3071 13.6856 6.19185C13.5704 6.07659 13.4147 6.01093 13.2517 6.00884C13.0887 6.00675 12.9314 6.06841 12.8132 6.18068L9.06322 9.93068L2.63119 6.80099H2.62572H2.63665L17.6249 2.25021L13.0804 17.2385Z" fill="#4D82F3"/>
</g>
</svg>
