<svg width="16" height="16" viewBox="0 0 16 16" fill="none" xmlns="http://www.w3.org/2000/svg">
<path id="Vector" d="M10.5946 0.675241L10.6729 0.744408L15.2562 5.32774C15.3967 5.46897 15.4819 5.65585 15.4965 5.85452C15.5111 6.05318 15.454 6.25049 15.3356 6.41069C15.2172 6.57089 15.0453 6.68339 14.8512 6.72779C14.657 6.7722 14.4533 6.74557 14.2771 6.65274L11.6337 9.29524L10.4471 12.4594C10.4158 12.5429 10.3713 12.6208 10.3154 12.6902L10.2571 12.7569L9.00706 14.0069C8.86346 14.1503 8.67249 14.2363 8.46997 14.2489C8.26745 14.2615 8.0673 14.1997 7.90706 14.0752L7.82789 14.0061L5.50039 11.6794L2.33956 14.8394C2.18959 14.9889 1.98836 15.0756 1.77674 15.0821C1.56511 15.0886 1.35896 15.0142 1.20016 14.8742C1.04136 14.7342 0.941804 14.5389 0.921726 14.3282C0.901648 14.1174 0.962549 13.9069 1.09206 13.7394L1.16123 13.6611L4.32123 10.5002L1.99456 8.17274C1.85108 8.02925 1.76489 7.83833 1.75215 7.63581C1.73942 7.43329 1.80102 7.23308 1.92539 7.07274L1.99456 6.99441L3.24456 5.74441C3.30744 5.68131 3.38002 5.62869 3.45956 5.58857L3.54123 5.55357L6.70456 4.36607L9.34706 1.72441C9.25695 1.55593 9.22747 1.36161 9.26355 1.17399C9.29964 0.986375 9.39909 0.816853 9.54527 0.693822C9.69144 0.570791 9.87545 0.501724 10.0665 0.49819C10.2575 0.494655 10.4439 0.557701 10.5946 0.675241Z" fill="#4D82F3"/>
</svg>
