<svg width="28" height="28" viewBox="0 0 28 28" fill="none" xmlns="http://www.w3.org/2000/svg">
<g id="icn_search">
<path id="Union" fill-rule="evenodd" clip-rule="evenodd" d="M19 12.25C19 15.9779 15.9779 19 12.25 19C8.52208 19 5.5 15.9779 5.5 12.25C5.5 8.52208 8.52208 5.5 12.25 5.5C15.9779 5.5 19 8.52208 19 12.25ZM17.7082 19.0893C16.2118 20.2851 14.3144 21 12.25 21C7.41751 21 3.5 17.0825 3.5 12.25C3.5 7.41751 7.41751 3.5 12.25 3.5C17.0825 3.5 21 7.41751 21 12.25C21 14.3152 20.2845 16.2134 19.0878 17.71C19.1495 17.749 19.2078 17.7953 19.2615 17.849L23.6955 22.283C24.086 22.6735 24.086 23.3067 23.6955 23.6972C23.3049 24.0877 22.6718 24.0877 22.2813 23.6972L17.8473 19.2633C17.7935 19.2095 17.7472 19.1511 17.7082 19.0893Z" fill="#27364B"/>
</g>
</svg>
