<svg width="20" height="20" viewBox="0 0 20 20" fill="none" xmlns="http://www.w3.org/2000/svg">
<g id="icn_matching">
<path id="Vector" d="M19.0781 2.58565V2.59737L14.5312 17.5927C14.4624 17.8362 14.3207 18.0529 14.1252 18.2137C13.9297 18.3744 13.6897 18.4715 13.4374 18.4919C13.4015 18.495 13.3656 18.4966 13.3296 18.4966C13.0932 18.4973 12.8615 18.4304 12.6619 18.3038C12.4623 18.1771 12.3031 17.996 12.2031 17.7817L9.35931 11.9458C9.33086 11.8873 9.32136 11.8214 9.33214 11.7573C9.34293 11.6931 9.37345 11.634 9.41947 11.588L13.9445 7.063C14.0567 6.94483 14.1184 6.78749 14.1163 6.62451C14.1142 6.46154 14.0485 6.30582 13.9333 6.19057C13.818 6.07532 13.6623 6.00965 13.4994 6.00757C13.3364 6.00548 13.179 6.06714 13.0609 6.1794L8.53353 10.7044C8.48757 10.7504 8.42839 10.7809 8.36425 10.7917C8.30011 10.8025 8.2342 10.793 8.17572 10.7646L2.33431 7.92159C2.10589 7.81201 1.91616 7.6356 1.79026 7.41574C1.66436 7.19589 1.60825 6.94297 1.62934 6.6905C1.65044 6.43803 1.74775 6.19793 1.90839 6.00201C2.06903 5.8061 2.2854 5.66363 2.52884 5.59347L17.5242 1.04659H17.5359C17.7494 0.986609 17.975 0.984506 18.1896 1.0405C18.4042 1.09649 18.6 1.20857 18.757 1.36522C18.9139 1.52188 19.0264 1.71747 19.0828 1.93194C19.1393 2.14641 19.1376 2.37203 19.0781 2.58565Z" fill="#4D82F3"/>
</g>
</svg>
