<svg width="16" height="16" viewBox="0 0 16 16" fill="none" xmlns="http://www.w3.org/2000/svg">
<path fill-rule="evenodd" clip-rule="evenodd" d="M9.11146 4.66109C8.8932 4.81241 8.64699 4.91875 8.3872 4.9739C8.1274 5.02905 7.85923 5.0319 7.59832 4.98229C7.33741 4.93268 7.08899 4.8316 6.86756 4.68495C6.64614 4.53831 6.45614 4.34903 6.30865 4.12816C6.16116 3.90729 6.05914 3.65926 6.00854 3.39854C5.95794 3.13783 5.95977 2.86964 6.01393 2.60964C6.06809 2.34963 6.17349 2.10302 6.32399 1.88419C6.47448 1.66536 6.66705 1.47869 6.89046 1.33509C7.33154 1.04375 7.87003 0.938877 8.38821 1.0434C8.90639 1.14793 9.36211 1.45335 9.65576 1.8929C9.94941 2.33245 10.0571 2.87038 9.9553 3.3891C9.85349 3.90782 9.55047 4.36514 9.11246 4.66109H9.11146ZM8.55646 2.16709C8.44756 2.08874 8.324 2.03311 8.19315 2.00351C8.0623 1.9739 7.92684 1.97093 7.79481 1.99477C7.66279 2.0186 7.53692 2.06876 7.42468 2.14225C7.31244 2.21574 7.21614 2.31106 7.14151 2.42254C7.06688 2.53402 7.01544 2.65938 6.99026 2.79115C6.96507 2.92292 6.96666 3.05841 6.99493 3.18956C7.0232 3.3207 7.07756 3.44482 7.15479 3.55452C7.23202 3.66421 7.33053 3.75725 7.44446 3.82809C7.66457 3.9618 7.92779 4.00543 8.17927 3.9499C8.43076 3.89436 8.65112 3.74394 8.79446 3.52997C8.93779 3.316 8.99305 3.05498 8.94871 2.80128C8.90438 2.54758 8.76387 2.32076 8.55646 2.16809V2.16709ZM11.1665 2.19709C11.4549 2.00309 11.8019 1.91573 12.1478 1.95004C12.4937 1.98436 12.8168 2.1382 13.0615 2.38509C13.2358 2.56084 13.3644 2.77668 13.4359 3.01369C13.5074 3.2507 13.5196 3.50163 13.4715 3.74447C13.4235 3.98732 13.3165 4.21466 13.1601 4.40655C13.0037 4.59844 12.8026 4.74902 12.5745 4.84509C12.3005 4.95993 11.9984 4.99025 11.7071 4.93217C11.4158 4.87408 11.1484 4.73023 10.9395 4.51909C10.7823 4.3611 10.662 4.17033 10.5871 3.96042C10.5123 3.75051 10.4848 3.52665 10.5066 3.30487C10.5284 3.08308 10.5989 2.86886 10.7132 2.67752C10.8274 2.48618 10.9825 2.32247 11.1675 2.19809L11.1665 2.19709ZM11.6465 3.80709C11.7403 3.90058 11.8675 3.95294 12 3.95266C12.0656 3.95252 12.1306 3.93946 12.1911 3.91423C12.2517 3.88899 12.3067 3.85208 12.353 3.80559C12.3993 3.7591 12.4359 3.70395 12.4609 3.64329C12.4859 3.58262 12.4987 3.51763 12.4985 3.45203C12.4984 3.38642 12.4853 3.32149 12.4601 3.26093C12.4349 3.20037 12.3979 3.14538 12.3515 3.09909C12.2589 3.00464 12.1327 2.9507 12.0005 2.94909C11.9345 2.94909 11.8693 2.96212 11.8084 2.98743C11.7476 3.01275 11.6923 3.04985 11.6458 3.09659C11.5994 3.14334 11.5626 3.19882 11.5377 3.25982C11.5127 3.32083 11.5001 3.38617 11.5005 3.45209C11.5001 3.51813 11.5128 3.58359 11.5378 3.64469C11.5629 3.7058 11.5998 3.76033 11.6465 3.80709ZM3.19046 12.4851H5.00046V13.4901H3.19046C2.87367 13.4869 2.571 13.3586 2.34846 13.1331C2.23748 13.0212 2.14963 12.8885 2.08992 12.7427C2.03021 12.5969 1.99981 12.4407 2.00046 12.2831V10.4731C1.86586 10.4684 1.73358 10.4366 1.61158 10.3795C1.48957 10.3225 1.38035 10.2414 1.29046 10.1411C1.19473 10.0447 1.11965 9.92981 1.06979 9.80344C1.01993 9.67708 0.996339 9.54187 1.00046 9.40609V7.22409C1.00346 6.75209 1.19046 6.30109 1.52046 5.96609C1.84946 5.63509 2.29446 5.44609 2.76046 5.44309H4.60046C4.35201 5.73848 4.16502 6.08049 4.05046 6.44909H2.76046C2.55754 6.45511 2.3645 6.53804 2.22046 6.68109C2.07935 6.82662 2.00045 7.02138 2.00046 7.22409V9.45609H3.00046V12.2821C2.99802 12.3093 3.0012 12.3368 3.0098 12.3628C3.0184 12.3887 3.03224 12.4127 3.05046 12.4331C3.09066 12.4642 3.13968 12.4817 3.19046 12.4831V12.4851ZM10.4905 5.96709C10.3267 5.80209 10.132 5.67098 9.91749 5.58124C9.70301 5.4915 9.47295 5.4449 9.24046 5.44409H6.76046C6.29439 5.44836 5.84881 5.63629 5.52046 5.96709C5.19046 6.30209 5.00346 6.75309 5.00046 7.22509V10.4031C4.99905 10.676 5.10292 10.9389 5.29046 11.1371C5.38035 11.2374 5.48957 11.3185 5.61158 11.3755C5.73358 11.4326 5.86586 11.4644 6.00046 11.4691V13.7921C5.99941 13.9507 6.02981 14.1079 6.08988 14.2546C6.14996 14.4014 6.23852 14.5348 6.35046 14.6471C6.53046 14.8151 6.75746 14.9241 7.00046 14.9591H9.00046C9.28173 14.9222 9.53943 14.7826 9.72402 14.5672C9.90861 14.3517 10.0071 14.0757 10.0005 13.7921V11.4681C10.1351 11.4634 10.2673 11.4316 10.3893 11.3745C10.5113 11.3175 10.6206 11.2364 10.7105 11.1361C10.8061 11.0398 10.8811 10.9251 10.9309 10.7989C10.9808 10.6727 11.0044 10.5377 11.0005 10.4021V7.22409C11.0012 6.75427 10.8181 6.30379 10.4905 5.96709ZM10.0005 10.4521H9.00046V13.7921C8.99971 13.8448 8.97814 13.8952 8.94046 13.9321C8.9234 13.9523 8.90186 13.9682 8.87756 13.9786C8.85325 13.9891 8.82685 13.9937 8.80046 13.9921H7.19046C7.1382 13.9897 7.08873 13.9678 7.05174 13.9308C7.01475 13.8938 6.99289 13.8443 6.99046 13.7921V10.4521H6.00046V7.22409C6.00046 7.02109 6.07946 6.82609 6.22046 6.68109C6.3645 6.53804 6.55754 6.45511 6.76046 6.44909H9.24046C9.39189 6.45201 9.53919 6.49896 9.66438 6.5842C9.78957 6.66943 9.88724 6.78927 9.94546 6.92909C9.98224 7.02307 10.0009 7.12317 10.0005 7.22409V10.4521ZM12.8105 13.4891H11.0005V12.4841H12.8005C12.8512 12.4827 12.9003 12.4652 12.9405 12.4341C12.9606 12.4144 12.9764 12.3907 12.9867 12.3645C12.997 12.3383 13.0017 12.3102 13.0005 12.2821V9.45609H14.0005V7.22409C14.0005 7.02138 13.9216 6.82662 13.7805 6.68109C13.6364 6.53804 13.4434 6.45511 13.2405 6.44909H11.9505C11.8359 6.08049 11.6489 5.73848 11.4005 5.44309H13.2405C13.7065 5.44736 14.1521 5.63529 14.4805 5.96609C14.8105 6.30109 14.9975 6.75209 15.0005 7.22409V9.40609C15.0005 9.67909 14.8975 9.94109 14.7115 10.1391C14.5255 10.3381 14.2715 10.4571 14.0005 10.4721V12.2821C14.0005 12.6011 13.8755 12.9061 13.6525 13.1321C13.4299 13.3576 13.1272 13.4859 12.8105 13.4891ZM4.00046 1.94309C3.70277 1.9422 3.41163 2.03051 3.1646 2.19663C2.91756 2.36275 2.72594 2.59906 2.61446 2.87509C2.50188 3.15077 2.47277 3.45345 2.53072 3.74555C2.58868 4.03764 2.73115 4.30627 2.94046 4.51809C3.15003 4.72945 3.41784 4.87354 3.7097 4.93196C4.00155 4.99038 4.3042 4.96047 4.57897 4.84605C4.85374 4.73163 5.08817 4.5379 5.25231 4.28961C5.41645 4.04131 5.50284 3.74972 5.50046 3.45209C5.50046 3.05209 5.34246 2.66809 5.06046 2.38509C4.92147 2.2454 4.75632 2.13446 4.57444 2.05862C4.39256 1.98278 4.19752 1.94352 4.00046 1.94309ZM4.00046 3.95509C3.93455 3.95509 3.86928 3.94206 3.80842 3.91674C3.74756 3.89143 3.69231 3.85433 3.64584 3.80758C3.59937 3.76083 3.56261 3.70536 3.53766 3.64435C3.51271 3.58334 3.50006 3.518 3.50046 3.45209C3.50072 3.31928 3.55339 3.19195 3.64701 3.09776C3.74064 3.00357 3.86766 2.95014 4.00046 2.94909C4.13278 2.95167 4.25891 3.00559 4.35221 3.09945C4.44551 3.19331 4.49867 3.31976 4.50046 3.45209C4.5002 3.58489 4.44753 3.71223 4.35391 3.80642C4.26028 3.90061 4.13326 3.95403 4.00046 3.95509Z" fill="#475569"/>
</svg>
