<svg width="24" height="24" viewBox="0 0 24 24" fill="none" xmlns="http://www.w3.org/2000/svg">
<g id="Frame 1487651494">
<rect width="24" height="24" rx="12" fill="#FF345F"/>
<path id="!" d="M13.0119 13.149C12.9987 13.6626 12.5786 14.072 12.0649 14.072C11.5512 14.072 11.1311 13.6626 11.1179 13.149L10.9825 7.86829C10.9669 7.25965 11.4561 6.75781 12.0649 6.75781C12.6737 6.75781 13.1629 7.25965 13.1473 7.86829L13.0119 13.149ZM10.8675 16.1206C10.8627 15.9042 10.9132 15.7046 11.019 15.5219C11.1296 15.3344 11.2787 15.1877 11.4662 15.0819C11.6537 14.9761 11.8581 14.9232 12.0793 14.9232C12.2909 14.9232 12.4881 14.9761 12.6708 15.0819C12.8535 15.1877 13.0002 15.3344 13.1108 15.5219C13.2214 15.7046 13.2767 15.9042 13.2767 16.1206C13.2767 16.3418 13.2214 16.5462 13.1108 16.7337C13.0002 16.9165 12.8535 17.0631 12.6708 17.1737C12.4881 17.2795 12.2909 17.3324 12.0793 17.3324C11.8581 17.3324 11.6537 17.2795 11.4662 17.1737C11.2787 17.0631 11.1296 16.9165 11.019 16.7337C10.9132 16.5462 10.8627 16.3418 10.8675 16.1206Z" fill="#FCFCFD"/>
</g>
</svg>
