<svg width="48" height="49" viewBox="0 0 48 49" fill="none" xmlns="http://www.w3.org/2000/svg">
<g id="icn_upload">
<path id="Vector 18575" d="M24.6968 10.8032C24.312 10.4183 23.688 10.4183 23.3032 10.8032L17.0316 17.0747C16.6467 17.4596 16.6467 18.0836 17.0316 18.4684C17.4164 18.8533 18.0404 18.8533 18.4253 18.4684L24 12.8937L29.5747 18.4684C29.9596 18.8533 30.5836 18.8533 30.9684 18.4684C31.3533 18.0836 31.3533 17.4596 30.9684 17.0747L24.6968 10.8032ZM23.0145 29.5C23.0145 30.0443 23.4557 30.4855 24 30.4855C24.5443 30.4855 24.9855 30.0443 24.9855 29.5L23.0145 29.5ZM23.0145 11.5L23.0145 29.5L24.9855 29.5L24.9855 11.5L23.0145 11.5Z" fill="#94A3B8"/>
<path id="Vector 18576" d="M9 27.9297V35.5925C9 36.9732 10.1193 38.0925 11.5 38.0925H36.5C37.8807 38.0925 39 36.9732 39 35.5925V27.9297" stroke="#94A3B8" stroke-width="1.6894" stroke-linecap="round"/>
</g>
</svg>
