<svg width="44" height="45" viewBox="0 0 44 45" fill="none" xmlns="http://www.w3.org/2000/svg">
<g id="Frame 1487651494">
<rect x="0.199219" y="0.703125" width="43.6015" height="43.6015" rx="21.8007" fill="#CBD4E1"/>
<path id="!" d="M23.8434 24.5955C23.8195 25.5285 23.0563 26.2723 22.1231 26.2723C21.1898 26.2723 20.4266 25.5285 20.4027 24.5955L20.1567 15.0018C20.1283 13.8961 21.017 12.9844 22.1231 12.9844C23.2292 12.9844 24.1178 13.8961 24.0894 15.0018L23.8434 24.5955ZM19.9477 29.994C19.939 29.6009 20.0307 29.2383 20.2229 28.9063C20.4238 28.5656 20.6947 28.2992 21.0354 28.107C21.3761 27.9148 21.7474 27.8187 22.1493 27.8187C22.5337 27.8187 22.8919 27.9148 23.2238 28.107C23.5558 28.2992 23.8223 28.5656 24.0232 28.9063C24.2241 29.2383 24.3246 29.6009 24.3246 29.994C24.3246 30.3959 24.2241 30.7672 24.0232 31.1079C23.8223 31.4399 23.5558 31.7063 23.2238 31.9073C22.8919 32.0995 22.5337 32.1956 22.1493 32.1956C21.7474 32.1956 21.3761 32.0995 21.0354 31.9073C20.6947 31.7063 20.4238 31.4399 20.2229 31.1079C20.0307 30.7672 19.939 30.3959 19.9477 29.994Z" fill="#FCFCFD"/>
</g>
</svg>
