<svg width="16" height="16" viewBox="0 0 16 16" fill="none" xmlns="http://www.w3.org/2000/svg">
<path id="Vector" d="M0.285645 12.5003V15.7142H3.49959L12.9786 6.2352L9.76465 3.02125L0.285645 12.5003ZM15.4641 3.74975C15.5435 3.67046 15.6065 3.57628 15.6495 3.4726C15.6926 3.36891 15.7147 3.25777 15.7147 3.14552C15.7147 3.03328 15.6926 2.92213 15.6495 2.81845C15.6065 2.71477 15.5435 2.62059 15.4641 2.5413L13.4586 0.535796C13.3793 0.456344 13.2851 0.39331 13.1814 0.350302C13.0777 0.307294 12.9666 0.285156 12.8543 0.285156C12.7421 0.285156 12.6309 0.307294 12.5273 0.350302C12.4236 0.39331 12.3294 0.456344 12.2501 0.535796L10.6817 2.1042L13.8956 5.31815L15.4641 3.74975Z" fill="white"/>
</svg>
