<svg width="500" height="500" viewBox="0 0 500 500" fill="none" xmlns="http://www.w3.org/2000/svg">
<g clip-path="url(#clip0_1834_4668)">
<path d="M0 9.99999C0 4.47714 4.47715 0 10 0H490C495.523 0 500 4.47715 500 10V490C500 495.523 495.523 500 490 500H9.99999C4.47714 500 0 495.523 0 490V9.99999Z" fill="#2563EB"/>
<path d="M500 0H0V500H500V0Z" fill="#2563EB"/>
<path fill-rule="evenodd" clip-rule="evenodd" d="M231.739 175.485C231.739 170.247 235.985 166 241.224 166H270.949C276.188 166 280.434 170.247 280.434 175.485V222.174C280.434 230.624 290.651 234.856 296.626 228.881L332.876 192.631C336.58 188.927 342.586 188.927 346.29 192.631L367.997 214.339C371.702 218.043 371.702 224.049 367.997 227.753L327.216 268.534C321.241 274.51 325.473 284.726 333.923 284.726H380.514C385.753 284.726 389.999 288.973 389.999 294.212V324.919C389.999 330.157 385.753 334.404 380.514 334.404H286.582C281.343 334.404 277.097 330.157 277.097 324.919V306.856C277.097 304.341 276.097 301.928 274.318 300.149L270.773 296.604C268.994 294.825 266.582 293.826 264.066 293.826H241.421C236.182 293.826 231.936 298.072 231.936 303.311V324.919C231.936 330.157 227.689 334.404 222.451 334.404H164.647C159.408 334.404 155.162 330.157 155.162 324.919V304.335C155.162 299.096 150.915 294.85 145.677 294.85H119.485C114.247 294.85 110 290.603 110 285.365V176.794C110 171.555 114.247 167.308 119.485 167.308H150.184C155.423 167.308 159.669 171.555 159.669 176.794V275.241C159.669 280.48 163.916 284.726 169.154 284.726H222.254C227.492 284.726 231.739 280.48 231.739 275.241V175.485Z" fill="white"/>
</g>
<defs>
<clipPath id="clip0_1834_4668">
<path d="M0 9.99999C0 4.47714 4.47715 0 10 0H490C495.523 0 500 4.47715 500 10V490C500 495.523 495.523 500 490 500H9.99999C4.47714 500 0 495.523 0 490V9.99999Z" fill="white"/>
</clipPath>
</defs>
</svg>
