<svg width="248" height="138" viewBox="0 0 248 138" fill="none" xmlns="http://www.w3.org/2000/svg">
<rect width="248" height="138" rx="12" fill="#CBD4E1"/>
<path fill-rule="evenodd" clip-rule="evenodd" d="M122.019 58.9924C122.019 58.2501 122.621 57.6484 123.363 57.6484H127.575C128.317 57.6484 128.919 58.2501 128.919 58.9924V65.6083C128.919 66.8056 130.366 67.4053 131.213 66.5586L136.349 61.422C136.874 60.8971 137.725 60.8971 138.25 61.422L141.326 64.4978C141.851 65.0226 141.851 65.8735 141.326 66.3984L135.549 72.1756C134.702 73.0222 135.302 74.4699 136.499 74.4699H143.099C143.842 74.4699 144.443 75.0716 144.443 75.8138V80.1647C144.443 80.907 143.842 81.5087 143.099 81.5087H129.79C129.048 81.5087 128.446 80.907 128.446 80.1647V77.6066C128.446 77.2502 128.304 76.9083 128.052 76.6563L127.55 76.1538C127.298 75.9018 126.956 75.7602 126.6 75.7602H123.39C122.648 75.7602 122.046 76.3619 122.046 77.1041V80.1647C122.046 80.907 121.445 81.5087 120.702 81.5087H112.512C111.77 81.5087 111.168 80.907 111.168 80.1647V77.2491C111.168 76.5069 110.566 75.9052 109.824 75.9052H106.113C105.371 75.9052 104.77 75.3035 104.77 74.5613V59.1777C104.77 58.4354 105.371 57.8337 106.113 57.8337H110.463C111.206 57.8337 111.807 58.4354 111.807 59.1777V73.1259C111.807 73.8682 112.409 74.4699 113.151 74.4699H120.675C121.417 74.4699 122.019 73.8682 122.019 73.1259V58.9924Z" fill="#94A3B8"/>
</svg>
