<svg width="110" height="21" viewBox="0 0 110 21" fill="none" xmlns="http://www.w3.org/2000/svg">
<g id="logo" clip-path="url(#clip0_1328_16633)">
<g id="Group 6">
<g id="Group 4">
<path id="Union" fill-rule="evenodd" clip-rule="evenodd" d="M14.9648 1.16605C14.9648 0.522058 15.4869 0 16.1309 0H19.7852C20.4292 0 20.9512 0.522058 20.9512 1.16605V6.90945C20.9512 7.94829 22.2072 8.46854 22.9418 7.73397L27.3981 3.27765C27.8535 2.82228 28.5918 2.82228 29.0472 3.27765L31.7158 5.94628C32.1712 6.40165 32.1712 7.13996 31.7158 7.59533L26.708 12.6032C25.9734 13.3378 26.4936 14.5938 27.5325 14.5938H33.2567C33.9007 14.5938 34.4227 15.1158 34.4227 15.7598V19.5348C34.4227 20.1788 33.9007 20.7008 33.2567 20.7008H21.709C21.065 20.7008 20.543 20.1788 20.543 19.5348V17.322C20.543 17.0127 20.4201 16.7161 20.2014 16.4975L19.7598 16.0558C19.5411 15.8371 19.2445 15.7143 18.9353 15.7143H16.1551C15.5111 15.7143 14.989 16.2363 14.989 16.8803V19.5348C14.989 20.1788 14.467 20.7008 13.823 20.7008H6.71683C6.07284 20.7008 5.55078 20.1788 5.55078 19.5348V17.0094C5.55078 16.3654 5.02872 15.8434 4.38473 15.8434H1.16605C0.522058 15.8434 0 15.3213 0 14.6773V1.33011C0 0.686121 0.522058 0.164062 1.16605 0.164062H4.94007C5.58407 0.164062 6.10612 0.68612 6.10612 1.33011V13.4277C6.10612 14.0717 6.62818 14.5938 7.27217 14.5938H13.7988C14.4428 14.5938 14.9648 14.0717 14.9648 13.4277V1.16605Z" fill="#27364B"/>
</g>
<g id="Group 5">
<path id="Vector" d="M42.7617 18.5242V1.54688H46.0673V15.5756H54.6352V18.5242H42.7617Z" fill="#27364B"/>
<path id="Vector_2" d="M94.1167 4.71826C94.0505 4.6257 94.0109 4.51993 93.9844 4.41415C93.839 3.76626 93.9844 3.23737 94.4075 2.81426C94.8307 2.40438 95.3595 2.25893 96.0074 2.39115C96.1132 2.4176 96.2322 2.45726 96.3248 2.52337C96.8669 2.88037 97.1445 3.35637 97.1445 3.93815C97.1445 4.37448 96.9859 4.75792 96.6685 5.06203C96.3512 5.37937 95.9678 5.52481 95.5314 5.52481C94.9497 5.53803 94.4737 5.27359 94.1167 4.71826Z" fill="#27364B"/>
<path id="Vector_3" d="M57.4174 4.70263C57.3513 4.61008 57.3117 4.5043 57.2852 4.39852C57.1398 3.75064 57.2852 3.22175 57.7083 2.79864C58.1314 2.38875 58.6603 2.24331 59.3082 2.37553C59.414 2.40197 59.533 2.44164 59.6255 2.50775C60.1677 2.86475 60.4453 3.34075 60.4453 3.92252C60.4453 4.35886 60.2867 4.7423 59.9693 5.04641C59.652 5.36374 59.2685 5.50919 58.8322 5.50919C58.2504 5.52241 57.7744 5.25796 57.4174 4.70263Z" fill="#27364B"/>
<path id="Vector_4" d="M97.1195 7.78125H93.9727V18.4383H97.1195V7.78125Z" fill="#27364B"/>
<path id="Vector_5" d="M60.3773 7.78125H57.2305V18.4383H60.3773V7.78125Z" fill="#27364B"/>
<path id="Vector_6" d="M63.9023 18.5227V5.69714H67.036V7.07225L67.0889 7.09869C68.345 5.9748 69.7465 5.40625 71.3068 5.40625C72.748 5.40625 73.8719 5.8558 74.6916 6.75491C75.4189 7.53502 75.7891 8.79113 75.7891 10.5365V18.5094H72.6422V11.0786C72.6422 10.0208 72.4703 9.29357 72.1265 8.88368C71.7431 8.42091 71.1745 8.18291 70.4341 8.18291C69.178 8.18291 68.0673 8.72502 67.0757 9.79601V18.4962H63.9023V18.5227Z" fill="#27364B"/>
<path id="Vector_7" d="M79.4414 18.443V1.49219H82.5883V11.1444L82.6412 11.1708L87.7449 5.61751H91.5L86.1318 11.3559L91.9893 18.443H88.1019L82.6279 11.6997L82.5751 11.7262V18.4563H79.4414V18.443Z" fill="#27364B"/>
<path id="Vector_8" d="M102.779 17.4778C102.078 16.7374 101.735 15.5077 101.735 13.802V8.3016H99.5V5.61749H101.735V2.20617L104.881 1.66406V5.63072H108.504V8.31482H104.881V13.3657C104.881 14.1987 105 14.8466 105.238 15.3094C105.476 15.7721 105.926 15.9969 106.574 15.9969C107.195 15.9969 107.843 15.8118 108.504 15.4548V18.1389C107.83 18.5356 106.957 18.7339 105.9 18.7339C104.577 18.7339 103.533 18.3108 102.779 17.4778Z" fill="#27364B"/>
</g>
</g>
</g>
<defs>
<clipPath id="clip0_1328_16633">
<rect width="110" height="20.9524" fill="white"/>
</clipPath>
</defs>
</svg>
