<svg width="1920" height="1080" viewBox="0 0 1920 1080" fill="none" xmlns="http://www.w3.org/2000/svg">
<rect width="1920" height="1080" fill="#2563EB"/>
<path fill-rule="evenodd" clip-rule="evenodd" d="M597.344 454.779C597.344 448.826 602.17 444 608.123 444H641.903C647.856 444 652.682 448.826 652.682 454.779V507.844C652.682 517.447 664.292 522.256 671.082 515.466L712.283 474.265C716.493 470.056 723.317 470.056 727.527 474.265L752.196 498.934C756.405 503.143 756.405 509.968 752.196 514.178L705.853 560.52C699.062 567.311 703.872 578.921 713.474 578.921H766.42C772.373 578.921 777.198 583.747 777.198 589.7V624.596C777.198 630.549 772.373 635.375 766.42 635.375H659.674C653.721 635.375 648.895 630.549 648.895 624.596V604.071C648.895 601.212 647.759 598.47 645.738 596.449L641.708 592.419C639.686 590.398 636.945 589.262 634.086 589.262H608.345C602.392 589.262 597.566 594.088 597.566 600.041V624.596C597.566 630.549 592.74 635.375 586.787 635.375H521.099C515.146 635.375 510.32 630.549 510.32 624.596V601.206C510.32 595.253 505.494 590.427 499.541 590.427H469.779C463.826 590.427 459 585.601 459 579.648V456.267C459 450.314 463.826 445.488 469.779 445.488H504.666C510.619 445.488 515.445 450.314 515.445 456.267V568.142C515.445 574.095 520.271 578.921 526.224 578.921H586.565C592.518 578.921 597.344 574.095 597.344 568.142V454.779Z" fill="white"/>
<path d="M854.297 615.261V458.324H884.853V588.005H964.055V615.261H854.297Z" fill="white"/>
<path d="M1329.02 487.658C1328.41 486.802 1328.04 485.824 1327.8 484.846C1326.45 478.857 1327.8 473.968 1331.71 470.057C1335.62 466.268 1340.51 464.924 1346.5 466.146C1347.47 466.39 1348.57 466.757 1349.43 467.368C1354.44 470.668 1357.01 475.068 1357.01 480.446C1357.01 484.48 1355.54 488.024 1352.61 490.835C1349.67 493.769 1346.13 495.113 1342.1 495.113C1336.72 495.236 1332.32 492.791 1329.02 487.658Z" fill="white"/>
<path d="M989.784 487.527C989.173 486.672 988.806 485.694 988.562 484.716C987.217 478.727 988.562 473.838 992.473 469.927C996.384 466.138 1001.27 464.794 1007.26 466.016C1008.24 466.26 1009.34 466.627 1010.2 467.238C1015.21 470.538 1017.77 474.938 1017.77 480.316C1017.77 484.35 1016.31 487.894 1013.37 490.705C1010.44 493.639 1006.9 494.983 1002.86 494.983C997.484 495.105 993.084 492.661 989.784 487.527Z" fill="white"/>
<path d="M1356.77 516.014H1327.68V614.527H1356.77V516.014Z" fill="white"/>
<path d="M1017.15 516.014H988.056V614.527H1017.15V516.014Z" fill="white"/>
<path d="M1049.73 615.26V496.702H1078.69V509.414L1079.18 509.658C1090.8 499.269 1103.75 494.013 1118.17 494.013C1131.5 494.013 1141.89 498.169 1149.46 506.48C1156.19 513.691 1159.61 525.303 1159.61 541.437V615.138H1130.52V546.448C1130.52 536.67 1128.93 529.947 1125.75 526.158C1122.21 521.881 1116.95 519.68 1110.11 519.68C1098.5 519.68 1088.23 524.692 1079.06 534.592V615.016H1049.73V615.26Z" fill="white"/>
<path d="M1193.34 614.527V457.834H1222.43V547.058L1222.92 547.303L1270.1 495.968H1304.81L1255.19 549.014L1309.33 614.527H1273.4L1222.8 552.192L1222.31 552.436V614.649H1193.34V614.527Z" fill="white"/>
<path d="M1409.08 605.604C1402.6 598.76 1399.42 587.393 1399.42 571.626V520.78H1378.76V495.968H1399.42V464.434L1428.51 459.423V496.091H1462V520.902H1428.51V567.592C1428.51 575.293 1429.61 581.282 1431.81 585.559C1434.01 589.837 1438.17 591.915 1444.16 591.915C1449.9 591.915 1455.89 590.204 1462 586.904V611.716C1455.77 615.382 1447.7 617.216 1437.92 617.216C1425.7 617.216 1416.04 613.305 1409.08 605.604Z" fill="white"/>
</svg>
