<svg width="92" height="18" viewBox="0 0 92 18" fill="none" xmlns="http://www.w3.org/2000/svg">
<g clip-path="url(#clip0_6077_12891)">
<path fill-rule="evenodd" clip-rule="evenodd" d="M12.517 1.21328C12.517 0.674667 12.9536 0.238037 13.4922 0.238037H16.5486C17.0872 0.238037 17.5238 0.674668 17.5238 1.21328V6.01377C17.5238 6.88262 18.5743 7.31774 19.1887 6.70337L22.9158 2.97624C23.2966 2.59539 23.9141 2.59539 24.295 2.97624L26.5269 5.20819C26.9078 5.58905 26.9078 6.20654 26.5269 6.58739L22.3338 10.7805C21.7195 11.3949 22.1546 12.4453 23.0234 12.4453H27.8139C28.3525 12.4453 28.7891 12.882 28.7891 13.4206V16.5778C28.7891 17.1164 28.3525 17.5531 27.8139 17.5531H18.1559C17.6173 17.5531 17.1806 17.1164 17.1806 16.5778V14.7207C17.1806 14.462 17.0779 14.214 16.895 14.0311L16.5304 13.6665C16.3476 13.4836 16.0995 13.3809 15.8408 13.3809H13.5125C12.9739 13.3809 12.5372 13.8175 12.5372 14.3561V16.5778C12.5372 17.1164 12.1006 17.5531 11.562 17.5531H5.6187C5.08009 17.5531 4.64346 17.1164 4.64346 16.5778V14.4614C4.64346 13.9228 4.20683 13.4862 3.66821 13.4862H0.97524C0.436629 13.4862 0 13.0496 0 12.511V1.34781C0 0.809204 0.43663 0.372574 0.975241 0.372574H4.1317C4.67031 0.372574 5.10694 0.809204 5.10694 1.34781V11.4701C5.10694 12.0087 5.54357 12.4453 6.08218 12.4453H11.5418C12.0804 12.4453 12.517 12.0087 12.517 11.4701V1.21328Z" fill="#2563EB"/>
<path d="M35.7651 15.7331V1.53394H38.5298V13.2671H45.6957V15.7331H35.7651Z" fill="#2563EB"/>
<path d="M78.7164 4.18798C78.6611 4.11057 78.628 4.0221 78.6058 3.93363C78.4842 3.39176 78.6058 2.94942 78.9597 2.59555C79.3136 2.25273 79.7559 2.13109 80.2978 2.24167C80.3863 2.26379 80.4858 2.29696 80.5632 2.35226C81.0166 2.65084 81.2488 3.04895 81.2488 3.53552C81.2488 3.90046 81.1161 4.22115 80.8507 4.4755C80.5853 4.74091 80.2646 4.86255 79.8997 4.86255C79.4131 4.87361 79.015 4.65244 78.7164 4.18798Z" fill="#2563EB"/>
<path d="M48.0236 4.17626C47.9683 4.09885 47.9351 4.01038 47.913 3.92191C47.7913 3.38004 47.913 2.9377 48.2669 2.58383C48.6207 2.24101 49.0631 2.11937 49.6049 2.22995C49.6934 2.25207 49.7929 2.28525 49.8703 2.34054C50.3237 2.63912 50.556 3.03723 50.556 3.5238C50.556 3.88874 50.4233 4.20944 50.1579 4.46378C49.8925 4.72919 49.5718 4.85083 49.2068 4.85083C48.7203 4.86189 48.3221 4.64072 48.0236 4.17626Z" fill="#2563EB"/>
<path d="M81.2267 6.75366H78.5947V15.6669H81.2267V6.75366Z" fill="#2563EB"/>
<path d="M50.4991 6.75366H47.8672V15.6669H50.4991V6.75366Z" fill="#2563EB"/>
<path d="M53.4473 15.7331V5.00635H56.0681V6.15644L56.1124 6.17855C57.1629 5.23858 58.3351 4.76306 59.6401 4.76306C60.8454 4.76306 61.7854 5.13905 62.471 5.89103C63.0793 6.54349 63.3889 7.59405 63.3889 9.05378V15.7221H60.757V9.50718C60.757 8.6225 60.6132 8.01427 60.3257 7.67146C60.005 7.28441 59.5295 7.08536 58.9102 7.08536C57.8596 7.08536 56.9307 7.53876 56.1013 8.4345V15.711H53.4473V15.7331Z" fill="#2563EB"/>
<path d="M66.4414 15.6668V1.48975H69.0733V9.56249L69.1176 9.58461L73.3862 4.94001H76.5268L72.037 9.73943L76.936 15.6668H73.6848L69.1065 10.0269L69.0623 10.0491V15.6779H66.4414V15.6668Z" fill="#2563EB"/>
<path d="M85.9598 14.8596C85.3737 14.2403 85.0862 13.2119 85.0862 11.7853V7.18494H83.2173V4.94005H85.0862V2.08695L87.7181 1.63354V4.95111H90.7482V7.196H87.7181V11.4204C87.7181 12.1171 87.8176 12.6589 88.0167 13.046C88.2157 13.433 88.5917 13.621 89.1336 13.621C89.6534 13.621 90.1952 13.4662 90.7482 13.1676V15.4125C90.1842 15.7443 89.4543 15.9101 88.5696 15.9101C87.4638 15.9101 86.5901 15.5563 85.9598 14.8596Z" fill="#2563EB"/>
</g>
<defs>
<clipPath id="clip0_6077_12891">
<rect width="92" height="17.5238" fill="white" transform="translate(0 0.238037)"/>
</clipPath>
</defs>
</svg>
