<svg width="330" height="222" viewBox="0 0 330 222" fill="none" xmlns="http://www.w3.org/2000/svg">
<path d="M102.978 131.742H89.0972V108.283H33.4346C30.6584 108.283 29.2703 106.895 29.2703 104.119V98.0114C29.2703 94.4024 29.5479 92.7367 31.4913 90.0993L83.406 17.5019H102.978V95.7905H115.471V108.283H102.978V131.742ZM89.0972 95.7905V31.7993L43.1513 95.7905H89.0972ZM173.034 132.297H156.932C136.11 132.297 126.394 122.581 126.394 101.759V47.4848C126.394 26.6633 136.11 16.9467 156.932 16.9467H173.034C193.855 16.9467 203.572 26.6633 203.572 47.4848V101.759C203.572 122.581 193.855 132.297 173.034 132.297ZM189.691 104.813V44.4309C189.691 35.4083 183.444 29.1619 174.422 29.1619H155.544C146.521 29.1619 140.275 35.4083 140.275 44.4309V104.813C140.275 113.836 146.521 120.082 155.544 120.082H174.422C183.444 120.082 189.691 113.836 189.691 104.813ZM288.419 131.742H274.538V108.283H218.875C216.099 108.283 214.711 106.895 214.711 104.119V98.0114C214.711 94.4024 214.989 92.7367 216.932 90.0993L268.847 17.5019H288.419V95.7905H300.912V108.283H288.419V131.742ZM274.538 95.7905V31.7993L228.592 95.7905H274.538Z" fill="#CBD4E1"/>
<path d="M25.5664 183.894V211.824H21.7913V183.894H25.5664ZM19.9191 184.446V210.504H16.2054V197.552H13.5045V194.053H16.2054V184.446H19.9191ZM14.149 187.055V190.217H12.3689V201.818C13.1515 201.757 13.9035 201.68 14.6094 201.573L14.8856 204.396C10.466 205.348 4.75725 205.44 1.25837 205.44L0.828679 202.217H3.16127V190.217H1.35044V187.055H14.149ZM6.62946 202.156L8.80859 202.064V190.217H6.62946V202.156ZM51.6853 183.894V211.885H47.726V183.894H51.6853ZM36.5234 185.858C40.7282 185.858 43.8588 189.725 43.8588 195.802C43.8588 201.941 40.7282 205.777 36.5234 205.777C32.2266 205.777 29.096 201.941 29.1267 195.802C29.096 189.725 32.2266 185.858 36.5234 185.858ZM36.5234 189.388C34.3443 189.388 32.9018 191.659 32.9018 195.802C32.9018 199.977 34.3443 202.217 36.5234 202.217C38.6412 202.217 40.0837 199.977 40.0837 195.802C40.0837 191.659 38.6412 189.388 36.5234 189.388ZM66.2946 191.506C66.2946 196.017 68.5965 200.836 73.2924 202.8L71.1747 205.869C67.8753 204.473 65.6041 201.695 64.361 198.289C63.0873 201.987 60.7701 205.056 57.486 206.575L55.2455 203.475C59.88 201.419 62.274 196.232 62.274 191.506V189.787H56.3504V186.595H72.1261V189.787H66.2946V191.506ZM78.8477 183.894V211.824H74.8884V183.894H78.8477ZM108.158 196.416V199.332H82.5921V196.416H108.158ZM105.089 200.713V207.312H89.4364V208.908H105.918V211.578H85.5385V204.826H101.222V203.414H85.5078V200.713H105.089ZM105.059 184.385V190.953H89.6819V192.457H105.55V195.097H85.784V188.467H101.13V187.055H85.7227V184.385H105.059ZM132.958 186.595V189.695H127.31C127.372 192.442 129.397 195.265 133.848 196.386L132.129 199.393C128.906 198.58 126.666 196.831 125.407 194.605C124.164 197.061 121.924 199.01 118.655 199.915L116.814 196.815C121.264 195.664 123.351 192.718 123.412 189.695H117.796V186.595H123.412V183.771H127.372V186.595H132.958ZM139.188 183.894V190.155H142.963V193.378H139.188V199.823H135.259V183.894H139.188ZM139.526 201.02V204.089H132.436C133.142 206.146 135.889 208.141 140.753 208.785L139.372 211.762C134.876 211.164 131.715 209.368 130.103 206.974C128.507 209.353 125.361 211.102 120.926 211.701L119.515 208.724C124.425 208.125 127.141 206.192 127.863 204.089H120.711V201.02H139.526ZM156.928 184.293C163.343 184.293 167.056 185.981 167.087 189.05C167.056 192.15 163.343 193.838 156.928 193.838C150.483 193.838 146.738 192.15 146.738 189.05C146.738 185.981 150.483 184.293 156.928 184.293ZM156.928 187.147C152.815 187.147 150.82 187.823 150.851 189.05C150.82 190.431 152.815 190.953 156.928 190.953C161.071 190.953 163.036 190.431 163.036 189.05C163.036 187.823 161.071 187.147 156.928 187.147ZM169.665 195.158V198.258H144.191V195.158H169.665ZM166.565 199.884V207.005H151.004V208.693H167.302V211.64H147.168V204.273H162.698V202.739H147.137V199.884H166.565ZM193.421 186.073C193.421 189.357 196.766 193.009 203.181 193.807L201.646 196.969C196.766 196.263 193.191 194.007 191.364 190.984C189.523 194.007 185.978 196.263 181.144 196.969L179.579 193.807C185.932 193.009 189.308 189.357 189.308 186.073V184.723H193.421V186.073ZM204.071 199.086V202.278H193.206V211.824H189.339V202.278H178.597V199.086H204.071ZM219.724 200.222V203.015H222.732V200.222H226.353V208.693C229.453 207.312 230.773 204.703 230.773 202.156V200.007H234.701V202.156C234.671 205.01 236.052 207.711 239.551 208.847L237.525 211.762C235.116 210.934 233.566 209.338 232.676 207.343C231.74 209.276 230.205 210.888 227.949 211.762L226.353 209.338V211.517H216.102V200.222H219.724ZM219.724 208.54H222.732V205.9H219.724V208.54ZM220.798 184.937C224.358 184.937 227.197 186.917 227.98 189.879H232.645V183.894H236.543V198.687H232.645V193.102H227.98C227.228 196.125 224.374 198.135 220.798 198.135C216.501 198.135 213.34 195.403 213.371 191.506C213.34 187.669 216.501 184.937 220.798 184.937ZM220.798 188.16C218.619 188.16 217.054 189.449 217.084 191.506C217.054 193.623 218.619 194.912 220.798 194.943C222.916 194.912 224.45 193.623 224.45 191.506C224.45 189.449 222.916 188.16 220.798 188.16ZM247.009 200.652V203.015H258.518V200.652H262.416V211.517H243.142V200.652H247.009ZM247.009 208.448H258.518V205.992H247.009V208.448ZM265.639 196.079V199.24H240.165V196.079H265.639ZM254.927 185.122C254.927 187.915 258.15 191.076 264.381 191.782L262.999 194.851C258.181 194.237 254.697 192.242 252.902 189.541C251.106 192.242 247.607 194.237 242.835 194.851L241.423 191.782C247.653 191.045 250.876 187.976 250.907 185.122V184.17H254.927V185.122ZM290.806 183.894V211.824H286.908V183.894H290.806ZM272.698 186.564V201.573C276.473 201.527 280.525 201.174 284.637 200.376L285.128 203.598C280.218 204.611 275.614 204.949 271.286 204.918H268.831V186.564H272.698ZM316.526 183.894V194.268H320.639V197.46H316.526V211.885H312.598V183.894H316.526ZM308.7 186.472V189.633H299.492V201.879C303.544 201.833 306.889 201.649 310.603 200.989L311.032 204.273C306.705 205.01 302.899 205.133 297.958 205.102H295.594V186.472H308.7ZM325.273 209.276C323.831 209.276 322.665 208.11 322.695 206.698C322.665 205.286 323.831 204.151 325.273 204.151C326.624 204.151 327.821 205.286 327.821 206.698C327.821 208.11 326.624 209.276 325.273 209.276Z" fill="#CBD4E1"/>
</svg>
