<svg width="44" height="44" viewBox="0 0 44 44" fill="none" xmlns="http://www.w3.org/2000/svg">
<g id="Frame 1487651494">
<rect x="0.199219" width="43.6015" height="43.6015" rx="21.8007" fill="#CBD4E1"/>
<path id="!" d="M23.8433 23.8885C23.8194 24.8214 23.0562 25.5653 22.1229 25.5653C21.1897 25.5653 20.4265 24.8214 20.4026 23.8885L20.1566 14.2948C20.1282 13.189 21.0168 12.2773 22.1229 12.2773C23.229 12.2773 24.1177 13.189 24.0893 14.2948L23.8433 23.8885ZM19.9476 29.287C19.9389 28.8939 20.0306 28.5313 20.2228 28.1993C20.4237 27.8586 20.6945 27.5921 21.0353 27.3999C21.376 27.2077 21.7473 27.1116 22.1491 27.1116C22.5335 27.1116 22.8917 27.2077 23.2237 27.3999C23.5557 27.5921 23.8222 27.8586 24.0231 28.1993C24.224 28.5313 24.3245 28.8939 24.3245 29.287C24.3245 29.6889 24.224 30.0602 24.0231 30.4009C23.8222 30.7328 23.5557 30.9993 23.2237 31.2002C22.8917 31.3924 22.5335 31.4885 22.1491 31.4885C21.7473 31.4885 21.376 31.3924 21.0353 31.2002C20.6945 30.9993 20.4237 30.7328 20.2228 30.4009C20.0306 30.0602 19.9389 29.6889 19.9476 29.287Z" fill="#FCFCFD"/>
</g>
</svg>
