<svg width="14" height="15" viewBox="0 0 14 15" fill="none" xmlns="http://www.w3.org/2000/svg">
<path id="Vector" d="M1.97305 4.15639L4.05022 2.07782C5.47026 0.655679 6.17993 -0.0539905 6.94284 0.114144C7.70506 0.282279 8.05043 1.22594 8.74189 3.11255L9.20987 4.38968C9.39411 4.89268 9.48659 5.14418 9.65262 5.33894C9.72702 5.42634 9.8117 5.50443 9.90482 5.57153C10.1122 5.72075 10.37 5.7915 10.8856 5.93372C12.0485 6.25457 12.6307 6.415 12.85 6.79541C12.9448 6.96004 12.9942 7.14695 12.9929 7.33694C12.9901 7.7762 12.5635 8.20284 11.7109 9.05683L10.7189 10.0488L13.8546 13.1873C13.9501 13.2886 14.0025 13.4232 14.0004 13.5624C13.9984 13.7016 13.9422 13.8346 13.8437 13.9331C13.7453 14.0315 13.6123 14.0878 13.4731 14.0898C13.3338 14.0918 13.1993 14.0395 13.098 13.9439L9.96297 10.8054L8.93595 11.8339C8.07706 12.6927 7.64761 13.1229 7.20556 13.1229C7.01991 13.1229 6.83706 13.0753 6.67523 12.9828C6.29132 12.7635 6.13019 12.1778 5.80723 11.0058C5.66572 10.4909 5.59496 10.2338 5.44644 10.0257C5.38129 9.93533 5.30563 9.85266 5.22086 9.77911C5.02821 9.61237 4.77811 9.5185 4.27861 9.33074L2.98677 8.84525C1.12047 8.14469 0.18732 7.79371 0.0233889 7.0336C-0.141244 6.27279 0.562821 5.56732 1.97305 4.15639Z" fill="#2563EB"/>
</svg>
