<svg width="45" height="44" viewBox="0 0 45 44" fill="none" xmlns="http://www.w3.org/2000/svg">
<g id="Frame 1487651494">
<rect x="0.699219" y="0.335938" width="43.6015" height="43.6015" rx="21.8007" fill="#CBD4E1"/>
<path id="!" d="M24.3436 24.2244C24.3196 25.1574 23.5564 25.9012 22.6232 25.9012C21.6899 25.9012 20.9267 25.1574 20.9028 24.2244L20.6568 14.6307C20.6285 13.525 21.5171 12.6133 22.6232 12.6133C23.7293 12.6133 24.6179 13.525 24.5895 14.6307L24.3436 24.2244ZM20.4478 29.6229C20.4391 29.2298 20.5308 28.8672 20.723 28.5352C20.924 28.1945 21.1948 27.9281 21.5355 27.7359C21.8762 27.5437 22.2475 27.4476 22.6494 27.4476C23.0338 27.4476 23.392 27.5437 23.724 27.7359C24.0559 27.9281 24.3224 28.1945 24.5233 28.5352C24.7243 28.8672 24.8247 29.2298 24.8247 29.6229C24.8247 30.0248 24.7243 30.3961 24.5233 30.7368C24.3224 31.0688 24.0559 31.3352 23.724 31.5362C23.392 31.7284 23.0338 31.8245 22.6494 31.8245C22.2475 31.8245 21.8762 31.7284 21.5355 31.5362C21.1948 31.3352 20.924 31.0688 20.723 30.7368C20.5308 30.3961 20.4391 30.0248 20.4478 29.6229Z" fill="#FCFCFD"/>
</g>
</svg>
