<svg width="111" height="21" viewBox="0 0 111 21" fill="none" xmlns="http://www.w3.org/2000/svg">
<path fill-rule="evenodd" clip-rule="evenodd" d="M15 1.1687C15 0.523244 15.5232 0 16.1687 0H19.8313C20.4768 0 21 0.523244 21 1.1687V6.92137C21 7.96257 22.2589 8.484 22.9951 7.74776L27.4616 3.28129C27.918 2.82488 28.658 2.82488 29.1144 3.28129L31.7891 5.95599C32.2455 6.4124 32.2455 7.15238 31.7891 7.60878L26.7641 12.6338C26.0279 13.37 26.5493 14.6288 27.5905 14.6288H33.3313C33.9768 14.6288 34.5 15.1521 34.5 15.7975V19.5811C34.5 20.2266 33.9768 20.7498 33.3313 20.7498H21.7574C21.112 20.7498 20.5887 20.2266 20.5887 19.5811V17.3555C20.5887 17.0455 20.4656 16.7482 20.2464 16.5291L19.8097 16.0923C19.5905 15.8731 19.2932 15.75 18.9833 15.75H16.193C15.5475 15.75 15.0243 16.2732 15.0243 16.9187V19.5811C15.0243 20.2266 14.501 20.7498 13.8556 20.7498H6.73327C6.08782 20.7498 5.56458 20.2266 5.56458 19.5811V17.045C5.56458 16.3995 5.04133 15.8763 4.39588 15.8763H1.1687C0.523244 15.8763 0 15.353 0 14.7076V1.33001C0 0.684559 0.523244 0.161316 1.1687 0.161316H4.9513C5.59675 0.161316 6.12 0.68456 6.12 1.33001V13.4601C6.12 14.1056 6.64324 14.6288 7.2887 14.6288H13.8313C14.4768 14.6288 15 14.1056 15 13.4601V1.1687Z" fill="black"/>
<path d="M51.5889 18.1987V3.0498H54.5384V15.5677H62.1837V18.1987H51.5889Z" fill="black"/>
<path d="M97.4129 5.88148C97.3539 5.79889 97.3185 5.70451 97.2949 5.61012C97.1652 5.03201 97.2949 4.56008 97.6725 4.18254C98.05 3.81679 98.522 3.68701 99.1001 3.80499C99.1945 3.82859 99.3006 3.86398 99.3832 3.92297C99.867 4.24153 100.115 4.66626 100.115 5.18539C100.115 5.57473 99.9731 5.91688 99.69 6.18823C99.4068 6.47139 99.0647 6.60117 98.6753 6.60117C98.1562 6.61297 97.7315 6.37701 97.4129 5.88148Z" fill="black"/>
<path d="M64.6663 5.86879C64.6074 5.7862 64.572 5.69181 64.5484 5.59743C64.4186 5.01931 64.5484 4.54738 64.9259 4.16984C65.3035 3.8041 65.7754 3.67431 66.3535 3.7923C66.4479 3.81589 66.5541 3.85129 66.6366 3.91028C67.1204 4.22883 67.3681 4.65357 67.3681 5.17269C67.3681 5.56203 67.2266 5.90418 66.9434 6.17554C66.6602 6.4587 66.3181 6.58848 65.9288 6.58848C65.4096 6.60028 64.9849 6.36431 64.6663 5.86879Z" fill="black"/>
<path d="M100.091 8.61865H97.2832V18.128H100.091V8.61865Z" fill="black"/>
<path d="M67.3075 8.61865H64.4995V18.128H67.3075V8.61865Z" fill="black"/>
<path d="M70.4541 18.199V6.75468H73.2503V7.98169L73.2975 8.00529C74.4183 7.00244 75.6689 6.49512 77.0611 6.49512C78.3471 6.49512 79.35 6.89625 80.0815 7.69853C80.7304 8.39463 81.0607 9.51546 81.0607 11.0728V18.1872H78.2527V11.5566C78.2527 10.6127 78.0994 9.96379 77.7926 9.59805C77.4504 9.18511 76.9431 8.97274 76.2824 8.97274C75.1616 8.97274 74.1705 9.45647 73.2857 10.4121V18.1754H70.4541V18.199Z" fill="black"/>
<path d="M84.3174 18.128V3.00269H87.1254V11.6154L87.1726 11.639L91.7267 6.68373H95.0774L90.2873 11.8042L95.5139 18.128H92.0452L87.1608 12.1109L87.1136 12.1345V18.1398H84.3174V18.128Z" fill="black"/>
<path d="M105.141 17.2669C104.515 16.6062 104.209 15.509 104.209 13.987V9.07896H102.215V6.68392H104.209V3.63998L107.017 3.15625V6.69572H110.249V9.09076H107.017V13.5977C107.017 14.341 107.123 14.9191 107.335 15.332C107.548 15.745 107.949 15.9455 108.527 15.9455C109.081 15.9455 109.66 15.7804 110.249 15.4618V17.8568C109.648 18.2108 108.869 18.3878 107.925 18.3878C106.745 18.3878 105.813 18.0102 105.141 17.2669Z" fill="black"/>
</svg>
