<svg width="38" height="38" viewBox="0 0 38 38" fill="none" xmlns="http://www.w3.org/2000/svg">
<path id="Vector" d="M28.7898 7.00935C28.3547 7.00935 27.9294 7.13838 27.5676 7.38012C27.2058 7.62186 26.9238 7.96545 26.7573 8.36745C26.5908 8.76944 26.5472 9.21179 26.6321 9.63855C26.717 10.0653 26.9265 10.4573 27.2342 10.765C27.5419 11.0727 27.9339 11.2822 28.3606 11.3671C28.7874 11.452 29.2297 11.4084 29.6317 11.2419C30.0337 11.0754 30.3773 10.7934 30.6191 10.4316C30.8608 10.0698 30.9898 9.64447 30.9898 9.20935C30.9898 8.62587 30.7581 8.06629 30.3455 7.65371C29.9329 7.24113 29.3733 7.00935 28.7898 7.00935V7.00935ZM37.2232 11.446C37.1875 9.9249 36.9026 8.41992 36.3798 6.99102C35.9137 5.76842 35.1881 4.66136 34.2532 3.74602C33.3453 2.8063 32.2357 2.08534 31.0082 1.63768C29.583 1.09898 28.0764 0.807567 26.5532 0.776016C24.6098 0.666016 23.9865 0.666016 18.9998 0.666016C14.0132 0.666016 13.3898 0.666016 11.4465 0.776016C9.92328 0.807567 8.41663 1.09898 6.9915 1.63768C5.76624 2.08987 4.65755 2.81021 3.7465 3.74602C2.80678 4.65384 2.08583 5.76349 1.63817 6.99102C1.09947 8.41614 0.808056 9.92279 0.776504 11.446C0.666504 13.3893 0.666504 14.0127 0.666504 18.9993C0.666504 23.986 0.666504 24.6093 0.776504 26.5527C0.808056 28.0759 1.09947 29.5826 1.63817 31.0077C2.08583 32.2352 2.80678 33.3449 3.7465 34.2527C4.65755 35.1885 5.76624 35.9088 6.9915 36.361C8.41663 36.8997 9.92328 37.1911 11.4465 37.2227C13.3898 37.3327 14.0132 37.3327 18.9998 37.3327C23.9865 37.3327 24.6098 37.3327 26.5532 37.2227C28.0764 37.1911 29.583 36.8997 31.0082 36.361C32.2357 35.9134 33.3453 35.1924 34.2532 34.2527C35.1923 33.3407 35.9185 32.2327 36.3798 31.0077C36.9026 29.5788 37.1875 28.0738 37.2232 26.5527C37.2232 24.6093 37.3332 23.986 37.3332 18.9993C37.3332 14.0127 37.3332 13.3893 37.2232 11.446V11.446ZM33.9232 26.3327C33.9098 27.4964 33.699 28.6495 33.2998 29.7427C33.0071 30.5405 32.5369 31.2615 31.9248 31.851C31.3302 32.4569 30.6108 32.9261 29.8165 33.226C28.7233 33.6252 27.5703 33.836 26.4065 33.8493C24.5732 33.941 23.8948 33.9593 19.0732 33.9593C14.2515 33.9593 13.5732 33.9593 11.7398 33.8493C10.5315 33.872 9.32826 33.6859 8.18317 33.2993C7.42377 32.9842 6.73732 32.5161 6.1665 31.9243C5.558 31.3354 5.09372 30.6139 4.80984 29.816C4.36224 28.7071 4.11398 27.5279 4.0765 26.3327C4.0765 24.4993 3.9665 23.821 3.9665 18.9993C3.9665 14.1777 3.9665 13.4993 4.0765 11.666C4.08472 10.4763 4.30191 9.29725 4.71817 8.18268C5.04092 7.40885 5.53632 6.71906 6.1665 6.16602C6.72349 5.53566 7.41186 5.03502 8.18317 4.69935C9.30068 4.2961 10.4785 4.08533 11.6665 4.07602C13.4998 4.07602 14.1782 3.96602 18.9998 3.96602C23.8215 3.96602 24.4998 3.96602 26.3332 4.07602C27.4969 4.08936 28.65 4.30013 29.7432 4.69935C30.5763 5.00854 31.324 5.51123 31.9248 6.16602C32.5256 6.72918 32.9951 7.41769 33.2998 8.18268C33.7073 9.29906 33.9182 10.4776 33.9232 11.666C34.0148 13.4993 34.0332 14.1777 34.0332 18.9993C34.0332 23.821 34.0148 24.4993 33.9232 26.3327ZM18.9998 9.59435C17.1405 9.59797 15.3239 10.1526 13.7797 11.1883C12.2355 12.2239 11.0329 13.694 10.3238 15.4129C9.6148 17.1318 9.43116 19.0222 9.79613 20.8454C10.1611 22.6686 11.0583 24.3427 12.3743 25.6561C13.6903 26.9696 15.3662 27.8635 17.1901 28.225C19.014 28.5864 20.9041 28.399 22.6215 27.6867C24.339 26.9743 25.8068 25.7688 26.8394 24.2226C27.872 22.6763 28.4232 20.8587 28.4232 18.9993C28.4256 17.762 28.1834 16.5365 27.7104 15.3931C27.2375 14.2497 26.5432 13.2112 25.6674 12.3371C24.7917 11.4631 23.7517 10.7708 22.6075 10.3001C21.4632 9.82935 20.2371 9.58951 18.9998 9.59435V9.59435ZM18.9998 25.1043C17.7924 25.1043 16.612 24.7463 15.6081 24.0755C14.6041 23.4046 13.8216 22.4512 13.3596 21.3356C12.8975 20.2201 12.7766 18.9926 13.0121 17.8083C13.2477 16.6241 13.8291 15.5363 14.6829 14.6825C15.5367 13.8287 16.6246 13.2472 17.8088 13.0117C18.9931 12.7761 20.2206 12.897 21.3361 13.3591C22.4517 13.8211 23.4051 14.6036 24.076 15.6076C24.7468 16.6116 25.1048 17.7919 25.1048 18.9993C25.1048 19.8011 24.9469 20.5949 24.6401 21.3356C24.3333 22.0763 23.8836 22.7493 23.3167 23.3162C22.7498 23.8831 22.0768 24.3328 21.3361 24.6396C20.5954 24.9464 19.8016 25.1043 18.9998 25.1043V25.1043Z" fill="black"/>
</svg>
