<svg width="43" height="43" viewBox="0 0 43 43" fill="none" xmlns="http://www.w3.org/2000/svg">
<path d="M21.4999 5.375C31.8916 5.375 40.3142 11.9397 40.3142 20.0398C40.3142 28.1381 31.8916 34.7028 21.5017 34.7028C20.4672 34.7033 19.4336 34.6375 18.4075 34.5057L10.5098 39.6711C9.61221 40.1459 9.29508 40.0939 9.66417 38.9311L11.2623 32.3414C6.10233 29.7255 2.68921 25.1926 2.68921 20.0398C2.68921 11.9415 11.11 5.375 21.5017 5.375M32.0869 19.8158L34.7206 17.2645C34.8726 17.1067 34.9574 16.896 34.9571 16.6769C34.9569 16.4578 34.8716 16.2474 34.7192 16.0899C34.5669 15.9324 34.3593 15.8403 34.1404 15.8328C33.9214 15.8253 33.708 15.9031 33.5453 16.0498L30.091 19.393V16.6302C30.091 16.406 30.0019 16.1909 29.8433 16.0323C29.6847 15.8737 29.4696 15.7846 29.2453 15.7846C29.021 15.7846 28.8059 15.8737 28.6473 16.0323C28.4887 16.1909 28.3996 16.406 28.3996 16.6302V21.2115C28.368 21.3422 28.368 21.4786 28.3996 21.6093V24.1875C28.3996 24.4118 28.4887 24.6269 28.6473 24.7855C28.8059 24.9441 29.021 25.0332 29.2453 25.0332C29.4696 25.0332 29.6847 24.9441 29.8433 24.7855C30.0019 24.6269 30.091 24.4118 30.091 24.1875V21.7455L30.856 21.0055L33.4145 24.648C33.4784 24.7389 33.5595 24.8164 33.6534 24.8759C33.7472 24.9355 33.8518 24.976 33.9613 24.9951C34.0708 25.0143 34.1829 25.0117 34.2914 24.9874C34.3998 24.9632 34.5025 24.9179 34.5934 24.854C34.6844 24.7901 34.7618 24.709 34.8214 24.6151C34.881 24.5213 34.9215 24.4167 34.9406 24.3072C34.9597 24.1977 34.9571 24.0856 34.9329 23.9771C34.9087 23.8687 34.8633 23.766 34.7995 23.6751L32.0869 19.8158ZM26.7871 23.263H24.1713V16.6571C24.1613 16.4398 24.0679 16.2347 23.9106 16.0845C23.7532 15.9342 23.5441 15.8504 23.3265 15.8504C23.109 15.8504 22.8998 15.9342 22.7425 16.0845C22.5851 16.2347 22.4918 16.4398 22.4818 16.6571V24.1087C22.4818 24.5745 22.858 24.9543 23.3256 24.9543H26.7871C27.0114 24.9543 27.2265 24.8652 27.3851 24.7066C27.5437 24.548 27.6328 24.333 27.6328 24.1087C27.6328 23.8844 27.5437 23.6693 27.3851 23.5107C27.2265 23.3521 27.0114 23.263 26.7871 23.263ZM16.2933 21.3083L17.5403 18.2481L18.6834 21.3065L16.2933 21.3083ZM20.8137 22.1808L20.8173 22.1522C20.8169 21.9391 20.7355 21.7342 20.5897 21.5788L18.7157 16.5622C18.6371 16.3231 18.4875 16.1137 18.2867 15.9619C18.086 15.8102 17.8437 15.7233 17.5923 15.7129C17.339 15.7118 17.0914 15.7878 16.8824 15.9309C16.6734 16.074 16.5129 16.2773 16.4223 16.5138L13.4446 23.8148C13.3598 24.0225 13.3609 24.2553 13.4478 24.4621C13.5346 24.6689 13.7001 24.8328 13.9077 24.9176C14.1154 25.0024 14.3482 25.0013 14.555 24.9144C14.7618 24.8276 14.9257 24.6621 15.0105 24.4545L15.6053 22.9978H19.3141L19.848 24.4312C19.8844 24.5383 19.942 24.637 20.0173 24.7215C20.0925 24.806 20.184 24.8745 20.2862 24.923C20.3885 24.9715 20.4994 24.999 20.6125 25.0039C20.7255 25.0087 20.8384 24.9908 20.9444 24.9512C21.0504 24.9117 21.1474 24.8512 21.2297 24.7735C21.3119 24.6957 21.3777 24.6023 21.4231 24.4986C21.4686 24.395 21.4928 24.2833 21.4943 24.1702C21.4958 24.057 21.4745 23.9447 21.4318 23.8399L20.8137 22.1808ZM14.86 16.6661C14.86 16.4421 14.7711 16.2273 14.6129 16.0687C14.4547 15.9102 14.2401 15.8209 14.0161 15.8204H8.20217C7.97788 15.8204 7.76278 15.9095 7.60419 16.0681C7.4456 16.2267 7.3565 16.4418 7.3565 16.6661C7.3565 16.8904 7.4456 17.1055 7.60419 17.2641C7.76278 17.4227 7.97788 17.5118 8.20217 17.5118H10.2805V24.2054C10.2805 24.4297 10.3696 24.6448 10.5282 24.8034C10.6868 24.962 10.9019 25.0511 11.1262 25.0511C11.3505 25.0511 11.5656 24.962 11.7241 24.8034C11.8827 24.6448 11.9718 24.4297 11.9718 24.2054V17.5118H14.0143C14.2386 17.5118 14.4537 17.4227 14.6123 17.2641C14.7709 17.1055 14.86 16.8904 14.86 16.6661Z" fill="black"/>
</svg>
