<svg width="17" height="18" viewBox="0 0 17 18" fill="none" xmlns="http://www.w3.org/2000/svg">
<path d="M9.34594 14.1632C9.47863 14.296 9.55318 14.4761 9.55318 14.6638C9.55318 14.8515 9.47863 15.0316 9.34594 15.1644L8.46609 16.0495C7.53562 16.9794 6.27387 17.5016 4.9584 17.5011C3.64294 17.5007 2.38152 16.9778 1.45163 16.0473C0.521753 15.1168 -0.000414742 13.8551 2.47168e-07 12.5396C0.000415237 11.2241 0.52338 9.96273 1.45385 9.03285L3.58885 6.89784C4.48259 6.00339 5.68435 5.4843 6.94823 5.44678C8.21211 5.40926 9.44255 5.85616 10.3878 6.69602C10.4575 6.75786 10.5144 6.83283 10.5552 6.91666C10.5959 7.00048 10.6198 7.09151 10.6254 7.18456C10.631 7.2776 10.6182 7.37084 10.5877 7.45894C10.5573 7.54704 10.5098 7.62828 10.448 7.69802C10.3861 7.76777 10.3111 7.82465 10.2273 7.86542C10.1435 7.90619 10.0525 7.93005 9.95942 7.93564C9.86638 7.94123 9.77315 7.92844 9.68505 7.898C9.59695 7.86755 9.5157 7.82006 9.44596 7.75821C8.77086 7.1587 7.89224 6.83974 6.98977 6.86656C6.08729 6.89338 5.22916 7.26395 4.59086 7.9025L2.45585 10.0348C1.79172 10.699 1.41861 11.5997 1.41861 12.539C1.41861 13.4782 1.79172 14.379 2.45585 15.0431C3.11998 15.7072 4.02074 16.0803 4.95997 16.0803C5.89919 16.0803 6.79995 15.7072 7.46409 15.0431L8.34394 14.1632C8.4097 14.0974 8.4878 14.0452 8.57376 14.0095C8.65973 13.9739 8.75188 13.9555 8.84494 13.9555C8.93799 13.9555 9.03014 13.9739 9.11611 14.0095C9.20207 14.0452 9.28017 14.0974 9.34594 14.1632ZM15.5491 1.94802C14.6185 1.01951 13.3576 0.498047 12.043 0.498047C10.7284 0.498047 9.4675 1.01951 8.5369 1.94802L7.65705 2.82876C7.52429 2.96163 7.44976 3.1418 7.44984 3.32963C7.44992 3.51746 7.52462 3.69756 7.65749 3.83032C7.79037 3.96307 7.97054 4.03761 8.15836 4.03753C8.34619 4.03744 8.5263 3.96275 8.65905 3.82987L9.5389 2.95003C10.203 2.28589 11.1038 1.91279 12.043 1.91279C12.9822 1.91279 13.883 2.28589 14.5471 2.95003C15.2113 3.61416 15.5844 4.51492 15.5844 5.45414C15.5844 6.39337 15.2113 7.29413 14.5471 7.95826L12.4121 10.095C11.7735 10.7332 10.9152 11.1033 10.0127 11.1296C9.11023 11.156 8.23179 10.8365 7.55703 10.2367C7.41617 10.1118 7.23147 10.0479 7.04356 10.0592C6.85565 10.0705 6.67992 10.156 6.55503 10.2969C6.43013 10.4377 6.36631 10.6224 6.3776 10.8103C6.38889 10.9982 6.47436 11.174 6.61522 11.2989C7.56021 12.1389 8.79052 12.5862 10.0544 12.549C11.3183 12.5118 12.5202 11.993 13.4141 11.0988L15.5491 8.9638C16.4782 8.03313 17 6.77183 17 5.4568C17 4.14177 16.4782 2.88047 15.5491 1.94979V1.94802Z" fill="#0F1A2A"/>
</svg>
