<svg width="83" height="118" viewBox="0 0 83 118" fill="none" xmlns="http://www.w3.org/2000/svg">
<path id="Vector" d="M70.8597 47.1403V31.1783C71.0198 23.0924 67.9705 15.2723 62.379 9.42914C56.7875 3.58601 49.1091 0.195669 41.024 0C32.9389 0.195669 25.2605 3.58601 19.669 9.42914C14.0775 15.2723 11.0282 23.0924 11.1884 31.1783V47.1403H0V110.541C0 112.519 0.785847 114.417 2.18466 115.815C3.58348 117.214 5.48069 118 7.45891 118H74.5891C76.5674 118 78.4646 117.214 79.8634 115.815C81.2622 114.417 82.048 112.519 82.048 110.541V47.1403H70.8597ZM44.7535 85.2927V95.6233H37.2946V84.957C35.4789 84.0228 34.0372 82.4958 33.2087 80.6294C32.3803 78.7631 32.2149 76.6695 32.7401 74.6963C33.2652 72.723 34.4492 70.9886 36.0957 69.7808C37.7422 68.5731 39.7522 67.9646 41.7921 68.0564C43.832 68.1482 45.7792 68.9348 47.3105 70.2855C48.8419 71.6362 49.8654 73.47 50.2112 75.4825C50.5569 77.4949 50.2042 79.5651 49.2115 81.3495C48.2188 83.1339 46.6458 84.5253 44.7535 85.2927ZM63.4008 47.1403H18.6473V31.1783C18.4865 25.0703 20.7498 19.147 24.9426 14.7025C29.1355 10.2581 34.9171 7.6539 41.024 7.45891C47.131 7.6539 52.9125 10.2581 57.1054 14.7025C61.2982 19.147 63.5616 25.0703 63.4008 31.1783V47.1403Z" fill="#2563EB"/>
</svg>
