<svg width="25" height="24" viewBox="0 0 25 24" fill="none" xmlns="http://www.w3.org/2000/svg">
<g id="vuesax/outline/setting-2">
<g id="setting-2">
<path id="Vector" d="M12.9727 15.75C10.9027 15.75 9.22266 14.07 9.22266 12C9.22266 9.93 10.9027 8.25 12.9727 8.25C15.0427 8.25 16.7227 9.93 16.7227 12C16.7227 14.07 15.0427 15.75 12.9727 15.75ZM12.9727 9.75C11.7327 9.75 10.7227 10.76 10.7227 12C10.7227 13.24 11.7327 14.25 12.9727 14.25C14.2127 14.25 15.2227 13.24 15.2227 12C15.2227 10.76 14.2127 9.75 12.9727 9.75Z" fill="#292D32"/>
<path id="Vector_2" d="M16.1827 22.19C15.9727 22.19 15.7627 22.16 15.5527 22.11C14.9327 21.94 14.4127 21.55 14.0827 21L13.9627 20.8C13.3727 19.78 12.5627 19.78 11.9727 20.8L11.8627 20.99C11.5327 21.55 11.0127 21.95 10.3927 22.11C9.76266 22.28 9.11266 22.19 8.56266 21.86L6.84266 20.87C6.23266 20.52 5.79266 19.95 5.60266 19.26C5.42266 18.57 5.51266 17.86 5.86266 17.25C6.15266 16.74 6.23266 16.28 6.06266 15.99C5.89266 15.7 5.46266 15.53 4.87266 15.53C3.41266 15.53 2.22266 14.34 2.22266 12.88V11.12C2.22266 9.66004 3.41266 8.47004 4.87266 8.47004C5.46266 8.47004 5.89266 8.30004 6.06266 8.01004C6.23266 7.72004 6.16266 7.26004 5.86266 6.75004C5.51266 6.14004 5.42266 5.42004 5.60266 4.74004C5.78266 4.05004 6.22266 3.48004 6.84266 3.13004L8.57266 2.14004C9.70266 1.47004 11.1927 1.86004 11.8727 3.01004L11.9927 3.21004C12.5827 4.23004 13.3927 4.23004 13.9827 3.21004L14.0927 3.02004C14.7727 1.86004 16.2627 1.47004 17.4027 2.15004L19.1227 3.14004C19.7327 3.49004 20.1727 4.06004 20.3627 4.75004C20.5427 5.44004 20.4527 6.15004 20.1027 6.76004C19.8127 7.27004 19.7327 7.73004 19.9027 8.02004C20.0727 8.31004 20.5027 8.48004 21.0927 8.48004C22.5527 8.48004 23.7427 9.67004 23.7427 11.13V12.89C23.7427 14.35 22.5527 15.54 21.0927 15.54C20.5027 15.54 20.0727 15.71 19.9027 16C19.7327 16.29 19.8027 16.75 20.1027 17.26C20.4527 17.87 20.5527 18.59 20.3627 19.27C20.1827 19.96 19.7427 20.53 19.1227 20.88L17.3927 21.87C17.0127 22.08 16.6027 22.19 16.1827 22.19ZM12.9727 18.49C13.8627 18.49 14.6927 19.05 15.2627 20.04L15.3727 20.23C15.4927 20.44 15.6927 20.59 15.9327 20.65C16.1727 20.71 16.4127 20.68 16.6127 20.56L18.3427 19.56C18.6027 19.41 18.8027 19.16 18.8827 18.86C18.9627 18.56 18.9227 18.25 18.7727 17.99C18.2027 17.01 18.1327 16 18.5727 15.23C19.0127 14.46 19.9227 14.02 21.0627 14.02C21.7027 14.02 22.2127 13.51 22.2127 12.87V11.11C22.2127 10.48 21.7027 9.96004 21.0627 9.96004C19.9227 9.96004 19.0127 9.52004 18.5727 8.75004C18.1327 7.98004 18.2027 6.97004 18.7727 5.99004C18.9227 5.73004 18.9627 5.42004 18.8827 5.12004C18.8027 4.82004 18.6127 4.58004 18.3527 4.42004L16.6227 3.43004C16.1927 3.17004 15.6227 3.32004 15.3627 3.76004L15.2527 3.95004C14.6827 4.94004 13.8527 5.50004 12.9627 5.50004C12.0727 5.50004 11.2427 4.94004 10.6727 3.95004L10.5627 3.75004C10.3127 3.33004 9.75266 3.18004 9.32266 3.43004L7.59266 4.43004C7.33266 4.58004 7.13266 4.83004 7.05266 5.13004C6.97266 5.43004 7.01266 5.74004 7.16266 6.00004C7.73266 6.98004 7.80266 7.99004 7.36266 8.76004C6.92266 9.53004 6.01266 9.97004 4.87266 9.97004C4.23266 9.97004 3.72266 10.48 3.72266 11.12V12.88C3.72266 13.51 4.23266 14.03 4.87266 14.03C6.01266 14.03 6.92266 14.47 7.36266 15.24C7.80266 16.01 7.73266 17.02 7.16266 18C7.01266 18.26 6.97266 18.57 7.05266 18.87C7.13266 19.17 7.32266 19.41 7.58266 19.57L9.31266 20.56C9.52266 20.69 9.77266 20.72 10.0027 20.66C10.2427 20.6 10.4427 20.44 10.5727 20.23L10.6827 20.04C11.2527 19.06 12.0827 18.49 12.9727 18.49Z" fill="#292D32"/>
</g>
</g>
</svg>
