<svg width="126" height="50" viewBox="0 0 126 50" fill="none" xmlns="http://www.w3.org/2000/svg">
<path fill-rule="evenodd" clip-rule="evenodd" d="M7 0C3.13401 0 0 3.13401 0 7V27C0 30.866 3.13401 34 7 34H53.685L62.634 49.5C63.0189 50.1667 63.9811 50.1667 64.366 49.5L73.315 34H119C122.866 34 126 30.866 126 27V7C126 3.13401 122.866 0 119 0H7Z" fill="#F1F4F9"/>
<path d="M25.7617 21.1172C24.0039 21.1172 22.7559 20.1738 22.7031 18.7852H24.0156C24.0625 19.5293 24.8008 20.0039 25.75 20.0039C26.7754 20.0039 27.5195 19.4473 27.5195 18.6211C27.5195 17.7832 26.8223 17.1855 25.6094 17.1797H24.8828V16.125H25.6094C26.5762 16.1309 27.25 15.5918 27.25 14.7773C27.25 14.0039 26.6699 13.4766 25.7734 13.4766C24.9238 13.4766 24.1621 13.9512 24.1328 14.7188H22.8906C22.9258 13.3359 24.2031 12.3984 25.7852 12.3984C27.4551 12.3984 28.5039 13.4531 28.4922 14.707C28.5039 15.6738 27.9062 16.3652 26.9922 16.5938V16.6523C28.1523 16.8164 28.8262 17.5957 28.8203 18.668C28.8262 20.0801 27.5195 21.1172 25.7617 21.1172ZM39.4844 19.793V20.707H29.875V19.793H34.1172V17.5078H35.2188V19.793H39.4844ZM30.3438 17.0039C32.5 16.6875 34.0527 15.4688 34.1055 13.9922H30.7422V13.0898H34.1172V11.6836H35.2188V13.0898H38.5938V13.9922H35.2305C35.2832 15.4688 36.8359 16.6875 38.9922 17.0039L38.5703 17.8711C36.8125 17.5957 35.3477 16.7637 34.6621 15.5391C33.9824 16.7637 32.5234 17.5957 30.7656 17.8711L30.3438 17.0039ZM45.5664 12.4219V17.3203H40.6562V12.4219H45.5664ZM41.7461 16.4414H44.4766V13.3242H41.7461V16.4414ZM41.8398 21.7734V18.4453H42.9531V20.8711H48.9414V21.7734H41.8398ZM47.3828 19.1836V11.4844H48.4961V14.625H50.0195V15.5625H48.4961V19.1836H47.3828ZM59.6523 11.4961V21.9961H58.5859V11.4961H59.6523ZM50.7344 16.0312C50.7344 13.7578 51.625 12.334 52.9961 12.3398C54.2734 12.334 55.1348 13.5469 55.2637 15.5156H56.4531V11.6953H57.5195V21.4805H56.4531V16.418H55.2695C55.1699 18.4688 54.2969 19.7402 52.9961 19.7344C51.625 19.7402 50.7344 18.3105 50.7344 16.0312ZM51.7656 16.0312C51.7656 17.7012 52.2402 18.6855 52.9961 18.6797C53.7695 18.6855 54.25 17.7012 54.25 16.0312C54.25 14.3555 53.7695 13.377 52.9961 13.3828C52.2402 13.377 51.7656 14.3555 51.7656 16.0312ZM67.7734 14.168C67.7617 16.084 68.9219 18.0176 70.5508 18.7383L69.8828 19.6172C68.6758 19.043 67.7207 17.8652 67.2285 16.4297C66.7422 17.9707 65.7754 19.2363 64.5156 19.8516L63.8359 18.9141C65.4883 18.1816 66.6484 16.1719 66.6484 14.168V12.375H67.7734V14.168ZM71.5 22.0195V11.4961H72.6133V22.0195H71.5ZM77.957 13.3828C77.9512 14.7246 78.8828 15.9961 80.4883 16.5352L79.9258 17.4023C78.7363 16.9922 77.8633 16.1719 77.4062 15.1406C76.9492 16.2715 76.0352 17.168 74.8047 17.6016L74.207 16.7344C75.8477 16.1777 76.8379 14.8184 76.8438 13.3711V13.0898H74.5352V12.1875H80.2188V13.0898H77.957V13.3828ZM75.6016 19.2422V18.3398H82.5391V21.9961H81.4258V19.2422H75.6016ZM81.4258 17.8242V11.4961H82.5391V14.1914H84.0625V15.1289H82.5391V17.8242H81.4258ZM92.8398 11.4961V15.75H94.5273V16.6758H92.8398V21.9961H91.7383V11.4961H92.8398ZM84.6016 14.0508V13.1367H87.1914V11.6367H88.3047V13.1367H90.8242V14.0508H84.6016ZM85.1406 17.2617C85.1406 15.832 86.2422 14.8242 87.7539 14.8242C89.2598 14.8242 90.3613 15.832 90.3672 17.2617C90.3613 18.7031 89.2598 19.7051 87.7539 19.7109C86.2422 19.7051 85.1406 18.7031 85.1406 17.2617ZM86.207 17.2617C86.2012 18.1758 86.8574 18.7852 87.7539 18.7734C88.6445 18.7852 89.2949 18.1758 89.3008 17.2617C89.2949 16.3652 88.6445 15.7441 87.7539 15.7383C86.8574 15.7441 86.2012 16.3652 86.207 17.2617ZM103.762 11.4961V21.9961H102.637V11.4961H103.762ZM95.1367 19.1836C97.9258 17.8535 99.291 15.9609 99.5078 13.5117H95.6406V12.6211H100.633C100.633 15.6973 99.3262 18.3574 95.7227 20.0859L95.1367 19.1836Z" fill="#0F1A2A"/>
</svg>
