<svg width="82" height="82" viewBox="0 0 82 82" fill="none" xmlns="http://www.w3.org/2000/svg">
<rect width="82" height="82" fill="#F1F4F9"/>
<rect x="13.7421" y="39.2769" width="19.6279" height="19.6279" rx="9.81395" fill="#64748B"/>
<rect x="49.7262" y="39.2769" width="19.6279" height="19.6279" rx="9.81395" fill="#64748B"/>
<path d="M43.1323 81.9985H5.46678V81.0073C5.46678 70.6063 13.8985 62.1746 24.2996 62.1746C34.7006 62.1746 43.1323 70.6063 43.1323 81.0073V81.9985Z" fill="#64748B"/>
<path d="M40.8809 81.9985H78.5464V81.0073C78.5464 70.6063 70.1147 62.1746 59.7136 62.1746C49.3126 62.1746 40.8809 70.6063 40.8809 81.0073V81.9985Z" fill="#64748B"/>
<path d="M42.4588 32.7349H40.1974C38.8 32.7349 38.0461 34.374 38.9555 35.435L40.189 36.8741C40.8802 37.6805 42.1446 37.6246 42.7619 36.7603L43.7898 35.3212C44.5631 34.2386 43.7892 32.7349 42.4588 32.7349Z" fill="#64748B" stroke="#64748B" stroke-width="3.27132"/>
<rect x="20.2849" y="26.1909" width="4.90698" height="4.90698" rx="2.45349" fill="#64748B"/>
<rect x="17.0137" y="16.3774" width="4.90698" height="4.90698" rx="2.45349" fill="#64748B"/>
<rect x="21.9202" y="8.19873" width="4.90698" height="4.90698" rx="2.45349" fill="#64748B"/>
<rect width="4.90698" height="4.90698" rx="2.45349" transform="matrix(-1 0 0 1 61.1763 26.1909)" fill="#64748B"/>
<rect width="4.90698" height="4.90698" rx="2.45349" transform="matrix(-1 0 0 1 64.4475 16.3774)" fill="#64748B"/>
<rect width="4.90698" height="4.90698" rx="2.45349" transform="matrix(-1 0 0 1 59.541 8.19873)" fill="#64748B"/>
<path d="M37.9604 37.5762L37.0052 36.1434C36.2345 34.9873 35.8232 33.6223 35.8232 32.2328C35.8232 29.5415 34.1347 27.1207 32.5887 24.9177C31.6461 23.5746 30.9163 21.8127 30.9163 19.6494C30.9163 13.9246 36.6411 10.6533 40.7302 10.6533C44.8194 10.6533 50.5442 13.9246 50.5442 19.6494C50.5442 21.6939 50.0009 23.3799 49.2782 24.6927C48.0027 27.0095 46.455 29.446 46.455 32.0907V32.2395C46.455 33.6289 46.0437 34.9873 45.273 36.1434L44.3178 37.5762C43.6093 38.639 42.4165 39.2773 41.1391 39.2773C39.8618 39.2773 38.669 38.639 37.9604 37.5762Z" stroke="#64748B" stroke-width="3.27132"/>
</svg>
