<svg width="20" height="22" viewBox="0 0 20 22" fill="none" xmlns="http://www.w3.org/2000/svg">
<path d="M9.81105 11C12.5965 11 14.8545 8.742 14.8545 5.95656C14.8545 3.17113 12.5965 0.913086 9.81105 0.913086C7.02562 0.913086 4.76758 3.17113 4.76758 5.95656C4.76758 8.742 7.02562 11 9.81105 11Z" stroke="black" stroke-width="1.5"/>
<path d="M14.8542 13.0173H15.2089C16.735 13.0173 18.0223 14.1537 18.2116 15.6681L18.6055 18.8192C18.756 20.0233 17.8171 21.0869 16.6036 21.0869H3.01768C1.80423 21.0869 0.865368 20.0233 1.01588 18.8192L1.40977 15.6681C1.59906 14.1537 2.88637 13.0173 4.41249 13.0173H4.7672" stroke="black" stroke-width="1.5" stroke-linecap="round" stroke-linejoin="round"/>
</svg>
