<svg width="234" height="46" viewBox="0 0 234 46" fill="none" xmlns="http://www.w3.org/2000/svg">
<path d="M6.17915 0C2.7665 0 0 2.7665 0 6.17915V25.8208C0 29.2335 2.7665 32 6.17916 32H108.917L116.236 44.6759C116.575 45.2644 117.425 45.2644 117.764 44.6759L125.083 32H227.821C231.234 32 234 29.2335 234 25.8208V6.17915C234 2.7665 231.233 0 227.821 0H6.17915Z" fill="#D3E1FE"/>
<path d="M36.8945 14.7246V15.791H34.9941V22.1484H33.6953V9.91211H34.9941V14.7246H36.8945ZM27.2012 11.1016V17.9922C28.9102 17.9922 30.6943 17.8486 32.6426 17.4453L32.793 18.5391C30.7012 18.9629 28.7598 19.0723 26.9277 19.0723H25.916V11.1016H27.2012Z" fill="#4D82F3"/>
<path d="M41.2285 10.6914C43.1152 10.6914 44.5234 11.8809 44.5234 13.6035C44.5234 15.1211 43.4297 16.2217 41.8848 16.4609V18.4023C42.9717 18.3545 44.0586 18.2725 45.0703 18.1426L45.166 19.1133C42.582 19.5645 39.7246 19.5781 37.6055 19.5645L37.4004 18.498C38.3506 18.4912 39.4443 18.4844 40.5859 18.457V16.4609C39 16.2354 37.9199 15.1279 37.9336 13.6035C37.9199 11.8809 39.3008 10.6914 41.2285 10.6914ZM41.2285 11.7852C40.0527 11.7988 39.1914 12.5098 39.1914 13.6035C39.1914 14.6973 40.0527 15.4219 41.2285 15.4082C42.3906 15.4219 43.2383 14.6973 43.252 13.6035C43.2383 12.5098 42.3906 11.7988 41.2285 11.7852ZM47.1074 9.91211V14.8887H48.9941V15.9824H47.1074V22.1621H45.8086V9.91211H47.1074Z" fill="#4D82F3"/>
<path d="M59.2754 10.7324V16.0098H53.5469V10.7324H59.2754ZM54.8184 11.7715V14.9707H58.0039V11.7715H54.8184ZM62.6934 9.91211V12.7559H64.4707V13.8359H62.6934V16.8574H61.3945V9.91211H62.6934ZM62.8848 17.541V18.5801H59.5352C59.7129 19.7422 61.3057 20.8154 63.3906 21.123L62.9121 22.1211C61.0527 21.834 59.5215 20.9795 58.8105 19.8105C58.1133 20.9863 56.5889 21.834 54.7363 22.1074L54.2578 21.1094C56.3564 20.8154 57.915 19.7764 58.127 18.5801H54.75V17.541H62.8848Z" fill="#4D82F3"/>
<path d="M75.0801 13.4941V14.5332H66.6445V10.3496H67.9297V13.4941H75.0801ZM76.3652 16.0781V17.1172H65.1543V16.0781H76.3652ZM75.1621 20.8086V21.875H66.5488V18.2793H67.8477V20.8086H75.1621Z" fill="#4D82F3"/>
<path d="M87.2754 10.6367V11.7031H82.6953V13.043H86.9336V14.0547H82.6953V15.4766C85.1494 15.4766 86.5781 15.4355 88.2324 15.1484L88.3691 16.1875C86.5918 16.4883 85.0742 16.5293 82.3945 16.5156H81.3828V10.6367H87.2754ZM90.8438 9.92578V17.2129H89.5449V9.92578H90.8438ZM90.8438 17.7871V22.0117H82.791V17.7871H90.8438ZM84.0762 18.7988V20.959H89.5723V18.7988H84.0762Z" fill="#4D82F3"/>
<path d="M99.6074 11.2246V11.9766C99.6074 13.002 99.6074 14.5879 99.252 16.7754L97.9668 16.6797C98.2744 14.7178 98.3086 13.3027 98.3223 12.2773H93.3457V11.2246H99.6074ZM96.4629 14.7246V18.3887C97.7686 18.3477 99.0947 18.2588 100.318 18.1016L100.387 19.0723C97.8301 19.4824 94.9863 19.5371 92.8125 19.5234L92.6621 18.4707C93.4277 18.4639 94.2822 18.457 95.1777 18.4297V14.7246H96.4629ZM102.328 9.91211V14.9707H104.201V16.0781H102.328V22.1621H101.016V9.91211H102.328Z" fill="#4D82F3"/>
<path d="M114.893 10.6367V11.7031H110.312V13.043H114.551V14.0547H110.312V15.4766C112.767 15.4766 114.195 15.4355 115.85 15.1484L115.986 16.1875C114.209 16.4883 112.691 16.5293 110.012 16.5156H109V10.6367H114.893ZM118.461 9.92578V17.2129H117.162V9.92578H118.461ZM118.461 17.7871V22.0117H110.408V17.7871H118.461ZM111.693 18.7988V20.959H117.189V18.7988H111.693Z" fill="#4D82F3"/>
<path d="M130.588 9.92578V19.209H129.289V18.0332H126.828V17.1172H129.289V9.92578H130.588ZM130.889 20.8496V21.9023H122.043V18.3066H123.328V20.8496H130.889ZM120.348 15.5176C122.617 15.5039 125.666 15.4766 128.277 15.1484L128.359 16.0781C127.313 16.249 126.213 16.3652 125.133 16.4336V18.8262H123.834V16.502C122.645 16.5566 121.503 16.5635 120.512 16.5566L120.348 15.5176ZM124.354 10.3906C126.145 10.3906 127.389 11.252 127.389 12.5508C127.389 13.8496 126.145 14.6836 124.354 14.6836C122.535 14.6836 121.305 13.8496 121.305 12.5508C121.305 11.252 122.535 10.3906 124.354 10.3906ZM124.354 11.3613C123.26 11.3477 122.521 11.8125 122.535 12.5508C122.521 13.2754 123.26 13.7266 124.354 13.7266C125.406 13.7266 126.145 13.2754 126.158 12.5508C126.145 11.8125 125.406 11.3477 124.354 11.3613Z" fill="#4D82F3"/>
<path d="M138.08 10.1172C140.842 10.1172 142.455 10.8555 142.455 12.2227C142.455 13.5898 140.842 14.3418 138.08 14.3418C135.318 14.3418 133.705 13.5898 133.705 12.2227C133.705 10.8555 135.318 10.1172 138.08 10.1172ZM138.08 11.0742C136.125 11.0742 135.045 11.498 135.059 12.2227C135.045 12.9746 136.125 13.3711 138.08 13.3711C140.035 13.3711 141.115 12.9746 141.115 12.2227C141.115 11.498 140.035 11.0742 138.08 11.0742ZM143.672 15.0938V16.1328H132.502V15.0938H143.672ZM142.264 17.0762V19.9473H135.127V21.041H142.605V22.0391H133.855V19.0039H140.979V18.0469H133.842V17.0762H142.264Z" fill="#4D82F3"/>
<path d="M152.312 12.4414C152.312 13.8359 153.42 15.1484 155.293 15.668L154.705 16.666C153.276 16.2695 152.23 15.4082 151.684 14.3008C151.144 15.5107 150.07 16.4541 148.621 16.8984L147.992 15.873C149.865 15.3398 151.027 13.9727 151.027 12.4414V12.3047H148.361V11.2656H151.027V9.85742H152.326V11.2656H154.979V12.3047H152.312V12.4414ZM157.645 9.91211V12.8516H159.422V13.9316H157.645V16.9805H156.346V9.91211H157.645ZM157.836 17.5957V18.6348H154.486C154.719 19.7764 156.291 20.8223 158.342 21.123L157.863 22.1211C156.004 21.834 154.473 20.9795 153.762 19.8105C153.058 20.9727 151.54 21.8135 149.688 22.1074L149.209 21.1094C151.267 20.8223 152.818 19.8105 153.064 18.6348H149.701V17.5957H157.836Z" fill="#4D82F3"/>
<path d="M163.4 10.8281C165.232 10.8281 166.531 12.4961 166.545 15.1211C166.531 17.7598 165.232 19.4277 163.4 19.4277C161.568 19.4277 160.256 17.7598 160.27 15.1211C160.256 12.4961 161.568 10.8281 163.4 10.8281ZM163.4 11.9902C162.279 11.9902 161.514 13.1934 161.514 15.1211C161.514 17.0625 162.279 18.2656 163.4 18.2656C164.535 18.2656 165.301 17.0625 165.301 15.1211C165.301 13.1934 164.535 11.9902 163.4 11.9902ZM169.662 9.91211V14.7109H171.631V15.8047H169.662V22.1621H168.363V9.91211H169.662Z" fill="#4D82F3"/>
<path d="M183.43 19.5645V20.6445H172.219V19.5645H177.154V17.0488H173.504V10.7461H174.803V12.8516H180.818V10.7461H182.104V17.0488H178.439V19.5645H183.43ZM174.803 15.9961H180.818V13.9043H174.803V15.9961Z" fill="#4D82F3"/>
<path d="M188.051 13.2617C188.051 15.2168 188.871 17.3086 190.512 18.3066L189.787 19.3047C188.639 18.6143 187.859 17.3906 187.449 15.9688C186.991 17.5273 186.15 18.8535 184.961 19.5781L184.154 18.6074C185.891 17.5684 186.793 15.4082 186.793 13.3164V11.0332H188.051V13.2617ZM194.859 9.91211V22.1621H193.615V9.91211H194.859ZM192.316 10.1445V21.5605H191.086V15.2988H189.186V14.2188H191.086V10.1445H192.316Z" fill="#4D82F3"/>
<path d="M207.629 19.5508V20.6309H196.418V19.5508H199.098V16.3516C198.093 15.7979 197.484 14.916 197.484 13.8223C197.484 11.8945 199.371 10.623 201.996 10.623C204.635 10.623 206.521 11.8945 206.521 13.8223C206.521 14.9023 205.934 15.7705 204.949 16.3242V19.5508H207.629ZM201.996 11.6621C200.068 11.6621 198.742 12.4961 198.742 13.8223C198.742 15.1348 200.068 15.9961 201.996 15.9961C203.91 15.9961 205.264 15.1348 205.264 13.8223C205.264 12.4961 203.91 11.6621 201.996 11.6621ZM200.383 19.5508H203.637V16.8164C203.138 16.9463 202.584 17.0078 201.996 17.0078C201.422 17.0078 200.875 16.9463 200.383 16.8301V19.5508Z" fill="#4D82F3"/>
</svg>
