<svg width="142" height="23" viewBox="0 0 142 23" fill="none" xmlns="http://www.w3.org/2000/svg">
<path opacity="0.9" d="M16.0686 0C7.44223 0 0.449188 5.14873 0.449188 11.5C0.449188 17.8513 7.44223 23 16.0686 23H126.381C135.007 23 142 17.8513 142 11.5C142 5.14873 135.007 0 126.381 0H16.0686Z" fill="url(#paint0_linear_3227_27927)"/>
<path d="M16.8225 7.85156V14.6719H11.9124V7.85156H16.8225ZM13.0022 8.73047V13.7695H15.7209V8.73047H13.0022ZM19.6936 6.80859V10.9219H21.3811V11.8594H19.6936V17.3086H18.5803V6.80859H19.6936ZM25.7522 9.90234C25.7522 11.6602 26.9006 13.4766 28.5178 14.168L27.9084 15.0352C26.6721 14.4902 25.6877 13.3359 25.2014 11.9297C24.7151 13.4297 23.7249 14.707 22.5061 15.3047L21.8616 14.4258C23.4436 13.6875 24.6155 11.707 24.6272 9.90234V8.78906H22.2249V7.86328H28.1428V8.78906H25.7522V9.90234ZM30.5803 6.80859V17.3086H29.467V6.80859H30.5803ZM37.5764 7.58203V12.3047H32.6663V7.58203H37.5764ZM33.7561 8.46094V11.4141H36.4866V8.46094H33.7561ZM40.5061 6.80859V9.46875H42.0295V10.3945H40.5061V13.0312H39.3928V6.80859H40.5061ZM40.5061 13.5586V17.3203H39.3928V14.4492H33.5686V13.5586H40.5061ZM47.4084 7.44141C49.6116 7.44141 51.2874 8.60156 51.2874 10.3711C51.2874 12.1406 49.6116 13.3125 47.4084 13.3008C45.2053 13.3125 43.5413 12.1406 43.5413 10.3711C43.5413 8.60156 45.2053 7.44141 47.4084 7.44141ZM47.4084 8.34375C45.803 8.33203 44.5959 9.15234 44.6077 10.3711C44.5959 11.6016 45.803 12.3867 47.4084 12.3867C49.0139 12.3867 50.2092 11.6016 50.2092 10.3711C50.2092 9.15234 49.0139 8.33203 47.4084 8.34375ZM52.2366 15.0234V15.9492H42.6272V15.0234H52.2366ZM62.6077 15.1172V16.0547H52.9983V15.1172H57.2288V13.2773H54.1702V9.9375H60.3342V8.46094H54.1467V7.54688H61.4358V10.8281H55.2717V12.3633H61.6819V13.2773H58.3303V15.1172H62.6077ZM75.9084 15.1172V16.0547H66.2991V15.1172H70.5295V13.2773H67.4709V9.9375H73.635V8.46094H67.4475V7.54688H74.7366V10.8281H68.5725V12.3633H74.9827V13.2773H71.6311V15.1172H75.9084ZM84.9905 7.875V9C84.9905 10.3594 84.9905 11.8359 84.6038 14.0742L83.467 13.9688C83.8889 11.8711 83.8889 10.3242 83.8889 9V8.78906H77.7014V7.875H84.9905ZM86.2444 14.8945V15.8203H76.6702V14.8945H86.2444ZM95.7483 6.82031V14.4492H94.635V6.82031H95.7483ZM96.0647 16.1836V17.0859H88.8811V13.6758H90.0061V16.1836H96.0647ZM90.053 7.52344C91.635 7.52344 92.842 8.60156 92.842 10.125C92.842 11.6719 91.635 12.7383 90.053 12.7383C88.4709 12.7383 87.2522 11.6719 87.2522 10.125C87.2522 8.60156 88.4709 7.52344 90.053 7.52344ZM90.053 8.49609C89.0686 8.49609 88.342 9.16406 88.342 10.125C88.342 11.1094 89.0686 11.7656 90.053 11.7656C91.0139 11.7656 91.7522 11.1094 91.7522 10.125C91.7522 9.16406 91.0139 8.49609 90.053 8.49609ZM105.662 6.82031V10.1953H107.186V11.1211H105.662V14.6719H104.549V6.82031H105.662ZM103.682 8.03906V8.94141H97.4241V8.03906H100.002V6.80859H101.115V8.03906H103.682ZM100.553 9.44531C102.065 9.44531 103.096 10.2305 103.096 11.4258C103.096 12.6211 102.065 13.3945 100.553 13.3945C99.0295 13.3945 97.9983 12.6211 97.9983 11.4258C97.9983 10.2305 99.0295 9.44531 100.553 9.44531ZM100.553 10.3008C99.6624 10.3008 99.0647 10.7344 99.0764 11.4258C99.0647 12.1055 99.6624 12.5273 100.553 12.5273C101.444 12.5273 102.041 12.1055 102.053 11.4258C102.041 10.7344 101.444 10.3008 100.553 10.3008ZM106.108 16.1836V17.0859H99.0061V14.0508H100.119V16.1836H106.108ZM119.737 6.80859V17.3086H118.682V6.80859H119.737ZM117.592 7.07812V16.793H116.537V13.2188H114.744V12.3047H116.537V10.5938H114.92C114.41 12.3574 113.291 13.8867 111.311 15.0703L110.655 14.2734C112.881 12.9492 113.953 11.1855 114.147 9.02344H111.17V8.10938H115.248C115.248 8.64844 115.207 9.16992 115.119 9.67969H116.537V7.07812H117.592ZM129.838 6.80859V13.0547H128.725V10.3945H126.768V9.48047H128.725V6.80859H129.838ZM126.323 13.3477C128.526 13.3477 129.873 14.0742 129.873 15.3281C129.873 16.582 128.526 17.2969 126.323 17.3086C124.119 17.2969 122.76 16.582 122.772 15.3281C122.76 14.0742 124.119 13.3477 126.323 13.3477ZM126.323 14.2148C124.787 14.2148 123.873 14.6133 123.873 15.3281C123.873 16.0312 124.787 16.4414 126.323 16.4297C127.858 16.4414 128.772 16.0312 128.772 15.3281C128.772 14.6133 127.858 14.2148 126.323 14.2148ZM124.846 8.66016C124.846 9.99609 125.795 11.2852 127.377 11.8242L126.803 12.7031C125.625 12.293 124.758 11.4551 124.307 10.418C123.844 11.5957 122.924 12.5391 121.67 12.9961L121.084 12.1055C122.713 11.543 123.709 10.125 123.709 8.67188V8.4375H121.436V7.53516H127.096V8.4375H124.846V8.66016Z" fill="white"/>
<defs>
<linearGradient id="paint0_linear_3227_27927" x1="0.449188" y1="0" x2="157.417" y2="134.288" gradientUnits="userSpaceOnUse">
<stop stop-color="#4D82F3"/>
<stop offset="0.714747" stop-color="#FF345F"/>
</linearGradient>
</defs>
</svg>
