<svg width="154" height="32" viewBox="0 0 154 32" fill="none" xmlns="http://www.w3.org/2000/svg">
<path opacity="0.9" fill-rule="evenodd" clip-rule="evenodd" d="M16.7254 0C7.88885 0 0.725403 7.16344 0.725403 16C0.725403 24.8366 7.88885 32 16.7254 32H129.725C136.793 32 142.791 27.4174 144.908 21.0614C144.94 20.9673 145.004 20.8873 145.09 20.8377L153.169 16.1732C153.302 16.0962 153.302 15.9038 153.169 15.8268L145.09 11.1623C145.004 11.1127 144.94 11.0327 144.908 10.9386C142.791 4.58263 136.793 0 129.725 0H16.7254Z" fill="url(#paint0_linear_3197_27926)"/>
<path d="M18.6953 11.5391V18.3594H13.7852V11.5391H18.6953ZM14.875 12.418V17.457H17.5938V12.418H14.875ZM21.5664 10.4961V14.6094H23.2539V15.5469H21.5664V20.9961H20.4531V10.4961H21.5664ZM27.625 13.5898C27.625 15.3477 28.7734 17.1641 30.3906 17.8555L29.7812 18.7227C28.5449 18.1777 27.5605 17.0234 27.0742 15.6172C26.5879 17.1172 25.5977 18.3945 24.3789 18.9922L23.7344 18.1133C25.3164 17.375 26.4883 15.3945 26.5 13.5898V12.4766H24.0977V11.5508H30.0156V12.4766H27.625V13.5898ZM32.4531 10.4961V20.9961H31.3398V10.4961H32.4531ZM39.4492 11.2695V15.9922H34.5391V11.2695H39.4492ZM35.6289 12.1484V15.1016H38.3594V12.1484H35.6289ZM42.3789 10.4961V13.1562H43.9023V14.082H42.3789V16.7188H41.2656V10.4961H42.3789ZM42.3789 17.2461V21.0078H41.2656V18.1367H35.4414V17.2461H42.3789ZM49.2812 11.1289C51.4844 11.1289 53.1602 12.2891 53.1602 14.0586C53.1602 15.8281 51.4844 17 49.2812 16.9883C47.0781 17 45.4141 15.8281 45.4141 14.0586C45.4141 12.2891 47.0781 11.1289 49.2812 11.1289ZM49.2812 12.0312C47.6758 12.0195 46.4688 12.8398 46.4805 14.0586C46.4688 15.2891 47.6758 16.0742 49.2812 16.0742C50.8867 16.0742 52.082 15.2891 52.082 14.0586C52.082 12.8398 50.8867 12.0195 49.2812 12.0312ZM54.1094 18.7109V19.6367H44.5V18.7109H54.1094ZM64.4805 18.8047V19.7422H54.8711V18.8047H59.1016V16.9648H56.043V13.625H62.207V12.1484H56.0195V11.2344H63.3086V14.5156H57.1445V16.0508H63.5547V16.9648H60.2031V18.8047H64.4805ZM77.7812 18.8047V19.7422H68.1719V18.8047H72.4023V16.9648H69.3438V13.625H75.5078V12.1484H69.3203V11.2344H76.6094V14.5156H70.4453V16.0508H76.8555V16.9648H73.5039V18.8047H77.7812ZM86.8633 11.5625V12.6875C86.8633 14.0469 86.8633 15.5234 86.4766 17.7617L85.3398 17.6562C85.7617 15.5586 85.7617 14.0117 85.7617 12.6875V12.4766H79.5742V11.5625H86.8633ZM88.1172 18.582V19.5078H78.543V18.582H88.1172ZM97.6211 10.5078V18.1367H96.5078V10.5078H97.6211ZM97.9375 19.8711V20.7734H90.7539V17.3633H91.8789V19.8711H97.9375ZM91.9258 11.2109C93.5078 11.2109 94.7148 12.2891 94.7148 13.8125C94.7148 15.3594 93.5078 16.4258 91.9258 16.4258C90.3438 16.4258 89.125 15.3594 89.125 13.8125C89.125 12.2891 90.3438 11.2109 91.9258 11.2109ZM91.9258 12.1836C90.9414 12.1836 90.2148 12.8516 90.2148 13.8125C90.2148 14.7969 90.9414 15.4531 91.9258 15.4531C92.8867 15.4531 93.625 14.7969 93.625 13.8125C93.625 12.8516 92.8867 12.1836 91.9258 12.1836ZM107.535 10.5078V13.8828H109.059V14.8086H107.535V18.3594H106.422V10.5078H107.535ZM105.555 11.7266V12.6289H99.2969V11.7266H101.875V10.4961H102.988V11.7266H105.555ZM102.426 13.1328C103.938 13.1328 104.969 13.918 104.969 15.1133C104.969 16.3086 103.938 17.082 102.426 17.082C100.902 17.082 99.8711 16.3086 99.8711 15.1133C99.8711 13.918 100.902 13.1328 102.426 13.1328ZM102.426 13.9883C101.535 13.9883 100.938 14.4219 100.949 15.1133C100.938 15.793 101.535 16.2148 102.426 16.2148C103.316 16.2148 103.914 15.793 103.926 15.1133C103.914 14.4219 103.316 13.9883 102.426 13.9883ZM107.98 19.8711V20.7734H100.879V17.7383H101.992V19.8711H107.98ZM121.609 10.4961V20.9961H120.555V10.4961H121.609ZM119.465 10.7656V20.4805H118.41V16.9062H116.617V15.9922H118.41V14.2812H116.793C116.283 16.0449 115.164 17.5742 113.184 18.7578L112.527 17.9609C114.754 16.6367 115.826 14.873 116.02 12.7109H113.043V11.7969H117.121C117.121 12.3359 117.08 12.8574 116.992 13.3672H118.41V10.7656H119.465ZM131.711 10.4961V16.7422H130.598V14.082H128.641V13.168H130.598V10.4961H131.711ZM128.195 17.0352C130.398 17.0352 131.746 17.7617 131.746 19.0156C131.746 20.2695 130.398 20.9844 128.195 20.9961C125.992 20.9844 124.633 20.2695 124.645 19.0156C124.633 17.7617 125.992 17.0352 128.195 17.0352ZM128.195 17.9023C126.66 17.9023 125.746 18.3008 125.746 19.0156C125.746 19.7188 126.66 20.1289 128.195 20.1172C129.73 20.1289 130.645 19.7188 130.645 19.0156C130.645 18.3008 129.73 17.9023 128.195 17.9023ZM126.719 12.3477C126.719 13.6836 127.668 14.9727 129.25 15.5117L128.676 16.3906C127.498 15.9805 126.631 15.1426 126.18 14.1055C125.717 15.2832 124.797 16.2266 123.543 16.6836L122.957 15.793C124.586 15.2305 125.582 13.8125 125.582 12.3594V12.125H123.309V11.2227H128.969V12.125H126.719V12.3477Z" fill="white"/>
<defs>
<linearGradient id="paint0_linear_3197_27926" x1="0.725403" y1="0" x2="204.299" y2="134.899" gradientUnits="userSpaceOnUse">
<stop stop-color="#4D82F3"/>
<stop offset="0.714747" stop-color="#FF345F"/>
</linearGradient>
</defs>
</svg>
