<svg width="728" height="700" viewBox="0 0 728 700" fill="none" xmlns="http://www.w3.org/2000/svg">
<path opacity="0.8" d="M332.167 530.534L184.255 327.89L224.513 289.895L480.532 258.684L514.456 298.036L386.447 509.275L332.167 530.534Z" stroke="#4479FF" stroke-width="0.90466" stroke-dasharray="7.24 7.24"/>
<path d="M294.171 225.66H137.664C131.669 225.66 126.809 230.521 126.809 236.516V369.501C126.809 375.497 131.669 380.357 137.664 380.357H294.171C300.166 380.357 305.027 375.497 305.027 369.501V236.516C305.027 230.521 300.166 225.66 294.171 225.66Z" fill="#C9D6E9"/>
<mask id="mask0_13287_6926" style="mask-type:alpha" maskUnits="userSpaceOnUse" x="125" y="225" width="181" height="156">
<path d="M295.076 225.66H135.856C129.86 225.66 125 230.521 125 236.516V369.501C125 375.497 129.86 380.357 135.856 380.357H295.076C301.072 380.357 305.932 375.497 305.932 369.501V236.516C305.932 230.521 301.072 225.66 295.076 225.66Z" fill="#FFD798"/>
</mask>
<g mask="url(#mask0_13287_6926)">
<path d="M142.428 314.73C142.428 307.381 148.23 301.343 155.573 301.049L225.215 298.267C234.452 297.898 240.179 308.195 234.992 315.848C233.139 318.582 230.179 320.365 226.896 320.726L157.616 328.34C149.511 329.23 142.428 322.884 142.428 314.73Z" fill="#5A8FDD"/>
<path d="M215.403 304.543C231.69 304.543 244.893 291.34 244.893 275.053C244.893 258.766 231.69 245.562 215.403 245.562C199.116 245.562 185.913 258.766 185.913 275.053C185.913 291.34 199.116 304.543 215.403 304.543Z" fill="#EDF3FF"/>
<path d="M217.86 272.595C219.217 272.595 220.317 271.494 220.317 270.137C220.317 268.78 219.217 267.68 217.86 267.68C216.503 267.68 215.402 268.78 215.402 270.137C215.402 271.494 216.503 272.595 217.86 272.595Z" fill="#0F1A2A"/>
<path d="M232.606 267.989C233.963 267.989 235.063 266.889 235.063 265.532C235.063 264.174 233.963 263.074 232.606 263.074C231.249 263.074 230.148 264.174 230.148 265.532C230.148 266.889 231.249 267.989 232.606 267.989Z" fill="#0F1A2A"/>
<path d="M222.911 280.911C227.887 284.786 231.879 282.385 232.862 278.453" stroke="#0F1A2A" stroke-width="1.80932" stroke-linecap="round"/>
<path fill-rule="evenodd" clip-rule="evenodd" d="M217.653 255.154C216.596 254.665 215.589 254.118 214.636 253.518C214.277 256.375 213.398 259.283 211.964 262.079C208.76 268.325 203.479 272.647 197.848 274.312C197.922 274.775 197.987 275.244 198.043 275.717C198.981 283.663 197.046 290.874 193.432 294.727C188.754 289.508 185.91 282.613 185.91 275.053C185.91 258.766 199.113 245.562 215.4 245.562C224.217 245.562 232.131 249.432 237.535 255.565C231.891 258.263 224.511 258.327 217.653 255.154Z" fill="#0F1A2A"/>
<path d="M192.956 291.58C198.193 290.644 201.547 284.896 200.447 278.742C199.346 272.589 194.208 268.36 188.971 269.296C183.733 270.233 180.379 275.981 181.48 282.134C182.58 288.288 187.718 292.517 192.956 291.58Z" fill="#EDF3FF"/>
<path d="M226.982 269.859L227.943 270.713C229 271.653 229.048 273.288 228.049 274.288L227.434 274.902" stroke="#0F1A2A" stroke-width="1.80932" stroke-linecap="round"/>
<path d="M164.908 325.984C169.375 314.765 180.23 307.402 192.306 307.402H236.702C250.151 307.402 261.896 316.501 265.256 329.524L279.526 384.818C284.343 403.484 270.249 421.677 250.971 421.677H170.291C149.448 421.677 135.183 400.643 142.893 381.278L164.908 325.984Z" fill="#5A8FDD"/>
<path d="M210.638 284.666C213.352 284.666 215.553 282.465 215.553 279.751C215.553 277.036 213.352 274.836 210.638 274.836C207.923 274.836 205.723 277.036 205.723 279.751C205.723 282.465 207.923 284.666 210.638 284.666Z" fill="#FFD4E7"/>
<path d="M241.396 277.428C244.111 277.428 246.312 275.227 246.312 272.513C246.312 269.798 244.111 267.598 241.396 267.598C238.682 267.598 236.481 269.798 236.481 272.513C236.481 275.227 238.682 277.428 241.396 277.428Z" fill="#FFD4E7"/>
<path d="M142.428 314.631C142.428 307.311 148.157 301.271 155.467 300.884L203.573 298.334C207.731 298.114 211.721 299.999 214.193 303.35C219.856 311.027 215.074 321.955 205.592 323.007L157.712 328.314C149.558 329.218 142.428 322.835 142.428 314.631Z" fill="#5A8FDD"/>
</g>
<path d="M192.849 256.42C199.844 256.42 205.514 250.75 205.514 243.755C205.514 236.76 199.844 231.09 192.849 231.09C185.854 231.09 180.184 236.76 180.184 243.755C180.184 250.75 185.854 256.42 192.849 256.42Z" fill="#0F1A2A"/>
<path d="M168.876 254.61C178.619 254.61 186.517 246.712 186.517 236.969C186.517 227.226 178.619 219.328 168.876 219.328C159.133 219.328 151.235 227.226 151.235 236.969C151.235 246.712 159.133 254.61 168.876 254.61Z" fill="#0F1A2A"/>
<path d="M164.216 327.835L201.428 322.277" stroke="#C9D6E9" stroke-width="0.90466" stroke-linecap="round"/>
<path d="M222.86 314.145L214.265 302.226L227.072 300.066L222.86 314.145Z" fill="#EDF3FF"/>
<path opacity="0.5" d="M249 113C251.761 113 254 110.761 254 108C254 105.239 251.761 103 249 103C246.239 103 244 105.239 244 108C244 110.761 246.239 113 249 113Z" fill="#2563EB"/>
<path d="M523.17 168.426H469.897C425.947 168.426 390.319 204.054 390.319 248.003V248.003C390.319 291.953 425.947 327.581 469.897 327.581H523.17C567.119 327.581 602.747 291.953 602.747 248.003V248.003C602.747 204.054 567.119 168.426 523.17 168.426Z" fill="#A6C7F7"/>
<path d="M478.438 264.045C490.784 264.045 500.793 252.766 500.793 238.853C500.793 224.939 490.784 213.66 478.438 213.66C466.092 213.66 456.084 224.939 456.084 238.853C456.084 252.766 466.092 264.045 478.438 264.045Z" fill="#0F1A2A"/>
<path d="M464.245 295.623C476.591 295.623 486.599 284.344 486.599 270.431C486.599 256.517 476.591 245.238 464.245 245.238C451.899 245.238 441.891 256.517 441.891 270.431C441.891 284.344 451.899 295.623 464.245 295.623Z" fill="#0F1A2A"/>
<path d="M530.793 300.057C543.139 300.057 553.147 288.778 553.147 274.864C553.147 260.951 543.139 249.672 530.793 249.672C518.447 249.672 508.438 260.951 508.438 274.864C508.438 288.778 518.447 300.057 530.793 300.057Z" fill="#0F1A2A"/>
<mask id="mask1_13287_6926" style="mask-type:alpha" maskUnits="userSpaceOnUse" x="390" y="168" width="213" height="160">
<path d="M523.171 168.426H469.898C425.948 168.426 390.32 204.054 390.32 248.003V248.003C390.32 291.953 425.948 327.581 469.898 327.581H523.171C567.12 327.581 602.748 291.953 602.748 248.003V248.003C602.748 204.054 567.12 168.426 523.171 168.426Z" fill="#1CA0E7"/>
</mask>
<g mask="url(#mask1_13287_6926)">
<path d="M489.349 248.832C473.062 248.832 459.858 235.629 459.858 219.342C459.858 203.055 473.062 189.852 489.349 189.852C505.636 189.852 518.839 203.055 518.839 219.342C518.839 235.629 505.636 248.832 489.349 248.832Z" fill="#B9DAFA"/>
<path d="M484.19 219.048C482.833 219.048 481.732 217.948 481.732 216.59C481.732 215.233 482.833 214.133 484.19 214.133C485.547 214.133 486.647 215.233 486.647 216.59C486.647 217.948 485.547 219.048 484.19 219.048Z" fill="#0F1A2A"/>
<path d="M469.789 219.212C468.431 219.212 467.331 218.112 467.331 216.754C467.331 215.397 468.431 214.297 469.789 214.297C471.146 214.297 472.246 215.397 472.246 216.754C472.246 218.112 471.146 219.212 469.789 219.212Z" fill="#0F1A2A"/>
<path d="M485.432 227.992C484.049 230.601 478.262 234.675 475.62 231.236" stroke="#0F1A2A" stroke-width="1.80932" stroke-linecap="round"/>
<path fill-rule="evenodd" clip-rule="evenodd" d="M463.271 205.562C465.873 205.844 468.618 205.684 471.368 205.044C477.936 206.756 486.068 207.459 493.176 207.103C496.313 212.78 501.192 216.762 506.42 218.454C506.413 219.984 506.516 221.564 506.738 223.172C507.542 229 509.749 234.052 512.637 237.439C516.525 232.443 518.84 226.163 518.84 219.343C518.84 203.056 505.637 189.852 489.35 189.852C478.041 189.852 468.219 196.218 463.271 205.562Z" fill="#0F1A2A"/>
<path d="M476.368 219.809L476.019 220.424C475.256 221.767 475.907 223.473 477.37 223.966L477.641 224.058" stroke="#0F1A2A" stroke-width="1.80932" stroke-linecap="round"/>
<path d="M510.555 249.278C510.555 243.061 505.515 238.02 499.297 238.02H496.226C490.008 238.02 484.968 243.061 484.968 249.278C484.968 255.496 490.008 260.536 496.226 260.536H499.297C505.515 260.536 510.555 255.496 510.555 249.278Z" fill="#B9DAFA"/>
<path d="M495.143 227.554C492.494 228.149 489.865 226.484 489.271 223.835C488.677 221.186 490.342 218.557 492.99 217.963C495.639 217.369 498.268 219.034 498.862 221.682C499.457 224.331 497.792 226.96 495.143 227.554Z" fill="#FFD4E7"/>
<path d="M463.545 227.23C460.897 227.825 458.268 226.159 457.673 223.511C457.079 220.862 458.744 218.233 461.393 217.639C464.041 217.044 466.67 218.71 467.265 221.358C467.859 224.007 466.194 226.636 463.545 227.23Z" fill="#FFD4E7"/>
<path d="M521.435 257.512C528.969 255.685 533.517 247.774 531.593 239.843C529.669 231.912 522.001 226.964 514.467 228.792C506.934 230.62 502.386 238.531 504.31 246.462C506.234 254.393 513.902 259.34 521.435 257.512Z" fill="#0F1A2A"/>
<path d="M538.205 249.365C540.129 257.296 532.776 267.17 524.118 269.271C515.459 271.372 506.26 254.482 504.336 246.551C502.616 236.72 508.491 242.651 517.15 240.55C525.808 238.45 536.281 241.434 538.205 249.365Z" fill="#0F1A2A"/>
<path d="M513.163 234.275C507.875 233.694 504.14 228.186 504.823 221.972C505.505 215.758 510.346 211.192 515.635 211.773C520.924 212.353 524.658 217.861 523.975 224.075C523.293 230.289 518.452 234.855 513.163 234.275Z" fill="#B9DAFA"/>
<path d="M550.435 271.047C545.1 262.187 535.514 256.77 525.172 256.77H477.442C463.993 256.77 452.248 265.869 448.888 278.891L434.618 334.185C429.801 352.851 443.895 371.044 463.173 371.044H558.467C581.411 371.044 595.566 345.997 583.731 326.341L550.435 271.047Z" fill="white"/>
<path d="M508.439 257.681C508.439 254.167 505.591 251.32 502.078 251.32H488.548C485.035 251.32 482.188 254.168 482.188 257.681C482.188 261.194 485.035 264.042 488.548 264.042H502.078C505.591 264.042 508.439 261.194 508.439 257.681Z" fill="white"/>
</g>
<path d="M470.391 271.023L473.249 276.131H467.533L470.391 271.023Z" fill="#D3E1FE"/>
<path d="M507.502 270.434L510.36 275.542H504.644L507.502 270.434Z" fill="#D3E1FE"/>
<path d="M514.535 316.359L520.327 315.508L518.29 320.849L514.535 316.359Z" fill="#D3E1FE"/>
<path d="M488.797 323.718L490.066 318.004L494.331 321.809L488.797 323.718Z" fill="#D3E1FE"/>
<path d="M494.166 280.839L490.698 285.555L488.332 280.352L494.166 280.839Z" fill="#D3E1FE"/>
<path d="M528.887 264.745L525.419 269.461L523.054 264.258L528.887 264.745Z" fill="#D3E1FE"/>
<path d="M516.006 288.617L519.177 293.537L513.472 293.894L516.006 288.617Z" fill="#D3E1FE"/>
<path d="M458.917 310.527L464.645 309.316L462.946 314.774L458.917 310.527Z" fill="#D3E1FE"/>
<path d="M496.097 303.789L490.369 302.584L494.127 298.277L496.097 303.789Z" fill="#D3E1FE"/>
<path d="M538.095 284.239L532.367 283.034L536.125 278.727L538.095 284.239Z" fill="#D3E1FE"/>
<path d="M534.715 302.971L531.548 307.894L528.863 302.848L534.715 302.971Z" fill="#D3E1FE"/>
<path d="M556.154 306.17L552.987 311.093L550.302 306.047L556.154 306.17Z" fill="#D3E1FE"/>
<path d="M472.817 290.527L476.289 295.24L470.617 295.952L472.817 290.527Z" fill="#D3E1FE"/>
<path opacity="0.6" d="M561.26 127.001L553 134.266L558.944 141.023L567.204 133.758L561.26 127.001Z" fill="#FF88A1"/>
<mask id="mask2_13287_6926" style="mask-type:luminance" maskUnits="userSpaceOnUse" x="217" y="187" width="190" height="35">
<path d="M399.49 187H223.759C220.026 187 217 190.026 217 193.759V214.88C217 218.613 220.026 221.639 223.759 221.639H399.49C403.223 221.639 406.249 218.613 406.249 214.88V193.759C406.249 190.026 403.223 187 399.49 187Z" fill="white"/>
</mask>
<g mask="url(#mask2_13287_6926)">
<path d="M399.49 187H223.759C220.026 187 217 190.026 217 193.759V214.88C217 218.613 220.026 221.639 223.759 221.639H399.49C403.223 221.639 406.249 218.613 406.249 214.88V193.759C406.249 190.026 403.223 187 399.49 187Z" fill="#4479FF"/>
<path d="M246.737 198.905V209.347H245.513V204.022H244.335V208.815H243.157V199.101H244.335V202.994H245.513V198.905H246.737ZM241.978 200.141V201.18H239.368V205.824C240.506 205.812 241.441 205.754 242.498 205.558L242.591 206.609C241.332 206.863 240.234 206.898 238.779 206.909H238.074V200.141H241.978ZM254.176 199.91V200.926H247.985V199.91H250.445V198.859H251.727V199.91H254.176ZM251.08 201.33C252.594 201.33 253.622 202.093 253.633 203.236C253.622 204.38 252.594 205.142 251.08 205.142C249.567 205.142 248.516 204.38 248.516 203.236C248.516 202.093 249.567 201.33 251.08 201.33ZM251.08 202.301C250.283 202.301 249.764 202.647 249.764 203.236C249.764 203.825 250.283 204.16 251.08 204.149C251.877 204.16 252.409 203.825 252.409 203.236C252.409 202.647 251.877 202.301 251.08 202.301ZM256.209 198.905V201.677H257.664V202.728H256.209V205.442H254.927V198.905H256.209ZM256.209 205.928V209.347H254.927V206.956H249.255V205.928H256.209ZM261.453 200.845C261.453 201.977 262.111 203.109 263.486 203.629L262.805 204.611C261.875 204.253 261.228 203.589 260.852 202.774C260.471 203.71 259.79 204.507 258.796 204.923L258.103 203.941C259.536 203.306 260.206 202 260.217 200.845V199.552H261.453V200.845ZM267.125 198.916V205.315H265.9V202.601H264.861V204.992H263.659V199.113H264.861V201.55H265.9V198.916H267.125ZM263.602 205.489C265.785 205.489 267.171 206.205 267.182 207.406C267.171 208.607 265.785 209.335 263.602 209.335C261.395 209.335 260.021 208.607 260.021 207.406C260.021 206.205 261.395 205.489 263.602 205.489ZM263.602 206.459C262.158 206.459 261.303 206.794 261.303 207.406C261.303 208.03 262.158 208.353 263.602 208.353C265.034 208.353 265.889 208.03 265.889 207.406C265.889 206.794 265.034 206.459 263.602 206.459ZM277.104 198.905V209.358H275.811V198.905H277.104ZM271.479 199.667C273.05 199.667 274.194 201.099 274.205 203.352C274.194 205.627 273.05 207.048 271.479 207.048C269.897 207.048 268.753 205.627 268.753 203.352C268.753 201.099 269.897 199.667 271.479 199.667ZM271.479 200.822C270.59 200.822 269.989 201.758 269.989 203.352C269.989 204.957 270.59 205.893 271.479 205.893C272.357 205.893 272.958 204.957 272.958 203.352C272.958 201.758 272.357 200.822 271.479 200.822ZM282.579 201.873C282.579 203.583 283.584 205.385 285.271 206.089L284.566 207.106C283.33 206.574 282.429 205.477 281.956 204.149C281.471 205.581 280.558 206.782 279.334 207.36L278.594 206.355C280.246 205.593 281.274 203.652 281.274 201.873V200.995H278.976V199.933H284.867V200.995H282.579V201.873ZM287.327 198.905V209.347H286.033V198.905H287.327ZM294.165 199.806V204.738H289.221V199.806H294.165ZM290.48 200.834V203.721H292.906V200.834H290.48ZM297.099 198.905V201.966H298.554V203.04H297.099V206.528H295.817V198.905H297.099ZM297.515 208.099V209.139H290.411V205.789H291.693V208.099H297.515ZM302.239 208.319V207.233L305.196 204.38C306.039 203.537 306.478 203.04 306.478 202.335C306.478 201.561 305.866 201.065 305.046 201.065C304.18 201.065 303.625 201.608 303.637 202.451H302.204C302.193 200.868 303.383 199.84 305.057 199.84C306.767 199.84 307.922 200.857 307.922 202.266C307.922 203.213 307.46 203.976 305.82 205.523L304.33 207.002V207.06H308.049V208.319H302.239ZM317.763 198.916V206.609H316.481V203.132H313.755V202.116H316.481V201.169H313.755V200.152H316.481V198.916H317.763ZM318.029 208.099V209.139H310.902V205.928H312.196V208.099H318.029ZM310.891 199.609V204.126C312.219 204.108 313.472 204.028 314.876 203.779L315.003 204.819C313.397 205.119 311.988 205.177 310.44 205.188H309.62V199.609H310.891ZM330.793 198.916V205.015H329.51V203.86H327.027V202.82H329.51V201.7H327.131C326.467 203.363 324.948 204.524 322.672 205.154L322.153 204.137C324.596 203.473 325.895 202.237 326.103 200.684H322.707V199.644H327.501C327.501 200.008 327.472 200.354 327.408 200.684H329.51V198.916H330.793ZM327.339 205.131C329.453 205.131 330.862 205.928 330.862 207.21C330.862 208.492 329.453 209.289 327.339 209.289C325.202 209.289 323.793 208.492 323.793 207.21C323.793 205.928 325.202 205.131 327.339 205.131ZM327.339 206.136C325.93 206.136 325.075 206.517 325.075 207.21C325.075 207.891 325.93 208.272 327.339 208.272C328.713 208.272 329.58 207.891 329.58 207.21C329.58 206.517 328.713 206.136 327.339 206.136ZM337.261 199.528V202.67H333.969V203.952C335.644 203.958 336.608 203.906 337.712 203.698L337.839 204.738C336.591 204.946 335.505 204.98 333.461 204.98H332.698V201.712H335.979V200.545H332.675V199.528H337.261ZM341.015 198.916V205.339H339.733V203.617H337.885V202.589H339.733V201.423H337.885V200.395H339.733V198.916H341.015ZM341.015 205.835V209.347H339.733V206.863H333.877V205.835H341.015ZM351.18 198.905V209.358H349.886V198.905H351.18ZM345.555 199.667C347.125 199.667 348.269 201.099 348.281 203.352C348.269 205.627 347.125 207.048 345.555 207.048C343.972 207.048 342.829 205.627 342.829 203.352C342.829 201.099 343.972 199.667 345.555 199.667ZM345.555 200.822C344.665 200.822 344.064 201.758 344.064 203.352C344.064 204.957 344.665 205.893 345.555 205.893C346.432 205.893 347.033 204.957 347.033 203.352C347.033 201.758 346.432 200.822 345.555 200.822ZM359.231 205.697C359.231 206.563 359.629 207.475 360.524 208.041C361.431 207.435 361.853 206.488 361.864 205.697V205.269H363.123V205.697C363.112 206.794 363.759 207.81 365.133 208.249L364.509 209.185C363.493 208.844 362.817 208.18 362.453 207.348C362.118 208.168 361.5 208.902 360.559 209.277C359.566 208.919 358.942 208.215 358.619 207.383C358.243 208.186 357.579 208.838 356.609 209.185L355.973 208.249C357.325 207.776 357.972 206.713 357.983 205.697V205.269H359.231V205.697ZM364.221 198.916V204.83H362.927V198.916H364.221ZM358.526 199.471C360.132 199.471 361.333 200.487 361.333 201.954C361.333 203.41 360.132 204.426 358.526 204.426C356.909 204.426 355.708 203.41 355.708 201.954C355.708 200.487 356.909 199.471 358.526 199.471ZM358.526 200.556C357.614 200.556 356.955 201.099 356.967 201.954C356.955 202.809 357.614 203.363 358.526 203.363C359.427 203.363 360.074 202.809 360.074 201.954C360.074 201.099 359.427 200.556 358.526 200.556ZM368.598 199.667C370.013 199.667 371.059 200.845 371.244 202.751H373.23V198.905H374.501V209.358H373.23V203.791H371.255C371.116 205.806 370.054 207.048 368.598 207.048C367.027 207.048 365.919 205.627 365.919 203.352C365.919 201.099 367.027 199.667 368.598 199.667ZM368.598 200.822C367.732 200.822 367.143 201.758 367.155 203.352C367.143 204.957 367.732 205.893 368.598 205.893C369.465 205.893 370.042 204.957 370.054 203.352C370.042 201.758 369.465 200.822 368.598 200.822ZM385.509 207.025V208.076H375.968V207.025H378.174V204.38C377.342 203.906 376.84 203.161 376.846 202.231C376.834 200.568 378.474 199.471 380.715 199.471C382.968 199.471 384.608 200.568 384.608 202.231C384.608 203.144 384.123 203.877 383.314 204.357V207.025H385.509ZM380.715 200.487C379.156 200.487 378.093 201.146 378.105 202.231C378.093 203.306 379.156 203.976 380.715 203.976C382.275 203.976 383.349 203.306 383.349 202.231C383.349 201.146 382.275 200.487 380.715 200.487ZM379.445 207.025H382.009V204.842C381.61 204.934 381.177 204.98 380.715 204.98C380.265 204.98 379.837 204.934 379.445 204.853V207.025Z" fill="white"/>
</g>
<path d="M261.759 236.846C266.459 226.561 265.066 220.9 263.848 215.797H284.475C279.671 229.001 268.112 233.338 261.759 236.846Z" fill="#4479FF"/>
<mask id="mask3_13287_6926" style="mask-type:luminance" maskUnits="userSpaceOnUse" x="302" y="101" width="175" height="35">
<path d="M469.282 101H308.759C305.026 101 302 104.026 302 107.759V128.88C302 132.613 305.026 135.639 308.759 135.639H469.282C473.015 135.639 476.041 132.613 476.041 128.88V107.759C476.041 104.026 473.015 101 469.282 101Z" fill="white"/>
</mask>
<g mask="url(#mask3_13287_6926)">
<path d="M469.282 101H308.759C305.026 101 302 104.026 302 107.759V128.88C302 132.613 305.026 135.639 308.759 135.639H469.282C473.015 135.639 476.041 132.613 476.041 128.88V107.759C476.041 104.026 473.015 101 469.282 101Z" fill="#87A9FF"/>
<path d="M328.229 118.726V119.766H324.082V123.335H322.811V119.766H318.711V118.726H328.229ZM327.351 113.494V114.51H324.22C324.296 115.654 325.67 116.751 327.732 117.017L327.27 118.022C325.491 117.773 324.105 116.959 323.47 115.827C322.834 116.959 321.448 117.773 319.693 118.022L319.207 117.017C321.258 116.751 322.632 115.654 322.73 114.51H319.589V113.494H327.351ZM337.642 112.905V123.347H336.372V112.905H337.642ZM330.804 113.921V119.627C332.271 119.604 333.831 119.471 335.436 119.154L335.598 120.228C333.761 120.609 332.052 120.725 330.435 120.725H329.534V113.921H330.804ZM342.009 113.667C343.424 113.667 344.469 114.845 344.654 116.751H346.641V112.905H347.911V123.358H346.641V117.791H344.665C344.527 119.806 343.464 121.048 342.009 121.048C340.438 121.048 339.329 119.627 339.329 117.352C339.329 115.099 340.438 113.667 342.009 113.667ZM342.009 114.822C341.142 114.822 340.553 115.758 340.565 117.352C340.553 118.957 341.142 119.893 342.009 119.893C342.875 119.893 343.453 118.957 343.464 117.352C343.453 115.758 342.875 114.822 342.009 114.822ZM357.625 113.771C357.625 115.088 359.092 116.416 361.322 116.705L360.813 117.745C359.04 117.479 357.631 116.607 356.955 115.423C356.268 116.607 354.865 117.479 353.109 117.745L352.601 116.705C354.807 116.416 356.274 115.088 356.274 113.771V113.24H357.625V113.771ZM361.703 118.645V119.708H357.556V123.347H356.286V119.708H352.185V118.645H361.703ZM371.071 113.378V114.406H368.044C368.16 115.388 369.436 116.324 371.452 116.566L370.967 117.583C369.095 117.358 367.715 116.532 367.155 115.4C366.595 116.526 365.226 117.358 363.355 117.583L362.881 116.566C364.897 116.324 366.156 115.388 366.277 114.406H363.274V113.378H371.071ZM371.937 118.16V119.2H367.906V121.106H366.635V119.2H362.396V118.16H371.937ZM370.886 122.099V123.139H363.551V120.147H364.833V122.099H370.886ZM376.014 113.632C377.666 113.621 378.879 114.672 378.89 116.151C378.879 117.641 377.666 118.68 376.014 118.68C374.374 118.68 373.15 117.641 373.15 116.151C373.15 114.672 374.374 113.621 376.014 113.632ZM376.014 114.741C375.102 114.741 374.42 115.284 374.42 116.151C374.42 117.028 375.102 117.56 376.014 117.56C376.938 117.56 377.631 117.028 377.631 116.151C377.631 115.284 376.938 114.741 376.014 114.741ZM381.328 112.905V123.358H380.046V112.905H381.328ZM372.676 120.124C374.559 120.124 377.169 120.101 379.422 119.777L379.526 120.713C377.181 121.164 374.674 121.175 372.838 121.175L372.676 120.124ZM394.646 112.905V123.347H393.421V118.022H392.243V122.815H391.065V113.101H392.243V116.994H393.421V112.905H394.646ZM389.887 114.141V115.18H387.276V119.824C388.414 119.812 389.35 119.754 390.407 119.558L390.499 120.609C389.24 120.863 388.143 120.898 386.687 120.909H385.983V114.141H389.887ZM402.084 113.91V114.926H395.893V113.91H398.354V112.859H399.636V113.91H402.084ZM398.989 115.33C400.502 115.33 401.53 116.093 401.542 117.236C401.53 118.38 400.502 119.142 398.989 119.142C397.476 119.142 396.425 118.38 396.425 117.236C396.425 116.093 397.476 115.33 398.989 115.33ZM398.989 116.301C398.192 116.301 397.672 116.647 397.672 117.236C397.672 117.825 398.192 118.16 398.989 118.149C399.786 118.16 400.317 117.825 400.317 117.236C400.317 116.647 399.786 116.301 398.989 116.301ZM404.117 112.905V115.677H405.573V116.728H404.117V119.442H402.835V112.905H404.117ZM404.117 119.928V123.347H402.835V120.956H397.164V119.928H404.117ZM409.361 114.845C409.361 115.977 410.02 117.109 411.394 117.629L410.713 118.611C409.783 118.253 409.136 117.589 408.761 116.774C408.38 117.71 407.698 118.507 406.705 118.923L406.012 117.941C407.444 117.306 408.114 116 408.126 114.845V113.552H409.361V114.845ZM415.033 112.916V119.315H413.809V116.601H412.769V118.992H411.568V113.113H412.769V115.55H413.809V112.916H415.033ZM411.51 119.489C413.693 119.489 415.079 120.205 415.091 121.406C415.079 122.607 413.693 123.335 411.51 123.335C409.304 123.335 407.929 122.607 407.929 121.406C407.929 120.205 409.304 119.489 411.51 119.489ZM411.51 120.459C410.066 120.459 409.211 120.794 409.211 121.406C409.211 122.03 410.066 122.353 411.51 122.353C412.942 122.353 413.797 122.03 413.797 121.406C413.797 120.794 412.942 120.459 411.51 120.459ZM424.805 117.652V118.669H421.709V121.06H425.868V122.111H416.327V121.06H420.439V118.669H417.482V113.679H424.724V114.707H418.764V117.652H424.805ZM434.739 116.012V117.063H438.885V118.103H429.344V117.063H433.468V116.012H434.739ZM438.019 113.193V114.175H435.027C435.27 114.92 436.506 115.55 438.423 115.665L438.019 116.624C436.084 116.474 434.658 115.816 434.115 114.822C433.566 115.816 432.134 116.474 430.211 116.624L429.795 115.665C431.678 115.556 432.925 114.915 433.191 114.175H430.222V113.193H438.019ZM437.984 119.269V120.239H430.222V119.269H433.456V118.426H434.75V119.269H437.984ZM434.092 120.621C436.113 120.621 437.291 121.094 437.291 121.995C437.291 122.908 436.113 123.381 434.092 123.381C432.059 123.381 430.915 122.908 430.915 121.995C430.915 121.094 432.059 120.621 434.092 120.621ZM434.092 121.487C432.879 121.487 432.232 121.637 432.232 121.995C432.232 122.353 432.879 122.527 434.092 122.527C435.328 122.527 435.951 122.353 435.963 121.995C435.951 121.637 435.328 121.487 434.092 121.487ZM442.385 113.667C443.956 113.667 445.088 115.099 445.1 117.352C445.088 119.627 443.956 121.048 442.385 121.048C440.803 121.048 439.659 119.627 439.671 117.352C439.659 115.099 440.803 113.667 442.385 113.667ZM442.385 114.822C441.507 114.822 440.907 115.758 440.907 117.352C440.907 118.957 441.507 119.893 442.385 119.893C443.275 119.893 443.864 118.957 443.864 117.352C443.864 115.758 443.275 114.822 442.385 114.822ZM447.756 112.905V116.913H449.362V117.999H447.756V123.347H446.474V112.905H447.756ZM459.342 121.025V122.076H449.801V121.025H452.007V118.38C451.175 117.906 450.673 117.161 450.679 116.231C450.667 114.568 452.307 113.471 454.548 113.471C456.801 113.471 458.441 114.568 458.441 116.231C458.441 117.144 457.956 117.877 457.147 118.357V121.025H459.342ZM454.548 114.487C452.989 114.487 451.926 115.146 451.938 116.231C451.926 117.306 452.989 117.976 454.548 117.976C456.108 117.976 457.182 117.306 457.182 116.231C457.182 115.146 456.108 114.487 454.548 114.487ZM453.278 121.025H455.842V118.842C455.443 118.934 455.01 118.98 454.548 118.98C454.098 118.98 453.67 118.934 453.278 118.853V121.025Z" fill="white"/>
</g>
<path d="M450.938 151.123C446.238 140.838 447.63 135.177 448.849 130.074H428.221C433.026 143.278 444.584 147.615 450.938 151.123Z" fill="#87A9FF"/>
<path d="M373.687 575.663C423.65 575.663 464.153 535.159 464.153 485.196C464.153 435.233 423.65 394.73 373.687 394.73C323.724 394.73 283.221 435.233 283.221 485.196C283.221 535.159 323.724 575.663 373.687 575.663Z" fill="white"/>
<mask id="mask4_13287_6926" style="mask-type:alpha" maskUnits="userSpaceOnUse" x="283" y="394" width="182" height="182">
<path d="M373.687 575.663C423.65 575.663 464.153 535.159 464.153 485.196C464.153 435.233 423.65 394.73 373.687 394.73C323.724 394.73 283.221 435.233 283.221 485.196C283.221 535.159 323.724 575.663 373.687 575.663Z" fill="white"/>
</mask>
<g mask="url(#mask4_13287_6926)">
<path d="M374.321 486.859C390.608 486.859 403.811 473.656 403.811 457.369C403.811 441.082 390.608 427.879 374.321 427.879C358.034 427.879 344.831 441.082 344.831 457.369C344.831 473.656 358.034 486.859 374.321 486.859Z" fill="#CBE0FF"/>
<path d="M376.778 454.911C378.135 454.911 379.235 453.811 379.235 452.454C379.235 451.096 378.135 449.996 376.778 449.996C375.421 449.996 374.32 451.096 374.32 452.454C374.32 453.811 375.421 454.911 376.778 454.911Z" fill="#0F1A2A"/>
<path d="M391.523 445.079C392.88 445.079 393.98 443.979 393.98 442.622C393.98 441.264 392.88 440.164 391.523 440.164C390.166 440.164 389.065 441.264 389.065 442.622C389.065 443.979 390.166 445.079 391.523 445.079Z" fill="#0F1A2A"/>
<path d="M384.151 458.598C386.608 459.417 391.769 460.073 392.752 456.141" stroke="#0F1A2A" stroke-width="1.80932" stroke-linecap="round"/>
<path fill-rule="evenodd" clip-rule="evenodd" d="M391.328 433.276C386.522 429.876 380.654 427.879 374.319 427.879C358.032 427.879 344.829 441.082 344.829 457.369C344.829 468.689 351.206 478.519 360.564 483.462C362.206 478.807 361.883 472.259 359.277 465.74C359.1 465.297 358.915 464.861 358.723 464.433C363.729 461.362 367.706 455.816 369.177 448.951C369.412 447.856 369.574 446.767 369.669 445.688C373.113 444.125 375.975 441.752 377.869 438.794C383.147 438.416 387.912 436.415 391.328 433.276Z" fill="#0F1A2A"/>
<path d="M354.315 482.705C359.552 481.769 362.906 476.021 361.806 469.867C360.705 463.714 355.568 459.485 350.33 460.421C345.093 461.358 341.739 467.106 342.839 473.259C343.939 479.413 349.077 483.642 354.315 482.705Z" fill="#CBE0FF"/>
<path d="M386.608 448.77C387.817 449.375 388.078 450.986 387.123 451.942L386.608 452.456" stroke="#0F1A2A" stroke-width="1.80932" stroke-linecap="round"/>
<path d="M322.627 503.997C327.962 495.137 337.549 489.719 347.891 489.719H395.62C409.069 489.719 420.814 498.818 424.175 511.84L438.444 567.134C443.261 585.801 429.167 603.993 409.89 603.993H314.595C291.652 603.993 277.496 578.946 289.332 559.291L322.627 503.997Z" fill="#7EA5F8"/>
<path d="M374.321 467.197C377.036 467.197 379.236 464.997 379.236 462.282C379.236 459.568 377.036 457.367 374.321 457.367C371.607 457.367 369.406 459.568 369.406 462.282C369.406 464.997 371.607 467.197 374.321 467.197Z" fill="#FFD4E7"/>
<path d="M401.354 449.998C404.068 449.998 406.269 447.798 406.269 445.083C406.269 442.369 404.068 440.168 401.354 440.168C398.639 440.168 396.438 442.369 396.438 445.083C396.438 447.798 398.639 449.998 401.354 449.998Z" fill="#FFD4E7"/>
</g>
<path d="M380.02 498.767C381.019 498.767 381.83 497.957 381.83 496.958C381.83 495.959 381.019 495.148 380.02 495.148C379.021 495.148 378.211 495.959 378.211 496.958C378.211 497.957 379.021 498.767 380.02 498.767Z" fill="#FCFCFD"/>
<path d="M380.02 505.099C381.019 505.099 381.83 504.289 381.83 503.29C381.83 502.291 381.019 501.48 380.02 501.48C379.021 501.48 378.211 502.291 378.211 503.29C378.211 504.289 379.021 505.099 380.02 505.099Z" fill="#FCFCFD"/>
<path d="M380.02 511.431C381.019 511.431 381.83 510.621 381.83 509.622C381.83 508.623 381.019 507.812 380.02 507.812C379.021 507.812 378.211 508.623 378.211 509.622C378.211 510.621 379.021 511.431 380.02 511.431Z" fill="#FCFCFD"/>
<mask id="mask5_13287_6926" style="mask-type:luminance" maskUnits="userSpaceOnUse" x="357" y="367" width="126" height="36">
<path d="M475.447 367.59H363.926C360.193 367.59 357.167 370.616 357.167 374.349V395.47C357.167 399.203 360.193 402.229 363.926 402.229H475.447C479.18 402.229 482.206 399.203 482.206 395.47V374.349C482.206 370.616 479.18 367.59 475.447 367.59Z" fill="white"/>
</mask>
<g mask="url(#mask5_13287_6926)">
<path d="M475.447 367.59H363.926C360.193 367.59 357.167 370.616 357.167 374.349V395.47C357.167 399.203 360.193 402.229 363.926 402.229H475.447C479.18 402.229 482.206 399.203 482.206 395.47V374.349C482.206 370.616 479.18 367.59 475.447 367.59Z" fill="#3866D9"/>
<path d="M383.677 379.496V389.938H382.452V384.647H381.378V389.429H380.165V379.68H381.378V383.585H382.452V379.496H383.677ZM377.867 382.164C377.867 384.023 378.491 385.733 380.038 386.53L379.288 387.512C378.294 386.98 377.642 386.062 377.278 384.924C376.92 386.224 376.267 387.269 375.233 387.881L374.448 386.9C375.996 386.022 376.619 384.197 376.619 382.164V381.667H374.76V380.639H379.576V381.667H377.867V382.164ZM389.337 380.223V381.251H386.472V382.268H389.233V383.25H386.472V384.347C387.749 384.335 388.632 384.283 389.649 384.093L389.787 385.132C388.563 385.363 387.546 385.398 385.929 385.398H385.236V380.223H389.337ZM393.772 379.507V385.86H392.548V383.146H391.462V385.779H390.261V379.703H391.462V382.118H392.548V379.507H393.772ZM393.772 386.322V389.938H392.49V387.362H386.622V386.322H393.772ZM406.247 380.096V380.963C406.247 381.84 406.247 382.851 406.016 384.174H407.414V385.225H397.873V384.174H404.711C404.948 382.915 404.965 381.979 404.965 381.136H399.051V380.096H406.247ZM406.547 388.678V389.718H399.109V386.218H400.379V388.678H406.547ZM417.625 385.41V386.449H413.466V389.926H412.196V386.449H408.084V385.41H417.625ZM416.458 380.027V384.185H409.25V380.027H416.458ZM410.509 381.055V383.18H415.176V381.055H410.509ZM429.303 379.496V383.573H430.85V384.647H429.303V389.914H428.02V379.496H429.303ZM426.542 380.581C426.542 383.654 425.271 386.345 421.795 388.055L421.067 387.061C423.608 385.797 424.983 384.018 425.248 381.644H421.633V380.581H426.542ZM439.791 382.21V383.25H432.583V379.68H433.865V382.21H439.791ZM440.876 384.255V385.294H431.347V384.255H440.876ZM436.094 386.045C438.347 386.056 439.698 386.749 439.71 387.974C439.698 389.198 438.347 389.891 436.094 389.891C433.819 389.891 432.456 389.198 432.456 387.974C432.456 386.749 433.819 386.056 436.094 386.045ZM436.094 387.05C434.57 387.061 433.75 387.35 433.761 387.974C433.75 388.575 434.57 388.909 436.094 388.909C437.585 388.909 438.416 388.575 438.428 387.974C438.416 387.35 437.585 387.061 436.094 387.05ZM446.663 381.159V382.187H441.546V381.159H443.487V379.796H444.758V381.159H446.663ZM444.122 382.741C445.451 382.741 446.398 383.746 446.398 385.167C446.398 386.611 445.451 387.627 444.122 387.627C442.805 387.627 441.835 386.611 441.847 385.167C441.835 383.746 442.805 382.741 444.122 382.741ZM444.122 383.804C443.441 383.804 442.967 384.347 442.979 385.167C442.967 386.01 443.441 386.542 444.122 386.53C444.792 386.542 445.266 386.01 445.266 385.167C445.266 384.347 444.792 383.804 444.122 383.804ZM450.545 379.496V389.938H449.32V384.832H448.304V389.464H447.102V379.715H448.304V383.792H449.32V379.496H450.545ZM461.333 387.616V388.667H451.792V387.616H453.998V384.971C453.167 384.497 452.664 383.752 452.67 382.822C452.658 381.159 454.299 380.062 456.539 380.062C458.792 380.062 460.432 381.159 460.432 382.822C460.432 383.735 459.947 384.468 459.138 384.948V387.616H461.333ZM456.539 381.078C454.98 381.078 453.917 381.736 453.929 382.822C453.917 383.896 454.98 384.566 456.539 384.566C458.099 384.566 459.173 383.896 459.173 382.822C459.173 381.736 458.099 381.078 456.539 381.078ZM455.269 387.616H457.833V385.433C457.435 385.525 457.001 385.571 456.539 385.571C456.089 385.571 455.662 385.525 455.269 385.444V387.616ZM464.163 380.547L464.036 386.449H462.731L462.592 380.547H464.163ZM463.389 389.002C462.892 389.002 462.488 388.598 462.488 388.101C462.488 387.616 462.892 387.212 463.389 387.212C463.863 387.212 464.278 387.616 464.278 388.101C464.278 388.598 463.863 389.002 463.389 389.002Z" fill="white"/>
</g>
<path d="M401.926 417.436C406.626 407.151 405.233 401.49 404.015 396.387H424.642C419.838 409.59 408.279 413.928 401.926 417.436Z" fill="#3866D9"/>
<path opacity="0.5" d="M487 511C489.761 511 492 508.761 492 506C492 503.239 489.761 501 487 501C484.239 501 482 503.239 482 506C482 508.761 484.239 511 487 511Z" fill="#2563EB"/>
<path opacity="0.5" d="M517 436C518.657 436 520 434.657 520 433C520 431.343 518.657 430 517 430C515.343 430 514 431.343 514 433C514 434.657 515.343 436 517 436Z" fill="#2563EB"/>
<path opacity="0.5" d="M222 493C223.657 493 225 491.657 225 490C225 488.343 223.657 487 222 487C220.343 487 219 488.343 219 490C219 491.657 220.343 493 222 493Z" fill="#2563EB"/>
<path opacity="0.5" d="M229 153C230.657 153 232 151.657 232 150C232 148.343 230.657 147 229 147C227.343 147 226 148.343 226 150C226 151.657 227.343 153 229 153Z" fill="#2563EB"/>
<path opacity="0.5" d="M520 147C521.657 147 523 145.657 523 144C523 142.343 521.657 141 520 141C518.343 141 517 142.343 517 144C517 145.657 518.343 147 520 147Z" fill="#2563EB"/>
<path opacity="0.6" d="M267.26 517.001L259 524.266L264.944 531.023L273.204 523.758L267.26 517.001Z" fill="#FF88A1"/>
<path opacity="0.6" d="M175.253 183.943L168.59 182L167 187.452L173.663 189.395L175.253 183.943Z" fill="#FF88A1"/>
</svg>
