<svg width="79" height="26" viewBox="0 0 79 26" fill="none" xmlns="http://www.w3.org/2000/svg">
<path d="M0 13C0 5.8203 5.8203 0 13 0H66C73.1797 0 79 5.8203 79 13V13C79 20.1797 73.1797 26 66 26H13C5.8203 26 0 20.1797 0 13V13Z" fill="#1E2A3B"/>
<path d="M16.4531 14.0742V15.8906C17.4141 15.8379 18.3867 15.7559 19.3008 15.6211L19.3828 16.4414C17.0039 16.875 14.4609 16.8984 12.5859 16.8984L12.4453 15.9844C13.2891 15.9785 14.2852 15.9727 15.3398 15.9375V14.0742H16.4531ZM18.8086 9.83203V10.7344H16.4531C16.5117 11.9648 17.5078 13.0312 19.0781 13.4531L18.5625 14.3203C17.3086 13.9629 16.3711 13.2012 15.9023 12.1992C15.4395 13.2539 14.5195 14.0508 13.2539 14.4141L12.7266 13.5703C14.291 13.125 15.2754 12.0234 15.3281 10.7344H13.0078V9.83203H15.3398V8.57812H16.4531V9.83203H18.8086ZM21.0703 8.49609V19.0195H19.957V8.49609H21.0703ZM31.1484 9.11719V9.94922C31.1484 10.8398 31.1484 11.8828 30.8906 13.2656H32.3672V14.1797H22.7578V13.2656H29.7656C30.041 11.9004 30.0469 10.9043 30.0469 10.0195H23.9648V9.11719H31.1484ZM31.4648 17.8594V18.7734H24.0117V15.2695H25.1133V17.8594H31.4648ZM45.668 16.8047V17.7422H36.0586V16.8047H40.2891V14.9648H37.2305V11.625H43.3945V10.1484H37.207V9.23438H44.4961V12.5156H38.332V14.0508H44.7422V14.9648H41.3906V16.8047H45.668ZM54.75 9.5625V10.6875C54.75 12.0469 54.75 13.5234 54.3633 15.7617L53.2266 15.6562C53.6484 13.5586 53.6484 12.0117 53.6484 10.6875V10.4766H47.4609V9.5625H54.75ZM56.0039 16.582V17.5078H46.4297V16.582H56.0039ZM65.5078 8.50781V16.1367H64.3945V8.50781H65.5078ZM65.8242 17.8711V18.7734H58.6406V15.3633H59.7656V17.8711H65.8242ZM59.8125 9.21094C61.3945 9.21094 62.6016 10.2891 62.6016 11.8125C62.6016 13.3594 61.3945 14.4258 59.8125 14.4258C58.2305 14.4258 57.0117 13.3594 57.0117 11.8125C57.0117 10.2891 58.2305 9.21094 59.8125 9.21094ZM59.8125 10.1836C58.8281 10.1836 58.1016 10.8516 58.1016 11.8125C58.1016 12.7969 58.8281 13.4531 59.8125 13.4531C60.7734 13.4531 61.5117 12.7969 61.5117 11.8125C61.5117 10.8516 60.7734 10.1836 59.8125 10.1836Z" fill="white"/>
</svg>
