<svg width="320" height="200" viewBox="0 0 320 200" fill="none" xmlns="http://www.w3.org/2000/svg">
<rect x="102" y="95" width="8" height="3" rx="1.5" fill="#D3E1FE"/>
<rect x="138.959" y="59.9531" width="8" height="3" rx="1.5" transform="rotate(80.507 138.959 59.9531)" fill="#D3E1FE"/>
<rect x="230.408" y="109" width="8" height="3" rx="1.5" transform="rotate(53.3801 230.408 109)" fill="#D3E1FE"/>
<rect x="192.725" y="78" width="8" height="3" rx="1.5" transform="rotate(35.0954 192.725 78)" fill="#D3E1FE"/>
<rect x="109.023" y="26.2734" width="8" height="3" rx="1.5" transform="rotate(139.343 109.023 26.2734)" fill="#D3E1FE"/>
<rect x="211" y="36.4688" width="8" height="3" rx="1.5" transform="rotate(-33.9475 211 36.4688)" fill="#D3E1FE"/>
<rect x="109.914" y="76" width="3.5068" height="5.2796" rx="1" transform="rotate(21.2498 109.914 76)" fill="#4D82F3"/>
<rect x="222.395" y="68" width="3.5068" height="5.2796" rx="1" transform="rotate(56.3452 222.395 68)" fill="#4D82F3"/>
<rect x="101.023" y="55.9766" width="3.5068" height="5.2796" rx="1" transform="rotate(160.593 101.023 55.9766)" fill="#4D82F3"/>
<rect x="83.2832" y="38.8906" width="3.5068" height="5.2796" rx="1" transform="rotate(119.569 83.2832 38.8906)" fill="#4D82F3"/>
<rect x="189.695" y="61.625" width="3.5068" height="5.2796" rx="1" transform="rotate(-118.9 189.695 61.625)" fill="#4D82F3"/>
<rect x="165.188" y="80.2578" width="3.5068" height="5.2796" rx="1" transform="rotate(-155.399 165.188 80.2578)" fill="#4D82F3"/>
<rect x="239" y="54.0391" width="3.5068" height="5.2796" rx="1" transform="rotate(-59.9413 239 54.0391)" fill="#4D82F3"/>
<rect x="60" y="75.9922" width="5.51592" height="5.1422" rx="2" transform="rotate(-32.8575 60 75.9922)" fill="#7EA5F8"/>
<rect x="162.81" y="43" width="5.51592" height="5.1422" rx="2" transform="rotate(47.6495 162.81 43)" fill="#7EA5F8"/>
<rect x="68.8027" y="109" width="5.51592" height="5.1422" rx="2" transform="rotate(20.5226 68.8027 109)" fill="#7EA5F8"/>
<rect x="150.803" y="15" width="5.51592" height="5.1422" rx="2" transform="rotate(20.5226 150.803 15)" fill="#7EA5F8"/>
<rect x="208.201" y="53" width="5.51592" height="5.1422" rx="2" transform="rotate(2.2379 208.201 53)" fill="#7EA5F8"/>
<rect x="219.201" y="94" width="5.51592" height="5.1422" rx="2" transform="rotate(2.2379 219.201 94)" fill="#7EA5F8"/>
<rect x="135.873" y="37.9141" width="5.51592" height="5.1422" rx="2" transform="rotate(106.486 135.873 37.9141)" fill="#7EA5F8"/>
<rect x="146.054" y="91" width="5.51592" height="5.1422" rx="2" transform="rotate(79.3586 146.054 91)" fill="#7EA5F8"/>
<rect x="181" y="29.0703" width="5.51592" height="5.1422" rx="2" transform="rotate(-66.8051 181 29.0703)" fill="#7EA5F8"/>
<g filter="url(#filter0_d_13181_5448)">
<rect x="118.5" y="95.5" width="78" height="95" rx="15.5" fill="#EDF3FF" stroke="#F1F4F9"/>
<rect x="122" y="99" width="71" height="88" rx="12" fill="#D3E1FE"/>
<path d="M172.355 160.05C173.056 159.958 173.768 160.116 174.364 160.498L198.922 176.216C200.317 177.109 200.724 178.965 199.831 180.36L198.167 182.961C197.273 184.356 195.418 184.764 194.023 183.87L169.465 168.152C168.869 167.77 168.427 167.191 168.217 166.515L166.802 161.96C166.618 161.368 167.012 160.753 167.626 160.672L172.355 160.05Z" fill="#7EA5F8"/>
<rect x="130" y="110" width="56" height="4" rx="2" fill="#7EA5F8"/>
<rect x="130" y="125" width="56" height="4" rx="2" fill="#7EA5F8"/>
<rect x="130" y="140" width="56" height="4" rx="2" fill="#7EA5F8"/>
<rect x="130" y="155" width="32" height="4" rx="2" fill="#7EA5F8"/>
</g>
<defs>
<filter id="filter0_d_13181_5448" x="117" y="94" width="88.3047" height="102" filterUnits="userSpaceOnUse" color-interpolation-filters="sRGB">
<feFlood flood-opacity="0" result="BackgroundImageFix"/>
<feColorMatrix in="SourceAlpha" type="matrix" values="0 0 0 0 0 0 0 0 0 0 0 0 0 0 0 0 0 0 127 0" result="hardAlpha"/>
<feOffset dx="2" dy="2"/>
<feGaussianBlur stdDeviation="1.5"/>
<feComposite in2="hardAlpha" operator="out"/>
<feColorMatrix type="matrix" values="0 0 0 0 0 0 0 0 0 0 0 0 0 0 0 0 0 0 0.08 0"/>
<feBlend mode="normal" in2="BackgroundImageFix" result="effect1_dropShadow_13181_5448"/>
<feBlend mode="normal" in="SourceGraphic" in2="effect1_dropShadow_13181_5448" result="shape"/>
</filter>
</defs>
</svg>
