<svg width="17" height="16" viewBox="0 0 17 16" fill="none" xmlns="http://www.w3.org/2000/svg">
<path d="M8.20057 0.00070286H8.26257C9.75724 0.00070286 11.1559 0.409369 12.3539 1.1207L12.3172 1.10004C13.5431 1.81106 14.5648 2.82648 15.2832 4.04804L15.3039 4.0867C16.0298 5.33477 16.4104 6.75356 16.4066 8.19737C16.4066 11.8014 14.0846 14.864 10.8552 15.9694L10.7972 15.9867C10.725 16.0087 10.6486 16.0133 10.5742 16.0002C10.4999 15.9872 10.4296 15.9567 10.3692 15.9114L10.3706 15.912C10.3267 15.8731 10.2917 15.8252 10.2678 15.7716C10.2439 15.7181 10.2317 15.66 10.2319 15.6014V15.592V15.5927L10.2372 14.7754C10.2408 14.2518 10.2426 13.7731 10.2426 13.3394C10.2675 13.0614 10.2306 12.7813 10.1346 12.5192C10.0386 12.2571 9.88583 12.0195 9.68724 11.8234C10.0738 11.786 10.4568 11.718 10.8326 11.62L10.7819 11.6314C11.1404 11.5332 11.4848 11.3894 11.8066 11.2034L11.7859 11.2147C12.1145 11.0354 12.4066 10.7962 12.6472 10.5094L12.6512 10.5047C12.9057 10.178 13.0958 9.80579 13.2112 9.40804L13.2172 9.3847C13.3643 8.89126 13.4382 8.37892 13.4366 7.86404L13.4359 7.77337V7.77804L13.4366 7.73004C13.4376 6.931 13.1352 6.16137 12.5906 5.5767L12.5926 5.5787C12.7046 5.28537 12.7692 4.9467 12.7692 4.5927C12.7698 4.17466 12.6778 3.76167 12.4999 3.38337L12.5072 3.4007C12.2107 3.34582 11.9044 3.38814 11.6339 3.52137L11.6419 3.51804C11.2909 3.64614 10.9533 3.80824 10.6339 4.00204L10.6592 3.98737L10.2532 4.24337C9.63857 4.06737 8.93257 3.96604 8.20324 3.96604C7.47391 3.96604 6.76791 4.06737 6.09857 4.2567L6.15257 4.24337C6.0388 4.16515 5.88746 4.06893 5.69857 3.9547C5.42667 3.8006 5.14314 3.66797 4.85057 3.55804L4.80657 3.54337C4.52535 3.39677 4.20374 3.34664 3.89124 3.4007L3.89991 3.39937C3.72599 3.7726 3.63653 4.17961 3.63791 4.59137C3.63791 4.94537 3.70257 5.2847 3.82124 5.59737L3.81457 5.57804C3.25868 6.17499 2.95632 6.96447 2.97124 7.78004V7.77737L2.97057 7.86404C2.97057 8.40337 3.05057 8.9247 3.19991 9.41537L3.18991 9.37737C3.31591 9.80604 3.50724 10.1787 3.75657 10.506L3.75057 10.4974C3.98486 10.7846 4.27148 11.0249 4.59524 11.2054L4.60991 11.2127C4.89791 11.3807 5.23191 11.5227 5.58324 11.622L5.61391 11.6294C5.92457 11.7127 6.29657 11.7807 6.67724 11.8187L6.70791 11.8214C6.42057 12.1067 6.22924 12.488 6.18524 12.9134L6.18457 12.9214C6.03631 12.9928 5.87979 13.0456 5.71857 13.0787L5.70457 13.0814C5.53391 13.1154 5.33857 13.1347 5.13791 13.1347H5.09391H5.09591C4.84358 13.1292 4.59867 13.0484 4.39257 12.9027L4.39657 12.9054C4.1518 12.7355 3.95057 12.5103 3.80924 12.248L3.80457 12.238C3.67633 12.019 3.50155 11.8308 3.29257 11.6867L3.28657 11.6827C3.13168 11.5663 2.95614 11.4804 2.76924 11.4294L2.75857 11.4267L2.54524 11.3947C2.43817 11.3869 2.33074 11.4037 2.23124 11.444L2.23591 11.442C2.17902 11.474 2.16124 11.5149 2.18257 11.5647C2.20835 11.6216 2.24057 11.6716 2.27924 11.7147L2.27857 11.714C2.31946 11.762 2.36502 11.8043 2.41524 11.8407L2.41724 11.842L2.49191 11.8954C2.68057 11.994 2.83591 12.1314 2.95391 12.2974L2.95657 12.3014C3.08391 12.4594 3.19591 12.638 3.28591 12.8294L3.29257 12.8454L3.39924 13.0907C3.48924 13.3587 3.65257 13.5827 3.86591 13.7447L3.86924 13.7474C4.06924 13.9034 4.31057 14.0154 4.57391 14.066L4.58457 14.0674C4.80457 14.11 5.06057 14.1367 5.32191 14.142H5.32657C5.35724 14.1429 5.39057 14.1434 5.42657 14.1434C5.6008 14.1434 5.77124 14.1296 5.93791 14.102L5.91991 14.1047L6.16524 14.062C6.16524 14.3327 6.16702 14.6478 6.17057 15.0074C6.17413 15.3669 6.17591 15.5609 6.17591 15.5894V15.5987C6.17591 15.722 6.12257 15.8327 6.03724 15.9094C5.97651 15.9548 5.90521 15.9852 5.83047 15.9981C5.75572 16.0109 5.679 16.0059 5.60657 15.9834L5.60991 15.984C2.32391 14.858 0.00390625 11.7954 0.00390625 8.1907C0.00390625 6.6787 0.411906 5.26204 1.12457 4.0447L1.10324 4.08337C1.81426 2.85746 2.82969 1.83584 4.05124 1.11737L4.08991 1.0967C5.31663 0.374533 6.71507 -0.0042631 8.13857 3.61936e-05H8.20391H8.20057V0.00070286ZM3.10724 11.778C3.12857 11.7283 3.10368 11.6856 3.03257 11.65C2.96146 11.6287 2.91524 11.6358 2.89391 11.6714C2.87257 11.7211 2.89746 11.7638 2.96857 11.7994C3.03257 11.842 3.0788 11.8349 3.10724 11.778ZM3.43857 12.1414C3.48835 12.1058 3.48124 12.0489 3.41724 11.9707C3.34613 11.9067 3.28924 11.896 3.24657 11.9387C3.1968 11.9743 3.20391 12.0311 3.26791 12.1094C3.33857 12.1791 3.39546 12.1896 3.43857 12.1407V12.1414ZM3.75857 12.6214C3.82257 12.5716 3.82257 12.504 3.75857 12.4187C3.70168 12.3263 3.64124 12.3049 3.57724 12.3547C3.51324 12.3903 3.51324 12.4543 3.57724 12.5467C3.64124 12.6391 3.70168 12.664 3.75857 12.6214ZM4.20657 13.07C4.26346 13.0131 4.24924 12.9456 4.16391 12.8674C4.07857 12.782 4.00746 12.7714 3.95057 12.8354C3.88657 12.8923 3.9008 12.9598 3.99324 13.038C4.07857 13.1234 4.14968 13.1331 4.20657 13.0674V13.07ZM4.81524 13.3367C4.83657 13.2585 4.79035 13.2016 4.67657 13.166C4.56991 13.1376 4.50235 13.1625 4.47391 13.2407C4.44546 13.3189 4.49168 13.3723 4.61257 13.4007C4.71924 13.4438 4.7868 13.4225 4.81524 13.3367ZM5.48791 13.39C5.48791 13.2976 5.42746 13.2585 5.30657 13.2727C5.1928 13.2727 5.13591 13.3118 5.13591 13.39C5.13591 13.4825 5.19635 13.5216 5.31724 13.5074C5.43102 13.5078 5.48791 13.4683 5.48791 13.39ZM6.10724 13.2834C6.09302 13.2051 6.02902 13.1731 5.91524 13.1874C5.80146 13.2087 5.75168 13.262 5.76591 13.3474C5.78013 13.4327 5.84413 13.4611 5.95791 13.4327C6.07168 13.4043 6.12102 13.3545 6.10724 13.2834Z" fill="black"/>
</svg>
