<svg width="21" height="21" viewBox="0 0 21 21" fill="none" xmlns="http://www.w3.org/2000/svg">
<path id="Vector" fill-rule="evenodd" clip-rule="evenodd" d="M15.0172 0.136719C16.4906 0.136719 17.9037 0.722035 18.9456 1.7639C19.9874 2.80577 20.5728 4.21885 20.5728 5.69227V14.5812C20.5728 16.0546 19.9874 17.4677 18.9456 18.5095C17.9037 19.5514 16.4906 20.1367 15.0172 20.1367H6.12831C4.65488 20.1367 3.24181 19.5514 2.19994 18.5095C1.15807 17.4677 0.572754 16.0546 0.572754 14.5812V5.69227C0.572754 4.21885 1.15807 2.80577 2.19994 1.7639C3.24181 0.722035 4.65488 0.136719 6.12831 0.136719H15.0172ZM15.0172 2.35894H6.12831C5.24425 2.35894 4.39641 2.71013 3.77129 3.33525C3.14617 3.96037 2.79498 4.80822 2.79498 5.69227V14.5812C2.79498 15.4652 3.14617 16.3131 3.77129 16.9382C4.39641 17.5633 5.24425 17.9145 6.12831 17.9145H15.0172C15.9013 17.9145 16.7491 17.5633 17.3742 16.9382C17.9993 16.3131 18.3505 15.4652 18.3505 14.5812V5.69227C18.3505 4.80822 17.9993 3.96037 17.3742 3.33525C16.7491 2.71013 15.9013 2.35894 15.0172 2.35894ZM10.5728 5.69227C11.7515 5.69227 12.882 6.16053 13.7155 6.99402C14.5489 7.82752 15.0172 8.95798 15.0172 10.1367C15.0172 11.3155 14.5489 12.4459 13.7155 13.2794C12.882 14.1129 11.7515 14.5812 10.5728 14.5812C9.39401 14.5812 8.26355 14.1129 7.43006 13.2794C6.59656 12.4459 6.12831 11.3155 6.12831 10.1367C6.12831 8.95798 6.59656 7.82752 7.43006 6.99402C8.26355 6.16053 9.39401 5.69227 10.5728 5.69227ZM10.5728 7.9145C9.98338 7.9145 9.41815 8.14862 9.00141 8.56537C8.58466 8.98212 8.35053 9.54735 8.35053 10.1367C8.35053 10.7261 8.58466 11.2913 9.00141 11.7081C9.41815 12.1248 9.98338 12.3589 10.5728 12.3589C11.1621 12.3589 11.7274 12.1248 12.1441 11.7081C12.5608 11.2913 12.795 10.7261 12.795 10.1367C12.795 9.54735 12.5608 8.98212 12.1441 8.56537C11.7274 8.14862 11.1621 7.9145 10.5728 7.9145ZM15.5728 4.02561C15.8674 4.02561 16.1501 4.14267 16.3584 4.35104C16.5668 4.55942 16.6839 4.84203 16.6839 5.13672C16.6839 5.4314 16.5668 5.71402 16.3584 5.92239C16.1501 6.13077 15.8674 6.24783 15.5728 6.24783C15.2781 6.24783 14.9955 6.13077 14.7871 5.92239C14.5787 5.71402 14.4616 5.4314 14.4616 5.13672C14.4616 4.84203 14.5787 4.55942 14.7871 4.35104C14.9955 4.14267 15.2781 4.02561 15.5728 4.02561Z" fill="#27364B"/>
</svg>
