<svg width="20" height="20" viewBox="0 0 20 20" fill="none" xmlns="http://www.w3.org/2000/svg">
<circle cx="10" cy="10" r="10" fill="black"/>
<rect x="5" y="4.63672" width="10.3125" height="10.3125" fill="white"/>
<path d="M3.71042 3.44689C3.91856 3.43437 4.12727 3.43437 4.33542 3.44689H16.1135C16.1739 3.4389 16.2353 3.44455 16.2932 3.46349C16.3511 3.48242 16.4039 3.51413 16.4479 3.55626C16.6042 3.71564 16.5479 3.95315 16.5573 4.15315C16.5573 8.16148 16.5573 12.1719 16.5573 16.1844C16.556 16.2394 16.5432 16.2936 16.5195 16.3433C16.4959 16.393 16.462 16.4371 16.4201 16.4728C16.3782 16.5085 16.3292 16.535 16.2764 16.5505C16.2236 16.5659 16.1681 16.57 16.1135 16.5625H3.81979C3.76941 16.5647 3.71912 16.5564 3.67208 16.5382C3.62504 16.5201 3.58228 16.4923 3.54647 16.4568C3.51066 16.4213 3.48259 16.3788 3.46402 16.3319C3.44544 16.285 3.43677 16.2348 3.43854 16.1844V3.82813C3.43209 3.74282 3.45576 3.65793 3.50544 3.58827C3.55512 3.5186 3.62765 3.46859 3.71042 3.44689ZM6.40104 6.70937C6.40104 8.89687 6.40104 11.0844 6.40104 13.2719H8.86354C8.86354 12.1875 8.84792 11.0844 8.86354 10.0156C9.13229 10.3906 9.37917 10.7844 9.65417 11.1562C10.1135 11.8687 10.6323 12.5406 11.0729 13.2656C11.8979 13.2875 12.7229 13.2656 13.551 13.2656C13.551 13.1625 13.5667 13.0594 13.5667 12.9531C13.5667 10.8656 13.5667 8.77499 13.5667 6.70312C12.7479 6.70312 11.9323 6.70312 11.1167 6.70312C11.1167 7.79374 11.1167 8.89061 11.1167 9.97498C10.3573 8.89686 9.64167 7.78751 8.86354 6.71876C8.04479 6.68438 7.21354 6.70937 6.40104 6.70937Z" fill="black"/>
<path d="M5.01453 4.0625H14.9883C15.24 4.0625 15.4815 4.16251 15.6595 4.34052C15.8375 4.51853 15.9375 4.75996 15.9375 5.01171V14.9855C15.9375 15.1105 15.9129 15.2343 15.865 15.3498C15.8172 15.4653 15.7471 15.5703 15.6587 15.6587C15.5703 15.7471 15.4653 15.8172 15.3498 15.865C15.2343 15.9129 15.1105 15.9375 14.9855 15.9375H5.01453C4.88951 15.9375 4.76571 15.9129 4.6502 15.865C4.5347 15.8172 4.42975 15.7471 4.34134 15.6587C4.25294 15.5703 4.18281 15.4653 4.13497 15.3498C4.08712 15.2343 4.0625 15.1105 4.0625 14.9855V5.01171C4.06325 4.7597 4.16388 4.51828 4.34234 4.34035C4.5208 4.16242 4.76252 4.0625 5.01453 4.0625Z" fill="black"/>
<path d="M10.0289 4.82617C6.91773 4.82617 4.40869 6.83338 4.40869 9.27016C4.40869 10.8519 5.45245 12.2368 7.01809 13.0277L6.48818 15.0068C6.47819 15.0365 6.47666 15.0683 6.48375 15.0988C6.49084 15.1293 6.50627 15.1572 6.52833 15.1794C6.56049 15.2078 6.60187 15.2235 6.64475 15.2236C6.6803 15.2207 6.71403 15.2067 6.74109 15.1835L9.02131 13.6459C9.3579 13.6924 9.69719 13.7165 10.037 13.7182C13.1442 13.7182 15.6572 11.711 15.6572 9.27016C15.6572 6.82937 13.1361 4.82617 10.0289 4.82617Z" fill="white"/>
<path d="M6.37559 8.56786H5.76137C5.68525 8.57007 5.61006 8.55057 5.54459 8.51165C5.51553 8.49344 5.49054 8.46941 5.4712 8.44109C5.45185 8.41276 5.43857 8.38074 5.43219 8.34705C5.43024 8.32568 5.43024 8.30422 5.43219 8.28285C5.43028 8.24287 5.43804 8.203 5.45481 8.16666C5.47159 8.13032 5.49687 8.09857 5.52853 8.07409C5.59852 8.0234 5.683 7.99663 5.7694 7.99779H7.62007C7.6968 7.99509 7.7725 8.01613 7.83685 8.05802C7.8666 8.07542 7.89212 8.09924 7.91156 8.1277C7.93099 8.15616 7.94387 8.18858 7.94926 8.22262C7.95122 8.24265 7.95122 8.26282 7.94926 8.28285C7.95115 8.3234 7.94341 8.36382 7.92666 8.4008C7.90991 8.43779 7.88464 8.47025 7.85291 8.49558C7.78463 8.5462 7.70097 8.57175 7.61605 8.56786H7.02192V10.6795C7.02433 10.7245 7.01737 10.7694 7.00147 10.8116C6.98558 10.8537 6.9611 10.8922 6.92958 10.9243C6.89936 10.9551 6.86304 10.9793 6.82293 10.9952C6.78283 11.0111 6.73985 11.0184 6.69674 11.0167C6.62135 11.0188 6.54755 10.9947 6.48799 10.9485C6.43128 10.9033 6.3928 10.8391 6.3796 10.7678C6.37563 10.7385 6.37563 10.7088 6.3796 10.6795L6.37559 8.56786Z" fill="black"/>
<path d="M8.12647 8.15444C8.14413 8.08838 8.18559 8.03118 8.24289 7.99385C8.30394 7.95925 8.37351 7.94256 8.44361 7.94568H8.59616C8.67055 7.94302 8.74422 7.96109 8.80893 7.99787C8.8775 8.04399 8.92623 8.1142 8.94542 8.19458L9.74831 10.4628C9.76913 10.5219 9.78655 10.5823 9.8005 10.6434C9.80187 10.6688 9.80187 10.6943 9.8005 10.7197C9.80186 10.7588 9.79466 10.7978 9.7794 10.8338C9.76415 10.8699 9.74121 10.9022 9.71218 10.9285C9.68406 10.9573 9.65029 10.98 9.61299 10.9952C9.5757 11.0104 9.53566 11.0177 9.4954 11.0168C9.43348 11.0229 9.3713 11.0081 9.31886 10.9746C9.26643 10.9411 9.2268 10.8909 9.20636 10.8321L9.03775 10.3383H7.98195L7.81334 10.8321C7.7934 10.892 7.75329 10.9432 7.69985 10.9769C7.64642 11.0105 7.58296 11.0246 7.52029 11.0168C7.4524 11.0185 7.38591 10.9973 7.33161 10.9565C7.2787 10.9145 7.243 10.8545 7.23124 10.788C7.22911 10.7653 7.22911 10.7424 7.23124 10.7197C7.22435 10.6798 7.22435 10.6391 7.23124 10.5993C7.23124 10.5551 7.25935 10.5069 7.2754 10.4628L8.12647 8.15444ZM8.52792 8.68036L8.14654 9.8847H8.90527L8.52792 8.68036Z" fill="black"/>
<path d="M9.89244 8.2829C9.88836 8.19281 9.92011 8.10477 9.98075 8.03802C10.0116 8.00693 10.0486 7.98262 10.0894 7.96672C10.1302 7.95081 10.1739 7.94362 10.2176 7.94565C10.2928 7.94477 10.3662 7.96878 10.4264 8.01391C10.4821 8.061 10.5192 8.1265 10.5307 8.19856C10.5347 8.22652 10.5347 8.25494 10.5307 8.2829V10.3945H11.6347C11.7112 10.3935 11.7865 10.4144 11.8515 10.4547C11.8807 10.4727 11.9058 10.4967 11.9252 10.5251C11.9446 10.5534 11.9578 10.5855 11.9639 10.6193C11.9639 10.6193 11.9639 10.6594 11.9639 10.6795C11.9658 10.7195 11.958 10.7593 11.9413 10.7957C11.9245 10.832 11.8992 10.8638 11.8676 10.8883C11.7976 10.939 11.7131 10.9657 11.6267 10.9645H10.2698C10.1834 10.9701 10.0975 10.9476 10.0249 10.9003C9.96001 10.8518 9.91676 10.7797 9.90448 10.6996C9.90154 10.6555 9.90154 10.6112 9.90448 10.5671L9.89244 8.2829Z" fill="black"/>
<path d="M12.0362 8.28261C12.0338 8.19278 12.0653 8.10535 12.1245 8.03774C12.1847 7.98306 12.2619 7.95078 12.3431 7.94639C12.4242 7.942 12.5044 7.96576 12.5701 8.01363C12.6271 8.0603 12.6656 8.12577 12.6785 8.19827C12.6805 8.22634 12.6805 8.25455 12.6785 8.28261V9.26614L13.6942 8.09389C13.7333 8.0539 13.7749 8.0164 13.8186 7.98153C13.8599 7.95697 13.9072 7.94442 13.9551 7.94536C14.0253 7.94498 14.0939 7.96599 14.1518 8.00559C14.1791 8.02397 14.2024 8.04768 14.2204 8.07527C14.2383 8.10286 14.2505 8.13377 14.2562 8.16618C14.2578 8.17412 14.2578 8.18234 14.2562 8.19029C14.2543 8.19955 14.2543 8.2091 14.2562 8.21837C14.2561 8.26061 14.245 8.30212 14.2241 8.33882C14.2028 8.37768 14.1772 8.414 14.1478 8.44717L13.4814 9.17783L14.2843 10.4223V10.4624C14.326 10.52 14.3585 10.5837 14.3807 10.6512V10.6712C14.3853 10.7177 14.3786 10.7647 14.3611 10.808C14.3436 10.8514 14.3159 10.8898 14.2803 10.9201C14.2133 10.9707 14.1314 10.9976 14.0475 10.9964C13.9917 10.9987 13.9363 10.9862 13.8869 10.9602C13.8334 10.9244 13.7894 10.8762 13.7584 10.8197L13.0117 9.61539L12.6544 9.98876V10.6591C12.6568 10.749 12.6253 10.8364 12.5661 10.904C12.5344 10.935 12.4967 10.9592 12.4552 10.9751C12.4138 10.991 12.3696 10.9982 12.3253 10.9964C12.2512 10.9979 12.1789 10.9738 12.1205 10.9281C12.0638 10.8829 12.0253 10.8188 12.0121 10.7475C12.0082 10.7182 12.0082 10.6884 12.0121 10.6591L12.0362 8.28261Z" fill="black"/>
</svg>
