<svg width="20" height="20" viewBox="0 0 20 20" fill="none" xmlns="http://www.w3.org/2000/svg">
<g clip-path="url(#clip0_1328_16660)">
<path d="M15.4308 20H4.56917C2.05403 20 0 17.9413 0 15.4308V4.56917C0 2.05869 2.05869 0 4.56917 0H15.4308C17.946 0 20 2.05869 20 4.56917V15.4308C20 17.946 17.946 20 15.4308 20Z" fill="black"/>
<path fill-rule="evenodd" clip-rule="evenodd" d="M14.7555 4.01025H5.17934C3.82396 4.01025 2.72009 5.11878 2.72009 6.4695V12.422C2.72009 13.7774 3.82862 14.8812 5.17934 14.8812H8.5608L9.14301 15.8873L9.7159 16.8794C9.81837 17.061 10.0792 17.061 10.1863 16.8794L10.7592 15.8873L11.3414 14.8812H14.7601C16.1155 14.8812 17.2194 13.7727 17.2194 12.422V6.47416C17.2194 5.11878 16.1109 4.01025 14.7555 4.01025ZM10.6381 8.36983C9.89753 8.36983 9.29669 8.96135 9.29669 9.6926C9.29669 10.4239 9.89753 11.0154 10.6381 11.0154C11.3787 11.0154 11.9795 10.4239 11.9795 9.6926C11.9795 8.96135 11.3833 8.36983 10.6381 8.36983ZM10.6381 10.326C10.2841 10.326 9.99534 10.0419 9.99534 9.6926C9.99534 9.34328 10.2841 9.05916 10.6381 9.05916C10.9921 9.05916 11.2809 9.34328 11.2809 9.6926C11.2809 10.0419 10.9967 10.326 10.6381 10.326ZM5.62645 8.67258C5.83605 8.48161 6.10619 8.36983 6.39497 8.36983C7.06567 8.36983 7.6013 8.96601 7.6013 9.69727C7.6013 10.4285 7.06101 11.02 6.39497 11.02C6.10153 11.02 5.83605 10.9036 5.62645 10.7173V10.9548H4.88123V7.57803H5.62645V8.67258ZM5.63111 9.95344C5.73358 10.191 5.97112 10.354 6.24592 10.354C6.61853 10.354 6.91662 10.0606 6.91662 9.69261C6.91662 9.32465 6.61853 9.03122 6.24592 9.03122C5.97112 9.03122 5.73358 9.19424 5.63111 9.43178C5.59385 9.51096 5.57522 9.59946 5.57522 9.69261C5.57522 9.78576 5.59851 9.87426 5.63111 9.95344ZM14.3037 8.42573V8.63532C14.0941 8.47231 13.8333 8.3745 13.5538 8.3745C12.8691 8.3745 12.3149 8.94739 12.3149 9.6507C12.3149 10.354 12.8691 10.9269 13.5538 10.9269C13.8379 10.9269 14.0988 10.8291 14.3037 10.6661V11.02C14.3037 11.02 14.2292 11.3694 13.7075 11.3694V12.0261C13.7075 12.0261 14.2711 12.0913 14.7741 11.5883C14.7741 11.5883 15.007 11.3414 15.0582 11.0154V8.42573H14.3037ZM13.6935 10.2981C13.3163 10.2981 13.0135 10.0047 13.0135 9.64604C13.0135 9.2874 13.3209 8.99397 13.6935 8.99397C13.959 8.99397 14.1919 9.14301 14.3037 9.35726C14.3503 9.44576 14.3736 9.54357 14.3736 9.64604C14.3736 9.74851 14.3456 9.85098 14.3037 9.93481C14.1919 10.1537 13.959 10.2981 13.6935 10.2981ZM7.68518 8.18818V7.51282C7.68518 7.51282 8.17889 7.44762 8.61671 7.96462C8.61671 7.96462 8.81699 8.21613 8.86357 8.55148V8.57011V10.9548H8.09506V8.57011C8.02985 8.23476 7.68518 8.18818 7.68518 8.18818Z" fill="white"/>
</g>
<defs>
<clipPath id="clip0_1328_16660">
<rect width="20" height="20" fill="white"/>
</clipPath>
</defs>
</svg>
