<svg width="20" height="20" viewBox="0 0 20 20" fill="none" xmlns="http://www.w3.org/2000/svg">
<g clip-path="url(#clip0_1646_25772)">
<path d="M15.4308 20H4.56917C2.05403 20 0 17.9413 0 15.4308V4.56917C0 2.05869 2.05869 0 4.56917 0H15.4308C17.946 0 20 2.05869 20 4.56917V15.4308C20 17.946 17.946 20 15.4308 20Z" fill="#27364B"/>
<path fill-rule="evenodd" clip-rule="evenodd" d="M14.7555 4.01025H5.17934C3.82396 4.01025 2.72009 5.11878 2.72009 6.4695V12.422C2.72009 13.7774 3.82862 14.8812 5.17934 14.8812H8.5608L9.14301 15.8873L9.7159 16.8794C9.81837 17.061 10.0792 17.061 10.1863 16.8794L10.7592 15.8873L11.3414 14.8812H14.7601C16.1155 14.8812 17.2194 13.7727 17.2194 12.422V6.47416C17.2194 5.11878 16.1109 4.01025 14.7555 4.01025ZM10.6381 8.36987C9.8975 8.36987 9.29666 8.9614 9.29666 9.69265C9.29666 10.4239 9.8975 11.0154 10.6381 11.0154C11.3786 11.0154 11.9795 10.4239 11.9795 9.69265C11.9795 8.9614 11.3833 8.36987 10.6381 8.36987ZM10.6381 10.3261C10.2841 10.3261 9.99531 10.042 9.99531 9.69265C9.99531 9.34333 10.2841 9.05921 10.6381 9.05921C10.9921 9.05921 11.2808 9.34333 11.2808 9.69265C11.2808 10.042 10.9967 10.3261 10.6381 10.3261ZM5.62645 8.67268C5.83605 8.48171 6.10619 8.36993 6.39497 8.36993C7.06567 8.36993 7.6013 8.96611 7.6013 9.69737C7.6013 10.4286 7.06101 11.0201 6.39497 11.0201C6.10153 11.0201 5.83605 10.9037 5.62645 10.7174V10.9549H4.88123V7.57812H5.62645V8.67268ZM5.63111 9.95354C5.73358 10.1911 5.97112 10.3541 6.24592 10.3541C6.61853 10.3541 6.91662 10.0607 6.91662 9.69271C6.91662 9.32475 6.61853 9.03132 6.24592 9.03132C5.97112 9.03132 5.73358 9.19434 5.63111 9.43188C5.59385 9.51106 5.57522 9.59956 5.57522 9.69271C5.57522 9.78586 5.59851 9.87436 5.63111 9.95354ZM14.3037 8.42575V8.63534C14.0941 8.47232 13.8333 8.37451 13.5538 8.37451C12.8691 8.37451 12.3149 8.9474 12.3149 9.65071C12.3149 10.354 12.8691 10.9269 13.5538 10.9269C13.8379 10.9269 14.0988 10.8291 14.3037 10.6661V11.0201C14.3037 11.0201 14.2292 11.3694 13.7075 11.3694V12.0261C13.7075 12.0261 14.2711 12.0913 14.7741 11.5883C14.7741 11.5883 15.007 11.3414 15.0582 11.0154V8.42575H14.3037ZM13.6935 10.2981C13.3163 10.2981 13.0135 10.0047 13.0135 9.64605C13.0135 9.28741 13.3209 8.99398 13.6935 8.99398C13.959 8.99398 14.1919 9.14303 14.3037 9.35728C14.3503 9.44577 14.3736 9.54358 14.3736 9.64605C14.3736 9.74852 14.3456 9.85099 14.3037 9.93483C14.1919 10.1537 13.959 10.2981 13.6935 10.2981ZM7.68517 8.18826V7.5129C7.68517 7.5129 8.17888 7.44769 8.6167 7.96469C8.6167 7.96469 8.81698 8.21621 8.86355 8.55156V8.57019V10.9549H8.09504V8.57019C8.02983 8.23484 7.68517 8.18826 7.68517 8.18826Z" fill="white"/>
</g>
<defs>
<clipPath id="clip0_1646_25772">
<rect width="20" height="20" fill="white"/>
</clipPath>
</defs>
</svg>
