<svg width="16" height="16" viewBox="0 0 16 16" fill="none" xmlns="http://www.w3.org/2000/svg">
<path d="M2.9742 2.80481C3.4692 3.20831 3.6567 3.17981 4.5912 3.11731L13.4012 2.58881C13.5887 2.58881 13.4327 2.40131 13.3697 2.36981L11.9062 1.31231C11.6277 1.09331 11.2527 0.846314 10.5362 0.905814L2.0077 1.53081C1.6952 1.55931 1.6327 1.71581 1.7577 1.84081L2.9742 2.80481ZM3.5027 4.85981V14.1278C3.5027 14.6253 3.7502 14.8128 4.3102 14.7813L13.9927 14.2213C14.5527 14.1898 14.6177 13.8488 14.6177 13.4428V4.23731C14.6177 3.83081 14.4612 3.61481 14.1177 3.64631L4.0007 4.23731C3.6257 4.26881 3.5032 4.45331 3.5032 4.85731L3.5027 4.85981ZM13.0602 5.35431C13.1227 5.63581 13.0602 5.91431 12.7787 5.94831L12.3127 6.04231V12.8833C11.9062 13.1023 11.5342 13.2273 11.2242 13.2273C10.7242 13.2273 10.5992 13.0708 10.2267 12.6048L7.1747 7.81331V12.4488L8.1407 12.6678C8.1407 12.6678 8.1407 13.2278 7.3622 13.2278L5.2137 13.3528C5.1512 13.2278 5.2137 12.9153 5.4327 12.8553L5.9927 12.6988V6.57131L5.2142 6.50881C5.1517 6.22731 5.3082 5.82381 5.7427 5.79281L8.0472 5.63631L11.2242 10.4903V6.19581L10.4142 6.10181C10.3517 5.76081 10.5992 5.51081 10.9117 5.48181L13.0602 5.35431ZM1.2917 0.690314L10.1642 0.0368138C11.2527 -0.0571862 11.5342 0.00531381 12.2187 0.502814L15.0522 2.49481C15.5182 2.83581 15.6747 2.92981 15.6747 3.30231V14.2218C15.6747 14.9068 15.4247 15.3103 14.5547 15.3728L4.2472 15.9953C3.5962 16.0268 3.2837 15.9328 2.9397 15.4978L0.853695 12.7893C0.481195 12.2918 0.325195 11.9193 0.325195 11.4848V1.77931C0.325195 1.21931 0.575195 0.753314 1.2912 0.690814L1.2917 0.690314Z" fill="black"/>
</svg>
