<svg width="15" height="16" viewBox="0 0 15 16" fill="none" xmlns="http://www.w3.org/2000/svg">
<path d="M10.4677 5.76338C11.4982 6.49966 12.7607 6.93287 14.1241 6.93287V4.31053C13.8661 4.31063 13.6087 4.28371 13.3562 4.2302V6.29436C11.9929 6.29436 10.7306 5.8612 9.69985 5.12498V10.4765C9.69985 13.1536 7.52849 15.3237 4.8502 15.3237C3.85086 15.3237 2.92198 15.0217 2.15039 14.5038C3.03105 15.4038 4.25919 15.9621 5.61787 15.9621C8.29638 15.9621 10.4678 13.7921 10.4678 11.1148V5.76338H10.4677ZM11.415 3.11776C10.8883 2.54269 10.5425 1.79952 10.4677 0.977894V0.640625H9.74002C9.92319 1.68487 10.548 2.57701 11.415 3.11776ZM3.8444 12.4495C3.55013 12.0639 3.39108 11.5922 3.39183 11.1072C3.39183 9.88278 4.38498 8.89 5.61031 8.89C5.83862 8.88988 6.0656 8.92492 6.28325 8.99389V6.3129C6.0289 6.27809 5.77224 6.26325 5.51569 6.26871V8.35544C5.29793 8.28645 5.07084 8.25143 4.84242 8.2516C3.61715 8.2516 2.62405 9.24427 2.62405 10.4688C2.62405 11.3347 3.12043 12.0843 3.8444 12.4495Z" fill="#FF004F"/>
<path d="M9.69922 5.12493C10.73 5.86115 11.9922 6.29431 13.3556 6.29431V4.23014C12.5946 4.0681 11.9208 3.67064 11.4143 3.11776C10.5473 2.57696 9.92256 1.68482 9.73939 0.640625H7.82805V11.1147C7.82369 12.3358 6.83224 13.3245 5.60956 13.3245C4.88912 13.3245 4.24901 12.9813 3.84366 12.4495C3.1198 12.0843 2.62336 11.3346 2.62336 10.4689C2.62336 9.24443 3.61646 8.25166 4.84173 8.25166C5.07649 8.25166 5.30275 8.28818 5.515 8.35549V6.26876C2.88372 6.32311 0.767578 8.47196 0.767578 11.1148C0.767578 12.4341 1.29453 13.63 2.14981 14.5039C2.9214 15.0217 3.85023 15.3238 4.84962 15.3238C7.52796 15.3238 9.69927 13.1536 9.69927 10.4765L9.69922 5.12493Z" fill="black"/>
<path d="M13.3559 4.22786V3.66985C12.6696 3.67084 11.9969 3.47875 11.4146 3.11553C11.93 3.67951 12.6087 4.06843 13.3559 4.22797M9.73959 0.638345C9.72214 0.53857 9.70874 0.438129 9.69942 0.337269V0H7.0603V10.4742C7.05611 11.6952 6.06466 12.6839 4.84193 12.6839C4.4953 12.6844 4.1534 12.6034 3.84386 12.4473C4.24921 12.979 4.88932 13.3222 5.60977 13.3222C6.83239 13.3222 7.82394 12.3336 7.82825 11.1126V0.6384L9.73959 0.638345ZM5.51537 6.26648V5.67233C5.29483 5.64222 5.07251 5.62714 4.84993 5.6272C2.17131 5.6272 0 7.79735 0 10.4742C0 12.1525 0.853352 13.6316 2.15012 14.5016C1.29484 13.6278 0.76789 12.4317 0.76789 11.1125C0.76789 8.46974 2.88397 6.32083 5.51537 6.26648Z" fill="#00F2EA"/>
</svg>
