<svg width="15" height="10" viewBox="0 0 15 10" fill="none" xmlns="http://www.w3.org/2000/svg">
<path d="M13.9081 1.55972C13.8265 1.25825 13.6674 0.983413 13.4466 0.762571C13.2258 0.541729 12.9509 0.38259 12.6495 0.301C11.5458 0 7.1039 0 7.1039 0C7.1039 0 2.66179 0.00911109 1.55812 0.310111C1.25665 0.391705 0.981813 0.550853 0.760979 0.771706C0.540146 0.992558 0.381023 1.26741 0.299455 1.56889C-0.0343782 3.52989 -0.163878 6.518 0.308622 8.40056C0.390198 8.70202 0.549325 8.97686 0.770158 9.19771C0.99099 9.41855 1.26582 9.57769 1.56729 9.65928C2.67096 9.96028 7.11296 9.96028 7.11296 9.96028C7.11296 9.96028 11.5549 9.96028 12.6585 9.65928C12.96 9.5777 13.2348 9.41856 13.4557 9.19772C13.6765 8.97687 13.8357 8.70203 13.9172 8.40056C14.2693 6.43678 14.3778 3.4505 13.9081 1.55972Z" fill="#FF0000"/>
<path d="M5.69043 7.11242L9.37532 4.97808L5.69043 2.84375V7.11242Z" fill="white"/>
</svg>
