<svg width="750" height="300" viewBox="0 0 750 300" fill="none" xmlns="http://www.w3.org/2000/svg">
<rect width="750" height="300" rx="20" fill="#2563EB"/>
<rect x="95" y="38" width="125" height="43" rx="8" fill="#FFF30D"/>
<path d="M58.3789 192.508C58.3789 194.934 59.3809 197.43 61.6309 198.607L60.5234 200.049C59.0381 199.275 58.0449 197.887 57.4824 196.217C56.9199 198.01 55.918 199.548 54.4238 200.4L53.2988 198.959C55.5137 197.658 56.5332 195.021 56.5332 192.508V192.068H53.7559V190.469H56.5332V188.236H58.3789V190.469H61.1211V192.068H58.3789V192.508ZM67.3086 187.674V203.564H65.4453V195.514H63.8105V202.791H61.9648V187.955H63.8105V193.896H65.4453V187.674H67.3086ZM77.6445 188.816V190.363H71.9492V191.875H77.1875V193.404H71.9492V194.934C74.9199 194.951 76.7305 194.907 78.8223 194.547L79.0156 196.094C76.7305 196.463 74.7441 196.533 71.3164 196.516H69.9629V188.816H77.6445ZM82.3203 187.691V197.377H80.3516V187.691H82.3203ZM76.959 197.605C80.2988 197.605 82.3906 198.695 82.3906 200.576C82.3906 202.457 80.2988 203.547 76.959 203.547C73.5664 203.547 71.5098 202.457 71.5273 200.576C71.5098 198.695 73.5664 197.605 76.959 197.605ZM76.959 199.117C74.709 199.117 73.4609 199.645 73.4785 200.576C73.4609 201.525 74.709 202.035 76.959 202.035C79.1562 202.035 80.4395 201.525 80.4395 200.576C80.4395 199.645 79.1562 199.117 76.959 199.117ZM94.625 190.943C94.625 192.666 95.9082 194.354 98.4043 195.039L97.5078 196.551C95.6797 196.059 94.3789 194.986 93.6758 193.615C92.9727 195.127 91.6455 196.296 89.7559 196.832L88.8242 195.32C91.3379 194.617 92.6738 192.842 92.6738 190.943V190.908H89.3516V189.361H92.6738V187.604H94.6426V189.361H97.9473V190.908H94.625V190.943ZM101.445 187.674V191.506H103.66V193.123H101.445V197.025H99.4941V187.674H101.445ZM101.445 197.693V203.371H91.1797V197.693H101.445ZM93.1133 199.24V201.789H99.5117V199.24H93.1133ZM108.811 188.834C110.252 188.834 111.438 189.634 112.15 191.031H115.859V187.674H117.793V203.582H115.859V197.57H112.291C111.605 199.152 110.349 200.066 108.811 200.066C106.42 200.066 104.732 197.904 104.732 194.441C104.732 191.014 106.42 188.834 108.811 188.834ZM108.811 190.592C107.492 190.592 106.596 192.016 106.613 194.441C106.596 196.885 107.492 198.309 108.811 198.309C110.129 198.309 111.008 196.885 111.025 194.441C111.008 192.016 110.129 190.592 108.811 190.592ZM112.695 192.631C112.81 193.185 112.871 193.791 112.871 194.441C112.871 194.995 112.827 195.505 112.748 195.988H115.859V192.631H112.695ZM132.471 187.674V194.002H134.914V195.619H132.471V203.564H130.537V187.674H132.471ZM129.307 190.117V191.682H119.938V190.117H123.699V187.902H125.65V190.117H129.307ZM124.684 192.719C126.969 192.719 128.674 194.266 128.674 196.463C128.674 198.66 126.969 200.189 124.684 200.189C122.363 200.189 120.658 198.66 120.676 196.463C120.658 194.266 122.363 192.719 124.684 192.719ZM124.684 194.318C123.436 194.318 122.539 195.162 122.539 196.463C122.539 197.764 123.436 198.59 124.684 198.572C125.896 198.59 126.793 197.764 126.811 196.463C126.793 195.162 125.896 194.318 124.684 194.318ZM148.854 187.674V203.564H146.885V187.674H148.854ZM144.107 189.361C144.107 194.09 142.279 198.115 136.707 200.752L135.688 199.188C139.845 197.21 141.778 194.521 142.121 190.908H136.496V189.361H144.107Z" fill="#F6F8FC"/>
<path d="M165.292 189.5L170.708 196.342L165.292 202.5" stroke="#F6F8FC" stroke-width="1.625" stroke-linecap="round"/>
<path d="M69.8223 51.5117V63.3496H67.416V51.5117H69.8223ZM63.5918 52.6719V58.3652H57.0176V60.4492C60.3477 60.4385 62.7002 60.3311 65.4824 59.9121L65.7832 61.8242C62.7109 62.3184 60.0898 62.4043 56.3301 62.4043H54.6758V56.582H61.2285V54.627H54.6328V52.6719H63.5918ZM63.291 63.6934C67.416 63.6934 69.9297 65.0039 69.9297 67.3027C69.9297 69.5586 67.416 70.8906 63.291 70.8906C59.1445 70.8906 56.6523 69.5586 56.6523 67.3027C56.6523 65.0039 59.1445 63.6934 63.291 63.6934ZM63.291 65.5625C60.541 65.5625 59.0156 66.1641 59.0156 67.3027C59.0156 68.4199 60.541 69.0215 63.291 69.0215C66.0195 69.0215 67.5449 68.4199 67.5449 67.3027C67.5449 66.1641 66.0195 65.5625 63.291 65.5625ZM88.793 51.5117V64.4668H86.4082V51.5117H88.793ZM83.5723 63.6934C83.5508 66.1426 85.8711 68.291 89.8027 68.9141L88.793 70.8047C85.7744 70.2568 83.4434 68.8174 82.3047 66.7656C81.1338 68.8281 78.749 70.2891 75.6445 70.8262L74.6992 68.9355C78.6523 68.3555 81.0586 66.1426 81.0586 63.6934V63.1562H83.5723V63.6934ZM83.0566 52.7578C83.0352 58.0859 80.5 61.7812 73.9688 63.8223L73.0449 61.9102C76.0312 61.0186 77.9648 59.7939 79.125 58.3008L73.3672 58.7305L73.002 56.8398L80.0918 56.582C80.3281 55.9697 80.4678 55.3359 80.543 54.6699H73.9902V52.7578H83.0566ZM235.637 51.791C240.062 51.791 242.619 52.9727 242.641 55.1211C242.619 57.291 240.062 58.4512 235.637 58.4727C231.211 58.4512 228.633 57.291 228.633 55.1211C228.633 52.9727 231.211 51.791 235.637 51.791ZM235.637 53.5527C232.672 53.5527 231.125 54.1113 231.146 55.1211C231.125 56.1953 232.672 56.6895 235.637 56.6895C238.645 56.6895 240.17 56.1953 240.17 55.1211C240.17 54.1113 238.645 53.5527 235.637 53.5527ZM244.51 59.5039V61.416H226.807V59.5039H244.51ZM242.297 62.7266V67.4746H231.254V68.9141H242.834V70.7402H228.912V65.7773H239.955V64.4883H228.891V62.7266H242.297ZM268.744 61.5879V63.4785H250.998V61.5879H258.668V60.1484H253.275V52.0059H266.617V53.8535H255.66V55.1855H266.145V56.9473H255.66V58.3223H266.768V60.1484H261.053V61.5879H268.744ZM259.871 64.5527C264.146 64.5527 266.574 65.6914 266.596 67.7109C266.574 69.7949 264.146 70.8906 259.871 70.8906C255.531 70.8906 253.104 69.7949 253.104 67.7109C253.104 65.6914 255.531 64.5527 259.871 64.5527ZM259.871 66.3359C256.949 66.3359 255.488 66.7871 255.488 67.7109C255.488 68.6562 256.949 69.1074 259.871 69.1074C262.75 69.1074 264.189 68.6562 264.211 67.7109C264.189 66.7871 262.75 66.3359 259.871 66.3359ZM279.529 54.584V56.4961H270.012V54.584H273.621V52.0488H275.984V54.584H279.529ZM274.803 57.5273C277.273 57.5273 279.035 59.3965 279.035 62.0391C279.035 64.7246 277.273 66.6152 274.803 66.6152C272.354 66.6152 270.549 64.7246 270.57 62.0391C270.549 59.3965 272.354 57.5273 274.803 57.5273ZM274.803 59.5039C273.535 59.5039 272.654 60.5137 272.676 62.0391C272.654 63.6074 273.535 64.5957 274.803 64.5742C276.049 64.5957 276.93 63.6074 276.93 62.0391C276.93 60.5137 276.049 59.5039 274.803 59.5039ZM286.748 51.4902V70.9121H284.471V61.416H282.58V70.0312H280.346V51.8984H282.58V59.4824H284.471V51.4902H286.748ZM60.6055 94.0117C60.6055 97.0195 62.3887 100.436 65.4609 101.854L64.1289 103.744C61.9375 102.713 60.3154 100.629 59.4453 98.2012C58.5645 100.865 56.8672 103.143 54.6328 104.217L53.2363 102.348C56.3301 100.887 58.1992 97.2344 58.2207 94.0117V92.3789H53.9883V90.4023H64.666V92.3789H60.6055V94.0117ZM68.8555 88.4902V96.0527H71.8418V98.0508H68.8555V107.912H66.4707V88.4902H68.8555ZM90.3828 99.3828V101.316H86.0645V107.912H83.6367V101.316H79.3398V107.912H76.8906V101.316H72.6367V99.3828H90.3828ZM81.4668 89.1777C85.5918 89.1992 88.4707 90.875 88.4707 93.5176C88.4707 96.1172 85.5918 97.7715 81.4668 97.7715C77.3203 97.7715 74.4844 96.1172 74.5059 93.5176C74.4844 90.875 77.3203 89.1992 81.4668 89.1777ZM81.4668 91.1113C78.7168 91.1113 76.9336 91.9922 76.9551 93.5176C76.9336 95 78.7168 95.8809 81.4668 95.8809C84.2168 95.8809 86 95 86 93.5176C86 91.9922 84.2168 91.1113 81.4668 91.1113ZM109.396 98.2441V100.135H91.6504V98.2441H99.3418V96.8262H93.9062V91.9277H104.82V90.6602H93.8418V88.834H107.205V93.6465H96.2695V95H107.592V96.8262H101.705V98.2441H109.396ZM96.3125 100.93V102.412H104.906V100.93H107.248V107.676H93.9492V100.93H96.3125ZM96.3125 105.807H104.906V104.217H96.3125V105.807ZM127.443 88.4902V107.912H125.166V88.4902H127.443ZM123.318 88.9629V106.988H121.062V98.0508H117.604C116.465 100.285 114.639 102.219 111.889 103.809L110.535 102.111C114.563 99.7373 116.4 96.6973 116.766 92.7871H111.523V90.8535H119.129C119.129 92.7334 118.903 94.4951 118.377 96.1387H121.062V88.9629H123.318ZM152.666 103.572V105.506H134.92V103.572H142.525V99.082H144.889V103.572H152.666ZM144.953 91.0898C144.953 94.0332 147.896 96.9336 151.979 97.5781L150.947 99.5547C147.66 98.9316 144.975 97.0518 143.686 94.5059C142.396 97.041 139.732 98.9531 136.467 99.5547L135.436 97.5781C139.496 96.9336 142.396 94.0117 142.418 91.0898V89.6719H144.953V91.0898ZM171.637 98.5879V100.479H153.891V98.5879H161.561V97.1484H156.168V89.0059H169.51V90.8535H158.553V92.1855H169.037V93.9473H158.553V95.3223H169.66V97.1484H163.945V98.5879H171.637ZM162.764 101.553C167.039 101.553 169.467 102.691 169.488 104.711C169.467 106.795 167.039 107.891 162.764 107.891C158.424 107.891 155.996 106.795 155.996 104.711C155.996 102.691 158.424 101.553 162.764 101.553ZM162.764 103.336C159.842 103.336 158.381 103.787 158.381 104.711C158.381 105.656 159.842 106.107 162.764 106.107C165.643 106.107 167.082 105.656 167.104 104.711C167.082 103.787 165.643 103.336 162.764 103.336ZM188.158 88.4902V96.2246H191.145V98.2012H188.158V107.912H185.795V88.4902H188.158ZM184.291 91.4766V93.3887H172.84V91.4766H177.438V88.7695H179.822V91.4766H184.291ZM178.641 94.6562C181.434 94.6562 183.518 96.5469 183.518 99.2324C183.518 101.918 181.434 103.787 178.641 103.787C175.805 103.787 173.721 101.918 173.742 99.2324C173.721 96.5469 175.805 94.6562 178.641 94.6562ZM178.641 96.6113C177.115 96.6113 176.02 97.6426 176.02 99.2324C176.02 100.822 177.115 101.832 178.641 101.811C180.123 101.832 181.219 100.822 181.24 99.2324C181.219 97.6426 180.123 96.6113 178.641 96.6113ZM207.816 90.2734V92.1426C207.795 94.5488 207.795 97.2559 207.043 101.316L204.637 101.059C205.389 97.2773 205.389 94.5166 205.41 92.1855H193.809V90.2734H207.816ZM209.664 103.443V105.398H191.961V103.443H198.492V96.6973H200.855V103.443H209.664ZM232.115 90.2734V92.25C232.115 94.6562 232.115 97.2773 231.406 101.08L229.064 100.844C229.73 97.2559 229.73 94.5918 229.73 92.25V92.1855H217.979V90.2734H232.115ZM233.898 103.443V105.398H216.195V103.443H220.17V97.2559H222.555V103.443H225.025V97.2559H227.367V103.443H233.898ZM252.934 99.9629V101.832H248.658V107.912H246.252V101.832H241.891V107.912H239.506V101.832H235.188V99.9629H252.934ZM250.871 89.1348V94.5703H239.721V96.418H251.301V98.3516H237.314V92.7871H248.422V91.0898H237.271V89.1348H250.871ZM263.697 91.584V93.4961H254.18V91.584H257.789V89.0488H260.152V91.584H263.697ZM258.971 94.5273C261.441 94.5273 263.203 96.3965 263.203 99.0391C263.203 101.725 261.441 103.615 258.971 103.615C256.521 103.615 254.717 101.725 254.738 99.0391C254.717 96.3965 256.521 94.5273 258.971 94.5273ZM258.971 96.5039C257.703 96.5039 256.822 97.5137 256.844 99.0391C256.822 100.607 257.703 101.596 258.971 101.574C260.217 101.596 261.098 100.607 261.098 99.0391C261.098 97.5137 260.217 96.5039 258.971 96.5039ZM270.916 88.4902V107.912H268.639V98.416H266.748V107.031H264.514V88.8984H266.748V96.4824H268.639V88.4902H270.916ZM296.203 103.615V105.57H278.457V103.615H286.105V99.834H280.412V89.7793H282.797V92.959H291.799V89.7793H294.184V99.834H288.469V103.615H296.203ZM282.797 97.9004H291.799V94.8711H282.797V97.9004ZM303.529 93.582C303.529 96.7188 304.625 99.9844 307.246 101.639L305.936 103.465C304.185 102.412 303.046 100.597 302.412 98.459C301.703 100.812 300.457 102.799 298.631 103.916L297.148 102.133C299.963 100.414 301.23 96.998 301.23 93.6895V90.209H303.529V93.582ZM314.229 88.4902V107.912H311.93V88.4902H314.229ZM310.189 88.834V106.967H307.934V97.1484H305.162V95.1719H307.934V88.834H310.189ZM334.23 103.594V105.549H316.484V103.594H320.588V98.6738C319.041 97.793 318.106 96.4072 318.117 94.6777C318.096 91.584 321.146 89.543 325.314 89.543C329.504 89.543 332.555 91.584 332.555 94.6777C332.555 96.375 331.652 97.7393 330.148 98.6309V103.594H334.23ZM325.314 91.4336C322.414 91.4336 320.438 92.6582 320.459 94.6777C320.438 96.6758 322.414 97.9219 325.314 97.9219C328.215 97.9219 330.213 96.6758 330.213 94.6777C330.213 92.6582 328.215 91.4336 325.314 91.4336ZM322.951 103.594H327.721V99.5332C326.979 99.7051 326.174 99.791 325.314 99.791C324.477 99.791 323.682 99.7051 322.951 99.5547V103.594Z" fill="white"/>
<path d="M112.691 49.4238C117.668 49.4238 121.375 51.9375 121.4 55.7461C121.375 59.2246 118.442 61.5732 114.291 62.043V65.9785H123.305V68.6445H102.154V65.9785H111.066V62.0176C106.928 61.5732 104.008 59.2119 104.008 55.7461C104.008 51.9375 107.715 49.4238 112.691 49.4238ZM112.691 52.0137C109.467 52.0137 107.207 53.4355 107.207 55.7461C107.207 58.1836 109.467 59.5547 112.691 59.5547C115.941 59.5547 118.176 58.1836 118.201 55.7461C118.176 53.4355 115.941 52.0137 112.691 52.0137ZM143.82 49.1953V51.7344H140.799V55.7461H143.668V58.3105H126.631V55.7461H129.475V51.7344H126.479V49.1953H143.82ZM145.699 60.1641V62.7031H124.625V60.1641H145.699ZM143.312 68.3398V70.9297H127.164V64.2773H130.414V68.3398H143.312ZM132.725 55.7461H137.549V51.7344H132.725V55.7461ZM154.307 55.2129C154.307 58.6914 155.551 62.2207 158.877 63.9727L157.074 66.3594C154.992 65.293 153.608 63.4268 152.809 61.1543C151.996 63.6299 150.612 65.6992 148.518 66.8926L146.689 64.4551C149.965 62.5762 151.234 58.793 151.26 55.2129V54.7812H147.426V52.1406H151.26V49.0176H154.281V52.1406H158.09V54.7812H154.307V55.2129ZM167.256 48.2305V71.3359H164.158V59.7578H162.203V70.2695H159.131V48.5605H162.203V57.1172H164.158V48.2305H167.256ZM182.033 49.8301V52.4199H174.086V54.2227H181.348V56.7363H174.086V58.5898C178.148 58.5898 180.726 58.5391 183.658 58.0566L183.988 60.5957C180.688 61.1289 177.768 61.2051 172.816 61.1797H170.836V49.8301H182.033ZM188.914 48.2559V62.2461H185.664V48.2559H188.914ZM181.043 62.5508C185.918 62.5508 189.016 64.1758 189.041 66.9434C189.016 69.7363 185.918 71.3359 181.043 71.3359C176.092 71.3359 173.096 69.7363 173.096 66.9434C173.096 64.1758 176.092 62.5508 181.043 62.5508ZM181.043 65.0645C177.945 65.0645 176.32 65.6992 176.32 66.9434C176.32 68.2129 177.945 68.873 181.043 68.873C184.115 68.873 185.791 68.2129 185.791 66.9434C185.791 65.6992 184.115 65.0645 181.043 65.0645ZM202.803 62.373C207.602 62.373 210.598 64.0234 210.598 66.8418C210.598 69.7109 207.602 71.3613 202.803 71.3613C197.902 71.3613 194.881 69.7109 194.881 66.8418C194.881 64.0234 197.902 62.373 202.803 62.373ZM202.803 64.8867C199.756 64.8867 198.105 65.5215 198.131 66.8418C198.105 68.1621 199.756 68.8477 202.803 68.8477C205.799 68.8477 207.398 68.1621 207.398 66.8418C207.398 65.5215 205.799 64.8867 202.803 64.8867ZM210.369 48.2305V53.5879H213.492V56.3047H210.369V61.8652H207.119V48.2305H210.369ZM195.947 49.6777V52.5977H200.67V49.6777H203.92V60.5449H192.723V49.6777H195.947ZM195.947 57.9805H200.67V55.1113H195.947V57.9805Z" fill="#6F3B00"/>
<path d="M387.506 69.668C386.926 69.0248 387.382 67.9982 388.249 67.9981L403.75 67.9967C404.302 67.9967 404.75 68.4444 404.75 68.9967L404.75 86.18C404.75 87.0959 403.621 87.5299 403.008 86.8498L387.506 69.668Z" fill="#F6F8FC"/>
<rect x="398" y="59" width="257" height="47" rx="14" fill="#F6F8FC"/>
<path d="M436.133 74.7441V90.4941H434.533V74.7441H436.133ZM432.969 75.043V89.7207H431.387V84.6406H429.102C428.539 86.2051 427.493 87.1104 426.148 87.1016C424.092 87.1191 422.756 84.957 422.756 81.5469C422.756 78.1367 424.092 75.9922 426.148 76.0098C427.493 76.001 428.53 76.8975 429.102 78.4531H431.387V75.043H432.969ZM426.148 77.5742C424.988 77.5742 424.285 79.0332 424.285 81.5469C424.285 84.0605 424.988 85.5195 426.148 85.5195C427.309 85.5195 428.047 84.0605 428.047 81.5469C428.047 79.0332 427.309 77.5742 426.148 77.5742ZM429.453 79.8066C429.532 80.3428 429.576 80.9229 429.576 81.5469C429.576 82.1621 429.532 82.7422 429.453 83.2695H431.387V79.8066H429.453ZM443.656 78.1191C443.656 79.9473 445.08 81.6348 447.488 82.3203L446.715 83.6387C444.904 83.1201 443.56 82.0039 442.865 80.5625C442.171 82.1885 440.791 83.4453 438.945 84.043L438.119 82.7246C440.527 82.0215 442.004 80.1582 442.004 78.1191V77.9258H438.576V76.5723H442.004V74.6738H443.674V76.5723H447.084V77.9258H443.656V78.1191ZM450.512 74.7441V78.7168H452.797V80.0879H450.512V84.3418H448.842V74.7441H450.512ZM445.432 84.7109C448.684 84.7109 450.652 85.748 450.652 87.5938C450.652 89.4043 448.684 90.459 445.432 90.459C442.145 90.459 440.141 89.4043 440.141 87.5938C440.141 85.748 442.145 84.7109 445.432 84.7109ZM445.432 86.0117C443.129 86.0117 441.793 86.5566 441.811 87.5938C441.793 88.5957 443.129 89.1758 445.432 89.1758C447.699 89.1758 449.018 88.5957 449.018 87.5938C449.018 86.5566 447.699 86.0117 445.432 86.0117ZM467.246 74.7441V90.4941H465.646V82.373H463.783V89.6855H462.201V75.0605H463.783V81.002H465.646V74.7441H467.246ZM461.164 76.6602V78.0312H459.916V85.0801C460.443 85.0361 460.953 84.9834 461.428 84.9219L461.516 86.1523C459.037 86.627 455.75 86.6973 453.711 86.6973L453.518 85.291L455.1 85.2734V78.0312H453.852V76.6602H461.164ZM456.629 85.2559C457.209 85.2383 457.798 85.2207 458.387 85.1855V78.0312H456.629V85.2559ZM486.723 75.5V76.8359H481.924C482.021 78.5498 484.288 80.0615 487.215 80.4219L486.582 81.7402C483.884 81.3887 481.669 80.1318 480.816 78.3652C479.964 80.123 477.758 81.3887 475.068 81.7402L474.436 80.4219C477.38 80.0615 479.621 78.5498 479.709 76.8359H474.963V75.5H486.723ZM488.041 82.7598V84.1133H481.783V87.1719H480.131V84.1133H473.627V82.7598H488.041ZM486.441 88.8066V90.1602H475.42V85.6602H477.09V88.8066H486.441ZM502.244 74.7441V90.5293H500.574V74.7441H502.244ZM491.75 76.0625V80.1055H495.986V76.0625H497.639V86.75H490.08V76.0625H491.75ZM491.75 85.3789H495.986V81.4238H491.75V85.3789ZM517.027 74.7441V81.125H519.559V82.5137H517.027V90.4941H515.375V74.7441H517.027ZM514.004 77.2051V78.5762H504.67V77.2051H508.555V74.9551H510.225V77.2051H514.004ZM509.398 79.7363C511.648 79.7363 513.301 81.248 513.318 83.3926C513.301 85.5547 511.648 87.0488 509.398 87.0664C507.131 87.0488 505.479 85.5547 505.479 83.3926C505.479 81.248 507.131 79.7363 509.398 79.7363ZM509.398 81.1074C508.062 81.1074 507.061 82.0391 507.078 83.3926C507.061 84.7637 508.062 85.6777 509.398 85.6602C510.734 85.6777 511.719 84.7637 511.719 83.3926C511.719 82.0391 510.734 81.1074 509.398 81.1074ZM526.098 78.752C526.08 81.6348 527.82 84.5176 530.264 85.6074L529.262 86.9258C527.451 86.0645 526.019 84.2979 525.289 82.1445C524.551 84.4473 523.101 86.3545 521.211 87.2773L520.191 85.8711C522.67 84.7637 524.41 81.7578 524.41 78.752V76.0625H526.098V78.752ZM533.357 74.7441V90.5293H531.688V74.7441H533.357ZM548.615 79.3496V80.6855H537.77V75.3066H539.422V79.3496H548.615ZM550.268 82.6719V84.0078H535.854V82.6719H550.268ZM548.721 88.7539V90.125H537.646V85.502H539.316V88.7539H548.721ZM570.219 82.9883V84.3242H563.961V87.2246H562.309V84.3242H555.805V82.9883H570.219ZM568.619 88.8066V90.1602H557.598V85.8535H559.25V88.8066H568.619ZM559.355 75.2363V77.1523H566.65V75.2363H568.32V81.5996H557.703V75.2363H559.355ZM559.355 80.2637H566.65V78.4004H559.355V80.2637ZM581.24 85.1504C581.24 86.5039 581.908 87.9365 583.332 88.7891C584.782 87.8662 585.494 86.3545 585.494 85.1504V84.3945H587.129V85.1504C587.129 86.7852 588.201 88.3672 590.258 89.0352L589.432 90.2656C587.876 89.7295 586.821 88.6836 586.268 87.3828C585.767 88.6572 584.826 89.8086 583.385 90.4062C581.873 89.835 580.915 88.7188 580.432 87.4355C579.86 88.6748 578.823 89.7207 577.338 90.2656L576.494 89.0352C578.516 88.3145 579.605 86.6797 579.623 85.1504V84.3945H581.24V85.1504ZM588.834 74.7617V83.7266H587.164V74.7617H588.834ZM580.291 75.623C582.699 75.623 584.475 77.1523 584.475 79.3496C584.475 81.5293 582.699 83.041 580.291 83.041C577.883 83.041 576.09 81.5293 576.09 79.3496C576.09 77.1523 577.883 75.623 580.291 75.623ZM580.291 77.0469C578.797 77.0293 577.725 77.9609 577.725 79.3496C577.725 80.7207 578.797 81.6523 580.291 81.6523C581.768 81.6523 582.84 80.7207 582.84 79.3496C582.84 77.9609 581.768 77.0293 580.291 77.0469ZM606.043 80.9316V82.3027H603.6V90.4766H601.93V74.7441H603.6V80.9316H606.043ZM593.58 76.2734V85.1328C595.777 85.1328 598.071 84.9482 600.576 84.4297L600.77 85.8359C598.08 86.3809 595.584 86.5215 593.229 86.5215H591.928V76.2734H593.58ZM621.301 87.1367V88.5254H606.887V87.1367H610.332V83.0234C609.04 82.3115 608.258 81.1777 608.258 79.7715C608.258 77.293 610.684 75.6582 614.059 75.6582C617.451 75.6582 619.877 77.293 619.877 79.7715C619.877 81.1602 619.121 82.2764 617.855 82.9883V87.1367H621.301ZM614.059 76.9941C611.58 76.9941 609.875 78.0664 609.875 79.7715C609.875 81.459 611.58 82.5664 614.059 82.5664C616.52 82.5664 618.26 81.459 618.26 79.7715C618.26 78.0664 616.52 76.9941 614.059 76.9941ZM611.984 87.1367H616.168V83.6211C615.526 83.7881 614.814 83.8672 614.059 83.8672C613.32 83.8672 612.617 83.7881 611.984 83.6387V87.1367ZM625.027 85.2207C625.045 82.918 625.73 82.2148 626.891 81.4941C627.629 81.0371 628.191 80.4043 628.191 79.4727C628.191 78.3652 627.348 77.6797 626.293 77.6797C625.344 77.6797 624.43 78.2598 624.342 79.5605H622.443C622.514 77.3281 624.201 76.0977 626.293 76.0977C628.578 76.0977 630.107 77.4688 630.107 79.4727C630.107 80.8789 629.439 81.8281 628.314 82.5137C627.26 83.1465 626.855 83.7969 626.82 85.2207V85.3262H625.027V85.2207ZM625.994 89.123C625.309 89.123 624.729 88.5605 624.746 87.875C624.729 87.1895 625.309 86.627 625.994 86.627C626.662 86.627 627.242 87.1895 627.242 87.875C627.242 88.5605 626.662 89.123 625.994 89.123Z" fill="#27364B"/>
<path d="M356.506 203.668C355.926 203.025 356.382 201.998 357.249 201.998L372.75 201.997C373.302 201.997 373.75 202.444 373.75 202.997L373.75 220.18C373.75 221.096 372.621 221.53 372.008 220.85L356.506 203.668Z" fill="#F6F8FC"/>
<rect x="367" y="193" width="281" height="47" rx="14" fill="#F6F8FC"/>
<path d="M392.301 210.273H394.656L398.682 220.135H398.84L402.865 210.273H405.221V223H403.375V213.807H403.252L399.525 222.982H397.996L394.252 213.789H394.146V223H392.301V210.273ZM408.947 210.273L412.48 220.627H412.621L416.154 210.273H418.246L413.658 223H411.426L406.855 210.273H408.947ZM419.863 223V210.273H424.398C427.352 210.273 428.811 212.049 428.811 214.404C428.811 216.742 427.352 218.535 424.398 218.535H421.797V223H419.863ZM421.797 216.883H424.205C426.086 216.883 426.859 215.828 426.859 214.404C426.859 212.963 426.086 211.926 424.205 211.926H421.797V216.883ZM440.975 210.607V211.943H436.686V214.844H440.271V216.145H436.686V219.449C438.742 219.432 440.087 219.335 441.713 219.045L441.854 220.398C440.043 220.768 438.549 220.803 436.105 220.803H435.086V210.607H440.975ZM448.059 208.744V224.494H446.441V208.744H448.059ZM444.807 209.078V223.703H443.225V216.004H441.098V214.65H443.225V209.078H444.807ZM458.078 210.977C458.078 213.543 460.82 215.969 463.844 216.514L463.07 217.902C460.557 217.357 458.236 215.705 457.217 213.49C456.18 215.688 453.868 217.34 451.346 217.902L450.607 216.514C453.596 215.951 456.32 213.543 456.32 210.977V209.781H458.078V210.977ZM464.494 221.031V222.42H450.08V221.031H464.494ZM478.416 217.129V218.465H467.447V210.045H478.258V211.398H469.135V213.525H477.924V214.844H469.135V217.129H478.416ZM480.051 221.137V222.508H465.637V221.137H480.051ZM493.375 211.346V212.699H485.553V211.346H488.646V209.201H490.299V211.346H493.375ZM489.473 213.648C491.477 213.648 492.883 215.143 492.9 217.27C492.883 219.414 491.477 220.926 489.473 220.926C487.504 220.926 486.045 219.414 486.062 217.27C486.045 215.143 487.504 213.648 489.473 213.648ZM489.473 215.037C488.33 215.037 487.539 215.969 487.539 217.27C487.539 218.605 488.33 219.502 489.473 219.502C490.598 219.502 491.424 218.605 491.424 217.27C491.424 215.969 490.598 215.037 489.473 215.037ZM499.07 208.744V224.494H497.488V216.672H495.678V223.756H494.096V209.096H495.678V215.301H497.488V208.744H499.07ZM515.506 217.621V218.975H509.107V224.477H507.473V218.975H501.145V217.621H515.506ZM514.152 209.676V211.012H509.283C509.31 212.963 511.735 214.703 514.715 215.107L514.1 216.426C511.516 216.021 509.283 214.747 508.334 212.945C507.358 214.747 505.135 216.021 502.586 216.426L501.953 215.107C504.897 214.703 507.323 212.963 507.385 211.012H502.48V209.676H514.152ZM529.744 208.744V216.848H528.092V208.744H529.744ZM529.762 217.604V221.541H521.078V223H530.289V224.336H519.461V220.275H528.109V218.922H519.408V217.604H529.762ZM522.432 210.379C522.414 212.488 523.943 214.404 526.352 215.16L525.525 216.461C523.688 215.863 522.309 214.615 521.605 213.016C520.885 214.738 519.479 216.109 517.598 216.76L516.754 215.441C519.215 214.615 520.727 212.559 520.727 210.379V209.166H522.432V210.379ZM551.049 216.988V218.324H544.791V221.225H543.139V218.324H536.635V216.988H551.049ZM549.449 222.807V224.16H538.428V219.854H540.08V222.807H549.449ZM540.186 209.236V211.152H547.48V209.236H549.15V215.6H538.533V209.236H540.186ZM540.186 214.264H547.48V212.4H540.186V214.264ZM562.123 211.996C562.123 213.789 563.547 215.477 565.955 216.145L565.199 217.428C563.362 216.918 562.018 215.811 561.314 214.387C560.62 215.942 559.24 217.155 557.377 217.727L556.568 216.408C558.977 215.723 560.471 213.965 560.471 211.996V211.82H557.043V210.484H560.471V208.674H562.141V210.484H565.551V211.82H562.123V211.996ZM568.979 208.744V212.523H571.264V213.912H568.979V217.832H567.309V208.744H568.979ZM569.225 218.623V219.959H564.918C565.217 221.427 567.238 222.771 569.875 223.158L569.26 224.441C566.869 224.072 564.9 222.974 563.986 221.471C563.081 222.965 561.13 224.046 558.748 224.424L558.133 223.141C560.778 222.771 562.773 221.471 563.09 219.959H558.766V218.623H569.225ZM575.588 218.184V219.854H582.988V218.184H584.658V224.301H573.936V218.184H575.588ZM575.588 222.965H582.988V221.154H575.588V222.965ZM586.521 215.811V217.199H572.16V215.811H586.521ZM580.193 209.588C580.193 211.398 582.707 213.156 585.73 213.525L585.133 214.844C582.575 214.483 580.352 213.279 579.35 211.609C578.321 213.288 576.089 214.483 573.566 214.844L572.934 213.525C575.992 213.139 578.488 211.451 578.488 209.588V208.92H580.193V209.588ZM600.795 208.744V224.494H599.125V208.744H600.795ZM590.336 210.273V219.045C592.63 219.027 595.047 218.843 597.578 218.324L597.807 219.73C595.012 220.293 592.48 220.486 590.002 220.486H588.684V210.273H590.336ZM615.543 208.744V214.844H618.074V216.215H615.543V224.529H613.873V208.744H615.543ZM611.307 210.256V211.609H605.611V219.221C608.257 219.212 610.243 219.098 612.484 218.693L612.695 220.1C610.234 220.539 608.143 220.627 605.207 220.609H603.941V210.256H611.307ZM621.73 210.273L621.572 219.326H619.832L619.674 210.273H621.73ZM620.711 223.123C620.025 223.123 619.445 222.561 619.463 221.875C619.445 221.189 620.025 220.627 620.711 220.627C621.379 220.627 621.959 221.189 621.959 221.875C621.959 222.561 621.379 223.123 620.711 223.123Z" fill="#27364B"/>
<path d="M712.244 136.668C712.824 136.025 712.368 134.998 711.501 134.998L696 134.997C695.448 134.997 695 135.444 695 135.997L695 153.18C695 154.096 696.129 154.53 696.742 153.85L712.244 136.668Z" fill="#F6F8FC"/>
<rect x="421" y="126" width="277" height="47" rx="14" fill="#F6F8FC"/>
<path d="M448.006 142.553V144.855H451.943V142.553H453.596V145.523H457.041V141.744H458.711V150.34H457.041V146.912H453.596V149.812H446.336V142.553H448.006ZM448.006 148.459H451.943V146.156H448.006V148.459ZM450.098 151.078V152.854H457.041V151.078H458.693V157.266H448.445V151.078H450.098ZM450.098 155.912H457.041V154.154H450.098V155.912ZM474.197 141.762V153.205H472.527V141.762H474.197ZM474.672 155.807V157.16H463.896V152.045H465.584V155.807H474.672ZM465.654 142.816C468.027 142.816 469.838 144.434 469.838 146.719C469.838 149.039 468.027 150.639 465.654 150.639C463.281 150.639 461.453 149.039 461.453 146.719C461.453 144.434 463.281 142.816 465.654 142.816ZM465.654 144.275C464.178 144.275 463.088 145.277 463.088 146.719C463.088 148.195 464.178 149.18 465.654 149.18C467.096 149.18 468.203 148.195 468.203 146.719C468.203 145.277 467.096 144.275 465.654 144.275ZM494.219 141.744V149.848H492.549V145.805H489.227V144.451H492.549V141.744H494.219ZM494.219 150.586V154.506H485.588V155.965H494.764V157.301H483.953V153.24H492.566V151.904H483.918V150.586H494.219ZM486.625 143.625C486.625 145.629 488.066 147.492 490.439 148.248L489.561 149.549C487.829 148.951 486.52 147.765 485.834 146.262C485.14 147.949 483.786 149.276 481.932 149.918L481.035 148.582C483.496 147.791 484.955 145.84 484.973 143.625V142.254H486.625V143.625ZM509.705 141.762V150.445H508.035V141.762H509.705ZM504.678 142.5V146.895H499.105V148.758C501.856 148.74 503.887 148.67 506.277 148.283L506.488 149.637C503.922 150.059 501.76 150.129 498.789 150.146H497.471V145.594H503.025V143.854H497.436V142.5H504.678ZM501.039 151.184V152.889H508.053V151.184H509.705V157.301H499.369V151.184H501.039ZM501.039 155.947H508.053V154.207H501.039V155.947ZM526.562 149.971V151.307H512.201V149.971H526.562ZM524.945 155.807V157.16H514.012V152.59H515.699V155.807H524.945ZM519.373 142.271C522.783 142.254 524.998 143.449 524.998 145.418C524.998 147.404 522.783 148.6 519.373 148.617C515.945 148.6 513.748 147.404 513.748 145.418C513.748 143.449 515.945 142.254 519.373 142.271ZM519.373 143.607C516.965 143.607 515.453 144.293 515.471 145.418C515.453 146.578 516.965 147.246 519.373 147.246C521.781 147.246 523.275 146.578 523.275 145.418C523.275 144.293 521.781 143.607 519.373 143.607ZM546.566 154.154V155.543H532.152V154.154H538.498V150.92H533.805V142.816H535.475V145.523H543.209V142.816H544.861V150.92H540.15V154.154H546.566ZM535.475 149.566H543.209V146.877H535.475V149.566ZM562.07 150.023V151.342H547.674V150.023H554.037V148.652H549.555V142.166H560.312V143.484H551.242V144.768H559.908V146.016H551.242V147.352H560.418V148.652H555.707V150.023H562.07ZM554.881 152.379C558.344 152.361 560.312 153.275 560.312 154.928C560.312 156.598 558.344 157.477 554.881 157.459C551.383 157.477 549.414 156.598 549.414 154.928C549.414 153.275 551.383 152.361 554.881 152.379ZM554.881 153.627C552.402 153.627 551.066 154.084 551.084 154.928C551.066 155.771 552.402 156.211 554.881 156.193C557.324 156.211 558.643 155.771 558.643 154.928C558.643 154.084 557.324 153.627 554.881 153.627ZM580.791 141.762V153.328H579.121V147.422H576.045C575.685 149.32 574.059 150.604 572.02 150.604C569.646 150.604 567.889 148.969 567.889 146.666C567.889 144.363 569.646 142.746 572.02 142.746C574.111 142.746 575.764 144.082 576.08 146.051H579.121V141.762H580.791ZM581.213 155.807V157.16H570.561V152.15H572.23V155.807H581.213ZM572.02 144.205C570.561 144.205 569.488 145.189 569.488 146.666C569.488 148.143 570.561 149.162 572.02 149.162C573.443 149.162 574.516 148.143 574.516 146.666C574.516 145.189 573.443 144.205 572.02 144.205ZM596.734 141.744V157.494H595.135V141.744H596.734ZM593.535 142.078V156.703H591.953V148.688H589.51V147.316H591.953V142.078H593.535ZM587.963 146.139C587.963 148.828 589.053 151.518 591.268 152.801L590.266 154.031C588.763 153.135 587.726 151.544 587.189 149.637C586.618 151.693 585.546 153.442 584.008 154.4L582.988 153.152C585.221 151.799 586.363 148.934 586.363 146.139V144.873H583.463V143.52H590.67V144.873H587.963V146.139ZM603.713 143.941C603.713 144.882 604.521 146.147 605.963 146.842C607.36 146.165 608.143 144.926 608.143 143.941V143.678H606.262V142.307H612.168V143.678H609.83V143.941C609.83 145.137 610.832 146.438 612.73 146.982L611.975 148.178C610.472 147.738 609.47 146.815 608.969 145.717C608.459 146.833 607.475 147.835 605.945 148.301C604.398 147.817 603.405 146.78 602.904 145.664C602.386 146.745 601.375 147.703 599.881 148.178L599.178 146.982C601.041 146.385 602.061 144.996 602.061 143.941V143.678H599.705V142.307H605.629V143.678H603.713V143.941ZM613.17 149.197V150.568H598.773V149.197H613.17ZM611.377 151.992V157.301H600.496V151.992H611.377ZM602.148 153.311V155.947H609.76V153.311H602.148ZM630.994 141.744V148.125H633.525V149.514H630.994V157.494H629.342V141.744H630.994ZM627.971 144.205V145.576H618.637V144.205H622.521V141.955H624.191V144.205H627.971ZM623.365 146.736C625.615 146.736 627.268 148.248 627.285 150.393C627.268 152.555 625.615 154.049 623.365 154.066C621.098 154.049 619.445 152.555 619.445 150.393C619.445 148.248 621.098 146.736 623.365 146.736ZM623.365 148.107C622.029 148.107 621.027 149.039 621.045 150.393C621.027 151.764 622.029 152.678 623.365 152.66C624.701 152.678 625.686 151.764 625.686 150.393C625.686 149.039 624.701 148.107 623.365 148.107ZM648.994 147.932V149.303H646.551V157.477H644.881V141.744H646.551V147.932H648.994ZM636.531 143.273V152.133C638.729 152.133 641.022 151.948 643.527 151.43L643.721 152.836C641.031 153.381 638.535 153.521 636.18 153.521H634.879V143.273H636.531ZM664.252 154.137V155.525H649.838V154.137H653.283V150.023C651.991 149.312 651.209 148.178 651.209 146.771C651.209 144.293 653.635 142.658 657.01 142.658C660.402 142.658 662.828 144.293 662.828 146.771C662.828 148.16 662.072 149.276 660.807 149.988V154.137H664.252ZM657.01 143.994C654.531 143.994 652.826 145.066 652.826 146.771C652.826 148.459 654.531 149.566 657.01 149.566C659.471 149.566 661.211 148.459 661.211 146.771C661.211 145.066 659.471 143.994 657.01 143.994ZM654.936 154.137H659.119V150.621C658.478 150.788 657.766 150.867 657.01 150.867C656.271 150.867 655.568 150.788 654.936 150.639V154.137ZM667.979 152.221C667.996 149.918 668.682 149.215 669.842 148.494C670.58 148.037 671.143 147.404 671.143 146.473C671.143 145.365 670.299 144.68 669.244 144.68C668.295 144.68 667.381 145.26 667.293 146.561H665.395C665.465 144.328 667.152 143.098 669.244 143.098C671.529 143.098 673.059 144.469 673.059 146.473C673.059 147.879 672.391 148.828 671.266 149.514C670.211 150.146 669.807 150.797 669.771 152.221V152.326H667.979V152.221ZM668.945 156.123C668.26 156.123 667.68 155.561 667.697 154.875C667.68 154.189 668.26 153.627 668.945 153.627C669.613 153.627 670.193 154.189 670.193 154.875C670.193 155.561 669.613 156.123 668.945 156.123Z" fill="#27364B"/>
</svg>
