<svg width="750" height="300" viewBox="0 0 750 300" fill="none" xmlns="http://www.w3.org/2000/svg">
<g clip-path="url(#clip0_1641_27274)">
<rect width="750" height="300" rx="20" fill="#2563EB"/>
<g filter="url(#filter0_f_1641_27274)">
<path fill-rule="evenodd" clip-rule="evenodd" d="M72.5373 190C105.861 190 135.678 181.975 155.588 169.344C167.946 173.928 182.966 176.615 199.164 176.615C227.231 176.615 251.762 168.546 265.036 156.523C275.729 163.351 291.774 167.692 309.711 167.692C341.903 167.692 368 153.71 368 136.462C368 119.213 341.903 105.231 309.711 105.231C292.171 105.231 276.441 109.382 265.755 115.95C252.66 103.56 227.745 95.1923 199.164 95.1923C186.116 95.1923 173.832 96.9363 163.088 100.011C143.658 84.3364 110.356 74 72.5373 74C12.5938 74 -36 99.9675 -36 132C-36 164.033 12.5938 190 72.5373 190Z" fill="white" fill-opacity="0.2"/>
</g>
<g filter="url(#filter1_f_1641_27274)">
<path fill-rule="evenodd" clip-rule="evenodd" d="M714.463 325C681.139 325 651.322 316.975 631.412 304.344C619.054 308.928 604.034 311.615 587.836 311.615C559.769 311.615 535.238 303.546 521.964 291.523C511.271 298.351 495.226 302.692 477.289 302.692C445.097 302.692 419 288.71 419 271.462C419 254.213 445.097 240.231 477.289 240.231C494.829 240.231 510.559 244.382 521.245 250.95C534.34 238.56 559.255 230.192 587.836 230.192C600.884 230.192 613.168 231.936 623.912 235.011C643.342 219.336 676.644 209 714.463 209C774.406 209 823 234.967 823 267C823 299.033 774.406 325 714.463 325Z" fill="white" fill-opacity="0.2"/>
</g>
<path d="M67.9941 92.1367V93.5254H53.5801V92.1367H59.9258V88.498H55.2324V81.0098H66.2715V88.498H61.5781V92.1367H67.9941ZM56.8496 82.3457V87.1797H64.6367V82.3457H56.8496ZM74.9727 82.2578C74.9727 84.209 76.502 86.0371 78.9277 86.7402L78.084 88.041C76.2471 87.4873 74.8584 86.2832 74.1465 84.7363C73.4346 86.3887 72.0283 87.6982 70.1387 88.3223L69.2949 87.0039C71.7383 86.248 73.2676 84.332 73.2852 82.2578V82.082H69.752V80.7285H78.4355V82.082H74.9727V82.2578ZM82.1973 79.7441V88.2695H80.5273V79.7441H82.1973ZM73.5312 89.0078V90.7656H80.5449V89.0078H82.1973V95.3008H71.8965V89.0078H73.5312ZM73.5312 93.9473H80.5449V92.084H73.5312V93.9473ZM96.1895 89.6406C99.5996 89.6406 101.744 90.7129 101.762 92.5586C101.744 94.3867 99.5996 95.4766 96.1895 95.459C92.8145 95.4766 90.6523 94.3867 90.6523 92.5586C90.6523 90.7129 92.8145 89.6406 96.1895 89.6406ZM96.1895 90.9062C93.7988 90.9062 92.3047 91.5215 92.3223 92.5586C92.3047 93.5781 93.7988 94.1758 96.1895 94.1758C98.5977 94.1758 100.092 93.5781 100.109 92.5586C100.092 91.5215 98.5977 90.9062 96.1895 90.9062ZM101.639 80.5176V81.8359C101.639 83.1016 101.639 84.4023 101.199 86.0195L99.5645 85.8438C99.9863 84.2354 99.9863 83.0752 99.9863 81.8535H90.7754V80.5176H101.639ZM103.432 86.9863V88.3398H89.1055V86.9863H94.8535V84.0332H96.4883V86.9863H103.432ZM117.389 81.2559V82.8027C117.389 84.7539 117.389 86.9336 116.791 90.1504L115.104 89.9746C115.719 86.9336 115.719 84.7012 115.719 82.8027V82.6094H106.156V81.2559H117.389ZM119.006 91.9785V93.3672H104.645V91.9785H110.111V86.4238H111.764V91.9785H119.006ZM128.955 80.4648C131.029 80.4473 132.629 81.6514 132.98 83.418H136.057V79.7441H137.727V88.1992H136.057V84.7891H132.998C132.655 86.5996 131.047 87.8125 128.955 87.8125C126.547 87.8125 124.824 86.3008 124.824 84.1211C124.824 81.9766 126.547 80.4473 128.955 80.4648ZM128.955 81.8535C127.461 81.8535 126.424 82.7676 126.424 84.1211C126.424 85.4746 127.461 86.4062 128.955 86.4062C130.414 86.4062 131.451 85.4746 131.451 84.1211C131.451 82.7676 130.414 81.8535 128.955 81.8535ZM129.113 88.9551V90.7832H136.057V88.9551H137.727V95.3008H127.461V88.9551H129.113ZM129.113 93.9297H136.057V92.1016H129.113V93.9297ZM154.566 92.207V93.6133H140.152V92.207H146.498V89.4473H141.91V84.4375H151.156V82.2227H141.875V80.8516H152.809V85.7734H143.562V88.0762H153.178V89.4473H148.15V92.207H154.566ZM168.471 87.2148V88.5859H157.502V81.1504H168.33V82.5215H159.154V87.2148H168.471ZM170.123 92.0312V93.4199H155.709V92.0312H170.123ZM181.443 83.752C181.426 86.6348 183.166 89.5176 185.609 90.6074L184.607 91.9258C182.797 91.0645 181.364 89.2979 180.635 87.1445C179.896 89.4473 178.446 91.3545 176.557 92.2773L175.537 90.8711C178.016 89.7637 179.756 86.7578 179.756 83.752V81.0625H181.443V83.752ZM188.703 79.7441V95.5293H187.033V79.7441H188.703ZM65.7969 112.961V115.094H63.7578V124.633C64.7188 124.551 65.668 124.469 66.5703 124.352L66.6875 126.227C62.3047 126.977 57.4062 127.07 53.7266 127.07L53.4219 124.938L55.9766 124.914V115.094H53.9609V112.961H65.7969ZM70.2969 110.898V119.102H73.5547V121.234H70.2969V132.086H67.6953V110.898H70.2969ZM58.5078 124.867C59.4102 124.855 60.3242 124.82 61.25 124.773V115.094H58.5078V124.867ZM85.7188 112.258C85.7188 113.031 85.6484 113.758 85.5312 114.461H89.5859V110.922H92.1875V123.508H89.5859V121.047H84.5V118.938H89.5859V116.547H84.875C83.4453 119.84 80.2695 122.172 75.7109 123.391L74.7266 121.305C79.6133 120.016 82.4844 117.496 82.9297 114.391H75.875V112.258H85.7188ZM92.1875 124.398V132.016H89.5859V126.461H77.75V124.398H92.1875ZM119.164 110.898V132.086H116.656V110.898H119.164ZM115.039 111.297V131.102H112.625V124.844H110C109.262 126.484 107.773 127.516 105.922 127.516C103.32 127.516 101.398 125.453 101.422 122.5C101.398 119.523 103.32 117.484 105.922 117.461C108.547 117.484 110.445 119.523 110.445 122.5V122.758H112.625V119.992H110.07V117.859H112.625V111.297H115.039ZM111.078 114.273V116.359H100.836V114.273H104.68V111.438H107.281V114.273H111.078ZM105.922 119.688C104.586 119.688 103.695 120.742 103.695 122.5C103.695 124.211 104.586 125.312 105.922 125.312C107.258 125.312 108.172 124.211 108.195 122.5C108.172 120.742 107.258 119.688 105.922 119.688ZM130.742 112.375V114.461H124.93V116.523H130.531V118.516H124.93V120.742C127.52 120.719 129.312 120.613 131.375 120.227L131.656 122.336C129.172 122.805 127.109 122.875 123.828 122.875H122.422V112.375H130.742ZM139.742 110.922V123.812H137.258V118.305H135.055V123.648H132.617V111.32H135.055V116.219H137.258V110.922H139.742ZM139.742 124.75V132.086H137.141V126.859H125.234V124.75H139.742ZM166.297 110.898V132.086H163.812V110.898H166.297ZM161.984 111.297V131.055H159.523V120.391H156.477V118.281H159.523V111.297H161.984ZM154.602 116.688C154.602 120.273 155.891 123.859 158.914 125.594L157.367 127.516C155.41 126.344 154.109 124.328 153.383 121.914C152.633 124.527 151.285 126.754 149.281 128.008L147.688 126.062C150.758 124.211 152.094 120.367 152.094 116.688V115.281H148.414V113.172H158.023V115.281H154.602V116.688ZM178.344 124.141C182.938 124.164 185.844 125.617 185.867 128.125C185.844 130.586 182.938 132.062 178.344 132.062C173.773 132.062 170.844 130.586 170.844 128.125C170.844 125.617 173.773 124.164 178.344 124.141ZM178.344 126.109C175.297 126.109 173.445 126.836 173.469 128.125C173.445 129.367 175.297 130.047 178.344 130.047C181.414 130.047 183.266 129.367 183.289 128.125C183.266 126.836 181.414 126.109 178.344 126.109ZM185.727 111.906V113.664C185.727 115.328 185.727 117.109 185.141 119.289L182.562 119.055C183.09 116.992 183.125 115.504 183.125 113.969H171.055V111.906H185.727ZM188.07 120.508V122.617H168.852V120.508H176.305V116.664H178.883V120.508H188.07ZM193.906 113.031L193.648 125.008H191L190.719 113.031H193.906ZM192.336 130.188C191.328 130.188 190.508 129.367 190.508 128.359C190.508 127.375 191.328 126.555 192.336 126.555C193.297 126.555 194.141 127.375 194.141 128.359C194.141 129.367 193.297 130.188 192.336 130.188Z" fill="white"/>
<path d="M57.9395 188.377C59.9961 188.359 61.6133 189.546 62.0176 191.295H64.8828V187.674H66.834V196.199H64.8828V192.877H62.0352C61.6396 194.661 60.0049 195.865 57.9395 195.865C55.4961 195.865 53.7383 194.301 53.7383 192.104C53.7383 189.941 55.4961 188.359 57.9395 188.377ZM57.9395 190.012C56.5684 190.012 55.6016 190.82 55.6016 192.104C55.6016 193.369 56.5684 194.213 57.9395 194.213C59.2754 194.213 60.2246 193.369 60.2422 192.104C60.2246 190.82 59.2754 190.012 57.9395 190.012ZM58.291 196.938V198.625H64.8828V196.938H66.834V203.371H56.3574V196.938H58.291ZM58.291 201.789H64.8828V200.137H58.291V201.789ZM83.6035 200.102V201.719H69.084V200.102H75.3418V197.518H70.8066V192.314H79.9473V190.346H70.7715V188.764H81.8809V193.861H72.7578V195.918H82.25V197.518H77.2754V200.102H83.6035ZM97.543 195.127V196.691H86.3984V189.062H97.4199V190.645H88.332V195.127H97.543ZM99.1602 199.926V201.543H84.6406V199.926H99.1602ZM112.643 187.674V194.002H115.086V195.619H112.643V203.564H110.709V187.674H112.643ZM109.479 190.117V191.682H100.109V190.117H103.871V187.902H105.822V190.117H109.479ZM104.855 192.719C107.141 192.719 108.846 194.266 108.846 196.463C108.846 198.66 107.141 200.189 104.855 200.189C102.535 200.189 100.83 198.66 100.848 196.463C100.83 194.266 102.535 192.719 104.855 192.719ZM104.855 194.318C103.607 194.318 102.711 195.162 102.711 196.463C102.711 197.764 103.607 198.59 104.855 198.572C106.068 198.59 106.965 197.764 106.982 196.463C106.965 195.162 106.068 194.318 104.855 194.318ZM129.061 187.674V203.582H127.109V195.127H124.385V193.527H127.109V187.674H129.061ZM123.471 189.062V194.881H118.268V198.221C120.623 198.212 122.53 198.133 124.666 197.746L124.824 199.346C122.451 199.768 120.342 199.855 117.6 199.855H116.334V193.299H121.555V190.645H116.281V189.062H123.471ZM148.027 187.674V193.879H150.383V195.514H148.027V203.529H146.076V187.674H148.027ZM143.826 189.326C143.826 194.002 141.893 198.098 136.602 200.699L135.494 199.188C139.361 197.263 141.453 194.556 141.857 190.943H136.355V189.326H143.826ZM164.41 187.674V203.564H162.441V187.674H164.41ZM159.664 189.361C159.664 194.09 157.836 198.115 152.264 200.752L151.244 199.188C155.401 197.21 157.335 194.521 157.678 190.908H152.053V189.361H159.664Z" fill="#F6F8FC"/>
<path d="M177.292 189.5L182.708 196.342L177.292 202.5" stroke="#F6F8FC" stroke-width="1.625" stroke-linecap="round"/>
<rect x="53" y="38" width="63" height="22" rx="11" fill="#93F65A"/>
<path d="M65.7852 53V44.5156H71.3047V45.793H67.3086V48.1133H71.0117V49.3906H67.3086V51.7109H71.3281V53H65.7852ZM73.8945 44.5156L76.0977 51.207H76.1914L78.4062 44.5156H80.082L77.082 53H75.207L72.2188 44.5156H73.8945ZM81.0898 53V44.5156H86.6094V45.793H82.6133V48.1133H86.3164V49.3906H82.6133V51.7109H86.6328V53H81.0898ZM95.0469 44.5156V53H93.6875L89.668 47.1992H89.5977V53H88.0742V44.5156H89.457L93.4531 50.3164H93.5352V44.5156H95.0469ZM96.2422 45.793V44.5156H103.004V45.793H100.391V53H98.8672V45.793H96.2422Z" fill="#27364B"/>
<rect width="121.627" height="133.227" rx="16.5429" transform="matrix(0.99195 -0.126634 0.150687 0.988581 308 104.102)" fill="#FFC64A"/>
<rect width="121.806" height="132.994" rx="16.5429" transform="matrix(0.999564 0.0295209 -0.0348197 0.999394 424.605 80.6172)" fill="#FFC64A"/>
<rect width="121.414" height="133.503" rx="16.5429" transform="matrix(0.982758 0.184899 -0.219181 0.975684 543.725 93.2969)" fill="#FFC64A"/>
<g filter="url(#filter2_d_1641_27274)">
<rect x="316.434" y="73.4009" width="115.8" height="138.133" rx="16.5429" transform="rotate(-7.94129 316.434 73.4009)" fill="#EDF3FF" shape-rendering="crispEdges"/>
<path d="M369.685 111.619L372.128 129.13L369.651 129.475L367.208 111.964L369.685 111.619ZM360.371 114.171C363.002 113.804 365.298 115.95 365.828 119.752C366.364 123.592 364.74 126.265 362.11 126.632C359.422 127.007 357.128 124.88 356.612 121.037C356.062 117.238 357.683 114.546 360.371 114.171ZM360.679 116.379C359.316 116.569 358.612 118.116 358.974 120.708C359.338 123.319 360.436 124.595 361.799 124.405C363.124 124.22 363.831 122.692 363.466 120.081C363.105 117.489 362.004 116.194 360.679 116.379ZM379.748 112.055L380.383 116.606L382.13 116.362L381.278 110.256L383.582 109.935L385.872 126.351L383.568 126.672L382.403 118.32L380.656 118.564L381.32 123.326L374.37 124.295L372.798 113.025L379.748 112.055ZM375.353 114.645L376.387 122.056L378.768 121.724L377.734 114.313L375.353 114.645ZM387.196 109.176L389.633 126.649L387.29 126.975L384.853 109.503L387.196 109.176ZM394.084 108.744C396.734 108.374 398.98 109.744 399.307 112.087C399.628 114.391 397.845 116.342 395.196 116.712C392.488 117.09 390.258 115.698 389.937 113.394C389.61 111.051 391.377 109.122 394.084 108.744ZM394.363 110.741C393.019 110.928 392.122 111.797 392.318 113.062C392.473 114.312 393.576 114.922 394.92 114.734C396.244 114.55 397.119 113.664 396.945 112.416C396.768 111.149 395.687 110.556 394.363 110.741ZM403.669 106.878L404.891 115.634L402.433 115.976L401.212 107.221L403.669 106.878ZM404.993 116.363L405.654 121.106L396.361 122.402L396.519 123.535L406.292 122.171L406.56 124.092L394.387 125.79L393.712 120.951L402.967 119.66L402.817 118.585L393.524 119.881L393.261 118L404.993 116.363ZM377.66 141.776L377.818 142.908C377.957 144.044 378.173 145.599 378.035 147.556L375.611 147.718C375.685 146.211 375.593 145.059 375.475 144.077L368.909 144.993L368.636 143.034L377.66 141.776ZM373.826 146.284L374.246 149.298C375.985 148.997 377.745 148.634 379.36 148.213L379.733 149.903C376.193 151.043 372.212 151.696 369.063 152.135L368.579 150.206C369.576 150.058 370.671 149.905 371.819 149.715L371.387 146.624L373.826 146.284ZM381.769 140.224L382.369 144.525L384.5 144.227L384.784 146.263L382.653 146.56L383.256 150.88L380.74 151.231L379.254 140.575L381.769 140.224ZM377.333 151.921C381.077 151.399 383.574 152.323 383.853 154.32C384.147 156.432 381.993 157.966 378.249 158.488C374.505 159.01 371.994 158.127 371.699 156.015C371.42 154.018 373.589 152.444 377.333 151.921ZM377.595 153.803C375.291 154.124 374.072 154.784 374.195 155.667C374.334 156.665 375.68 156.908 377.984 156.587C380.269 156.268 381.477 155.669 381.338 154.671C381.214 153.788 379.88 153.484 377.595 153.803ZM399.299 139.325L399.53 140.976C399.835 143.165 400.178 145.622 399.984 149.427L397.492 149.52C397.694 146.125 397.38 143.664 397.112 141.607L386.821 143.042L386.55 141.103L399.299 139.325ZM402.485 150.938L402.764 152.935L386.827 155.158L386.549 153.161L392.251 152.365L391.413 146.356L393.851 146.016L394.69 152.025L402.485 150.938Z" fill="#2563EB"/>
</g>
<g filter="url(#filter3_d_1641_27274)">
<rect x="427.282" y="49" width="115.8" height="138.133" rx="16.5429" transform="rotate(1.83729 427.282 49)" fill="#EDF3FF" shape-rendering="crispEdges"/>
<path d="M469.857 97.1688L469.729 101.141L472.132 101.218L472.259 97.2458L474.546 97.3192L474.165 109.197L467.151 108.972L467.532 97.0942L469.857 97.1688ZM469.539 107.07L471.942 107.147L472.07 103.156L469.667 103.078L469.539 107.07ZM482.366 95.9989L481.8 113.631L479.437 113.555L479.722 104.662L478.133 104.611L477.874 112.691L475.529 112.615L476.061 96.0488L478.405 96.124L478.198 102.596L479.786 102.647L480.002 95.9231L482.366 95.9989ZM499.126 96.5366L498.56 114.208L496.099 114.129L496.426 103.917L491.602 103.763L491.666 101.748L496.491 101.902L496.666 96.4576L499.126 96.5366ZM487.557 98.0469L487.25 107.619C489.498 107.662 491.791 107.541 494.208 107.163L494.415 109.187C491.547 109.696 488.83 109.745 486.195 109.66L484.703 109.612L485.077 97.9673L487.557 98.0469ZM476.006 126.78L475.969 127.923C475.913 129.066 475.863 130.635 475.394 132.541L472.978 132.289C473.307 130.815 473.411 129.665 473.462 128.677L466.836 128.464L466.899 126.488L476.006 126.78ZM471.462 130.572L471.364 133.614C473.129 133.612 474.926 133.554 476.588 133.413L476.669 135.142C472.986 135.664 468.953 135.631 465.775 135.529L465.625 133.546C466.633 133.569 467.738 133.604 468.901 133.612L469.001 130.493L471.462 130.572ZM480.319 125.949L480.18 130.289L482.331 130.358L482.265 132.412L480.114 132.343L479.974 136.703L477.436 136.621L477.781 125.867L480.319 125.949ZM473.961 136.723C477.739 136.844 480.043 138.179 479.979 140.194C479.91 142.325 477.527 143.471 473.748 143.35C469.97 143.228 467.645 141.932 467.713 139.801C467.778 137.785 470.182 136.602 473.961 136.723ZM473.9 138.622C471.575 138.547 470.261 138.99 470.232 139.881C470.2 140.889 471.485 141.357 473.81 141.431C476.115 141.505 477.408 141.12 477.44 140.113C477.469 139.221 476.206 138.696 473.9 138.622ZM497.747 128.04L497.694 129.706C497.623 131.915 497.544 134.395 496.707 138.112L494.235 137.781C495.01 134.469 495.119 131.99 495.204 129.917L484.819 129.584L484.882 127.627L497.747 128.04ZM498.915 140.026L498.85 142.041L482.768 141.525L482.832 139.51L488.587 139.694L488.782 133.629L491.242 133.708L491.048 139.773L498.915 140.026Z" fill="#2563EB"/>
</g>
<g filter="url(#filter4_d_1641_27274)">
<rect x="540.517" y="62.1631" width="115.8" height="138.133" rx="16.5429" transform="rotate(11.6173 540.517 62.1631)" fill="#EDF3FF" shape-rendering="crispEdges"/>
<path d="M561.092 112.567L558.539 124.986L556.108 124.486L558.661 112.067L561.092 112.567ZM558.46 127.681L558.062 129.618L546.023 127.143L547.213 121.351L549.663 121.855L548.87 125.709L558.46 127.681ZM551.39 111.72C554.049 112.267 555.744 114.515 555.224 117.041C554.693 119.623 552.253 121.002 549.594 120.455C546.936 119.909 545.237 117.679 545.768 115.097C546.287 112.571 548.732 111.174 551.39 111.72ZM550.957 113.828C549.612 113.532 548.411 114.176 548.142 115.585C547.826 117.024 548.679 118.07 550.028 118.347C551.338 118.617 552.535 117.992 552.832 116.549C553.121 115.144 552.271 114.078 550.957 113.828ZM572.059 117.177C571.54 119.702 573.222 122.878 576.997 124.347L575.52 126.141C572.633 124.924 570.74 122.774 570.088 120.314C568.484 122.29 565.894 123.529 562.778 123.522L562.148 121.294C566.124 121.399 568.942 119.148 569.476 116.646L569.734 115.392L572.317 115.923L572.059 117.177ZM576.544 129.439L576.134 131.433L560.316 128.181L560.726 126.187L576.544 129.439ZM588.812 119.73L588.406 121.705L582.671 120.526L582.086 123.375L587.574 124.503L587.183 126.402L581.695 125.273L581.024 128.54C583.506 129.03 585.54 129.339 587.923 129.443L587.749 131.446C585.028 131.302 582.658 130.894 579.638 130.273L578.176 129.973L580.628 118.048L588.812 119.73ZM593.871 119.286L592.524 125.837L595.069 126.36L594.651 128.392L592.107 127.869L590.319 136.566L587.888 136.066L591.44 118.786L593.871 119.286ZM610.538 124.375L610.113 126.445C609.625 128.818 609.141 131.173 607.78 134.614L605.374 133.902C606.702 130.711 607.21 128.243 607.701 125.949L607.729 125.816L597.949 123.806L598.347 121.869L610.538 124.375ZM610.125 136.205L609.715 138.198L593.954 134.958L594.364 132.964L610.125 136.205ZM628.693 126.465L626.601 136.643L624.303 136.17L625.162 131.993L623.662 131.684L622.83 135.729L620.57 135.264L622.573 125.523L624.833 125.988L624.06 129.748L625.56 130.056L626.395 125.992L628.693 126.465ZM626.456 137.345L625.184 143.536L613.391 141.111L614.664 134.921L626.456 137.345ZM616.681 137.335L616.201 139.67L623.189 141.107L623.669 138.771L616.681 137.335ZM620.91 125.913L619.852 131.059L615.617 130.189L615.297 131.746C617.19 132.115 618.611 132.328 620.316 132.362L620.135 134.304C618.051 134.232 616.335 133.919 613.771 133.392L612.575 133.146L613.652 127.905L617.887 128.775L618.187 127.313L613.934 126.439L614.32 124.559L620.91 125.913ZM575.32 147.089L575.09 148.21C574.841 149.326 574.524 150.864 573.739 152.662L571.401 152.003C571.975 150.607 572.273 149.491 572.491 148.526L565.997 147.191L566.395 145.254L575.32 147.089ZM570.198 150.054L569.585 153.035C571.325 153.333 573.105 153.581 574.768 153.725L574.553 155.442C570.835 155.331 566.866 154.614 563.752 153.973L563.941 151.994C564.931 152.187 566.013 152.41 567.158 152.615L567.787 149.558L570.198 150.054ZM579.712 147.002L578.838 151.256L580.945 151.689L580.532 153.702L578.424 153.269L577.545 157.541L575.058 157.03L577.224 146.491L579.712 147.002ZM571.616 156.54C575.319 157.301 577.363 159.008 576.957 160.983C576.527 163.072 573.984 163.796 570.281 163.034C566.578 162.273 564.507 160.601 564.937 158.512C565.343 156.537 567.913 155.779 571.616 156.54ZM571.233 158.401C568.955 157.933 567.585 158.146 567.405 159.019C567.202 160.007 568.389 160.686 570.667 161.154C572.927 161.619 574.266 161.459 574.469 160.471C574.649 159.598 573.493 158.866 571.233 158.401ZM596.532 152.024L596.196 153.657C595.751 155.822 595.251 158.252 593.795 161.773L591.415 161.026C592.742 157.895 593.27 155.47 593.707 153.442L583.529 151.35L583.923 149.432L596.532 152.024ZM595.646 164.033L595.24 166.008L579.479 162.768L579.885 160.793L585.525 161.953L586.747 156.009L589.158 156.505L587.937 162.448L595.646 164.033Z" fill="#2563EB"/>
</g>
</g>
<defs>
<filter id="filter0_f_1641_27274" x="-96" y="14" width="524" height="236" filterUnits="userSpaceOnUse" color-interpolation-filters="sRGB">
<feFlood flood-opacity="0" result="BackgroundImageFix"/>
<feBlend mode="normal" in="SourceGraphic" in2="BackgroundImageFix" result="shape"/>
<feGaussianBlur stdDeviation="30" result="effect1_foregroundBlur_1641_27274"/>
</filter>
<filter id="filter1_f_1641_27274" x="359" y="149" width="524" height="236" filterUnits="userSpaceOnUse" color-interpolation-filters="sRGB">
<feFlood flood-opacity="0" result="BackgroundImageFix"/>
<feBlend mode="normal" in="SourceGraphic" in2="BackgroundImageFix" result="shape"/>
<feGaussianBlur stdDeviation="30" result="effect1_foregroundBlur_1641_27274"/>
</filter>
<filter id="filter2_d_1641_27274" x="313.125" y="54.0938" width="140.391" height="159.424" filterUnits="userSpaceOnUse" color-interpolation-filters="sRGB">
<feFlood flood-opacity="0" result="BackgroundImageFix"/>
<feColorMatrix in="SourceAlpha" type="matrix" values="0 0 0 0 0 0 0 0 0 0 0 0 0 0 0 0 0 0 127 0" result="hardAlpha"/>
<feOffset/>
<feGaussianBlur stdDeviation="1.65429"/>
<feComposite in2="hardAlpha" operator="out"/>
<feColorMatrix type="matrix" values="0 0 0 0 0 0 0 0 0 0 0 0 0 0 0 0 0 0 0.3 0"/>
<feBlend mode="normal" in2="BackgroundImageFix" result="effect1_dropShadow_1641_27274"/>
<feBlend mode="normal" in="SourceGraphic" in2="effect1_dropShadow_1641_27274" result="shape"/>
</filter>
<filter id="filter3_d_1641_27274" x="419.545" y="45.6914" width="126.786" height="148.392" filterUnits="userSpaceOnUse" color-interpolation-filters="sRGB">
<feFlood flood-opacity="0" result="BackgroundImageFix"/>
<feColorMatrix in="SourceAlpha" type="matrix" values="0 0 0 0 0 0 0 0 0 0 0 0 0 0 0 0 0 0 127 0" result="hardAlpha"/>
<feOffset/>
<feGaussianBlur stdDeviation="1.65429"/>
<feComposite in2="hardAlpha" operator="out"/>
<feColorMatrix type="matrix" values="0 0 0 0 0 0 0 0 0 0 0 0 0 0 0 0 0 0 0.3 0"/>
<feBlend mode="normal" in2="BackgroundImageFix" result="effect1_dropShadow_1641_27274"/>
<feBlend mode="normal" in="SourceGraphic" in2="effect1_dropShadow_1641_27274" result="shape"/>
</filter>
<filter id="filter4_d_1641_27274" x="509.392" y="58.8545" width="147.862" height="165.24" filterUnits="userSpaceOnUse" color-interpolation-filters="sRGB">
<feFlood flood-opacity="0" result="BackgroundImageFix"/>
<feColorMatrix in="SourceAlpha" type="matrix" values="0 0 0 0 0 0 0 0 0 0 0 0 0 0 0 0 0 0 127 0" result="hardAlpha"/>
<feOffset/>
<feGaussianBlur stdDeviation="1.65429"/>
<feComposite in2="hardAlpha" operator="out"/>
<feColorMatrix type="matrix" values="0 0 0 0 0 0 0 0 0 0 0 0 0 0 0 0 0 0 0.3 0"/>
<feBlend mode="normal" in2="BackgroundImageFix" result="effect1_dropShadow_1641_27274"/>
<feBlend mode="normal" in="SourceGraphic" in2="effect1_dropShadow_1641_27274" result="shape"/>
</filter>
<clipPath id="clip0_1641_27274">
<rect width="750" height="300" rx="20" fill="white"/>
</clipPath>
</defs>
</svg>
