<svg width="750" height="300" viewBox="0 0 750 300" fill="none" xmlns="http://www.w3.org/2000/svg">
<g clip-path="url(#clip0_1641_27176)">
<rect width="750" height="300" rx="20" fill="#D3E1FE"/>
<path d="M69.8223 46.5117V58.3496H67.416V46.5117H69.8223ZM63.5918 47.6719V53.3652H57.0176V55.4492C60.3477 55.4385 62.7002 55.3311 65.4824 54.9121L65.7832 56.8242C62.7109 57.3184 60.0898 57.4043 56.3301 57.4043H54.6758V51.582H61.2285V49.627H54.6328V47.6719H63.5918ZM63.291 58.6934C67.416 58.6934 69.9297 60.0039 69.9297 62.3027C69.9297 64.5586 67.416 65.8906 63.291 65.8906C59.1445 65.8906 56.6523 64.5586 56.6523 62.3027C56.6523 60.0039 59.1445 58.6934 63.291 58.6934ZM63.291 60.5625C60.541 60.5625 59.0156 61.1641 59.0156 62.3027C59.0156 63.4199 60.541 64.0215 63.291 64.0215C66.0195 64.0215 67.5449 63.4199 67.5449 62.3027C67.5449 61.1641 66.0195 60.5625 63.291 60.5625ZM88.793 46.5117V59.4668H86.4082V46.5117H88.793ZM83.5723 58.6934C83.5508 61.1426 85.8711 63.291 89.8027 63.9141L88.793 65.8047C85.7744 65.2568 83.4434 63.8174 82.3047 61.7656C81.1338 63.8281 78.749 65.2891 75.6445 65.8262L74.6992 63.9355C78.6523 63.3555 81.0586 61.1426 81.0586 58.6934V58.1562H83.5723V58.6934ZM83.0566 47.7578C83.0352 53.0859 80.5 56.7812 73.9688 58.8223L73.0449 56.9102C76.0312 56.0186 77.9648 54.7939 79.125 53.3008L73.3672 53.7305L73.002 51.8398L80.0918 51.582C80.3281 50.9697 80.4678 50.3359 80.543 49.6699H73.9902V47.7578H83.0566ZM108.43 46.4902V65.9121H106.131V46.4902H108.43ZM104.434 46.834V64.9668H102.156V55.7285H100.309C100.083 59.5098 98.4609 61.8516 96.0547 61.8301C93.5195 61.8516 91.8652 59.166 91.8652 54.8906C91.8652 50.6152 93.5195 47.9727 96.0547 47.9727C98.4072 47.9727 100.008 50.1641 100.287 53.7949H102.156V46.834H104.434ZM96.0547 50.2285C94.8301 50.207 94.0566 51.8613 94.0781 54.8906C94.0566 57.9199 94.8301 59.5742 96.0547 59.5527C97.3438 59.5742 98.1172 57.9199 98.1172 54.8906C98.1172 51.8613 97.3438 50.207 96.0547 50.2285ZM131.117 46.4902V54.0742H133.996V56.0723H131.117V65.8691H128.732V46.4902H131.117ZM125.982 48.5098C125.982 54.2246 123.619 59.2305 117.152 62.4102L115.799 60.5625C120.525 58.21 123.082 54.9014 123.576 50.4863H116.852V48.5098H125.982ZM151.098 46.4902V56.9102H148.691V46.4902H151.098ZM140.613 57.8125V59.8105H148.713V57.8125H151.098V65.6758H138.25V57.8125H140.613ZM140.613 63.7422H148.713V61.6797H140.613V63.7422ZM140.506 47.3496C143.492 47.3281 145.727 49.1973 145.727 51.9043C145.727 54.5469 143.492 56.416 140.506 56.416C137.498 56.416 135.264 54.5469 135.264 51.9043C135.264 49.1973 137.498 47.3281 140.506 47.3496ZM140.506 49.3477C138.809 49.3477 137.584 50.3359 137.605 51.9043C137.584 53.4512 138.809 54.4395 140.506 54.4609C142.182 54.4395 143.385 53.4512 143.385 51.9043C143.385 50.3359 142.182 49.3477 140.506 49.3477ZM169.145 46.4902V54.2246H172.131V56.2012H169.145V65.9121H166.781V46.4902H169.145ZM165.277 49.4766V51.3887H153.826V49.4766H158.424V46.7695H160.809V49.4766H165.277ZM159.627 52.6562C162.42 52.6562 164.504 54.5469 164.504 57.2324C164.504 59.918 162.42 61.7871 159.627 61.7871C156.791 61.7871 154.707 59.918 154.729 57.2324C154.707 54.5469 156.791 52.6562 159.627 52.6562ZM159.627 54.6113C158.102 54.6113 157.006 55.6426 157.006 57.2324C157.006 58.8223 158.102 59.832 159.627 59.8105C161.109 59.832 162.205 58.8223 162.227 57.2324C162.205 55.6426 161.109 54.6113 159.627 54.6113ZM188.803 48.2734V50.1426C188.781 52.5488 188.781 55.2559 188.029 59.3164L185.623 59.0586C186.375 55.2773 186.375 52.5166 186.396 50.1855H174.795V48.2734H188.803ZM190.65 61.4434V63.3984H172.947V61.4434H179.479V54.6973H181.842V61.4434H190.65ZM69.5645 83.4902V90.7949H71.7344V92.8145H69.5645V102.912H67.2012V83.4902H69.5645ZM55.8574 85.2734V89.9355H57.4902V85.2734H59.4668V98.3359H53.8809V85.2734H55.8574ZM55.8574 96.3809H57.4902V91.8262H55.8574V96.3809ZM62.2812 85.2734V89.9355H63.9141V85.2734H65.8906V98.3359H60.3477V85.2734H62.2812ZM62.2812 96.3809H63.9141V91.8262H62.2812V96.3809ZM90.4043 98.6582V100.613H72.6582V98.6582H90.4043ZM88.2988 84.8652V91.1172H77.1484V93.6523H88.75V95.543H74.7637V89.2051H85.9355V86.7988H74.7207V84.8652H88.2988ZM108.43 83.4902V102.912H106.152V83.4902H108.43ZM104.305 83.9629V101.988H102.049V93.0508H98.5898C97.4512 95.2852 95.625 97.2188 92.875 98.8086L91.5215 97.1113C95.5498 94.7373 97.3867 91.6973 97.752 87.7871H92.5098V85.8535H100.115C100.115 87.7334 99.8896 89.4951 99.3633 91.1387H102.049V83.9629H104.305ZM132.191 83.5117V98.207H129.785V96.5098H125.982V94.834H129.785V83.5117H132.191ZM132.643 100.592V102.525H118.398V96.7891H120.783V100.592H132.643ZM115.82 92.2344C119.408 92.2129 124.221 92.1699 128.346 91.6543L128.475 93.373C126.874 93.6416 125.22 93.8242 123.576 93.9316V97.6699H121.191V94.0605C119.376 94.1357 117.646 94.1465 116.121 94.1465L115.82 92.2344ZM122.158 84.2207C124.994 84.2207 126.971 85.6172 126.992 87.6582C126.971 89.7422 124.994 91.0742 122.158 91.0742C119.279 91.0742 117.303 89.7422 117.303 87.6582C117.303 85.6172 119.279 84.2207 122.158 84.2207ZM122.158 85.9824C120.611 85.9824 119.559 86.6055 119.559 87.6582C119.559 88.7109 120.611 89.334 122.158 89.334C123.641 89.334 124.693 88.7109 124.715 87.6582C124.693 86.6055 123.641 85.9824 122.158 85.9824ZM150.131 83.4902V91.2246H153.117V93.2012H150.131V102.912H147.768V83.4902H150.131ZM146.264 86.4766V88.3887H134.812V86.4766H139.41V83.7695H141.795V86.4766H146.264ZM140.613 89.6562C143.406 89.6562 145.49 91.5469 145.49 94.2324C145.49 96.918 143.406 98.7871 140.613 98.7871C137.777 98.7871 135.693 96.918 135.715 94.2324C135.693 91.5469 137.777 89.6562 140.613 89.6562ZM140.613 91.6113C139.088 91.6113 137.992 92.6426 137.992 94.2324C137.992 95.8223 139.088 96.832 140.613 96.8105C142.096 96.832 143.191 95.8223 143.213 94.2324C143.191 92.6426 142.096 91.6113 140.613 91.6113ZM169.66 88.9902V90.8809H156.211V84.1992H158.574V88.9902H169.66ZM171.658 93.1367V95.0273H153.912V93.1367H171.658ZM169.789 100.527V102.461H156.039V96.7461H158.424V100.527H169.789ZM188.631 84.6289V86.5625H181.67V88.3672H188.072V90.2363H181.67V92.1484C185.301 92.1377 187.514 92.0732 190.07 91.6543L190.307 93.5234C187.514 94.0176 185.086 94.0605 180.896 94.0391H179.242V84.6289H188.631ZM194.346 83.5117V95.0488H191.939V83.5117H194.346ZM194.346 95.9082V102.676H181.455V95.9082H194.346ZM183.818 97.7559V100.742H192.004V97.7559H183.818ZM213.467 83.5117V98.207H211.061V96.5098H207.258V94.834H211.061V83.5117H213.467ZM213.918 100.592V102.525H199.674V96.7891H202.059V100.592H213.918ZM197.096 92.2344C200.684 92.2129 205.496 92.1699 209.621 91.6543L209.75 93.373C208.149 93.6416 206.495 93.8242 204.852 93.9316V97.6699H202.467V94.0605C200.651 94.1357 198.922 94.1465 197.396 94.1465L197.096 92.2344ZM203.434 84.2207C206.27 84.2207 208.246 85.6172 208.268 87.6582C208.246 89.7422 206.27 91.0742 203.434 91.0742C200.555 91.0742 198.578 89.7422 198.578 87.6582C198.578 85.6172 200.555 84.2207 203.434 84.2207ZM203.434 85.9824C201.887 85.9824 200.834 86.6055 200.834 87.6582C200.834 88.7109 201.887 89.334 203.434 89.334C204.916 89.334 205.969 88.7109 205.99 87.6582C205.969 86.6055 204.916 85.9824 203.434 85.9824ZM223.199 84.7148L218.193 103.342H215.787L220.814 84.7148H223.199ZM234.543 84.6289V86.5625H227.582V88.3672H233.984V90.2363H227.582V92.1484C231.213 92.1377 233.426 92.0732 235.982 91.6543L236.219 93.5234C233.426 94.0176 230.998 94.0605 226.809 94.0391H225.154V84.6289H234.543ZM240.258 83.5117V95.0488H237.852V83.5117H240.258ZM240.258 95.9082V102.676H227.367V95.9082H240.258ZM229.73 97.7559V100.742H237.916V97.7559H229.73ZM251.924 83.791C256.35 83.791 258.906 84.9727 258.928 87.1211C258.906 89.291 256.35 90.4512 251.924 90.4727C247.498 90.4512 244.92 89.291 244.92 87.1211C244.92 84.9727 247.498 83.791 251.924 83.791ZM251.924 85.5527C248.959 85.5527 247.412 86.1113 247.434 87.1211C247.412 88.1953 248.959 88.6895 251.924 88.6895C254.932 88.6895 256.457 88.1953 256.457 87.1211C256.457 86.1113 254.932 85.5527 251.924 85.5527ZM260.797 91.5039V93.416H243.094V91.5039H260.797ZM258.584 94.7266V99.4746H247.541V100.914H259.121V102.74H245.199V97.7773H256.242V96.4883H245.178V94.7266H258.584ZM274.311 87.4648C274.311 89.5488 275.879 91.5898 278.93 92.4062L277.855 94.2324C275.6 93.6416 274.01 92.3525 273.15 90.6875C272.28 92.5137 270.647 93.9316 268.359 94.5977L267.221 92.707C270.293 91.8906 271.926 89.7422 271.926 87.4648V87.4004H267.865V85.5098H271.926V83.4043H274.332V85.5098H278.371V87.4004H274.311V87.4648ZM282.646 83.4902V88.002H285.354V89.9785H282.646V94.6191H280.262V83.4902H282.646ZM282.926 95.5215V97.4336H277.791C278.242 99.0449 280.423 100.549 283.742 101.021L282.883 102.848C279.843 102.418 277.544 101.118 276.416 99.3457C275.299 101.107 273.021 102.375 270.014 102.805L269.133 101C272.463 100.538 274.622 99.0879 275.084 97.4336H269.928V95.5215H282.926ZM295.172 84.5859C299.275 84.5859 302.412 86.7559 302.412 90.0645C302.412 93.416 299.275 95.5859 295.172 95.5859C291.09 95.5859 287.953 93.416 287.975 90.0645C287.953 86.7559 291.09 84.5859 295.172 84.5859ZM295.172 86.5195C292.357 86.498 290.273 87.916 290.273 90.0645C290.273 92.2559 292.357 93.6309 295.172 93.6309C298.008 93.6309 300.07 92.2559 300.07 90.0645C300.07 87.916 298.008 86.498 295.172 86.5195ZM304.088 98.5078V100.463H286.342V98.5078H304.088ZM311.414 88.582C311.414 91.7188 312.51 94.9844 315.131 96.6387L313.82 98.4648C312.069 97.4121 310.931 95.5967 310.297 93.459C309.588 95.8115 308.342 97.7988 306.516 98.916L305.033 97.1328C307.848 95.4141 309.115 91.998 309.115 88.6895V85.209H311.414V88.582ZM322.113 83.4902V102.912H319.814V83.4902H322.113ZM318.074 83.834V101.967H315.818V92.1484H313.047V90.1719H315.818V83.834H318.074ZM342.115 98.5938V100.549H324.369V98.5938H328.473V93.6738C326.926 92.793 325.991 91.4072 326.002 89.6777C325.98 86.584 329.031 84.543 333.199 84.543C337.389 84.543 340.439 86.584 340.439 89.6777C340.439 91.375 339.537 92.7393 338.033 93.6309V98.5938H342.115ZM333.199 86.4336C330.299 86.4336 328.322 87.6582 328.344 89.6777C328.322 91.6758 330.299 92.9219 333.199 92.9219C336.1 92.9219 338.098 91.6758 338.098 89.6777C338.098 87.6582 336.1 86.4336 333.199 86.4336ZM330.836 98.5938H335.605V94.5332C334.864 94.7051 334.059 94.791 333.199 94.791C332.361 94.791 331.566 94.7051 330.836 94.5547V98.5938Z" fill="#1E2A3B"/>
<path d="M66.3281 139.328V140.578H53.5156V139.328H66.3281ZM65.1562 129.672V130.891H63.0156V135.562H65.1094V136.75H54.6406V135.562H56.7344V130.891H54.6094V129.672H65.1562ZM58.2031 135.562H61.5625V130.891H58.2031V135.562ZM80.1562 139.406V140.656H67.3438V139.406H72.9844V136.953H68.9062V132.5H77.125V130.531H68.875V129.312H78.5938V133.688H70.375V135.734H78.9219V136.953H74.4531V139.406H80.1562ZM92.8125 128.328V135.562H91.3125V128.328H92.8125ZM92.8125 136.203V139.672H85.0156V141H93.2969V142.188H83.5625V138.594H91.3438V137.375H83.5156V136.203H92.8125ZM89.3906 129.25V130.422H88.0469V133.734C88.7266 133.688 89.3984 133.625 90.0312 133.547L90.0938 134.625C87.2969 135.047 84.0312 135.141 81.5781 135.141L81.4062 133.953L83.1094 133.938V130.422H81.7812V129.25H89.3906ZM84.5312 133.906C85.2188 133.883 85.9219 133.859 86.625 133.812V130.422H84.5312V133.906ZM101.375 128.562C104.531 128.562 106.375 129.406 106.375 130.969C106.375 132.531 104.531 133.391 101.375 133.391C98.2188 133.391 96.375 132.531 96.375 130.969C96.375 129.406 98.2188 128.562 101.375 128.562ZM101.375 129.656C99.1406 129.656 97.9062 130.141 97.9219 130.969C97.9062 131.828 99.1406 132.281 101.375 132.281C103.609 132.281 104.844 131.828 104.844 130.969C104.844 130.141 103.609 129.656 101.375 129.656ZM107.766 134.25V135.438H95V134.25H107.766ZM106.156 136.516V139.797H98V141.047H106.547V142.188H96.5469V138.719H104.688V137.625H96.5312V136.516H106.156ZM116.922 132.609C116.922 134.781 117.938 137.047 119.891 138.062L119.047 139.172C117.695 138.453 116.75 137.117 116.25 135.531C115.742 137.219 114.805 138.68 113.453 139.469L112.578 138.375C114.5 137.25 115.516 134.859 115.531 132.609V132.094H112.938V130.859H115.531V128.828H116.922V130.859H119.469V132.094H116.922V132.609ZM124.828 128.328V142.328H123.406V135.141H121.734V141.641H120.328V128.594H121.734V133.891H123.406V128.328H124.828ZM132.938 128.484C136.094 128.484 137.938 129.344 137.938 130.891C137.938 132.453 136.094 133.312 132.938 133.312C129.781 133.312 127.938 132.453 127.938 130.891C127.938 129.344 129.781 128.484 132.938 128.484ZM132.938 129.594C130.703 129.609 129.469 130.062 129.484 130.891C129.469 131.766 130.703 132.203 132.938 132.203C135.172 132.203 136.406 131.766 136.406 130.891C136.406 130.062 135.172 129.609 132.938 129.594ZM139.328 134.141V135.312H133.672V136.516H137.719V139.797H129.562V141.047H138.109V142.188H128.109V138.719H136.25V137.625H128.094V136.516H132.188V135.312H126.562V134.141H139.328ZM147.562 129.562C147.547 131.422 149.828 133.172 152.578 133.531L152 134.75C149.711 134.383 147.695 133.195 146.797 131.547C145.875 133.203 143.867 134.383 141.594 134.75L141 133.531C143.75 133.172 146 131.438 146.016 129.562V128.797H147.562V129.562ZM153.156 136.125V137.344H147.469V142.328H146.016V137.344H140.391V136.125H153.156ZM167.016 135.969V137.172H154.203V135.969H159.875V134.641H155.844V131.078H163.922V129.828H155.812V128.656H165.406V132.172H157.312V133.484H165.688V134.641H161.344V135.969H167.016ZM165.484 138.156V142.219H163.984V139.344H155.641V138.156H165.484ZM184 128.328V142.328H182.578V135.031H180.844V141.641H179.438V128.594H180.844V133.812H182.578V128.328H184ZM177.859 129.906V138.641H172.422V129.906H177.859ZM173.828 131.078V137.453H176.469V131.078H173.828ZM190.984 131.234C190.984 132.906 192.359 134.469 194.531 135.062L193.828 136.219C192.188 135.766 190.938 134.75 190.281 133.422C189.656 134.883 188.422 136.031 186.734 136.562L186 135.391C188.156 134.734 189.5 133.047 189.5 131.234V131.156H186.391V129.969H189.5V128.328H191V129.969H194.078V131.156H190.984V131.234ZM197.391 128.344V136.875H195.906V128.344H197.391ZM192.688 137.141C195.625 137.141 197.438 138.094 197.438 139.719C197.438 141.359 195.625 142.312 192.688 142.297C189.734 142.312 187.922 141.359 187.922 139.719C187.922 138.094 189.734 137.141 192.688 137.141ZM192.688 138.312C190.609 138.312 189.422 138.828 189.422 139.719C189.422 140.641 190.609 141.156 192.688 141.156C194.766 141.156 195.969 140.641 195.969 139.719C195.969 138.828 194.766 138.312 192.688 138.312ZM214.531 128.344V132.5H216.531V133.719H214.531V137.766H213.047V128.344H214.531ZM203.422 136.203C204.508 136.203 205.766 136.203 207.078 136.156V135.219C205.484 135.055 204.469 134.305 204.484 133.172C204.469 131.891 205.797 131.094 207.812 131.109C209.812 131.094 211.141 131.891 211.141 133.172C211.141 134.297 210.141 135.047 208.562 135.219V136.109C209.812 136.047 211.078 135.945 212.25 135.781L212.375 136.844C209.359 137.375 206.047 137.391 203.578 137.391L203.422 136.203ZM214.531 138.422V142.328H213.047V139.578H205.172V138.422H214.531ZM211.859 129.531V130.641H203.781V129.531H207.078V128.219H208.562V129.531H211.859ZM207.812 132.125C206.609 132.109 205.891 132.5 205.891 133.172C205.891 133.828 206.609 134.25 207.812 134.25C209 134.25 209.719 133.828 209.719 133.172C209.719 132.5 209 132.109 207.812 132.125ZM230.141 134.656V135.766H226.781V136.891H228.562V139.969H220.344V141.141H229V142.188H218.859V138.984H227.094V137.953H218.844V136.891H220.703V135.766H217.328V134.656H230.141ZM228.531 128.688V131.703H220.438V132.734H228.766V133.781H218.969V130.719H227.047V129.719H218.938V128.688H228.531ZM222.172 136.891H225.312V135.766H222.172V136.891ZM242.766 128.328V142.359H241.281V128.328H242.766ZM235.281 129.375C237.359 129.375 238.891 131.281 238.891 134.281C238.891 137.297 237.359 139.203 235.281 139.203C233.172 139.203 231.656 137.297 231.656 134.281C231.656 131.281 233.172 129.375 235.281 129.375ZM235.281 130.703C233.984 130.703 233.094 132.078 233.094 134.281C233.094 136.5 233.984 137.875 235.281 137.875C236.562 137.875 237.453 136.5 237.453 134.281C237.453 132.078 236.562 130.703 235.281 130.703ZM260.266 131.797V132.984H256.031V134.578H261.672V135.781H248.906V134.578H254.547V132.984H250.609V128.625H252.078V131.797H260.266ZM260.281 137.047V138.203H258.203V140.953H260.406V142.156H250.188V140.953H252.391V138.203H250.312V137.047H260.281ZM253.859 140.953H256.734V138.203H253.859V140.953ZM266.484 129.375C268.578 129.375 270.062 131.281 270.078 134.281C270.062 137.297 268.578 139.203 266.484 139.203C264.391 139.203 262.891 137.297 262.906 134.281C262.891 131.281 264.391 129.375 266.484 129.375ZM266.484 130.703C265.203 130.703 264.328 132.078 264.328 134.281C264.328 136.5 265.203 137.875 266.484 137.875C267.781 137.875 268.656 136.5 268.656 134.281C268.656 132.078 267.781 130.703 266.484 130.703ZM273.641 128.328V133.812H275.891V135.062H273.641V142.328H272.156V128.328H273.641ZM288.25 128.328V142.328H286.766V136.438H284.078V135.203H286.766V133.469H284.078V132.234H286.766V128.328H288.25ZM281.562 132.266C281.562 134.453 283.062 137.125 285.156 138.172L284.266 139.312C282.727 138.523 281.484 136.844 280.859 134.953C280.234 137.023 278.977 138.797 277.422 139.656L276.438 138.531C278.547 137.484 280.047 134.781 280.062 132.266V130.953H276.969V129.734H284.641V130.953H281.562V132.266ZM303.203 139.344V140.578H290.391V139.344H293.453V135.688C292.305 135.055 291.609 134.047 291.609 132.797C291.609 130.594 293.766 129.141 296.766 129.141C299.781 129.141 301.938 130.594 301.938 132.797C301.938 134.031 301.266 135.023 300.141 135.656V139.344H303.203ZM296.766 130.328C294.562 130.328 293.047 131.281 293.047 132.797C293.047 134.297 294.562 135.281 296.766 135.281C298.953 135.281 300.5 134.297 300.5 132.797C300.5 131.281 298.953 130.328 296.766 130.328ZM294.922 139.344H298.641V136.219C298.07 136.367 297.438 136.438 296.766 136.438C296.109 136.438 295.484 136.367 294.922 136.234V139.344ZM306.797 129.688L306.656 137.734H305.109L304.969 129.688H306.797ZM305.891 141.109C305.281 141.109 304.766 140.609 304.781 140C304.766 139.391 305.281 138.891 305.891 138.891C306.484 138.891 307 139.391 307 140C307 140.609 306.484 141.109 305.891 141.109Z" fill="#64748B"/>
<path d="M59.2402 190.926C59.2402 192.631 60.5234 194.301 63.0195 194.969L62.1406 196.463C60.2949 195.979 58.9941 194.925 58.291 193.562C57.5791 195.057 56.2432 196.217 54.3711 196.762L53.4395 195.215C55.9531 194.547 57.2891 192.789 57.2891 190.926V190.873H53.9668V189.326H57.2891V187.604H59.2578V189.326H62.5625V190.873H59.2402V190.926ZM66.0605 187.674V191.365H68.2754V192.982H66.0605V196.779H64.1094V187.674H66.0605ZM66.2891 197.518V199.082H62.0879C62.457 200.4 64.2412 201.631 66.957 202.018L66.2539 203.512C63.7666 203.16 61.8857 202.097 60.9629 200.646C60.0488 202.088 58.1855 203.125 55.7246 203.477L55.0039 202C57.7285 201.622 59.4951 200.436 59.873 199.082H55.6543V197.518H66.2891ZM76.3086 188.57C79.666 188.57 82.2324 190.346 82.2324 193.053C82.2324 195.795 79.666 197.57 76.3086 197.57C72.9688 197.57 70.4023 195.795 70.4199 193.053C70.4023 190.346 72.9688 188.57 76.3086 188.57ZM76.3086 190.152C74.0059 190.135 72.3008 191.295 72.3008 193.053C72.3008 194.846 74.0059 195.971 76.3086 195.971C78.6289 195.971 80.3164 194.846 80.3164 193.053C80.3164 191.295 78.6289 190.135 76.3086 190.152ZM83.6035 199.961V201.561H69.084V199.961H83.6035ZM97.9473 187.674V203.582H95.9961V195.127H93.2715V193.527H95.9961V187.674H97.9473ZM92.3574 189.062V194.881H87.1543V198.221C89.5098 198.212 91.417 198.133 93.5527 197.746L93.7109 199.346C91.3379 199.768 89.2285 199.855 86.4863 199.855H85.2207V193.299H90.4414V190.645H85.168V189.062H92.3574ZM116.914 187.674V193.879H119.27V195.514H116.914V203.529H114.963V187.674H116.914ZM112.713 189.326C112.713 194.002 110.779 198.098 105.488 200.699L104.381 199.188C108.248 197.263 110.34 194.556 110.744 190.943H105.242V189.326H112.713ZM133.297 187.674V203.564H131.328V187.674H133.297ZM128.551 189.361C128.551 194.09 126.723 198.115 121.15 200.752L120.131 199.188C124.288 197.21 126.222 194.521 126.564 190.908H120.939V189.361H128.551Z" fill="#2563EB"/>
<path d="M150.292 189.5L155.708 196.342L150.292 202.5" stroke="#2563EB" stroke-width="1.625" stroke-linecap="round"/>
<path opacity="0.8" d="M526.483 254.021L441.662 137.813L464.748 116.024L611.565 98.126L631.019 120.693L557.611 241.83L526.483 254.021Z" stroke="#4479FF" stroke-width="0.518788" stroke-dasharray="4.15 4.15"/>
<path d="M504.698 79.1958H414.948C411.51 79.1958 408.722 81.983 408.722 85.4212V161.683C408.722 165.121 411.51 167.909 414.948 167.909H504.698C508.136 167.909 510.923 165.121 510.923 161.683V85.4212C510.923 81.983 508.136 79.1958 504.698 79.1958Z" fill="#C9D6E9"/>
<mask id="mask0_1641_27176" style="mask-type:alpha" maskUnits="userSpaceOnUse" x="407" y="79" width="105" height="89">
<path d="M505.214 79.2056H413.907C410.469 79.2056 407.682 81.9928 407.682 85.431V161.693C407.682 165.131 410.469 167.918 413.907 167.918H505.214C508.652 167.918 511.439 165.131 511.439 161.693V85.431C511.439 81.9928 508.652 79.2056 505.214 79.2056Z" fill="#FFD798"/>
</mask>
<g mask="url(#mask0_1641_27176)">
<path d="M417.676 130.26C417.676 126.046 421.004 122.583 425.215 122.414L465.152 120.819C470.449 120.607 473.733 126.512 470.758 130.901C469.696 132.469 467.998 133.491 466.116 133.698L426.386 138.065C421.738 138.575 417.676 134.936 417.676 130.26Z" fill="#5A8FDD"/>
<path d="M459.525 124.418C468.865 124.418 476.436 116.846 476.436 107.506C476.436 98.1663 468.865 90.5947 459.525 90.5947C450.185 90.5947 442.613 98.1663 442.613 107.506C442.613 116.846 450.185 124.418 459.525 124.418Z" fill="#EDF3FF"/>
<path d="M460.933 106.104C461.711 106.104 462.342 105.473 462.342 104.694C462.342 103.916 461.711 103.285 460.933 103.285C460.155 103.285 459.524 103.916 459.524 104.694C459.524 105.473 460.155 106.104 460.933 106.104Z" fill="#0F1A2A"/>
<path d="M469.389 103.454C470.167 103.454 470.798 102.823 470.798 102.045C470.798 101.266 470.167 100.635 469.389 100.635C468.611 100.635 467.98 101.266 467.98 102.045C467.98 102.823 468.611 103.454 469.389 103.454Z" fill="#0F1A2A"/>
<path d="M463.831 110.862C466.684 113.084 468.974 111.707 469.537 109.452" stroke="#0F1A2A" stroke-width="1.03758" stroke-linecap="round"/>
<path fill-rule="evenodd" clip-rule="evenodd" d="M460.817 96.0954C460.211 95.8149 459.633 95.5007 459.087 95.1566C458.881 96.795 458.377 98.4626 457.554 100.066C455.717 103.648 452.689 106.127 449.459 107.082C449.502 107.347 449.539 107.616 449.571 107.887C450.109 112.444 448.999 116.579 446.927 118.789C444.244 115.796 442.613 111.841 442.613 107.506C442.613 98.1661 450.185 90.5947 459.525 90.5947C464.581 90.5947 469.119 92.814 472.218 96.3311C468.982 97.8783 464.75 97.915 460.817 96.0954Z" fill="#0F1A2A"/>
<path d="M446.652 116.988C449.655 116.451 451.579 113.154 450.948 109.626C450.316 106.097 447.37 103.672 444.367 104.209C441.363 104.746 439.44 108.042 440.071 111.571C440.702 115.099 443.648 117.525 446.652 116.988Z" fill="#EDF3FF"/>
<path d="M466.165 104.525L466.716 105.015C467.322 105.554 467.349 106.491 466.777 107.065L466.424 107.417" stroke="#0F1A2A" stroke-width="1.03758" stroke-linecap="round"/>
<path d="M430.567 136.712C433.129 130.279 439.354 126.056 446.279 126.056H471.738C479.451 126.056 486.186 131.274 488.113 138.742L496.296 170.451C499.058 181.155 490.976 191.588 479.921 191.588H433.654C421.701 191.588 413.521 179.526 417.942 168.421L430.567 136.712Z" fill="#5A8FDD"/>
<path d="M456.791 113.023C458.348 113.023 459.61 111.761 459.61 110.204C459.61 108.648 458.348 107.386 456.791 107.386C455.235 107.386 453.973 108.648 453.973 110.204C453.973 111.761 455.235 113.023 456.791 113.023Z" fill="#FFD4E7"/>
<path d="M474.429 108.866C475.985 108.866 477.247 107.604 477.247 106.047C477.247 104.49 475.985 103.229 474.429 103.229C472.872 103.229 471.61 104.49 471.61 106.047C471.61 107.604 472.872 108.866 474.429 108.866Z" fill="#FFD4E7"/>
<path d="M417.676 130.193C417.676 125.995 420.962 122.532 425.154 122.31L452.741 120.847C455.125 120.721 457.413 121.802 458.831 123.724C462.078 128.126 459.336 134.393 453.899 134.996L426.441 138.04C421.765 138.558 417.676 134.898 417.676 130.193Z" fill="#5A8FDD"/>
</g>
<path d="M446.593 96.8336C450.604 96.8336 453.856 93.5819 453.856 89.5706C453.856 85.5594 450.604 82.3076 446.593 82.3076C442.582 82.3076 439.33 85.5594 439.33 89.5706C439.33 93.5819 442.582 96.8336 446.593 96.8336Z" fill="#0F1A2A"/>
<path d="M432.844 95.7982C438.431 95.7982 442.96 91.2689 442.96 85.6818C442.96 80.0947 438.431 75.5654 432.844 75.5654C427.257 75.5654 422.727 80.0947 422.727 85.6818C422.727 91.2689 427.257 95.7982 432.844 95.7982Z" fill="#0F1A2A"/>
<path d="M430.171 137.796L451.51 134.609" stroke="#C9D6E9" stroke-width="0.518788" stroke-linecap="round"/>
<path d="M463.803 129.936L458.874 123.1L466.218 121.862L463.803 129.936Z" fill="#EDF3FF"/>
<path opacity="0.5" d="M427.627 31.2439C429.21 31.2439 430.494 29.9602 430.494 28.3766C430.494 26.793 429.21 25.5093 427.627 25.5093C426.043 25.5093 424.759 26.793 424.759 28.3766C424.759 29.9602 426.043 31.2439 427.627 31.2439Z" fill="#2563EB"/>
<path d="M636.018 46.376H605.468C580.265 46.376 559.833 66.8073 559.833 92.0106V92.0107C559.833 117.214 580.265 137.645 605.468 137.645H636.018C661.221 137.645 681.653 117.214 681.653 92.0107V92.0106C681.653 66.8073 661.221 46.376 636.018 46.376Z" fill="#A6C7F7"/>
<path d="M610.367 101.21C617.447 101.21 623.187 94.7417 623.187 86.7628C623.187 78.784 617.447 72.3159 610.367 72.3159C603.287 72.3159 597.548 78.784 597.548 86.7628C597.548 94.7417 603.287 101.21 610.367 101.21Z" fill="#0F1A2A"/>
<path d="M602.227 119.313C609.307 119.313 615.046 112.845 615.046 104.866C615.046 96.8875 609.307 90.4194 602.227 90.4194C595.147 90.4194 589.408 96.8875 589.408 104.866C589.408 112.845 595.147 119.313 602.227 119.313Z" fill="#0F1A2A"/>
<path d="M640.389 121.858C647.469 121.858 653.209 115.39 653.209 107.411C653.209 99.432 647.469 92.9639 640.389 92.9639C633.309 92.9639 627.57 99.432 627.57 107.411C627.57 115.39 633.309 121.858 640.389 121.858Z" fill="#0F1A2A"/>
<mask id="mask1_1641_27176" style="mask-type:alpha" maskUnits="userSpaceOnUse" x="559" y="46" width="123" height="92">
<path d="M636.019 46.3779H605.469C580.265 46.3779 559.834 66.8092 559.834 92.0125V92.0126C559.834 117.216 580.265 137.647 605.469 137.647H636.019C661.222 137.647 681.653 117.216 681.653 92.0126V92.0125C681.653 66.8092 661.222 46.3779 636.019 46.3779Z" fill="#1CA0E7"/>
</mask>
<g mask="url(#mask1_1641_27176)">
<path d="M616.62 92.4822C607.28 92.4822 599.708 84.9106 599.708 75.5707C599.708 66.2307 607.28 58.6592 616.62 58.6592C625.96 58.6592 633.531 66.2307 633.531 75.5707C633.531 84.9106 625.96 92.4822 616.62 92.4822Z" fill="#B9DAFA"/>
<path d="M613.66 75.3996C612.881 75.3996 612.251 74.7687 612.251 73.9903C612.251 73.212 612.881 72.5811 613.66 72.5811C614.438 72.5811 615.069 73.212 615.069 73.9903C615.069 74.7687 614.438 75.3996 613.66 75.3996Z" fill="#0F1A2A"/>
<path d="M605.402 75.5051C604.624 75.5051 603.993 74.8741 603.993 74.0958C603.993 73.3175 604.624 72.6865 605.402 72.6865C606.181 72.6865 606.812 73.3175 606.812 74.0958C606.812 74.8741 606.181 75.5051 605.402 75.5051Z" fill="#0F1A2A"/>
<path d="M614.373 80.5308C613.58 82.0269 610.261 84.3632 608.746 82.3911" stroke="#0F1A2A" stroke-width="1.03758" stroke-linecap="round"/>
<path fill-rule="evenodd" clip-rule="evenodd" d="M601.666 67.6683C603.158 67.83 604.732 67.7382 606.309 67.3712C610.075 68.353 614.739 68.7561 618.815 68.552C620.614 71.8075 623.412 74.091 626.41 75.0613C626.406 75.9387 626.465 76.8448 626.592 77.7669C627.053 81.1091 628.319 84.0062 629.975 85.9485C632.205 83.0835 633.532 79.4821 633.532 75.5711C633.532 66.2312 625.961 58.6592 616.621 58.6592C610.136 58.6592 604.503 62.3098 601.666 67.6683Z" fill="#0F1A2A"/>
<path d="M609.175 75.8389L608.975 76.1915C608.538 76.9617 608.911 77.94 609.75 78.2227L609.905 78.2755" stroke="#0F1A2A" stroke-width="1.03758" stroke-linecap="round"/>
<path d="M628.78 92.7407C628.78 89.1755 625.89 86.2847 622.324 86.2847H620.563C616.997 86.2847 614.107 89.1755 614.107 92.7407C614.107 96.3065 616.997 99.1967 620.563 99.1967H622.324C625.89 99.1967 628.78 96.3065 628.78 92.7407Z" fill="#B9DAFA"/>
<path d="M619.943 80.2792C618.424 80.62 616.917 79.6651 616.576 78.1462C616.235 76.6273 617.19 75.1197 618.709 74.7788C620.228 74.438 621.735 75.3929 622.076 76.9118C622.417 78.4307 621.462 79.9383 619.943 80.2792Z" fill="#FFD4E7"/>
<path d="M601.823 80.0926C600.304 80.4335 598.797 79.4786 598.456 77.9597C598.115 76.4408 599.07 74.9332 600.589 74.5923C602.108 74.2514 603.615 75.2064 603.956 76.7253C604.297 78.2441 603.342 79.7518 601.823 80.0926Z" fill="#FFD4E7"/>
<path d="M635.02 97.453C639.34 96.4048 641.948 91.8682 640.845 87.3201C639.741 82.772 635.344 79.9348 631.024 80.9829C626.704 82.0311 624.096 86.5678 625.199 91.1159C626.303 95.664 630.699 98.5012 635.02 97.453Z" fill="#0F1A2A"/>
<path d="M644.639 92.7833C645.742 97.3315 641.526 102.994 636.561 104.199C631.595 105.403 626.32 95.7177 625.216 91.1696C624.23 85.5319 627.599 88.9331 632.565 87.7283C637.53 86.524 643.536 88.2352 644.639 92.7833Z" fill="#0F1A2A"/>
<path d="M630.277 84.1369C627.244 83.8038 625.103 80.6451 625.494 77.0817C625.886 73.5184 628.662 70.8997 631.694 71.2328C634.727 71.5659 636.869 74.7246 636.477 78.288C636.086 81.8513 633.31 84.47 630.277 84.1369Z" fill="#B9DAFA"/>
<path d="M651.65 105.225C648.591 100.145 643.094 97.0381 637.163 97.0381H609.792C602.079 97.0381 595.344 102.256 593.417 109.724L585.234 141.433C582.471 152.137 590.554 162.57 601.609 162.57H656.256C669.414 162.57 677.531 148.206 670.744 136.934L651.65 105.225Z" fill="white"/>
<path d="M627.569 97.5579C627.569 95.5428 625.936 93.9102 623.921 93.9102H616.162C614.148 93.9102 612.514 95.5434 612.514 97.5579C612.514 99.5725 614.148 101.206 616.162 101.206H623.921C625.936 101.206 627.569 99.5725 627.569 97.5579Z" fill="white"/>
</g>
<path d="M605.753 105.208L607.392 108.138H604.114L605.753 105.208Z" fill="#D3E1FE"/>
<path d="M627.033 104.86L628.672 107.79H625.394L627.033 104.86Z" fill="#D3E1FE"/>
<path d="M631.067 131.207L634.388 130.719L633.22 133.782L631.067 131.207Z" fill="#D3E1FE"/>
<path d="M616.306 135.422L617.033 132.145L619.479 134.327L616.306 135.422Z" fill="#D3E1FE"/>
<path d="M619.386 110.836L617.397 113.541L616.04 110.557L619.386 110.836Z" fill="#D3E1FE"/>
<path d="M639.296 101.606L637.307 104.311L635.951 101.327L639.296 101.606Z" fill="#D3E1FE"/>
<path d="M631.91 115.298L633.728 118.119L630.457 118.324L631.91 115.298Z" fill="#D3E1FE"/>
<path d="M599.173 127.864L602.457 127.169L601.483 130.299L599.173 127.864Z" fill="#D3E1FE"/>
<path d="M620.492 124.002L617.207 123.311L619.362 120.841L620.492 124.002Z" fill="#D3E1FE"/>
<path d="M644.576 112.794L641.291 112.103L643.446 109.633L644.576 112.794Z" fill="#D3E1FE"/>
<path d="M642.64 123.529L640.823 126.352L639.284 123.458L642.64 123.529Z" fill="#D3E1FE"/>
<path d="M654.933 125.36L653.117 128.183L651.577 125.29L654.933 125.36Z" fill="#D3E1FE"/>
<path d="M607.142 116.4L609.133 119.103L605.88 119.511L607.142 116.4Z" fill="#D3E1FE"/>
<path opacity="0.6" d="M686.737 49.9998L682 54.166L685.409 58.0413L690.145 53.8751L686.737 49.9998Z" fill="#FF88A1"/>
<path d="M550.297 279.906C578.948 279.906 602.175 256.679 602.175 228.027C602.175 199.375 578.948 176.148 550.297 176.148C521.645 176.148 498.418 199.375 498.418 228.027C498.418 256.679 521.645 279.906 550.297 279.906Z" fill="white"/>
<mask id="mask2_1641_27176" style="mask-type:alpha" maskUnits="userSpaceOnUse" x="498" y="176" width="105" height="104">
<path d="M550.296 279.914C578.948 279.914 602.175 256.687 602.175 228.035C602.175 199.383 578.948 176.156 550.296 176.156C521.644 176.156 498.417 199.383 498.417 228.035C498.417 256.687 521.644 279.914 550.296 279.914Z" fill="white"/>
</mask>
<g mask="url(#mask2_1641_27176)">
<path d="M550.661 228.986C560.001 228.986 567.573 221.414 567.573 212.074C567.573 202.734 560.001 195.163 550.661 195.163C541.321 195.163 533.75 202.734 533.75 212.074C533.75 221.414 541.321 228.986 550.661 228.986Z" fill="#CBE0FF"/>
<path d="M552.072 210.672C552.85 210.672 553.481 210.041 553.481 209.262C553.481 208.484 552.85 207.853 552.072 207.853C551.293 207.853 550.662 208.484 550.662 209.262C550.662 210.041 551.293 210.672 552.072 210.672Z" fill="#0F1A2A"/>
<path d="M560.526 205.031C561.304 205.031 561.935 204.401 561.935 203.622C561.935 202.844 561.304 202.213 560.526 202.213C559.747 202.213 559.116 202.844 559.116 203.622C559.116 204.401 559.747 205.031 560.526 205.031Z" fill="#0F1A2A"/>
<path d="M556.298 212.787C557.707 213.257 560.667 213.633 561.231 211.378" stroke="#0F1A2A" stroke-width="1.03758" stroke-linecap="round"/>
<path fill-rule="evenodd" clip-rule="evenodd" d="M560.415 198.258C557.659 196.308 554.294 195.163 550.661 195.163C541.321 195.163 533.75 202.734 533.75 212.074C533.75 218.566 537.407 224.203 542.773 227.037C543.715 224.368 543.53 220.613 542.035 216.874C541.934 216.62 541.828 216.37 541.718 216.125C544.588 214.364 546.869 211.183 547.713 207.247C547.847 206.619 547.94 205.994 547.995 205.375C549.97 204.479 551.611 203.118 552.697 201.422C555.724 201.205 558.456 200.058 560.415 198.258Z" fill="#0F1A2A"/>
<path d="M539.188 226.596C542.192 226.059 544.115 222.763 543.484 219.234C542.853 215.705 539.906 213.28 536.903 213.817C533.899 214.354 531.976 217.65 532.607 221.179C533.238 224.708 536.185 227.133 539.188 226.596Z" fill="#CBE0FF"/>
<path d="M557.708 207.148C558.402 207.495 558.551 208.419 558.004 208.967L557.708 209.262" stroke="#0F1A2A" stroke-width="1.03758" stroke-linecap="round"/>
<path d="M521.017 238.812C524.076 233.731 529.574 230.624 535.505 230.624H562.876C570.588 230.624 577.323 235.842 579.251 243.31L587.434 275.019C590.196 285.723 582.114 296.156 571.059 296.156H516.411C503.254 296.156 495.136 281.792 501.924 270.521L521.017 238.812Z" fill="#7EA5F8"/>
<path d="M550.661 217.72C552.217 217.72 553.479 216.458 553.479 214.902C553.479 213.345 552.217 212.083 550.661 212.083C549.104 212.083 547.842 213.345 547.842 214.902C547.842 216.458 549.104 217.72 550.661 217.72Z" fill="#FFD4E7"/>
<path d="M566.163 207.85C567.72 207.85 568.982 206.588 568.982 205.031C568.982 203.475 567.72 202.213 566.163 202.213C564.606 202.213 563.344 203.475 563.344 205.031C563.344 206.588 564.606 207.85 566.163 207.85Z" fill="#FFD4E7"/>
</g>
<path d="M553.928 235.816C554.501 235.816 554.966 235.351 554.966 234.778C554.966 234.205 554.501 233.741 553.928 233.741C553.355 233.741 552.891 234.205 552.891 234.778C552.891 235.351 553.355 235.816 553.928 235.816Z" fill="#FCFCFD"/>
<path d="M553.928 239.446C554.501 239.446 554.966 238.982 554.966 238.409C554.966 237.836 554.501 237.371 553.928 237.371C553.355 237.371 552.891 237.836 552.891 238.409C552.891 238.982 553.355 239.446 553.928 239.446Z" fill="#FCFCFD"/>
<path d="M553.928 243.069C554.501 243.069 554.966 242.604 554.966 242.031C554.966 241.458 554.501 240.994 553.928 240.994C553.355 240.994 552.891 241.458 552.891 242.031C552.891 242.604 553.355 243.069 553.928 243.069Z" fill="#FCFCFD"/>
<path opacity="0.5" d="M627.867 242.453C629.451 242.453 630.735 241.17 630.735 239.586C630.735 238.002 629.451 236.719 627.867 236.719C626.284 236.719 625 238.002 625 239.586C625 241.17 626.284 242.453 627.867 242.453Z" fill="#2563EB"/>
<path opacity="0.5" d="M645.07 199.441C646.02 199.441 646.79 198.671 646.79 197.72C646.79 196.77 646.02 196 645.07 196C644.12 196 643.35 196.77 643.35 197.72C643.35 198.671 644.12 199.441 645.07 199.441Z" fill="#2563EB"/>
<path opacity="0.5" d="M435.025 232.583C435.972 232.496 436.669 231.659 436.583 230.713C436.496 229.767 435.66 229.07 434.713 229.156C433.767 229.242 433.07 230.079 433.156 231.025C433.242 231.972 434.079 232.669 435.025 232.583Z" fill="#2563EB"/>
<path opacity="0.5" d="M416.16 54.1927C417.11 54.1927 417.88 53.4225 417.88 52.4723C417.88 51.5222 417.11 50.752 416.16 50.752C415.21 50.752 414.439 51.5222 414.439 52.4723C414.439 53.4225 415.21 54.1927 416.16 54.1927Z" fill="#2563EB"/>
<path opacity="0.5" d="M564.72 46.4662C565.671 46.4662 566.441 45.6959 566.441 44.7458C566.441 43.7956 565.671 43.0254 564.72 43.0254C563.77 43.0254 563 43.7956 563 44.7458C563 45.6959 563.77 46.4662 564.72 46.4662Z" fill="#2563EB"/>
<path opacity="0.5" d="M696.72 34.4408C697.671 34.4408 698.441 33.6705 698.441 32.7204C698.441 31.7702 697.671 31 696.72 31C695.77 31 695 31.7702 695 32.7204C695 33.6705 695.77 34.4408 696.72 34.4408Z" fill="#2563EB"/>
<path opacity="0.6" d="M462.122 243.936L457.783 248.515L461.529 252.065L465.868 247.486L462.122 243.936Z" fill="#FF88A1"/>
<path opacity="0.6" d="M385.336 71.9312L381.514 70.8169L380.603 73.9434L384.424 75.0577L385.336 71.9312Z" fill="#FF88A1"/>
</g>
<defs>
<clipPath id="clip0_1641_27176">
<rect width="750" height="300" rx="20" fill="white"/>
</clipPath>
</defs>
</svg>
