<svg width="750" height="300" viewBox="0 0 750 300" fill="none" xmlns="http://www.w3.org/2000/svg">
<rect width="750" height="300" rx="20" fill="url(#paint0_linear_2892_27983)"/>
<path d="M54.7367 47.4235V44.1639H67.8017V56.6412H58.9314V62.4389H68.336V65.6985H54.7367V53.3816H63.607V47.4235H54.7367ZM75.3628 51.9922H77.6873V55.2518H75.3628V65.9657H71.1681V43.6296H75.3628V51.9922ZM94.2906 54.9312C94.2906 56.9618 94.0679 58.6806 93.6226 60.0878C93.1951 61.4949 92.6252 62.626 91.9127 63.4809C91.218 64.3537 90.4076 64.986 89.4814 65.3779C88.5729 65.7698 87.6378 65.9657 86.676 65.9657C85.6963 65.9657 84.7434 65.7698 83.8172 65.3779C82.9088 64.986 82.0983 64.3537 81.3858 63.4809C80.6912 62.626 80.1301 61.4949 79.7026 60.0878C79.2751 58.6806 79.0614 56.9618 79.0614 54.9312C79.0614 52.9007 79.2751 51.1907 79.7026 49.8014C80.1301 48.3942 80.6912 47.2543 81.3858 46.3815C82.0983 45.5087 82.9088 44.8764 83.8172 44.4845C84.7434 44.0927 85.6963 43.8967 86.676 43.8967C87.6378 43.8967 88.5729 44.0927 89.4814 44.4845C90.4076 44.8764 91.218 45.5087 91.9127 46.3815C92.6252 47.2543 93.1951 48.3942 93.6226 49.8014C94.0679 51.1907 94.2906 52.9007 94.2906 54.9312ZM83.2294 54.9312C83.2294 56.4452 83.3184 57.701 83.4966 58.6984C83.6925 59.6959 83.9418 60.4974 84.2447 61.103C84.5653 61.6908 84.9304 62.1094 85.3401 62.3588C85.7676 62.5903 86.2129 62.7061 86.676 62.7061C87.1213 62.7061 87.5488 62.5903 87.9584 62.3588C88.3859 62.1094 88.7511 61.6908 89.0539 61.103C89.3745 60.5152 89.6238 59.7226 89.802 58.7251C89.9979 57.7099 90.0959 56.4363 90.0959 54.9045C90.0959 53.3905 89.9979 52.1347 89.802 51.1373C89.6238 50.1398 89.3745 49.3472 89.0539 48.7594C88.7511 48.1716 88.3859 47.7619 87.9584 47.5304C87.5488 47.281 87.1213 47.1563 86.676 47.1563C86.2129 47.1563 85.7676 47.281 85.3401 47.5304C84.9304 47.7619 84.5653 48.1805 84.2447 48.7861C83.9418 49.3739 83.6925 50.1665 83.4966 51.164C83.3184 52.1615 83.2294 53.4172 83.2294 54.9312ZM101.291 65.9657H97.0959V43.6296H101.291V65.9657ZM105.684 44.1372H125.909V47.3968H122.863V55.8396H125.909V59.0992H105.684V55.8396H108.756V47.3968H105.684V44.1372ZM104.642 62.7061H126.951V65.9657H104.642V62.7061ZM112.951 55.8396H118.669V47.3968H112.951V55.8396ZM141.577 43.8967V48.5456L144.116 47.9578V43.6296H147.963V59.5801H144.116V51.2976L141.577 51.8854V57.0152H130.115V43.8967H141.577ZM135.432 58.8855V63.2672H154.055V66.5H131.238V58.8855H135.432ZM149.913 59.5801V43.6296H153.787V59.5801H149.913ZM133.963 53.7556H137.73V47.1563H133.963V53.7556ZM178.014 55.8396V59.0992H169.999V62.7061H179.056V65.9657H156.747V62.7061H165.804V59.0992H158.056V44.1639H177.747V47.4235H162.251V49.9884H177.747V53.248H162.251V55.8396H178.014ZM188.226 65.939L195.974 44.912H200.596L208.344 65.939H204.15L201.745 59.1793L194.077 61.2633L192.42 65.939H188.226ZM195.359 57.7099L200.703 56.2671L198.272 49.4808L195.359 57.7099ZM215.094 44.912V65.939H210.872V44.912H215.094ZM238.688 58.3511C238.688 59.7226 238.501 60.8893 238.127 61.8511C237.753 62.813 237.245 63.5967 236.604 64.2023C235.98 64.8257 235.25 65.271 234.413 65.5382C233.576 65.8232 232.694 65.9657 231.768 65.9657C230.824 65.9657 229.933 65.8232 229.096 65.5382C228.277 65.271 227.555 64.8257 226.932 64.2023C226.309 63.5967 225.81 62.813 225.436 61.8511C225.08 60.8893 224.901 59.7226 224.901 58.3511C224.901 56.9974 225.08 55.8396 225.436 54.8778C225.81 53.8981 226.309 53.1055 226.932 52.4999C227.555 51.8943 228.277 51.449 229.096 51.164C229.933 50.879 230.824 50.7365 231.768 50.7365C232.694 50.7365 233.576 50.879 234.413 51.164C235.25 51.449 235.98 51.8943 236.604 52.4999C237.245 53.1055 237.753 53.8981 238.127 54.8778C238.501 55.8396 238.688 56.9974 238.688 58.3511ZM245.741 51.9922H248.066V55.2518H245.741V65.9657H241.547V43.6296H245.741V51.9922ZM233.879 45.767H239.329V49.0266H224.233V45.767H229.684V43.015H233.879V45.767ZM229.069 58.3511C229.069 59.7404 229.301 60.818 229.764 61.584C230.227 62.3321 230.895 62.7061 231.768 62.7061C232.605 62.7061 233.264 62.3321 233.745 61.584C234.244 60.8359 234.493 59.7493 234.493 58.3244C234.493 56.935 234.244 55.8663 233.745 55.1182C233.264 54.3701 232.605 53.9961 231.768 53.9961C230.895 53.9961 230.227 54.379 229.764 55.145C229.301 55.8931 229.069 56.9618 229.069 58.3511ZM254.436 44.1639V62.4389H264.108V65.6985H250.241V44.1639H254.436ZM270.868 51.9922H273.192V55.2518H270.868V65.9657H266.673V43.6296H270.868V51.9922ZM276.33 47.4235V44.1639H296.555V53.248H280.524V55.8396H296.822V59.0992H288.272V62.7061H297.33V65.9657H275.02V62.7061H284.078V59.0992H276.33V49.9884H292.36V47.4235H276.33ZM180.192 111.099C180.192 112.382 179.826 113.299 179.096 113.851C178.366 114.403 177.333 114.733 175.997 114.84V112.916C176.745 112.845 177.288 112.667 177.627 112.382C177.965 112.115 178.134 111.696 178.134 111.126H175.89V107.065H180.192V111.099ZM338.711 111.099C338.711 112.382 338.345 113.299 337.615 113.851C336.885 114.403 335.852 114.733 334.516 114.84V112.916C335.264 112.845 335.807 112.667 336.146 112.382C336.484 112.115 336.653 111.696 336.653 111.126H334.409V107.065H338.711V111.099ZM410.716 90.4998V89.1639H419.025V110.699H414.83V92.4235H411.651V110.699H407.456V93.7594H404.384V90.4998H410.716ZM426.319 96.9922H428.644V100.252H426.319V110.966H422.124V88.6296H426.319V96.9922ZM445.568 89.1639V92.4235H439.85V98.622C439.85 99.9757 439.707 101.214 439.422 102.336L446.262 107.412L444.205 110.511L437.953 105.809C437.276 106.878 436.385 107.804 435.281 108.588C434.177 109.372 432.832 110.022 431.247 110.538L429.403 107.439C430.472 107.065 431.398 106.646 432.182 106.183C432.966 105.72 433.616 105.15 434.132 104.473C434.649 103.779 435.032 102.959 435.281 102.015C435.531 101.071 435.655 99.9312 435.655 98.5953V92.4235H430.205V89.1639H445.568ZM451.98 110.966H447.785V88.6296H451.98V110.966ZM55.6985 129.271H75.3896V144.099H67.6414V147.706H76.6987V150.966H54.3893V147.706H63.4467V144.099H55.6985V129.271ZM59.8932 140.84H71.1949V132.53H59.8932V140.84ZM100.783 138.034V141.294H80.8248V129.164H100.516V132.423H85.0195V138.034H100.783ZM79.5156 143.885H101.825V147.145H92.7676V151.794H88.5729V147.145H79.5156V143.885ZM118.06 133.626C120.376 133.626 122.104 134.035 123.244 134.855C124.402 135.674 124.98 136.85 124.98 138.382C124.98 139.949 124.402 141.134 123.244 141.935C122.104 142.719 120.376 143.111 118.06 143.111C115.781 143.111 114.062 142.719 112.904 141.935C111.764 141.134 111.194 139.949 111.194 138.382C111.194 136.85 111.764 135.674 112.904 134.855C114.062 134.035 115.781 133.626 118.06 133.626ZM116.725 144.42V148.267H132.301V151.5H112.53V144.42H116.725ZM132.034 137.687V145.382H127.839V128.63H132.034V134.427H134.358V137.687H132.034ZM120.171 129.431H125.622V132.691H110.526V129.431H115.976V127.481H120.171V129.431ZM118.06 136.458C117.33 136.458 116.698 136.6 116.164 136.885C115.647 137.17 115.389 137.669 115.389 138.382C115.389 139.076 115.647 139.575 116.164 139.878C116.68 140.163 117.312 140.305 118.06 140.305C118.417 140.305 118.755 140.27 119.076 140.198C119.414 140.127 119.708 140.02 119.957 139.878C120.207 139.717 120.403 139.522 120.545 139.29C120.706 139.041 120.786 138.738 120.786 138.382C120.786 138.025 120.706 137.731 120.545 137.5C120.403 137.251 120.198 137.055 119.931 136.912C119.681 136.752 119.387 136.636 119.049 136.565C118.728 136.494 118.399 136.458 118.06 136.458ZM147.147 132.183H151.823V128.897H156.018V142.015H142.953V128.897H147.147V132.183ZM148.269 143.885V148.267H164.647V151.5H144.075V143.885H148.269ZM164.38 128.63V144.58H160.186V136.431L156.819 137.206V133.866L160.186 133.091V128.63H164.38ZM151.823 135.443H147.147V138.756H151.823V135.443ZM183.148 150.966V140.359L180.556 141.24C180.485 143.075 180.262 144.616 179.888 145.863C179.514 147.109 179.024 148.107 178.419 148.855C177.831 149.621 177.154 150.164 176.388 150.485C175.622 150.805 174.803 150.966 173.93 150.966C173.004 150.966 172.131 150.779 171.312 150.405C170.51 150.048 169.807 149.443 169.201 148.588C168.613 147.733 168.141 146.602 167.785 145.195C167.446 143.787 167.277 142.033 167.277 139.931C167.277 137.847 167.446 136.102 167.785 134.695C168.141 133.27 168.613 132.13 169.201 131.275C169.807 130.42 170.51 129.814 171.312 129.458C172.131 129.084 173.004 128.897 173.93 128.897C174.767 128.897 175.56 129.048 176.308 129.351C177.056 129.654 177.724 130.161 178.312 130.874C178.9 131.569 179.38 132.495 179.755 133.653C180.146 134.81 180.396 136.235 180.503 137.927L183.148 137.019V128.63H186.995V150.966H183.148ZM192.82 150.966H188.945V128.63H192.82V150.966ZM171.098 139.931C171.098 141.516 171.178 142.817 171.338 143.832C171.499 144.829 171.712 145.622 171.98 146.21C172.247 146.78 172.55 147.172 172.888 147.385C173.226 147.599 173.574 147.706 173.93 147.706C174.286 147.706 174.634 147.599 174.972 147.385C175.31 147.172 175.604 146.78 175.854 146.21C176.121 145.622 176.335 144.829 176.495 143.832C176.655 142.817 176.735 141.508 176.735 139.904C176.735 138.337 176.655 137.055 176.495 136.057C176.335 135.042 176.121 134.249 175.854 133.679C175.604 133.091 175.31 132.691 174.972 132.477C174.634 132.263 174.286 132.156 173.93 132.156C173.574 132.156 173.226 132.263 172.888 132.477C172.55 132.691 172.247 133.091 171.98 133.679C171.712 134.249 171.499 135.042 171.338 136.057C171.178 137.055 171.098 138.346 171.098 139.931ZM195.859 145.328V128.843H200.054V145.328H195.859ZM195.859 151.5V147.573H200.054V151.5H195.859Z" fill="white"/>
<path d="M67.7768 112.572C65.8792 112.572 64.1835 112.461 62.6897 112.239C61.1958 112.017 59.9241 111.674 58.8744 111.21C57.8448 110.745 57.0576 110.17 56.5125 109.484C55.9675 108.797 55.6949 107.98 55.6949 107.031C55.6949 106.102 55.9675 105.295 56.5125 104.609C57.0576 103.902 57.8448 103.327 58.8744 102.883C59.9241 102.418 61.1958 102.075 62.6897 101.853C64.1835 101.631 65.8792 101.52 67.7768 101.52C69.6743 101.52 71.37 101.631 72.8638 101.853C74.3577 102.075 75.6193 102.418 76.6489 102.883C77.6986 103.327 78.496 103.902 79.041 104.609C79.586 105.295 79.8586 106.102 79.8586 107.031C79.8586 107.98 79.586 108.797 79.041 109.484C78.496 110.17 77.6986 110.745 76.6489 111.21C75.6193 111.674 74.3577 112.017 72.8638 112.239C71.37 112.461 69.6743 112.572 67.7768 112.572ZM54.9682 90.0438V86.3496H69.7752V100.006H65.0213V90.0438H54.9682ZM79.253 86.0468V101.036H74.499V97.2202L70.6837 97.9167V94.3133L74.499 93.5563V91.6487L70.6837 92.3754V88.7721L74.499 88.015V86.0468H79.253ZM67.7768 108.878C70.0982 108.878 71.8949 108.737 73.1666 108.454C74.4586 108.172 75.1046 107.697 75.1046 107.031C75.1046 106.365 74.4586 105.89 73.1666 105.608C71.8949 105.325 70.0982 105.184 67.7768 105.184C65.4553 105.184 63.6485 105.325 62.3566 105.608C61.0848 105.89 60.4489 106.365 60.4489 107.031C60.4489 107.697 61.0848 108.172 62.3566 108.454C63.6485 108.737 65.4553 108.878 67.7768 108.878ZM90.9844 91.7092C94.5373 91.7092 96.8891 92.5167 98.0397 94.1317L102.975 92.981V86.0468H107.729V101.369H102.975V96.766L98.7059 97.7653C98.1608 100.289 95.587 101.55 90.9844 101.55C88.4005 101.55 86.4525 101.136 85.1403 100.309C83.8484 99.4812 83.2024 98.2599 83.2024 96.6449C83.2024 95.0703 83.8484 93.8591 85.1403 93.0113C86.4525 92.1433 88.4005 91.7092 90.9844 91.7092ZM107.729 102.731V111.967H84.7164V102.731H107.729ZM93.3766 86.9552H99.5537V90.6494H82.4454V86.9552H88.6226V84.7448H93.3766V86.9552ZM89.4704 106.395V108.303H102.975V106.395H89.4704ZM90.9844 94.9189C90.1366 94.9189 89.4199 95.0502 88.8345 95.3126C88.2491 95.5548 87.9564 95.9989 87.9564 96.6449C87.9564 97.2909 88.2491 97.7451 88.8345 98.0075C89.4401 98.2498 90.1568 98.3709 90.9844 98.3709C91.3882 98.3709 91.7717 98.3406 92.1351 98.28C92.5186 98.2195 92.8517 98.1286 93.1343 98.0075C93.4169 97.8662 93.639 97.6845 93.8005 97.4625C93.9822 97.2404 94.073 96.9679 94.073 96.6449C94.073 96.3219 93.9822 96.0494 93.8005 95.8273C93.639 95.6053 93.4068 95.4337 93.104 95.3126C92.8214 95.1713 92.4883 95.0703 92.1048 95.0098C91.7414 94.9492 91.368 94.9189 90.9844 94.9189ZM132.004 112.572C130.106 112.572 128.411 112.461 126.917 112.239C125.423 112.017 124.151 111.674 123.102 111.21C122.072 110.745 121.285 110.17 120.74 109.484C120.195 108.797 119.922 107.98 119.922 107.031C119.922 106.102 120.195 105.295 120.74 104.609C121.285 103.902 122.072 103.327 123.102 102.883C124.151 102.418 125.423 102.075 126.917 101.853C128.411 101.631 130.106 101.52 132.004 101.52C133.902 101.52 135.597 101.631 137.091 101.853C138.585 102.075 139.847 102.418 140.876 102.883C141.926 103.327 142.723 103.902 143.268 104.609C143.813 105.295 144.086 106.102 144.086 107.031C144.086 107.98 143.813 108.797 143.268 109.484C142.723 110.17 141.926 110.745 140.876 111.21C139.847 111.674 138.585 112.017 137.091 112.239C135.597 112.461 133.902 112.572 132.004 112.572ZM135.607 86.3496V90.0438H129.43V91.4973C129.43 91.7395 129.42 91.9818 129.4 92.224C129.38 92.4461 129.349 92.6681 129.309 92.8902L136.062 96.9477L133.79 100.157L127.583 96.433C126.049 98.1892 123.515 99.4711 119.983 100.279L117.954 96.9477C119.064 96.7055 120.033 96.433 120.861 96.1302C121.709 95.8273 122.415 95.464 122.98 95.0401C123.546 94.6161 123.97 94.1115 124.252 93.5261C124.535 92.9406 124.676 92.2543 124.676 91.467V90.0438H118.802V86.3496H135.607ZM143.48 86.0468V101.066H138.726V94.1619L134.941 95.0098V91.2248L138.726 90.3769V86.0468H143.48ZM132.004 108.878C134.325 108.878 136.122 108.737 137.394 108.454C138.686 108.172 139.332 107.697 139.332 107.031C139.332 106.365 138.686 105.89 137.394 105.608C136.122 105.325 134.325 105.184 132.004 105.184C129.682 105.184 127.876 105.325 126.584 105.608C125.312 105.89 124.676 106.365 124.676 107.031C124.676 107.697 125.312 108.172 126.584 108.454C127.876 108.737 129.682 108.878 132.004 108.878ZM147.672 90.3466V86.6524H163.084V100.793H152.426V107.364H163.69V111.058H147.672V97.0991H158.33V90.3466H147.672ZM171.957 111.361H167.203V86.0468H171.957V111.361ZM206.597 86.6524V90.3466H200.42V97.3716C200.42 98.8857 200.269 100.309 199.966 101.641L207.385 107.334L205.053 110.846L198.361 105.638C197.594 106.809 196.615 107.828 195.424 108.696C194.233 109.564 192.749 110.291 190.973 110.877L188.884 107.364C190.095 106.94 191.124 106.466 191.972 105.941C192.84 105.416 193.547 104.77 194.092 104.003C194.637 103.216 195.03 102.287 195.273 101.217C195.535 100.147 195.666 98.8554 195.666 97.3414V90.3466H189.792V86.6524H206.597ZM213.562 95.5245H216.196V99.2187H213.562V111.361H208.808V86.0468H213.562V95.5245ZM229.321 111.058V90.3466H218.662V86.6524H234.075V111.058H229.321ZM242.947 111.361H238.193V86.0468H242.947V111.361ZM262.218 86.7736V90.5586C262.218 92.012 262.016 93.3746 261.612 94.6464L271.968 100.4L269.637 103.73L259.674 98.2195C257.474 100.904 253.861 102.842 248.834 104.033L247.048 100.551C250.681 99.8042 253.316 98.6131 254.951 96.978C256.606 95.3227 257.434 93.1728 257.434 90.5283V86.7736H262.218ZM246.745 107.667H257.01V101.793H261.764V107.667H272.029V111.361H246.745V107.667ZM291.027 111.361V86.0468H295.388V96.766L298.053 95.8273V86.0468H302.443V111.361H298.053V99.9152L295.388 100.854V111.361H291.027ZM284.245 111.058V90.3466H275.615V86.6524H288.605V111.058H284.245ZM316.425 97.3716C316.425 98.8857 316.274 100.309 315.971 101.641L323.39 107.334L321.058 110.846L314.366 105.638C313.599 106.809 312.62 107.828 311.429 108.696C310.238 109.564 308.755 110.291 306.978 110.877L304.889 107.364C306.1 106.94 307.129 106.466 307.977 105.941C308.845 105.416 309.552 104.77 310.097 104.003C310.642 103.216 311.036 102.287 311.278 101.217C311.54 100.147 311.672 98.8554 311.672 97.3414V86.2891H316.425V97.3716ZM330.476 111.361H325.722V97.8258L320.089 99.7638V95.6759L325.722 93.738V86.0468H330.476V111.361ZM363.512 86.3496V101.217H348.705V86.3496H363.512ZM372.989 86.0468V104.124H368.235V97.8258L364.42 98.5223V94.9189L368.235 94.1619V91.9515L364.42 92.6782V89.0749L368.235 88.3179V86.0468H372.989ZM354.73 103.337V108.303H373.292V111.967H349.976V103.337H354.73ZM358.758 97.523V90.0438H353.459V97.523H358.758ZM383.207 101.036V102.822H396.712V101.036H401.466V111.967H378.453V101.036H383.207ZM393.593 86.3496V90.0438H387.416V90.8917C387.416 91.5982 387.345 92.2341 387.204 92.7993L394.047 96.3421L391.776 99.5518L385.235 96.1907C384.468 96.9578 383.479 97.6341 382.268 98.2195C381.077 98.8049 379.644 99.2894 377.968 99.6729L375.939 96.3421C377.05 96.0999 378.019 95.8273 378.846 95.5245C379.694 95.2217 380.401 94.8584 380.966 94.4345C381.531 94.0105 381.955 93.5059 382.238 92.9204C382.52 92.335 382.662 91.6487 382.662 90.8614V90.0438H376.787V86.3496H393.593ZM401.466 86.0468V99.6729H396.712V94.0105L392.927 94.8584V91.0734L396.712 90.2255V86.0468H401.466ZM396.712 108.303V106.486H383.207V108.303H396.712Z" fill="#FDFF81"/>
<path d="M63.0723 189.344V190.873H59.7852C59.8203 192.244 61.0771 193.466 63.4238 193.932L62.6504 195.443C60.8311 195.065 59.5391 194.213 58.8359 193.07C58.1416 194.318 56.8408 195.259 54.9688 195.654L54.1426 194.143C56.5244 193.677 57.79 192.332 57.8164 190.873H54.5469V189.344H57.834V187.709H59.7852V189.344H63.0723ZM66.8164 187.691V203.547H64.8828V187.691H66.8164ZM53.5449 196.48C56.498 196.48 60.4531 196.463 63.8457 196.041L63.9863 197.447C62.6152 197.685 61.1914 197.834 59.8027 197.922V203.072H57.834V198.027C56.3838 198.089 55.0039 198.098 53.791 198.098L53.5449 196.48ZM73.4961 188.377C75.5527 188.359 77.1699 189.546 77.5742 191.295H80.4395V187.674H82.3906V196.199H80.4395V192.877H77.5918C77.1963 194.661 75.5615 195.865 73.4961 195.865C71.0527 195.865 69.2949 194.301 69.2949 192.104C69.2949 189.941 71.0527 188.359 73.4961 188.377ZM73.4961 190.012C72.125 190.012 71.1582 190.82 71.1582 192.104C71.1582 193.369 72.125 194.213 73.4961 194.213C74.832 194.213 75.7812 193.369 75.7988 192.104C75.7812 190.82 74.832 190.012 73.4961 190.012ZM73.8477 196.938V198.625H80.4395V196.938H82.3906V203.371H71.9141V196.938H73.8477ZM73.8477 201.789H80.4395V200.137H73.8477V201.789ZM94.7305 189.959C94.7129 192.121 95.9785 194.09 98.4746 194.881L97.4199 196.41C95.6885 195.804 94.4756 194.652 93.7988 193.141C93.0957 194.872 91.7686 196.234 89.8438 196.902L88.8066 195.32C91.4434 194.459 92.7617 192.332 92.7617 190.047V188.535H94.7305V189.959ZM102.219 187.674V197.025H100.268V192.35H97.1035V190.75H100.268V187.674H102.219ZM96.8398 197.447C100.215 197.447 102.271 198.572 102.271 200.506C102.271 202.439 100.215 203.547 96.8398 203.547C93.4824 203.547 91.4258 202.439 91.4434 200.506C91.4258 198.572 93.4824 197.447 96.8398 197.447ZM96.8398 198.959C94.625 198.959 93.377 199.504 93.377 200.506C93.377 201.473 94.625 202.018 96.8398 202.018C99.0547 202.018 100.32 201.473 100.32 200.506C100.32 199.504 99.0547 198.959 96.8398 198.959ZM111.623 197.605C115.068 197.623 117.248 198.713 117.266 200.594C117.248 202.439 115.068 203.547 111.623 203.547C108.195 203.547 105.998 202.439 105.998 200.594C105.998 198.713 108.195 197.623 111.623 197.605ZM111.623 199.082C109.338 199.082 107.949 199.627 107.967 200.594C107.949 201.525 109.338 202.035 111.623 202.035C113.926 202.035 115.314 201.525 115.332 200.594C115.314 199.627 113.926 199.082 111.623 199.082ZM117.16 188.43V189.748C117.16 190.996 117.16 192.332 116.721 193.967L114.787 193.791C115.183 192.244 115.209 191.128 115.209 189.977H106.156V188.43H117.16ZM118.918 194.881V196.463H104.504V194.881H110.094V191.998H112.027V194.881H118.918ZM132.471 187.674V194.002H134.914V195.619H132.471V203.564H130.537V187.674H132.471ZM129.307 190.117V191.682H119.938V190.117H123.699V187.902H125.65V190.117H129.307ZM124.684 192.719C126.969 192.719 128.674 194.266 128.674 196.463C128.674 198.66 126.969 200.189 124.684 200.189C122.363 200.189 120.658 198.66 120.676 196.463C120.658 194.266 122.363 192.719 124.684 192.719ZM124.684 194.318C123.436 194.318 122.539 195.162 122.539 196.463C122.539 197.764 123.436 198.59 124.684 198.572C125.896 198.59 126.793 197.764 126.811 196.463C126.793 195.162 125.896 194.318 124.684 194.318ZM148.889 187.674V203.582H146.938V195.127H144.213V193.527H146.938V187.674H148.889ZM143.299 189.062V194.881H138.096V198.221C140.451 198.212 142.358 198.133 144.494 197.746L144.652 199.346C142.279 199.768 140.17 199.855 137.428 199.855H136.162V193.299H141.383V190.645H136.109V189.062H143.299ZM167.855 187.674V193.879H170.211V195.514H167.855V203.529H165.904V187.674H167.855ZM163.654 189.326C163.654 194.002 161.721 198.098 156.43 200.699L155.322 199.188C159.189 197.263 161.281 194.556 161.686 190.943H156.184V189.326H163.654ZM184.238 187.674V203.564H182.27V187.674H184.238ZM179.492 189.361C179.492 194.09 177.664 198.115 172.092 200.752L171.072 199.188C175.229 197.21 177.163 194.521 177.506 190.908H171.881V189.361H179.492Z" fill="#F6F8FC"/>
<path d="M200.292 189.5L205.708 196.342L200.292 202.5" stroke="#F6F8FC" stroke-width="1.625" stroke-linecap="round"/>
<g filter="url(#filter0_dii_2892_27983)">
<rect x="528.658" y="66.4077" width="153.692" height="153.692" rx="38.4231" transform="rotate(8.70119 528.658 66.4077)" fill="url(#paint1_linear_2892_27983)"/>
<g filter="url(#filter1_di_2892_27983)">
<path d="M630.835 130.245C629.937 136.118 624.447 140.151 618.573 139.252C612.7 138.353 608.667 132.863 609.566 126.99C610.465 121.116 616.246 115.185 622.119 116.084C627.992 116.982 631.734 124.372 630.835 130.245Z" fill="#77F0CA"/>
<path d="M579.135 137.881C578.3 143.335 573.203 147.079 567.749 146.244C562.295 145.41 558.55 140.312 559.385 134.858C560.22 129.404 565.116 124.074 571.004 124.975C576.892 125.876 579.97 132.427 579.135 137.881Z" fill="#7DC3FF"/>
<path d="M552.35 189.755L617.101 199.665C587.335 192.223 591.676 179.357 582.759 160.132C573.842 140.908 546.157 148.036 544.326 178.785C543.919 185.621 549.244 188.919 552.35 189.755Z" fill="#7DC2FE"/>
<path d="M620.14 200.129C620.14 200.129 550.603 189.712 552.534 189.783C585.359 190.982 584.161 172.772 600.075 151.545C615.99 130.318 641.491 149.279 632.343 188.99C630.309 197.818 623.587 200.179 620.14 200.129Z" fill="#77F0CA"/>
<path fill-rule="evenodd" clip-rule="evenodd" d="M587.331 172.24C587.39 172.42 587.449 172.599 587.507 172.778C591.539 185.168 594.411 193.992 617.101 199.665L552.534 189.783C573.731 190.558 580.74 183.238 587.331 172.24Z" fill="#52DFCB"/>
</g>
</g>
<path d="M46.4901 120.345C59.4936 119.393 321.021 112.34 408.006 116.655" stroke="white"/>
<path d="M46.5091 123.499C59.5063 122.464 320.983 113.741 407.994 117.501" stroke="white"/>
<defs>
<filter id="filter0_dii_2892_27983" x="499.407" y="60.4077" width="187.174" height="189.174" filterUnits="userSpaceOnUse" color-interpolation-filters="sRGB">
<feFlood flood-opacity="0" result="BackgroundImageFix"/>
<feColorMatrix in="SourceAlpha" type="matrix" values="0 0 0 0 0 0 0 0 0 0 0 0 0 0 0 0 0 0 127 0" result="hardAlpha"/>
<feOffset dx="2" dy="4"/>
<feGaussianBlur stdDeviation="2"/>
<feComposite in2="hardAlpha" operator="out"/>
<feColorMatrix type="matrix" values="0 0 0 0 0.257915 0 0 0 0 0.55759 0 0 0 0 0.818055 0 0 0 1 0"/>
<feBlend mode="normal" in2="BackgroundImageFix" result="effect1_dropShadow_2892_27983"/>
<feBlend mode="normal" in="SourceGraphic" in2="effect1_dropShadow_2892_27983" result="shape"/>
<feColorMatrix in="SourceAlpha" type="matrix" values="0 0 0 0 0 0 0 0 0 0 0 0 0 0 0 0 0 0 127 0" result="hardAlpha"/>
<feOffset dx="-6" dy="-6"/>
<feGaussianBlur stdDeviation="7.5"/>
<feComposite in2="hardAlpha" operator="arithmetic" k2="-1" k3="1"/>
<feColorMatrix type="matrix" values="0 0 0 0 0 0 0 0 0 0 0 0 0 0 0 0 0 0 0.12 0"/>
<feBlend mode="normal" in2="shape" result="effect2_innerShadow_2892_27983"/>
<feColorMatrix in="SourceAlpha" type="matrix" values="0 0 0 0 0 0 0 0 0 0 0 0 0 0 0 0 0 0 127 0" result="hardAlpha"/>
<feMorphology radius="1" operator="dilate" in="SourceAlpha" result="effect3_innerShadow_2892_27983"/>
<feOffset dx="-3" dy="-3"/>
<feGaussianBlur stdDeviation="2.3"/>
<feComposite in2="hardAlpha" operator="arithmetic" k2="-1" k3="1"/>
<feColorMatrix type="matrix" values="0 0 0 0 0.199064 0 0 0 0 0.538375 0 0 0 0 0.83329 0 0 0 0.12 0"/>
<feBlend mode="normal" in2="effect2_innerShadow_2892_27983" result="effect3_innerShadow_2892_27983"/>
</filter>
<filter id="filter1_di_2892_27983" x="542.304" y="112.993" width="98.9673" height="93.1377" filterUnits="userSpaceOnUse" color-interpolation-filters="sRGB">
<feFlood flood-opacity="0" result="BackgroundImageFix"/>
<feColorMatrix in="SourceAlpha" type="matrix" values="0 0 0 0 0 0 0 0 0 0 0 0 0 0 0 0 0 0 127 0" result="hardAlpha"/>
<feOffset dx="4" dy="3"/>
<feGaussianBlur stdDeviation="1.5"/>
<feColorMatrix type="matrix" values="0 0 0 0 0.103372 0 0 0 0 0.349725 0 0 0 0 0.563846 0 0 0 0.12 0"/>
<feBlend mode="normal" in2="BackgroundImageFix" result="effect1_dropShadow_2892_27983"/>
<feBlend mode="normal" in="SourceGraphic" in2="effect1_dropShadow_2892_27983" result="shape"/>
<feColorMatrix in="SourceAlpha" type="matrix" values="0 0 0 0 0 0 0 0 0 0 0 0 0 0 0 0 0 0 127 0" result="hardAlpha"/>
<feOffset dx="-2" dy="-3"/>
<feGaussianBlur stdDeviation="3.5"/>
<feComposite in2="hardAlpha" operator="arithmetic" k2="-1" k3="1"/>
<feColorMatrix type="matrix" values="0 0 0 0 0 0 0 0 0 0 0 0 0 0 0 0 0 0 0.12 0"/>
<feBlend mode="normal" in2="shape" result="effect2_innerShadow_2892_27983"/>
</filter>
<linearGradient id="paint0_linear_2892_27983" x1="330.5" y1="89.5" x2="1124.5" y2="543" gradientUnits="userSpaceOnUse">
<stop stop-color="#37A2FF"/>
<stop offset="1" stop-color="#216199"/>
</linearGradient>
<linearGradient id="paint1_linear_2892_27983" x1="561.588" y1="66.4077" x2="649.421" y2="220.1" gradientUnits="userSpaceOnUse">
<stop offset="0.291355" stop-color="white"/>
<stop offset="1" stop-color="#EEEEEE"/>
</linearGradient>
</defs>
</svg>
