<svg width="300" height="158" viewBox="0 0 300 158" fill="none" xmlns="http://www.w3.org/2000/svg">
<g clip-path="url(#clip0_2919_27836)">
<rect width="300" height="158" rx="12" fill="#2563EB"/>
<g filter="url(#filter0_f_2919_27836)">
<path fill-rule="evenodd" clip-rule="evenodd" d="M337.493 161.98C321.985 161.98 308.11 158.246 298.845 152.368C293.094 154.501 286.105 155.752 278.567 155.752C265.506 155.752 254.091 151.997 247.914 146.402C242.938 149.579 235.472 151.6 227.124 151.6C212.144 151.6 200 145.093 200 137.066C200 129.04 212.144 122.533 227.124 122.533C235.287 122.533 242.607 124.465 247.579 127.522C253.673 121.756 265.267 117.862 278.567 117.862C284.639 117.862 290.355 118.674 295.355 120.104C304.397 112.81 319.893 108 337.493 108C365.387 108 388 120.084 388 134.99C388 149.896 365.387 161.98 337.493 161.98Z" fill="white" fill-opacity="0.2"/>
</g>
<path d="M29.9961 99.7578V100.684H20.3867V99.7578H24.6172V97.332H21.4883V92.3398H28.8477V97.332H25.7188V99.7578H29.9961ZM22.5664 93.2305V96.4531H27.7578V93.2305H22.5664ZM34.6484 93.1719C34.6484 94.4727 35.668 95.6914 37.2852 96.1602L36.7227 97.0273C35.498 96.6582 34.5723 95.8555 34.0977 94.8242C33.623 95.9258 32.6855 96.7988 31.4258 97.2148L30.8633 96.3359C32.4922 95.832 33.5117 94.5547 33.5234 93.1719V93.0547H31.168V92.1523H36.957V93.0547H34.6484V93.1719ZM39.4648 91.4961V97.1797H38.3516V91.4961H39.4648ZM33.6875 97.6719V98.8438H38.3633V97.6719H39.4648V101.867H32.5977V97.6719H33.6875ZM33.6875 100.965H38.3633V99.7227H33.6875V100.965ZM48.793 98.0938C51.0664 98.0938 52.4961 98.8086 52.5078 100.039C52.4961 101.258 51.0664 101.984 48.793 101.973C46.543 101.984 45.1016 101.258 45.1016 100.039C45.1016 98.8086 46.543 98.0938 48.793 98.0938ZM48.793 98.9375C47.1992 98.9375 46.2031 99.3477 46.2148 100.039C46.2031 100.719 47.1992 101.117 48.793 101.117C50.3984 101.117 51.3945 100.719 51.4062 100.039C51.3945 99.3477 50.3984 98.9375 48.793 98.9375ZM52.4258 92.0117V92.8906C52.4258 93.7344 52.4258 94.6016 52.1328 95.6797L51.043 95.5625C51.3242 94.4902 51.3242 93.7168 51.3242 92.9023H45.1836V92.0117H52.4258ZM53.6211 96.3242V97.2266H44.0703V96.3242H47.9023V94.3555H48.9922V96.3242H53.6211ZM62.9258 92.5039V93.5352C62.9258 94.8359 62.9258 96.2891 62.5273 98.4336L61.4023 98.3164C61.8125 96.2891 61.8125 94.8008 61.8125 93.5352V93.4062H55.4375V92.5039H62.9258ZM64.0039 99.6523V100.578H54.4297V99.6523H58.0742V95.9492H59.1758V99.6523H64.0039ZM70.6367 91.9766C72.0195 91.9648 73.0859 92.7676 73.3203 93.9453H75.3711V91.4961H76.4844V97.1328H75.3711V94.8594H73.332C73.1035 96.0664 72.0312 96.875 70.6367 96.875C69.0312 96.875 67.8828 95.8672 67.8828 94.4141C67.8828 92.9844 69.0312 91.9648 70.6367 91.9766ZM70.6367 92.9023C69.6406 92.9023 68.9492 93.5117 68.9492 94.4141C68.9492 95.3164 69.6406 95.9375 70.6367 95.9375C71.6094 95.9375 72.3008 95.3164 72.3008 94.4141C72.3008 93.5117 71.6094 92.9023 70.6367 92.9023ZM70.7422 97.6367V98.8555H75.3711V97.6367H76.4844V101.867H69.6406V97.6367H70.7422ZM70.7422 100.953H75.3711V99.7344H70.7422V100.953ZM87.7109 99.8047V100.742H78.1016V99.8047H82.332V97.9648H79.2734V94.625H85.4375V93.1484H79.25V92.2344H86.5391V95.5156H80.375V97.0508H86.7852V97.9648H83.4336V99.8047H87.7109ZM96.9805 96.4766V97.3906H89.668V92.4336H96.8867V93.3477H90.7695V96.4766H96.9805ZM98.082 99.6875V100.613H88.4727V99.6875H98.082ZM105.629 94.168C105.617 96.0898 106.777 98.0117 108.406 98.7383L107.738 99.6172C106.531 99.043 105.576 97.8652 105.09 96.4297C104.598 97.9648 103.631 99.2363 102.371 99.8516L101.691 98.9141C103.344 98.1758 104.504 96.1719 104.504 94.168V92.375H105.629V94.168ZM110.469 91.4961V102.02H109.355V91.4961H110.469ZM30.6641 116.801V118.578H28.9648V126.527C29.7656 126.459 30.5566 126.391 31.3086 126.293L31.4062 127.855C27.7539 128.48 23.6719 128.559 20.6055 128.559L20.3516 126.781L22.4805 126.762V118.578H20.8008V116.801H30.6641ZM34.4141 115.082V121.918H37.1289V123.695H34.4141V132.738H32.2461V115.082H34.4141ZM24.5898 126.723C25.3418 126.713 26.1035 126.684 26.875 126.645V118.578H24.5898V126.723ZM47.2656 116.215C47.2656 116.859 47.207 117.465 47.1094 118.051H50.4883V115.102H52.6562V125.59H50.4883V123.539H46.25V121.781H50.4883V119.789H46.5625C45.3711 122.533 42.7246 124.477 38.9258 125.492L38.1055 123.754C42.1777 122.68 44.5703 120.58 44.9414 117.992H39.0625V116.215H47.2656ZM52.6562 126.332V132.68H50.4883V128.051H40.625V126.332H52.6562ZM75.1367 115.082V132.738H73.0469V115.082H75.1367ZM71.6992 115.414V131.918H69.6875V126.703H67.5C66.8848 128.07 65.6445 128.93 64.1016 128.93C61.9336 128.93 60.332 127.211 60.3516 124.75C60.332 122.27 61.9336 120.57 64.1016 120.551C66.2891 120.57 67.8711 122.27 67.8711 124.75V124.965H69.6875V122.66H67.5586V120.883H69.6875V115.414H71.6992ZM68.3984 117.895V119.633H59.8633V117.895H63.0664V115.531H65.2344V117.895H68.3984ZM64.1016 122.406C62.9883 122.406 62.2461 123.285 62.2461 124.75C62.2461 126.176 62.9883 127.094 64.1016 127.094C65.2148 127.094 65.9766 126.176 65.9961 124.75C65.9766 123.285 65.2148 122.406 64.1016 122.406ZM84.7852 116.312V118.051H79.9414V119.77H84.6094V121.43H79.9414V123.285C82.0996 123.266 83.5938 123.178 85.3125 122.855L85.5469 124.613C83.4766 125.004 81.7578 125.062 79.0234 125.062H77.8516V116.312H84.7852ZM92.2852 115.102V125.844H90.2148V121.254H88.3789V125.707H86.3477V115.434H88.3789V119.516H90.2148V115.102H92.2852ZM92.2852 126.625V132.738H90.1172V128.383H80.1953V126.625H92.2852ZM114.414 115.082V132.738H112.344V115.082H114.414ZM110.82 115.414V131.879H108.77V122.992H106.23V121.234H108.77V115.414H110.82ZM104.668 119.906C104.668 122.895 105.742 125.883 108.262 127.328L106.973 128.93C105.342 127.953 104.258 126.273 103.652 124.262C103.027 126.439 101.904 128.295 100.234 129.34L98.9062 127.719C101.465 126.176 102.578 122.973 102.578 119.906V118.734H99.5117V116.977H107.52V118.734H104.668V119.906ZM124.453 126.117C128.281 126.137 130.703 127.348 130.723 129.438C130.703 131.488 128.281 132.719 124.453 132.719C120.645 132.719 118.203 131.488 118.203 129.438C118.203 127.348 120.645 126.137 124.453 126.117ZM124.453 127.758C121.914 127.758 120.371 128.363 120.391 129.438C120.371 130.473 121.914 131.039 124.453 131.039C127.012 131.039 128.555 130.473 128.574 129.438C128.555 128.363 127.012 127.758 124.453 127.758ZM130.605 115.922V117.387C130.605 118.773 130.605 120.258 130.117 122.074L127.969 121.879C128.408 120.16 128.438 118.92 128.438 117.641H118.379V115.922H130.605ZM132.559 123.09V124.848H116.543V123.09H122.754V119.887H124.902V123.09H132.559ZM137.422 116.859L137.207 126.84H135L134.766 116.859H137.422ZM136.113 131.156C135.273 131.156 134.59 130.473 134.59 129.633C134.59 128.812 135.273 128.129 136.113 128.129C136.914 128.129 137.617 128.812 137.617 129.633C137.617 130.473 136.914 131.156 136.113 131.156Z" fill="white"/>
<rect x="20" y="61" width="53" height="19" rx="9.5" fill="#93F65A"/>
<path d="M30.6543 74V66.9297H35.2539V67.9941H31.9238V69.9277H35.0098V70.9922H31.9238V72.9258H35.2734V74H30.6543ZM37.4121 66.9297L39.248 72.5059H39.3262L41.1719 66.9297H42.5684L40.0684 74H38.5059L36.0156 66.9297H37.4121ZM43.4082 74V66.9297H48.0078V67.9941H44.6777V69.9277H47.7637V70.9922H44.6777V72.9258H48.0273V74H43.4082ZM55.0391 66.9297V74H53.9062L50.5566 69.166H50.498V74H49.2285V66.9297H50.3809L53.7109 71.7637H53.7793V66.9297H55.0391ZM56.0352 67.9941V66.9297H61.6699V67.9941H59.4922V74H58.2227V67.9941H56.0352Z" fill="#27364B"/>
<g filter="url(#filter1_f_2919_27836)">
<path fill-rule="evenodd" clip-rule="evenodd" d="M29.5075 62.9802C45.0146 62.9802 58.8895 59.2457 68.1545 53.3679C73.9055 55.5012 80.8952 56.7519 88.4329 56.7519C101.494 56.7519 112.909 52.9969 119.086 47.4018C124.062 50.5794 131.528 52.5996 139.876 52.5996C154.856 52.5996 167 46.0929 167 38.0665C167 30.0401 154.856 23.5334 139.876 23.5334C131.713 23.5334 124.393 25.465 119.421 28.5216C113.327 22.7559 101.733 18.8619 88.4329 18.8619C82.361 18.8619 76.6448 19.6735 71.6451 21.1042C62.6033 13.8101 47.1066 9 29.5075 9C1.61296 9 -21 21.0839 -21 35.9901C-21 50.8963 1.61296 62.9802 29.5075 62.9802Z" fill="white" fill-opacity="0.2"/>
</g>
<rect width="89.0843" height="96.2683" rx="16.5429" transform="matrix(0.997981 0.0635185 -0.0392621 0.999229 180.008 29.8848)" fill="#FFC64A"/>
<g filter="url(#filter2_d_2919_27836)">
<rect x="176.455" y="24" width="87.5066" height="96.0441" rx="16.5429" transform="rotate(2.65882 176.455 24)" fill="#EDF3FF" shape-rendering="crispEdges"/>
<path d="M200.983 49.6015L200.487 60.2775L198.977 60.2074L199.473 49.5314L200.983 49.6015ZM195.165 50.0822C196.769 50.1566 197.894 51.687 197.787 54.0049C197.678 56.3461 196.416 57.7539 194.812 57.6794C193.174 57.6033 192.047 56.0846 192.168 53.7439C192.264 51.4256 193.526 50.006 195.165 50.0822ZM195.103 51.4284C194.272 51.3898 193.681 52.2305 193.608 53.8108C193.534 55.4028 194.044 56.2829 194.875 56.3215C195.683 56.359 196.273 55.53 196.347 53.938C196.42 52.3577 195.91 51.4659 195.103 51.4284ZM206.914 50.9797L206.785 53.754L207.85 53.8035L208.023 50.0809L209.428 50.1462L208.963 60.1549L207.558 60.0897L207.795 54.9975L206.729 54.948L206.594 57.8512L202.357 57.6544L202.676 50.7829L206.914 50.9797ZM204.014 52.0299L203.804 56.5485L205.256 56.6159L205.466 52.0973L204.014 52.0299ZM211.659 50.0973L211.164 60.7499L209.736 60.6835L210.231 50.031L211.659 50.0973ZM215.8 50.6063C217.415 50.6813 218.598 51.7452 218.531 53.1733C218.466 54.578 217.19 55.5394 215.574 55.4644C213.924 55.3877 212.754 54.3128 212.819 52.908C212.885 51.4799 214.149 50.5297 215.8 50.6063ZM215.743 51.8238C214.924 51.7857 214.294 52.2023 214.27 52.9754C214.223 53.7358 214.811 54.2206 215.63 54.2586C216.438 54.2962 217.056 53.8673 217.091 53.1064C217.127 52.3338 216.551 51.8613 215.743 51.8238ZM221.703 50.5637L221.455 55.9017L219.956 55.8321L220.204 50.4941L221.703 50.5637ZM221.434 56.3465L221.3 59.2379L215.634 58.9748L215.602 59.6655L221.56 59.9422L221.506 61.1128L214.084 60.7682L214.221 57.8182L219.864 58.0802L219.894 57.4247L214.228 57.1616L214.282 56.0144L221.434 56.3465ZM231.872 51.6225L231.839 52.3132C231.796 53.0033 231.752 53.9515 231.452 55.099L229.994 54.9257C230.205 54.038 230.278 53.3434 230.318 52.7469L226.314 52.561L226.37 51.367L231.872 51.6225ZM229.092 53.8749L229.007 55.7128C230.074 55.7271 231.16 55.7072 232.166 55.6366L232.2 56.6822C229.969 56.9658 227.532 56.9112 225.612 56.8221L225.539 55.6221C226.148 55.6445 226.815 55.6755 227.518 55.6905L227.606 53.8059L229.092 53.8749ZM234.486 51.1573L234.364 53.7795L235.663 53.8398L235.606 55.0807L234.306 55.0204L234.184 57.6542L232.651 57.583L232.952 51.0861L234.486 51.1573ZM230.549 57.6145C232.832 57.7205 234.213 58.5472 234.156 59.7646C234.097 61.0523 232.646 61.724 230.363 61.618C228.081 61.512 226.687 60.7082 226.746 59.4205C226.803 58.2031 228.267 57.5085 230.549 57.6145ZM230.496 58.7617C229.091 58.6964 228.293 58.9527 228.268 59.4912C228.24 60.0999 229.012 60.3938 230.417 60.4591C231.81 60.5238 232.595 60.3021 232.623 59.6934C232.648 59.1549 231.889 58.8264 230.496 58.7617ZM245.002 52.5725L244.955 53.5792C244.893 54.9137 244.823 56.4121 244.285 58.6512L242.794 58.4295C243.291 56.4348 243.379 54.9372 243.448 53.6852L237.174 53.3938L237.229 52.2115L245.002 52.5725ZM245.603 59.8269L245.547 61.0444L235.831 60.5932L235.887 59.3757L239.364 59.5372L239.534 55.8732L241.021 55.9422L240.851 59.6062L245.603 59.8269ZM198.073 68.436L197.961 70.8358L199.413 70.9032L199.524 68.5034L200.906 68.5676L200.572 75.7434L196.335 75.5466L196.668 68.3708L198.073 68.436ZM197.795 74.4178L199.247 74.4853L199.359 72.0738L197.907 72.0064L197.795 74.4178ZM205.644 67.8374L205.149 78.4899L203.721 78.4236L203.971 73.0505L203.011 73.0059L202.784 77.8874L201.368 77.8216L201.832 67.8129L203.249 67.8786L203.067 71.7885L204.027 71.8331L204.216 67.771L205.644 67.8374ZM215.77 68.3076L215.274 78.9836L213.787 78.9145L214.074 72.7454L211.159 72.61L211.215 71.3926L214.13 71.528L214.283 68.2385L215.77 68.3076ZM208.764 69.1202L208.495 74.903C209.854 74.9485 211.24 74.8956 212.705 74.6879L212.812 75.9129C211.074 76.1959 209.432 76.2018 207.84 76.1278L206.938 76.086L207.265 69.0506L208.764 69.1202ZM225.857 69.3626L225.825 70.0532C225.781 70.7434 225.737 71.6915 225.437 72.839L223.979 72.6657C224.19 71.7781 224.263 71.0835 224.303 70.487L220.299 70.3011L220.355 69.1071L225.857 69.3626ZM223.077 71.615L222.992 73.4528C224.059 73.4672 225.145 73.4472 226.151 73.3767L226.185 74.4223C223.954 74.7059 221.517 74.6513 219.597 74.5622L219.524 73.3622C220.133 73.3846 220.8 73.4156 221.503 73.4306L221.591 71.5459L223.077 71.615ZM228.471 68.8974L228.349 71.5196L229.648 71.5799L229.591 72.8208L228.291 72.7604L228.169 75.3943L226.636 75.3231L226.937 68.8262L228.471 68.8974ZM224.534 75.3546C226.817 75.4606 228.198 76.2872 228.142 77.5047C228.082 78.7923 226.631 79.4641 224.348 79.3581C222.066 79.252 220.672 78.4482 220.732 77.1606C220.788 75.9431 222.252 75.2486 224.534 75.3546ZM224.481 76.5018C223.076 76.4365 222.278 76.6928 222.253 77.2312C222.225 77.84 222.997 78.1339 224.402 78.1991C225.795 78.2638 226.58 78.0422 226.608 77.4335C226.633 76.895 225.874 76.5664 224.481 76.5018ZM238.987 70.3125L238.94 71.3193C238.878 72.6538 238.809 74.1521 238.27 76.3913L236.779 76.1695C237.277 74.1748 237.364 72.6773 237.434 71.4253L231.159 71.1339L231.214 69.9516L238.987 70.3125ZM239.588 77.567L239.532 78.7844L229.816 78.3332L229.872 77.1158L233.349 77.2772L233.519 73.6132L235.006 73.6823L234.836 77.3463L239.588 77.567ZM199.312 85.5745L198.957 93.2303L197.458 93.1607L197.814 85.5049L199.312 85.5745ZM199.163 94.8471L199.108 96.0411L191.686 95.6964L191.852 92.1261L193.362 92.1962L193.252 94.5725L199.163 94.8471ZM193.439 85.9821C195.078 86.0583 196.302 87.2413 196.23 88.7982C196.156 90.3902 194.828 91.4431 193.189 91.367C191.55 91.2909 190.326 90.1195 190.4 88.5275C190.472 86.9706 191.801 85.906 193.439 85.9821ZM193.379 87.2815C192.548 87.2312 191.892 87.7286 191.863 88.5954C191.81 89.4846 192.419 90.029 193.25 90.0676C194.057 90.1051 194.713 89.6194 194.755 88.7297C194.795 87.8635 194.187 87.3073 193.379 87.2815ZM206.295 87.2947C206.222 88.8517 207.526 90.5898 209.918 91.1115L209.205 92.3219C207.367 91.867 206.034 90.761 205.413 89.3537C204.642 90.6846 203.212 91.6681 201.35 91.9571L200.764 90.6864C203.148 90.3748 204.619 88.7655 204.703 87.2208L204.739 86.4482L206.331 86.5221L206.295 87.2947ZM210.127 94.1948L210.07 95.4239L200.319 94.9711L200.376 93.742L210.127 94.1948ZM216.539 87.2425L216.482 88.46L212.947 88.2958L212.865 90.0517L216.248 90.2088L216.194 91.3794L212.811 91.2223L212.717 93.2358C214.246 93.295 215.489 93.2883 216.922 93.1261L217.007 94.3383C215.368 94.5086 213.915 94.488 212.053 94.4016L211.152 94.3597L211.493 87.0082L216.539 87.2425ZM219.518 86.501L219.33 90.5396L220.899 90.6125L220.841 91.865L219.272 91.7922L219.023 97.1536L217.525 97.084L218.019 86.4314L219.518 86.501ZM230.202 87.5837L230.17 88.2744C230.126 88.9645 230.082 89.9127 229.782 91.0602L228.324 90.8869C228.535 89.9993 228.608 89.3047 228.648 88.7082L224.644 88.5223L224.7 87.3282L230.202 87.5837ZM227.422 89.8361L227.337 91.674C228.404 91.6884 229.49 91.6684 230.496 91.5978L230.53 92.6435C228.299 92.927 225.862 92.8725 223.942 92.7833L223.869 91.5833C224.478 91.6057 225.145 91.6367 225.848 91.6518L225.936 89.7671L227.422 89.8361ZM232.816 87.1186L232.694 89.7407L233.993 89.8011L233.936 91.0419L232.636 90.9816L232.514 93.6155L230.981 93.5443L231.282 87.0474L232.816 87.1186ZM228.879 93.5757C231.162 93.6817 232.543 94.5084 232.486 95.7258C232.427 97.0135 230.976 97.6852 228.693 97.5792C226.411 97.4732 225.017 96.6694 225.077 95.3817C225.133 94.1643 226.597 93.4697 228.879 93.5757ZM228.826 94.7229C227.421 94.6577 226.623 94.9139 226.598 95.4524C226.57 96.0611 227.342 96.3551 228.747 96.4203C230.14 96.485 230.925 96.2634 230.953 95.6546C230.978 95.1162 230.219 94.7876 228.826 94.7229ZM243.332 88.5337L243.285 89.5404C243.223 90.8749 243.153 92.3733 242.615 94.6125L241.124 94.3907C241.621 92.396 241.709 90.8984 241.779 89.6464L235.504 89.3551L235.559 88.1727L243.332 88.5337ZM243.933 95.7882L243.877 97.0056L234.161 96.5544L234.217 95.337L237.694 95.4984L237.864 91.8344L239.351 91.9034L239.181 95.5675L243.933 95.7882Z" fill="#2563EB"/>
</g>
</g>
<defs>
<filter id="filter0_f_2919_27836" x="172.079" y="80.0792" width="243.842" height="109.822" filterUnits="userSpaceOnUse" color-interpolation-filters="sRGB">
<feFlood flood-opacity="0" result="BackgroundImageFix"/>
<feBlend mode="normal" in="SourceGraphic" in2="BackgroundImageFix" result="shape"/>
<feGaussianBlur stdDeviation="13.9604" result="effect1_foregroundBlur_2919_27836"/>
</filter>
<filter id="filter1_f_2919_27836" x="-48.9208" y="-18.9208" width="243.842" height="109.822" filterUnits="userSpaceOnUse" color-interpolation-filters="sRGB">
<feFlood flood-opacity="0" result="BackgroundImageFix"/>
<feBlend mode="normal" in="SourceGraphic" in2="BackgroundImageFix" result="shape"/>
<feGaussianBlur stdDeviation="13.9604" result="effect1_foregroundBlur_2919_27836"/>
</filter>
<filter id="filter2_d_2919_27836" x="168.691" y="20.6914" width="98.4848" height="106.617" filterUnits="userSpaceOnUse" color-interpolation-filters="sRGB">
<feFlood flood-opacity="0" result="BackgroundImageFix"/>
<feColorMatrix in="SourceAlpha" type="matrix" values="0 0 0 0 0 0 0 0 0 0 0 0 0 0 0 0 0 0 127 0" result="hardAlpha"/>
<feOffset/>
<feGaussianBlur stdDeviation="1.65429"/>
<feComposite in2="hardAlpha" operator="out"/>
<feColorMatrix type="matrix" values="0 0 0 0 0 0 0 0 0 0 0 0 0 0 0 0 0 0 0.3 0"/>
<feBlend mode="normal" in2="BackgroundImageFix" result="effect1_dropShadow_2919_27836"/>
<feBlend mode="normal" in="SourceGraphic" in2="effect1_dropShadow_2919_27836" result="shape"/>
</filter>
<clipPath id="clip0_2919_27836">
<rect width="300" height="158" rx="12" fill="white"/>
</clipPath>
</defs>
</svg>
