<svg width="300" height="158" viewBox="0 0 300 158" fill="none" xmlns="http://www.w3.org/2000/svg">
<rect width="300" height="158" rx="12" fill="url(#paint0_linear_2919_27923)"/>
<path d="M21.04 89.672V87.72H28.864V95.192H23.552V98.664H29.184V100.616H21.04V93.24H26.352V89.672H21.04ZM33.392 92.408H34.784V94.36H33.392V100.776H30.88V87.4H33.392V92.408ZM44.7269 94.168C44.7269 95.384 44.5935 96.4133 44.3269 97.256C44.0709 98.0987 43.7295 98.776 43.3029 99.288C42.8869 99.8107 42.4015 100.189 41.8469 100.424C41.3029 100.659 40.7429 100.776 40.1669 100.776C39.5802 100.776 39.0095 100.659 38.4549 100.424C37.9109 100.189 37.4255 99.8107 36.9989 99.288C36.5829 98.776 36.2469 98.0987 35.9909 97.256C35.7349 96.4133 35.6069 95.384 35.6069 94.168C35.6069 92.952 35.7349 91.928 35.9909 91.096C36.2469 90.2533 36.5829 89.5707 36.9989 89.048C37.4255 88.5253 37.9109 88.1467 38.4549 87.912C39.0095 87.6773 39.5802 87.56 40.1669 87.56C40.7429 87.56 41.3029 87.6773 41.8469 87.912C42.4015 88.1467 42.8869 88.5253 43.3029 89.048C43.7295 89.5707 44.0709 90.2533 44.3269 91.096C44.5935 91.928 44.7269 92.952 44.7269 94.168ZM38.1029 94.168C38.1029 95.0747 38.1562 95.8267 38.2629 96.424C38.3802 97.0213 38.5295 97.5013 38.7109 97.864C38.9029 98.216 39.1215 98.4667 39.3669 98.616C39.6229 98.7547 39.8895 98.824 40.1669 98.824C40.4335 98.824 40.6895 98.7547 40.9349 98.616C41.1909 98.4667 41.4095 98.216 41.5909 97.864C41.7829 97.512 41.9322 97.0373 42.0389 96.44C42.1562 95.832 42.2149 95.0693 42.2149 94.152C42.2149 93.2453 42.1562 92.4933 42.0389 91.896C41.9322 91.2987 41.7829 90.824 41.5909 90.472C41.4095 90.12 41.1909 89.8747 40.9349 89.736C40.6895 89.5867 40.4335 89.512 40.1669 89.512C39.8895 89.512 39.6229 89.5867 39.3669 89.736C39.1215 89.8747 38.9029 90.1253 38.7109 90.488C38.5295 90.84 38.3802 91.3147 38.2629 91.912C38.1562 92.5093 38.1029 93.2613 38.1029 94.168ZM48.9189 100.776H46.4069V87.4H48.9189V100.776ZM51.5498 87.704H63.6618V89.656H61.8378V94.712H63.6618V96.664H51.5498V94.712H53.3898V89.656H51.5498V87.704ZM50.9258 98.824H64.2858V100.776H50.9258V98.824ZM55.9018 94.712H59.3258V89.656H55.9018V94.712ZM73.0446 87.56V90.344L74.5646 89.992V87.4H76.8686V96.952H74.5646V91.992L73.0446 92.344V95.416H66.1806V87.56H73.0446ZM69.3646 96.536V99.16H80.5166V101.096H66.8526V96.536H69.3646ZM78.0366 96.952V87.4H80.3566V96.952H78.0366ZM68.4846 93.464H70.7406V89.512H68.4846V93.464ZM94.8649 94.712V96.664H90.0649V98.824H95.4889V100.776H82.1289V98.824H87.5529V96.664H82.9129V87.72H94.7049V89.672H85.4249V91.208H94.7049V93.16H85.4249V94.712H94.8649ZM100.98 100.76L105.62 88.168H108.388L113.028 100.76H110.516L109.076 96.712L104.484 97.96L103.492 100.76H100.98ZM105.252 95.832L108.452 94.968L106.996 90.904L105.252 95.832ZM117.07 88.168V100.76H114.542V88.168H117.07ZM131.199 96.216C131.199 97.0373 131.087 97.736 130.863 98.312C130.639 98.888 130.335 99.3573 129.951 99.72C129.578 100.093 129.141 100.36 128.639 100.52C128.138 100.691 127.61 100.776 127.055 100.776C126.49 100.776 125.957 100.691 125.455 100.52C124.965 100.36 124.533 100.093 124.159 99.72C123.786 99.3573 123.487 98.888 123.263 98.312C123.05 97.736 122.943 97.0373 122.943 96.216C122.943 95.4053 123.05 94.712 123.263 94.136C123.487 93.5493 123.786 93.0747 124.159 92.712C124.533 92.3493 124.965 92.0827 125.455 91.912C125.957 91.7413 126.49 91.656 127.055 91.656C127.61 91.656 128.138 91.7413 128.639 91.912C129.141 92.0827 129.578 92.3493 129.951 92.712C130.335 93.0747 130.639 93.5493 130.863 94.136C131.087 94.712 131.199 95.4053 131.199 96.216ZM135.423 92.408H136.815V94.36H135.423V100.776H132.911V87.4H135.423V92.408ZM128.319 88.68H131.583V90.632H122.543V88.68H125.807V87.032H128.319V88.68ZM125.439 96.216C125.439 97.048 125.578 97.6933 125.855 98.152C126.133 98.6 126.533 98.824 127.055 98.824C127.557 98.824 127.951 98.6 128.239 98.152C128.538 97.704 128.687 97.0533 128.687 96.2C128.687 95.368 128.538 94.728 128.239 94.28C127.951 93.832 127.557 93.608 127.055 93.608C126.533 93.608 126.133 93.8373 125.855 94.296C125.578 94.744 125.439 95.384 125.439 96.216ZM140.63 87.72V98.664H146.422V100.616H138.118V87.72H140.63ZM150.47 92.408H151.862V94.36H150.47V100.776H147.958V87.4H150.47V92.408ZM153.741 89.672V87.72H165.853V93.16H156.253V94.712H166.013V96.664H160.893V98.824H166.317V100.776H152.957V98.824H158.381V96.664H153.741V91.208H163.341V89.672H153.741ZM96.0852 128.088C96.0852 128.952 95.8392 129.57 95.3472 129.942C94.8552 130.314 94.1592 130.536 93.2592 130.608V129.312C93.7632 129.264 94.1292 129.144 94.3572 128.952C94.5852 128.772 94.6992 128.49 94.6992 128.106H93.1872V125.37H96.0852V128.088ZM191.429 128.088C191.429 128.952 191.183 129.57 190.691 129.942C190.199 130.314 189.503 130.536 188.603 130.608V129.312C189.107 129.264 189.473 129.144 189.701 128.952C189.929 128.772 190.043 128.49 190.043 128.106H188.531V125.37H191.429V128.088ZM235.425 114.21V113.31H241.023V127.818H238.197V115.506H236.055V127.818H233.229V116.406H231.159V114.21H235.425ZM245.937 118.584H247.503V120.78H245.937V127.998H243.111V112.95H245.937V118.584ZM258.905 113.31V115.506H255.053V119.682C255.053 120.594 254.957 121.428 254.765 122.184L259.373 125.604L257.987 127.692L253.775 124.524C253.319 125.244 252.719 125.868 251.975 126.396C251.231 126.924 250.325 127.362 249.257 127.71L248.015 125.622C248.735 125.37 249.359 125.088 249.887 124.776C250.415 124.464 250.853 124.08 251.201 123.624C251.549 123.156 251.807 122.604 251.975 121.968C252.143 121.332 252.227 120.564 252.227 119.664V115.506H248.555V113.31H258.905ZM263.225 127.998H260.399V112.95H263.225V127.998ZM266.257 124.2V113.094H269.083V124.2H266.257ZM266.257 128.358V125.712H269.083V128.358H266.257Z" fill="white"/>
<path d="M28.784 128.718C27.656 128.718 26.648 128.652 25.76 128.52C24.872 128.388 24.116 128.184 23.492 127.908C22.88 127.632 22.412 127.29 22.088 126.882C21.764 126.474 21.602 125.988 21.602 125.424C21.602 124.872 21.764 124.392 22.088 123.984C22.412 123.564 22.88 123.222 23.492 122.958C24.116 122.682 24.872 122.478 25.76 122.346C26.648 122.214 27.656 122.148 28.784 122.148C29.912 122.148 30.92 122.214 31.808 122.346C32.696 122.478 33.446 122.682 34.058 122.958C34.682 123.222 35.156 123.564 35.48 123.984C35.804 124.392 35.966 124.872 35.966 125.424C35.966 125.988 35.804 126.474 35.48 126.882C35.156 127.29 34.682 127.632 34.058 127.908C33.446 128.184 32.696 128.388 31.808 128.52C30.92 128.652 29.912 128.718 28.784 128.718ZM21.17 115.326V113.13H29.972V121.248H27.146V115.326H21.17ZM35.606 112.95V121.86H32.78V119.592L30.512 120.006V117.864L32.78 117.414V116.28L30.512 116.712V114.57L32.78 114.12V112.95H35.606ZM28.784 126.522C30.164 126.522 31.232 126.438 31.988 126.27C32.756 126.102 33.14 125.82 33.14 125.424C33.14 125.028 32.756 124.746 31.988 124.578C31.232 124.41 30.164 124.326 28.784 124.326C27.404 124.326 26.33 124.41 25.562 124.578C24.806 124.746 24.428 125.028 24.428 125.424C24.428 125.82 24.806 126.102 25.562 126.27C26.33 126.438 27.404 126.522 28.784 126.522ZM42.5797 116.316C44.6917 116.316 46.0897 116.796 46.7737 117.756L49.7077 117.072V112.95H52.5337V122.058H49.7077V119.322L47.1697 119.916C46.8457 121.416 45.3157 122.166 42.5797 122.166C41.0437 122.166 39.8857 121.92 39.1057 121.428C38.3377 120.936 37.9537 120.21 37.9537 119.25C37.9537 118.314 38.3377 117.594 39.1057 117.09C39.8857 116.574 41.0437 116.316 42.5797 116.316ZM52.5337 122.868V128.358H38.8537V122.868H52.5337ZM44.0017 113.49H47.6737V115.686H37.5037V113.49H41.1757V112.176H44.0017V113.49ZM41.6797 125.046V126.18H49.7077V125.046H41.6797ZM42.5797 118.224C42.0757 118.224 41.6497 118.302 41.3017 118.458C40.9537 118.602 40.7797 118.866 40.7797 119.25C40.7797 119.634 40.9537 119.904 41.3017 120.06C41.6617 120.204 42.0877 120.276 42.5797 120.276C42.8197 120.276 43.0477 120.258 43.2637 120.222C43.4917 120.186 43.6897 120.132 43.8577 120.06C44.0257 119.976 44.1577 119.868 44.2537 119.736C44.3617 119.604 44.4157 119.442 44.4157 119.25C44.4157 119.058 44.3617 118.896 44.2537 118.764C44.1577 118.632 44.0197 118.53 43.8397 118.458C43.6717 118.374 43.4737 118.314 43.2457 118.278C43.0297 118.242 42.8077 118.224 42.5797 118.224ZM66.9637 128.718C65.8357 128.718 64.8277 128.652 63.9397 128.52C63.0517 128.388 62.2957 128.184 61.6717 127.908C61.0597 127.632 60.5917 127.29 60.2677 126.882C59.9437 126.474 59.7817 125.988 59.7817 125.424C59.7817 124.872 59.9437 124.392 60.2677 123.984C60.5917 123.564 61.0597 123.222 61.6717 122.958C62.2957 122.682 63.0517 122.478 63.9397 122.346C64.8277 122.214 65.8357 122.148 66.9637 122.148C68.0917 122.148 69.0997 122.214 69.9877 122.346C70.8757 122.478 71.6257 122.682 72.2377 122.958C72.8617 123.222 73.3357 123.564 73.6597 123.984C73.9837 124.392 74.1457 124.872 74.1457 125.424C74.1457 125.988 73.9837 126.474 73.6597 126.882C73.3357 127.29 72.8617 127.632 72.2377 127.908C71.6257 128.184 70.8757 128.388 69.9877 128.52C69.0997 128.652 68.0917 128.718 66.9637 128.718ZM69.1057 113.13V115.326H65.4337V116.19C65.4337 116.334 65.4277 116.478 65.4157 116.622C65.4037 116.754 65.3857 116.886 65.3617 117.018L69.3757 119.43L68.0257 121.338L64.3357 119.124C63.4237 120.168 61.9177 120.93 59.8177 121.41L58.6117 119.43C59.2717 119.286 59.8477 119.124 60.3397 118.944C60.8437 118.764 61.2637 118.548 61.5997 118.296C61.9357 118.044 62.1877 117.744 62.3557 117.396C62.5237 117.048 62.6077 116.64 62.6077 116.172V115.326H59.1157V113.13H69.1057ZM73.7857 112.95V121.878H70.9597V117.774L68.7097 118.278V116.028L70.9597 115.524V112.95H73.7857ZM66.9637 126.522C68.3437 126.522 69.4117 126.438 70.1677 126.27C70.9357 126.102 71.3197 125.82 71.3197 125.424C71.3197 125.028 70.9357 124.746 70.1677 124.578C69.4117 124.41 68.3437 124.326 66.9637 124.326C65.5837 124.326 64.5097 124.41 63.7417 124.578C62.9857 124.746 62.6077 125.028 62.6077 125.424C62.6077 125.82 62.9857 126.102 63.7417 126.27C64.5097 126.438 65.5837 126.522 66.9637 126.522ZM76.2774 115.506V113.31H85.4394V121.716H79.1034V125.622H85.7994V127.818H76.2774V119.52H82.6134V115.506H76.2774ZM90.7134 127.998H87.8874V112.95H90.7134V127.998ZM112.418 113.31V115.506H108.746V119.682C108.746 120.582 108.656 121.428 108.476 122.22L112.886 125.604L111.5 127.692L107.522 124.596C107.066 125.292 106.484 125.898 105.776 126.414C105.068 126.93 104.186 127.362 103.13 127.71L101.888 125.622C102.608 125.37 103.22 125.088 103.724 124.776C104.24 124.464 104.66 124.08 104.984 123.624C105.308 123.156 105.542 122.604 105.686 121.968C105.842 121.332 105.92 120.564 105.92 119.664V115.506H102.428V113.31H112.418ZM116.558 118.584H118.124V120.78H116.558V127.998H113.732V112.95H116.558V118.584ZM125.926 127.818V115.506H119.59V113.31H128.752V127.818H125.926ZM134.026 127.998H131.2V112.95H134.026V127.998ZM145.482 113.382V115.632C145.482 116.496 145.362 117.306 145.122 118.062L151.278 121.482L149.892 123.462L143.97 120.186C142.662 121.782 140.514 122.934 137.526 123.642L136.464 121.572C138.624 121.128 140.19 120.42 141.162 119.448C142.146 118.464 142.638 117.186 142.638 115.614V113.382H145.482ZM136.284 125.802H142.386V122.31H145.212V125.802H151.314V127.998H136.284V125.802ZM162.607 127.998V112.95H165.199V119.322L166.783 118.764V112.95H169.393V127.998H166.783V121.194L165.199 121.752V127.998H162.607ZM158.575 127.818V115.506H153.445V113.31H161.167V127.818H158.575ZM177.705 119.682C177.705 120.582 177.615 121.428 177.435 122.22L181.845 125.604L180.459 127.692L176.481 124.596C176.025 125.292 175.443 125.898 174.735 126.414C174.027 126.93 173.145 127.362 172.089 127.71L170.847 125.622C171.567 125.37 172.179 125.088 172.683 124.776C173.199 124.464 173.619 124.08 173.943 123.624C174.267 123.156 174.501 122.604 174.645 121.968C174.801 121.332 174.879 120.564 174.879 119.664V113.094H177.705V119.682ZM186.057 127.998H183.231V119.952L179.883 121.104V118.674L183.231 117.522V112.95H186.057V127.998ZM206.808 113.13V121.968H198.006V113.13H206.808ZM212.442 112.95V123.696H209.616V119.952L207.348 120.366V118.224L209.616 117.774V116.46L207.348 116.892V114.75L209.616 114.3V112.95H212.442ZM201.588 123.228V126.18H212.622V128.358H198.762V123.228H201.588ZM203.982 119.772V115.326H200.832V119.772H203.982ZM218.516 121.86V122.922H226.544V121.86H229.37V128.358H215.69V121.86H218.516ZM224.69 113.13V115.326H221.018V115.83C221.018 116.25 220.976 116.628 220.892 116.964L224.96 119.07L223.61 120.978L219.722 118.98C219.266 119.436 218.678 119.838 217.958 120.186C217.25 120.534 216.398 120.822 215.402 121.05L214.196 119.07C214.856 118.926 215.432 118.764 215.924 118.584C216.428 118.404 216.848 118.188 217.184 117.936C217.52 117.684 217.772 117.384 217.94 117.036C218.108 116.688 218.192 116.28 218.192 115.812V115.326H214.7V113.13H224.69ZM229.37 112.95V121.05H226.544V117.684L224.294 118.188V115.938L226.544 115.434V112.95H229.37ZM226.544 126.18V125.1H218.516V126.18H226.544Z" fill="#FDFF81"/>
<path d="M19.9997 137.955C27.6251 137.339 180.988 132.771 231.997 135.563" stroke="white"/>
<path d="M20.0106 140C27.6323 139.329 180.966 133.67 231.99 136.097" stroke="white"/>
<g filter="url(#filter0_dii_2919_27923)">
<rect x="201.755" y="15" width="70.5888" height="70.5888" rx="17.6472" transform="rotate(10.4103 201.755 15)" fill="url(#paint1_linear_2919_27923)"/>
<g filter="url(#filter1_di_2919_27923)">
<path d="M247.788 45.7063C247.295 48.3903 244.719 50.1664 242.035 49.6733C239.351 49.1802 237.575 46.6046 238.068 43.9206C238.561 41.2365 241.296 38.5926 243.98 39.0857C246.665 39.5788 248.281 43.0223 247.788 45.7063Z" fill="#77F0CA"/>
<path d="M223.949 48.5034C223.491 50.9957 221.099 52.6449 218.607 52.187C216.115 51.7291 214.465 49.3375 214.923 46.8452C215.381 44.3529 217.702 41.9729 220.393 42.4673C223.083 42.9616 224.407 46.011 223.949 48.5034Z" fill="#7DC3FF"/>
<path d="M210.942 71.9505L240.532 77.3868C226.969 73.5626 229.138 67.7156 225.307 58.7679C221.477 49.8201 208.67 52.7135 207.408 66.8046C207.128 69.937 209.527 71.5241 210.942 71.9505Z" fill="#7DC2FE"/>
<path d="M241.921 77.6423C241.921 77.6423 210.14 71.9074 211.026 71.9663C226.079 72.9665 225.778 64.5903 233.375 55.0632C240.972 45.5361 252.419 54.5901 247.676 72.6955C246.621 76.7203 243.503 77.7122 241.921 77.6423Z" fill="#77F0CA"/>
<path fill-rule="evenodd" clip-rule="evenodd" d="M227.241 64.3888C227.265 64.4724 227.29 64.5556 227.314 64.6385C228.996 70.3816 230.193 74.472 240.532 77.387L211.028 71.9666C220.747 72.6117 224.064 69.3476 227.241 64.3888Z" fill="#52DFCB"/>
</g>
</g>
<defs>
<filter id="filter0_dii_2919_27923" x="186.244" y="12.2443" width="87.6931" height="88.6121" filterUnits="userSpaceOnUse" color-interpolation-filters="sRGB">
<feFlood flood-opacity="0" result="BackgroundImageFix"/>
<feColorMatrix in="SourceAlpha" type="matrix" values="0 0 0 0 0 0 0 0 0 0 0 0 0 0 0 0 0 0 127 0" result="hardAlpha"/>
<feOffset dx="0.918572" dy="1.83714"/>
<feGaussianBlur stdDeviation="0.918572"/>
<feComposite in2="hardAlpha" operator="out"/>
<feColorMatrix type="matrix" values="0 0 0 0 0.257915 0 0 0 0 0.55759 0 0 0 0 0.818055 0 0 0 1 0"/>
<feBlend mode="normal" in2="BackgroundImageFix" result="effect1_dropShadow_2919_27923"/>
<feBlend mode="normal" in="SourceGraphic" in2="effect1_dropShadow_2919_27923" result="shape"/>
<feColorMatrix in="SourceAlpha" type="matrix" values="0 0 0 0 0 0 0 0 0 0 0 0 0 0 0 0 0 0 127 0" result="hardAlpha"/>
<feOffset dx="-2.75572" dy="-2.75572"/>
<feGaussianBlur stdDeviation="3.44465"/>
<feComposite in2="hardAlpha" operator="arithmetic" k2="-1" k3="1"/>
<feColorMatrix type="matrix" values="0 0 0 0 0 0 0 0 0 0 0 0 0 0 0 0 0 0 0.12 0"/>
<feBlend mode="normal" in2="shape" result="effect2_innerShadow_2919_27923"/>
<feColorMatrix in="SourceAlpha" type="matrix" values="0 0 0 0 0 0 0 0 0 0 0 0 0 0 0 0 0 0 127 0" result="hardAlpha"/>
<feMorphology radius="0.459286" operator="dilate" in="SourceAlpha" result="effect3_innerShadow_2919_27923"/>
<feOffset dx="-1.37786" dy="-1.37786"/>
<feGaussianBlur stdDeviation="1.05636"/>
<feComposite in2="hardAlpha" operator="arithmetic" k2="-1" k3="1"/>
<feColorMatrix type="matrix" values="0 0 0 0 0.199064 0 0 0 0 0.538375 0 0 0 0 0.83329 0 0 0 0.12 0"/>
<feBlend mode="normal" in2="effect2_innerShadow_2919_27923" result="effect3_innerShadow_2919_27923"/>
</filter>
<filter id="filter1_di_2919_27923" x="206.467" y="37.648" width="45.5393" height="42.7532" filterUnits="userSpaceOnUse" color-interpolation-filters="sRGB">
<feFlood flood-opacity="0" result="BackgroundImageFix"/>
<feColorMatrix in="SourceAlpha" type="matrix" values="0 0 0 0 0 0 0 0 0 0 0 0 0 0 0 0 0 0 127 0" result="hardAlpha"/>
<feOffset dx="1.83714" dy="1.37786"/>
<feGaussianBlur stdDeviation="0.688929"/>
<feColorMatrix type="matrix" values="0 0 0 0 0.103372 0 0 0 0 0.349725 0 0 0 0 0.563846 0 0 0 0.12 0"/>
<feBlend mode="normal" in2="BackgroundImageFix" result="effect1_dropShadow_2919_27923"/>
<feBlend mode="normal" in="SourceGraphic" in2="effect1_dropShadow_2919_27923" result="shape"/>
<feColorMatrix in="SourceAlpha" type="matrix" values="0 0 0 0 0 0 0 0 0 0 0 0 0 0 0 0 0 0 127 0" result="hardAlpha"/>
<feOffset dx="-0.918572" dy="-1.37786"/>
<feGaussianBlur stdDeviation="1.6075"/>
<feComposite in2="hardAlpha" operator="arithmetic" k2="-1" k3="1"/>
<feColorMatrix type="matrix" values="0 0 0 0 0 0 0 0 0 0 0 0 0 0 0 0 0 0 0.12 0"/>
<feBlend mode="normal" in2="shape" result="effect2_innerShadow_2919_27923"/>
</filter>
<linearGradient id="paint0_linear_2919_27923" x1="45.5" y1="-74" x2="377.808" y2="250.261" gradientUnits="userSpaceOnUse">
<stop offset="0.346169" stop-color="#37A2FF"/>
<stop offset="1" stop-color="#216199"/>
</linearGradient>
<linearGradient id="paint1_linear_2919_27923" x1="216.879" y1="15" x2="257.219" y2="85.5888" gradientUnits="userSpaceOnUse">
<stop offset="0.291355" stop-color="white"/>
<stop offset="1" stop-color="#EEEEEE"/>
</linearGradient>
</defs>
</svg>
