<svg width="300" height="158" viewBox="0 0 300 158" fill="none" xmlns="http://www.w3.org/2000/svg">
<rect width="300" height="158" rx="12" fill="#2563EB"/>
<rect x="58" y="73" width="99" height="33" rx="8" fill="#FFF30D"/>
<path d="M35.293 80.1016V90.8633H33.1055V80.1016H35.293ZM29.6289 81.1562V86.332H23.6523V88.2266C26.6797 88.2168 28.8184 88.1191 31.3477 87.7383L31.6211 89.4766C28.8281 89.9258 26.4453 90.0039 23.0273 90.0039H21.5234V84.7109H27.4805V82.9336H21.4844V81.1562H29.6289ZM29.3555 91.1758C33.1055 91.1758 35.3906 92.3672 35.3906 94.457C35.3906 96.5078 33.1055 97.7188 29.3555 97.7188C25.5859 97.7188 23.3203 96.5078 23.3203 94.457C23.3203 92.3672 25.5859 91.1758 29.3555 91.1758ZM29.3555 92.875C26.8555 92.875 25.4688 93.4219 25.4688 94.457C25.4688 95.4727 26.8555 96.0195 29.3555 96.0195C31.8359 96.0195 33.2227 95.4727 33.2227 94.457C33.2227 93.4219 31.8359 92.875 29.3555 92.875ZM52.5391 80.1016V91.8789H50.3711V80.1016H52.5391ZM47.793 91.1758C47.7734 93.4023 49.8828 95.3555 53.457 95.9219L52.5391 97.6406C49.7949 97.1426 47.6758 95.834 46.6406 93.9688C45.5762 95.8438 43.4082 97.1719 40.5859 97.6602L39.7266 95.9414C43.3203 95.4141 45.5078 93.4023 45.5078 91.1758V90.6875H47.793V91.1758ZM47.3242 81.2344C47.3047 86.0781 45 89.4375 39.0625 91.293L38.2227 89.5547C40.9375 88.7441 42.6953 87.6309 43.75 86.2734L38.5156 86.6641L38.1836 84.9453L44.6289 84.7109C44.8438 84.1543 44.9707 83.5781 45.0391 82.9727H39.082V81.2344H47.3242ZM175.801 80.082V97.7383H173.711V80.082H175.801ZM172.168 80.3945V96.8789H170.098V88.4805H168.418C168.213 91.918 166.738 94.0469 164.551 94.0273C162.246 94.0469 160.742 91.6055 160.742 87.7188C160.742 83.832 162.246 81.4297 164.551 81.4297C166.689 81.4297 168.145 83.4219 168.398 86.7227H170.098V80.3945H172.168ZM164.551 83.4805C163.438 83.4609 162.734 84.9648 162.754 87.7188C162.734 90.4727 163.438 91.9766 164.551 91.957C165.723 91.9766 166.426 90.4727 166.426 87.7188C166.426 84.9648 165.723 83.4609 164.551 83.4805ZM184.375 84.3203C184.375 87.6016 185.938 90.8242 188.75 92.0547L187.441 93.793C185.439 92.8164 184.033 90.9414 183.281 88.6367C182.51 91.0684 181.074 93.0898 179.043 94.125L177.676 92.3672C180.547 91.0195 182.148 87.6211 182.168 84.3203V81.5078H184.375V84.3203ZM192.656 80.082V97.7578H190.508V87.543H186.797V85.7852H190.508V80.082H192.656ZM36.7188 127.793V129.551H20.5859V127.793H27.5V123.711H29.6484V127.793H36.7188ZM29.707 116.445C29.707 119.121 32.3828 121.758 36.0938 122.344L35.1562 124.141C32.168 123.574 29.7266 121.865 28.5547 119.551C27.3828 121.855 24.9609 123.594 21.9922 124.141L21.0547 122.344C24.7461 121.758 27.3828 119.102 27.4023 116.445V115.156H29.707V116.445ZM53.9648 123.262V124.98H37.832V123.262H44.8047V121.953H39.9023V114.551H52.0312V116.23H42.0703V117.441H51.6016V119.043H42.0703V120.293H52.168V121.953H46.9727V123.262H53.9648ZM45.8984 125.957C49.7852 125.957 51.9922 126.992 52.0117 128.828C51.9922 130.723 49.7852 131.719 45.8984 131.719C41.9531 131.719 39.7461 130.723 39.7461 128.828C39.7461 126.992 41.9531 125.957 45.8984 125.957ZM45.8984 127.578C43.2422 127.578 41.9141 127.988 41.9141 128.828C41.9141 129.688 43.2422 130.098 45.8984 130.098C48.5156 130.098 49.8242 129.688 49.8438 128.828C49.8242 127.988 48.5156 127.578 45.8984 127.578ZM68.9844 114.082V121.113H71.6992V122.91H68.9844V131.738H66.8359V114.082H68.9844ZM65.4688 116.797V118.535H55.0586V116.797H59.2383V114.336H61.4062V116.797H65.4688ZM60.332 119.688C62.8711 119.688 64.7656 121.406 64.7656 123.848C64.7656 126.289 62.8711 127.988 60.332 127.988C57.7539 127.988 55.8594 126.289 55.8789 123.848C55.8594 121.406 57.7539 119.688 60.332 119.688ZM60.332 121.465C58.9453 121.465 57.9492 122.402 57.9492 123.848C57.9492 125.293 58.9453 126.211 60.332 126.191C61.6797 126.211 62.6758 125.293 62.6953 123.848C62.6758 122.402 61.6797 121.465 60.332 121.465ZM86.8555 115.703V117.402C86.8359 119.59 86.8359 122.051 86.1523 125.742L83.9648 125.508C84.6484 122.07 84.6484 119.561 84.668 117.441H74.1211V115.703H86.8555ZM88.5352 127.676V129.453H72.4414V127.676H78.3789V121.543H80.5273V127.676H88.5352ZM108.945 115.703V117.5C108.945 119.688 108.945 122.07 108.301 125.527L106.172 125.312C106.777 122.051 106.777 119.629 106.777 117.5V117.441H96.0938V115.703H108.945ZM110.566 127.676V129.453H94.4727V127.676H98.0859V122.051H100.254V127.676H102.5V122.051H104.629V127.676H110.566ZM127.871 124.512V126.211H123.984V131.738H121.797V126.211H117.832V131.738H115.664V126.211H111.738V124.512H127.871ZM125.996 114.668V119.609H115.859V121.289H126.387V123.047H113.672V117.988H123.77V116.445H113.633V114.668H125.996ZM137.656 116.895V118.633H129.004V116.895H132.285V114.59H134.434V116.895H137.656ZM133.359 119.57C135.605 119.57 137.207 121.27 137.207 123.672C137.207 126.113 135.605 127.832 133.359 127.832C131.133 127.832 129.492 126.113 129.512 123.672C129.492 121.27 131.133 119.57 133.359 119.57ZM133.359 121.367C132.207 121.367 131.406 122.285 131.426 123.672C131.406 125.098 132.207 125.996 133.359 125.977C134.492 125.996 135.293 125.098 135.293 123.672C135.293 122.285 134.492 121.367 133.359 121.367ZM144.219 114.082V131.738H142.148V123.105H140.43V130.938H138.398V114.453H140.43V121.348H142.148V114.082H144.219ZM167.207 127.832V129.609H151.074V127.832H158.027V124.395H152.852V115.254H155.02V118.145H163.203V115.254H165.371V124.395H160.176V127.832H167.207ZM155.02 122.637H163.203V119.883H155.02V122.637ZM173.867 118.711C173.867 121.562 174.863 124.531 177.246 126.035L176.055 127.695C174.463 126.738 173.428 125.088 172.852 123.145C172.207 125.283 171.074 127.09 169.414 128.105L168.066 126.484C170.625 124.922 171.777 121.816 171.777 118.809V115.645H173.867V118.711ZM183.594 114.082V131.738H181.504V114.082H183.594ZM179.922 114.395V130.879H177.871V121.953H175.352V120.156H177.871V114.395H179.922ZM201.777 127.812V129.59H185.645V127.812H189.375V123.34C187.969 122.539 187.119 121.279 187.129 119.707C187.109 116.895 189.883 115.039 193.672 115.039C197.48 115.039 200.254 116.895 200.254 119.707C200.254 121.25 199.434 122.49 198.066 123.301V127.812H201.777ZM193.672 116.758C191.035 116.758 189.238 117.871 189.258 119.707C189.238 121.523 191.035 122.656 193.672 122.656C196.309 122.656 198.125 121.523 198.125 119.707C198.125 117.871 196.309 116.758 193.672 116.758ZM191.523 127.812H195.859V124.121C195.186 124.277 194.453 124.355 193.672 124.355C192.91 124.355 192.188 124.277 191.523 124.141V127.812Z" fill="white"/>
<path d="M72.6953 80.9414C76.5234 80.9414 79.375 82.875 79.3945 85.8047C79.375 88.4805 77.1191 90.2871 73.9258 90.6484V93.6758H80.8594V95.7266H64.5898V93.6758H71.4453V90.6289C68.2617 90.2871 66.0156 88.4707 66.0156 85.8047C66.0156 82.875 68.8672 80.9414 72.6953 80.9414ZM72.6953 82.9336C70.2148 82.9336 68.4766 84.0273 68.4766 85.8047C68.4766 87.6797 70.2148 88.7344 72.6953 88.7344C75.1953 88.7344 76.9141 87.6797 76.9336 85.8047C76.9141 84.0273 75.1953 82.9336 72.6953 82.9336ZM96.6406 80.7656V82.7188H94.3164V85.8047H96.5234V87.7773H83.418V85.8047H85.6055V82.7188H83.3008V80.7656H96.6406ZM98.0859 89.2031V91.1562H81.875V89.2031H98.0859ZM96.25 95.4922V97.4844H83.8281V92.3672H86.3281V95.4922H96.25ZM88.1055 85.8047H91.8164V82.7188H88.1055V85.8047ZM104.707 85.3945C104.707 88.0703 105.664 90.7852 108.223 92.1328L106.836 93.9688C105.234 93.1484 104.17 91.7129 103.555 89.9648C102.93 91.8691 101.865 93.4609 100.254 94.3789L98.8477 92.5039C101.367 91.0586 102.344 88.1484 102.363 85.3945V85.0625H99.4141V83.0312H102.363V80.6289H104.688V83.0312H107.617V85.0625H104.707V85.3945ZM114.668 80.0234V97.7969H112.285V88.8906H110.781V96.9766H108.418V80.2773H110.781V86.8594H112.285V80.0234H114.668ZM126.035 81.2539V83.2461H119.922V84.6328H125.508V86.5664H119.922V87.9922C123.047 87.9922 125.029 87.9531 127.285 87.582L127.539 89.5352C125 89.9453 122.754 90.0039 118.945 89.9844H117.422V81.2539H126.035ZM131.328 80.043V90.8047H128.828V80.043H131.328ZM125.273 91.0391C129.023 91.0391 131.406 92.2891 131.426 94.418C131.406 96.5664 129.023 97.7969 125.273 97.7969C121.465 97.7969 119.16 96.5664 119.16 94.418C119.16 92.2891 121.465 91.0391 125.273 91.0391ZM125.273 92.9727C122.891 92.9727 121.641 93.4609 121.641 94.418C121.641 95.3945 122.891 95.9023 125.273 95.9023C127.637 95.9023 128.926 95.3945 128.926 94.418C128.926 93.4609 127.637 92.9727 125.273 92.9727ZM142.012 90.9023C145.703 90.9023 148.008 92.1719 148.008 94.3398C148.008 96.5469 145.703 97.8164 142.012 97.8164C138.242 97.8164 135.918 96.5469 135.918 94.3398C135.918 92.1719 138.242 90.9023 142.012 90.9023ZM142.012 92.8359C139.668 92.8359 138.398 93.3242 138.418 94.3398C138.398 95.3555 139.668 95.8828 142.012 95.8828C144.316 95.8828 145.547 95.3555 145.547 94.3398C145.547 93.3242 144.316 92.8359 142.012 92.8359ZM147.832 80.0234V84.1445H150.234V86.2344H147.832V90.5117H145.332V80.0234H147.832ZM136.738 81.1367V83.3828H140.371V81.1367H142.871V89.4961H134.258V81.1367H136.738ZM136.738 87.5234H140.371V85.3164H136.738V87.5234Z" fill="#6F3B00"/>
<path d="M283.244 25.668C283.824 25.0248 283.368 23.9982 282.501 23.9981L267 23.9967C266.448 23.9967 266 24.4444 266 24.9967L266 42.18C266 43.0959 267.129 43.5299 267.742 42.8498L283.244 25.668Z" fill="#F6F8FC"/>
<rect x="115" y="21" width="157" height="32" rx="10" fill="#F6F8FC"/>
<path d="M142.852 33.0801V41.8301H141.963V33.0801H142.852ZM141.094 33.2461V41.4004H140.215V38.5781H138.945C138.633 39.4473 138.052 39.9502 137.305 39.9453C136.162 39.9551 135.42 38.7539 135.42 36.8594C135.42 34.9648 136.162 33.7734 137.305 33.7832C138.052 33.7783 138.628 34.2764 138.945 35.1406H140.215V33.2461H141.094ZM137.305 34.6523C136.66 34.6523 136.27 35.4629 136.27 36.8594C136.27 38.2559 136.66 39.0664 137.305 39.0664C137.949 39.0664 138.359 38.2559 138.359 36.8594C138.359 35.4629 137.949 34.6523 137.305 34.6523ZM139.141 35.8926C139.185 36.1904 139.209 36.5127 139.209 36.8594C139.209 37.2012 139.185 37.5234 139.141 37.8164H140.215V35.8926H139.141ZM147.031 34.9551C147.031 35.9707 147.822 36.9082 149.16 37.2891L148.73 38.0215C147.725 37.7334 146.978 37.1133 146.592 36.3125C146.206 37.2158 145.439 37.9141 144.414 38.2461L143.955 37.5137C145.293 37.123 146.113 36.0879 146.113 34.9551V34.8477H144.209V34.0957H146.113V33.041H147.041V34.0957H148.936V34.8477H147.031V34.9551ZM150.84 33.0801V35.2871H152.109V36.0488H150.84V38.4121H149.912V33.0801H150.84ZM148.018 38.6172C149.824 38.6172 150.918 39.1934 150.918 40.2188C150.918 41.2246 149.824 41.8105 148.018 41.8105C146.191 41.8105 145.078 41.2246 145.078 40.2188C145.078 39.1934 146.191 38.6172 148.018 38.6172ZM148.018 39.3398C146.738 39.3398 145.996 39.6426 146.006 40.2188C145.996 40.7754 146.738 41.0977 148.018 41.0977C149.277 41.0977 150.01 40.7754 150.01 40.2188C150.01 39.6426 149.277 39.3398 148.018 39.3398ZM160.137 33.0801V41.8301H159.248V37.3184H158.213V41.3809H157.334V33.2559H158.213V36.5566H159.248V33.0801H160.137ZM156.758 34.1445V34.9062H156.064V38.8223C156.357 38.7979 156.641 38.7686 156.904 38.7344L156.953 39.418C155.576 39.6816 153.75 39.7207 152.617 39.7207L152.51 38.9395L153.389 38.9297V34.9062H152.695V34.1445H156.758ZM154.238 38.9199C154.561 38.9102 154.888 38.9004 155.215 38.8809V34.9062H154.238V38.9199ZM170.957 33.5V34.2422H168.291C168.345 35.1943 169.604 36.0342 171.23 36.2344L170.879 36.9668C169.38 36.7715 168.149 36.0732 167.676 35.0918C167.202 36.0684 165.977 36.7715 164.482 36.9668L164.131 36.2344C165.767 36.0342 167.012 35.1943 167.061 34.2422H164.424V33.5H170.957ZM171.689 37.5332V38.2852H168.213V39.9844H167.295V38.2852H163.682V37.5332H171.689ZM170.801 40.8926V41.6445H164.678V39.1445H165.605V40.8926H170.801ZM179.58 33.0801V41.8496H178.652V33.0801H179.58ZM173.75 33.8125V36.0586H176.104V33.8125H177.021V39.75H172.822V33.8125H173.75ZM173.75 38.9883H176.104V36.791H173.75V38.9883ZM187.793 33.0801V36.625H189.199V37.3965H187.793V41.8301H186.875V33.0801H187.793ZM186.113 34.4473V35.209H180.928V34.4473H183.086V33.1973H184.014V34.4473H186.113ZM183.555 35.8535C184.805 35.8535 185.723 36.6934 185.732 37.8848C185.723 39.0859 184.805 39.916 183.555 39.9258C182.295 39.916 181.377 39.0859 181.377 37.8848C181.377 36.6934 182.295 35.8535 183.555 35.8535ZM183.555 36.6152C182.812 36.6152 182.256 37.1328 182.266 37.8848C182.256 38.6465 182.812 39.1543 183.555 39.1445C184.297 39.1543 184.844 38.6465 184.844 37.8848C184.844 37.1328 184.297 36.6152 183.555 36.6152ZM192.832 35.3066C192.822 36.9082 193.789 38.5098 195.146 39.1152L194.59 39.8477C193.584 39.3691 192.788 38.3877 192.383 37.1914C191.973 38.4707 191.167 39.5303 190.117 40.043L189.551 39.2617C190.928 38.6465 191.895 36.9766 191.895 35.3066V33.8125H192.832V35.3066ZM196.865 33.0801V41.8496H195.938V33.0801H196.865ZM205.342 35.6387V36.3809H199.316V33.3926H200.234V35.6387H205.342ZM206.26 37.4844V38.2266H198.252V37.4844H206.26ZM205.4 40.8633V41.625H199.248V39.0566H200.176V40.8633H205.4ZM217.344 37.6602V38.4023H213.867V40.0137H212.949V38.4023H209.336V37.6602H217.344ZM216.455 40.8926V41.6445H210.332V39.252H211.25V40.8926H216.455ZM211.309 33.3535V34.418H215.361V33.3535H216.289V36.8887H210.391V33.3535H211.309ZM211.309 36.1465H215.361V35.1113H211.309V36.1465ZM223.467 38.8613C223.467 39.6133 223.838 40.4092 224.629 40.8828C225.435 40.3701 225.83 39.5303 225.83 38.8613V38.4414H226.738V38.8613C226.738 39.7695 227.334 40.6484 228.477 41.0195L228.018 41.7031C227.153 41.4053 226.567 40.8242 226.26 40.1016C225.981 40.8096 225.459 41.4492 224.658 41.7812C223.818 41.4639 223.286 40.8438 223.018 40.1309C222.7 40.8193 222.124 41.4004 221.299 41.7031L220.83 41.0195C221.953 40.6191 222.559 39.7109 222.568 38.8613V38.4414H223.467V38.8613ZM227.686 33.0898V38.0703H226.758V33.0898H227.686ZM222.939 33.5684C224.277 33.5684 225.264 34.418 225.264 35.6387C225.264 36.8496 224.277 37.6895 222.939 37.6895C221.602 37.6895 220.605 36.8496 220.605 35.6387C220.605 34.418 221.602 33.5684 222.939 33.5684ZM222.939 34.3594C222.109 34.3496 221.514 34.8672 221.514 35.6387C221.514 36.4004 222.109 36.918 222.939 36.918C223.76 36.918 224.355 36.4004 224.355 35.6387C224.355 34.8672 223.76 34.3496 222.939 34.3594ZM237.246 36.5176V37.2793H235.889V41.8203H234.961V33.0801H235.889V36.5176H237.246ZM230.322 33.9297V38.8516C231.543 38.8516 232.817 38.749 234.209 38.4609L234.316 39.2422C232.822 39.5449 231.436 39.623 230.127 39.623H229.404V33.9297H230.322ZM245.723 39.9648V40.7363H237.715V39.9648H239.629V37.6797C238.911 37.2842 238.477 36.6543 238.477 35.873C238.477 34.4961 239.824 33.5879 241.699 33.5879C243.584 33.5879 244.932 34.4961 244.932 35.873C244.932 36.6445 244.512 37.2646 243.809 37.6602V39.9648H245.723ZM241.699 34.3301C240.322 34.3301 239.375 34.9258 239.375 35.873C239.375 36.8105 240.322 37.4258 241.699 37.4258C243.066 37.4258 244.033 36.8105 244.033 35.873C244.033 34.9258 243.066 34.3301 241.699 34.3301ZM240.547 39.9648H242.871V38.0117C242.515 38.1045 242.119 38.1484 241.699 38.1484C241.289 38.1484 240.898 38.1045 240.547 38.0215V39.9648ZM247.793 38.9004C247.803 37.6211 248.184 37.2305 248.828 36.8301C249.238 36.5762 249.551 36.2246 249.551 35.707C249.551 35.0918 249.082 34.7109 248.496 34.7109C247.969 34.7109 247.461 35.0332 247.412 35.7559H246.357C246.396 34.5156 247.334 33.832 248.496 33.832C249.766 33.832 250.615 34.5938 250.615 35.707C250.615 36.4883 250.244 37.0156 249.619 37.3965C249.033 37.748 248.809 38.1094 248.789 38.9004V38.959H247.793V38.9004ZM248.33 41.0684C247.949 41.0684 247.627 40.7559 247.637 40.375C247.627 39.9941 247.949 39.6816 248.33 39.6816C248.701 39.6816 249.023 39.9941 249.023 40.375C249.023 40.7559 248.701 41.0684 248.33 41.0684Z" fill="#27364B"/>
</svg>
