<svg width="300" height="158" viewBox="0 0 300 158" fill="none" xmlns="http://www.w3.org/2000/svg">
<g clip-path="url(#clip0_2919_27830)">
<rect width="300" height="158" rx="12" fill="#3D5890"/>
<path opacity="0.8" d="M181.129 149.404L118.748 81.0914L131.972 65.5427L224.552 43.7841L238.572 56.8403L200.168 139.425L181.129 149.404Z" stroke="#4479FF" stroke-width="0.333581" stroke-dasharray="2.67 2.67"/>
<path d="M154.918 39.1958L97.5542 45.5039C95.3566 45.7455 93.7711 47.7229 94.0127 49.9204L99.3727 98.663C99.6144 100.861 101.592 102.446 103.789 102.204L161.153 95.8965C163.351 95.6548 164.936 93.6775 164.694 91.4799L159.334 42.7373C159.093 40.5397 157.115 38.9542 154.918 39.1958Z" fill="#C9D6E9"/>
<mask id="mask0_2919_27830" style="mask-type:alpha" maskUnits="userSpaceOnUse" x="93" y="39" width="73" height="64">
<path d="M155.249 39.1656L96.8901 45.583C94.6926 45.8246 93.107 47.802 93.3487 49.9995L98.7087 98.7421C98.9503 100.94 100.928 102.525 103.125 102.284L161.484 95.8662C163.681 95.6245 165.267 93.6472 165.025 91.4497L159.665 42.707C159.423 40.5095 157.446 38.9239 155.249 39.1656Z" fill="#FFD798"/>
</mask>
<g mask="url(#mask0_2919_27830)">
<path d="M102.888 77.9493C102.592 75.2557 104.475 72.8087 107.154 72.405L132.568 68.5784C135.939 68.0709 138.453 71.6142 136.86 74.6283C136.291 75.705 135.278 76.4779 134.089 76.7425L109.003 82.3256C106.068 82.9784 103.216 80.938 102.888 77.9493Z" fill="#5A8FDD"/>
<path d="M129.224 71.274C135.194 70.6176 139.501 65.2461 138.845 59.2765C138.188 53.3068 132.817 48.9997 126.847 49.6561C120.878 50.3126 116.57 55.6841 117.227 61.6537C117.883 67.6233 123.255 71.9305 129.224 71.274Z" fill="#EDF3FF"/>
<path d="M128.837 59.4695C129.335 59.4148 129.694 58.9672 129.639 58.4697C129.584 57.9723 129.137 57.6133 128.639 57.668C128.142 57.7227 127.783 58.1704 127.838 58.6678C127.892 59.1653 128.34 59.5242 128.837 59.4695Z" fill="#0F1A2A"/>
<path d="M134.056 57.1819C134.553 57.1272 134.912 56.6796 134.857 56.1821C134.803 55.6847 134.355 55.3257 133.858 55.3804C133.36 55.4351 133.001 55.8828 133.056 56.3802C133.111 56.8777 133.558 57.2366 134.056 57.1819Z" fill="#0F1A2A"/>
<path d="M131.024 62.3077C133.004 63.5274 134.37 62.4865 134.572 61.0057" stroke="#0F1A2A" stroke-width="0.667162" stroke-linecap="round"/>
<path fill-rule="evenodd" clip-rule="evenodd" d="M128.06 53.081C127.652 52.9444 127.261 52.7841 126.888 52.6026C126.871 53.6643 126.666 54.7656 126.254 55.8482C125.331 58.2666 123.57 60.064 121.573 60.9012C121.618 61.0679 121.661 61.2372 121.701 61.4083C122.365 64.2829 121.946 67.0039 120.777 68.5618C118.852 66.8375 117.532 64.4245 117.227 61.6536C116.57 55.684 120.878 50.3126 126.847 49.6561C130.079 49.3008 133.136 50.4002 135.363 52.4303C133.404 53.6467 130.701 53.9676 128.06 53.081Z" fill="#0F1A2A"/>
<path d="M120.474 67.4295C122.356 66.8751 123.354 64.6333 122.702 62.4222C122.051 60.2111 119.997 58.8681 118.115 59.4225C116.233 59.9769 115.236 62.2187 115.887 64.4298C116.538 66.6409 118.592 67.9839 120.474 67.4295Z" fill="#EDF3FF"/>
<path d="M132.07 58.0933L132.457 58.3675C132.882 58.6695 132.966 59.2668 132.64 59.6736L132.439 59.9234" stroke="#0F1A2A" stroke-width="0.667162" stroke-linecap="round"/>
<path d="M111.58 81.1676C112.765 76.8755 116.447 73.7392 120.873 73.2525L137.146 71.4631C142.075 70.9211 146.747 73.7827 148.503 78.4206L155.962 98.1121C158.48 104.76 154.047 111.996 146.982 112.773L117.41 116.025C109.771 116.865 103.694 109.73 105.74 102.322L111.58 81.1676Z" fill="#5A8FDD"/>
<path d="M126.677 64.1832C127.672 64.0738 128.389 63.1785 128.28 62.1836C128.171 61.1887 127.275 60.4708 126.28 60.5802C125.286 60.6896 124.568 61.5849 124.677 62.5798C124.787 63.5747 125.682 64.2926 126.677 64.1832Z" fill="#FFD4E7"/>
<path d="M137.657 60.2867C138.652 60.1773 139.37 59.2821 139.261 58.2871C139.151 57.2922 138.256 56.5743 137.261 56.6837C136.266 56.7931 135.548 57.6884 135.658 58.6833C135.767 59.6783 136.662 60.3961 137.657 60.2867Z" fill="#FFD4E7"/>
<path d="M102.883 77.9064C102.588 75.2234 104.444 72.7787 107.108 72.3422L124.638 69.4687C126.153 69.2204 127.691 69.7505 128.732 70.8791C131.117 73.4647 129.805 77.6628 126.372 78.4306L109.037 82.3056C106.084 82.9655 103.214 80.9134 102.883 77.9064Z" fill="#5A8FDD"/>
</g>
<path d="M119.02 54.5526C121.584 54.2707 123.434 51.9638 123.152 49.4C122.87 46.8362 120.563 44.9864 118 45.2683C115.436 45.5503 113.586 47.8572 113.868 50.4209C114.15 52.9847 116.457 54.8345 119.02 54.5526Z" fill="#0F1A2A"/>
<path d="M110.16 54.8574C113.731 54.4647 116.307 51.2515 115.915 47.6805C115.522 44.1095 112.309 41.533 108.738 41.9257C105.167 42.3184 102.59 45.5316 102.983 49.1026C103.376 52.6736 106.589 55.2501 110.16 54.8574Z" fill="#0F1A2A"/>
<path d="M111.403 81.8877L124.818 78.3508" stroke="#C9D6E9" stroke-width="0.333581" stroke-linecap="round"/>
<path d="M132.346 74.5004L128.716 70.4782L133.323 69.1703L132.346 74.5004Z" fill="#EDF3FF"/>
<path opacity="0.5" d="M102.288 13.9642C103.3 13.8529 104.03 12.9422 103.919 11.9301C103.807 10.9179 102.897 10.1877 101.885 10.299C100.873 10.4103 100.142 11.321 100.254 12.3331C100.365 13.3453 101.276 14.0755 102.288 13.9642Z" fill="#DDE8FF"/>
<path d="M236.544 8.98967L217.018 11.1369C200.91 12.9082 189.287 27.4029 191.058 43.5115L191.058 43.5116C192.83 59.6202 207.324 71.2428 223.433 69.4714L242.959 67.3243C259.068 65.5529 270.69 51.0582 268.919 34.9496L268.919 34.9495C267.148 18.8409 252.653 7.21829 236.544 8.98967Z" fill="#A6C7F7"/>
<path d="M224.004 45.8384C228.529 45.3408 231.743 40.8033 231.182 35.7037C230.621 30.6041 226.498 26.8734 221.973 27.371C217.448 27.8686 214.234 32.406 214.795 37.5057C215.356 42.6053 219.479 46.336 224.004 45.8384Z" fill="#0F1A2A"/>
<path d="M220.074 57.982C224.599 57.4844 227.813 52.9469 227.252 47.8473C226.691 42.7476 222.568 39.0169 218.043 39.5145C213.518 40.0121 210.304 44.5496 210.865 49.6493C211.426 54.7489 215.548 58.4796 220.074 57.982Z" fill="#0F1A2A"/>
<path d="M244.643 56.9258C249.169 56.4282 252.382 51.8908 251.822 46.7911C251.261 41.6915 247.138 37.9608 242.613 38.4584C238.088 38.956 234.874 43.4935 235.435 48.5931C235.995 53.6928 240.118 57.4234 244.643 56.9258Z" fill="#0F1A2A"/>
<mask id="mask1_2919_27830" style="mask-type:alpha" maskUnits="userSpaceOnUse" x="190" y="8" width="80" height="62">
<path d="M236.545 8.99016L217.019 11.1373C200.91 12.9087 189.288 27.4033 191.059 43.512L191.059 43.512C192.83 59.6207 207.325 71.2433 223.434 69.4719L242.96 67.3247C259.068 65.5534 270.691 51.0587 268.92 34.9501L268.919 34.95C267.148 18.8414 252.653 7.21878 236.545 8.99016Z" fill="#1CA0E7"/>
</mask>
<g mask="url(#mask1_2919_27830)">
<path d="M227.386 39.8216C221.417 40.4781 216.045 36.1709 215.389 30.2013C214.732 24.2317 219.04 18.8602 225.009 18.2037C230.979 17.5473 236.35 21.8545 237.007 27.8241C237.663 33.7937 233.356 39.1652 227.386 39.8216Z" fill="#B9DAFA"/>
<path d="M224.295 29.111C223.797 29.1657 223.35 28.8068 223.295 28.3093C223.24 27.8118 223.599 27.3642 224.097 27.3095C224.594 27.2548 225.042 27.6137 225.096 28.1112C225.151 28.6087 224.792 29.0563 224.295 29.111Z" fill="#0F1A2A"/>
<path d="M219.024 29.7589C218.526 29.8136 218.079 29.4547 218.024 28.9572C217.969 28.4598 218.328 28.0122 218.826 27.9574C219.323 27.9027 219.771 28.2617 219.825 28.7591C219.88 29.2566 219.521 29.7042 219.024 29.7589Z" fill="#0F1A2A"/>
<path d="M225.111 32.3404C224.709 33.3524 222.752 35.0789 221.645 33.9249" stroke="#0F1A2A" stroke-width="0.667162" stroke-linecap="round"/>
<path fill-rule="evenodd" clip-rule="evenodd" d="M216.085 25.0125C217.05 25.011 218.05 24.8417 219.032 24.4963C221.508 24.8591 224.517 24.789 227.108 24.372C228.487 26.3264 230.435 27.5892 232.42 27.9987C232.479 28.5597 232.58 29.1347 232.726 29.7151C233.256 31.8188 234.269 33.5816 235.464 34.7066C236.687 32.7187 237.283 30.3236 237.008 27.8239C236.351 21.8543 230.98 17.5468 225.01 18.2033C220.865 18.6591 217.522 21.3883 216.085 25.0125Z" fill="#0F1A2A"/>
<path d="M221.459 29.7069L221.356 29.9463C221.13 30.4693 221.438 31.0684 221.994 31.1901L222.097 31.2129" stroke="#0F1A2A" stroke-width="0.667162" stroke-linecap="round"/>
<path d="M235.177 39.1317C234.926 36.853 232.876 35.2085 230.597 35.4591L229.471 35.5829C227.192 35.8335 225.548 37.8843 225.799 40.163C226.049 42.442 228.1 44.0862 230.379 43.8356L231.504 43.7118C233.784 43.4612 235.428 41.4108 235.177 39.1317Z" fill="#B9DAFA"/>
<path d="M228.653 31.7876C227.706 32.1122 226.676 31.6078 226.351 30.6609C226.026 29.7141 226.531 28.6834 227.478 28.3588C228.424 28.0342 229.455 28.5386 229.78 29.4854C230.104 30.4322 229.6 31.4629 228.653 31.7876Z" fill="#FFD4E7"/>
<path d="M217.058 32.9418C216.112 33.2665 215.081 32.7621 214.756 31.8152C214.432 30.8684 214.936 29.8377 215.883 29.5131C216.83 29.1885 217.86 29.6928 218.185 30.6397C218.51 31.5865 218.005 32.6172 217.058 32.9418Z" fill="#FFD4E7"/>
<path d="M239.496 41.7048C242.184 40.7312 243.532 37.6483 242.507 34.8189C241.482 31.9896 238.472 30.4852 235.785 31.4588C233.097 32.4324 231.749 35.5153 232.774 38.3447C233.799 41.174 236.809 42.6784 239.496 41.7048Z" fill="#0F1A2A"/>
<path d="M245.317 38.0443C246.341 40.8737 244.044 44.7891 240.956 45.9082C237.867 47.0273 233.814 41.2074 232.789 38.378C231.763 34.844 234.155 36.7811 237.244 35.662C240.333 34.5433 244.292 35.2149 245.317 38.0443Z" fill="#0F1A2A"/>
<path d="M235.529 33.5274C233.567 33.5277 231.977 31.6593 231.976 29.3543C231.976 27.0493 233.566 25.1804 235.528 25.1802C237.49 25.1799 239.081 27.0483 239.081 29.3533C239.081 31.6583 237.491 33.5271 235.529 33.5274Z" fill="#B9DAFA"/>
<path d="M250.672 45.5036C248.36 42.4712 244.628 40.8721 240.837 41.2889L223.343 43.2127C218.413 43.7548 214.475 47.5632 213.769 52.4715L210.767 73.3134C209.754 80.3491 215.653 86.4493 222.719 85.6723L257.646 81.8315C266.056 80.9067 270.235 71.1558 265.105 64.4284L250.672 45.5036Z" fill="white"/>
<path d="M234.742 42.2963C234.6 41.0084 233.441 40.0796 232.154 40.2212L227.195 40.7666C225.907 40.9082 224.978 42.0668 225.12 43.3544C225.261 44.642 226.42 45.5711 227.708 45.4295L232.667 44.8842C233.954 44.7426 234.883 43.5839 234.742 42.2963Z" fill="white"/>
</g>
<path d="M221.335 48.7193L222.589 50.4763L220.493 50.7067L221.335 48.7193Z" fill="#D3E1FE"/>
<path d="M234.912 47.001L236.166 48.758L234.071 48.9884L234.912 47.001Z" fill="#D3E1FE"/>
<path d="M239.342 63.557L241.431 63.0117L240.9 65.0514L239.342 63.557Z" fill="#D3E1FE"/>
<path d="M230.204 67.2877L230.439 65.1422L232.155 66.365L230.204 67.2877Z" fill="#D3E1FE"/>
<path d="M230.445 51.3584L229.364 53.2267L228.287 51.415L230.445 51.3584Z" fill="#D3E1FE"/>
<path d="M242.521 44.0596L241.44 45.9279L240.364 44.1162L242.521 44.0596Z" fill="#D3E1FE"/>
<path d="M238.763 53.329L240.123 55.0045L238.047 55.3653L238.763 53.329Z" fill="#D3E1FE"/>
<path d="M218.722 63.6616L220.773 62.9869L220.37 65.0559L218.722 63.6616Z" fill="#D3E1FE"/>
<path d="M232.077 59.6947L229.929 59.4839L231.133 57.7538L232.077 59.6947Z" fill="#D3E1FE"/>
<path d="M246.682 50.8388L244.534 50.6279L245.738 48.8978L246.682 50.8388Z" fill="#D3E1FE"/>
<path d="M246.199 57.8361L245.237 59.7681L244.05 58.0269L246.199 57.8361Z" fill="#D3E1FE"/>
<path d="M254.185 58.1427L253.222 60.0748L252.035 58.3335L254.185 58.1427Z" fill="#D3E1FE"/>
<path d="M223.01 55.7746L224.473 57.3621L222.422 57.8517L223.01 55.7746Z" fill="#D3E1FE"/>
<path opacity="0.6" d="M269.216 7.74061L266.481 10.7363L268.932 12.9737L271.667 9.97794L269.216 7.74061Z" fill="#FFBCCB"/>
<path d="M198.169 164.274C216.482 162.26 229.695 145.782 227.681 127.469C225.667 109.156 209.189 95.9435 190.876 97.9573C172.564 99.971 159.351 116.449 161.365 134.762C163.378 153.075 179.856 166.287 198.169 164.274Z" fill="white"/>
<mask id="mask2_2919_27830" style="mask-type:alpha" maskUnits="userSpaceOnUse" x="161" y="97" width="67" height="68">
<path d="M198.169 164.28C216.482 162.266 229.695 145.788 227.681 127.475C225.667 109.162 209.19 95.9494 190.877 97.9631C172.564 99.9769 159.351 116.455 161.365 134.768C163.379 153.08 179.856 166.293 198.169 164.28Z" fill="white"/>
</mask>
<g mask="url(#mask2_2919_27830)">
<path d="M194.823 131.703C200.793 131.047 205.1 125.675 204.443 119.706C203.787 113.736 198.415 109.429 192.446 110.085C186.476 110.742 182.169 116.113 182.825 122.083C183.482 128.052 188.853 132.36 194.823 131.703Z" fill="#CBE0FF"/>
<path d="M194.437 119.899C194.934 119.844 195.293 119.396 195.238 118.899C195.184 118.401 194.736 118.043 194.239 118.097C193.741 118.152 193.382 118.6 193.437 119.097C193.492 119.595 193.939 119.953 194.437 119.899Z" fill="#0F1A2A"/>
<path d="M199.444 115.7C199.941 115.645 200.3 115.197 200.246 114.7C200.191 114.202 199.743 113.843 199.246 113.898C198.748 113.953 198.389 114.4 198.444 114.898C198.499 115.395 198.946 115.754 199.444 115.7Z" fill="#0F1A2A"/>
<path d="M197.288 120.953C198.221 121.154 200.139 121.186 200.341 119.706" stroke="#0F1A2A" stroke-width="0.667162" stroke-linecap="round"/>
<path fill-rule="evenodd" clip-rule="evenodd" d="M198.897 111.378C196.999 110.325 194.768 109.83 192.446 110.085C186.476 110.742 182.169 116.113 182.825 122.083C183.282 126.232 186.015 129.578 189.644 131.012C190.059 129.24 189.676 126.853 188.458 124.569C188.376 124.413 188.29 124.261 188.203 124.112C189.914 122.785 191.148 120.592 191.41 118.016C191.452 117.605 191.468 117.2 191.459 116.8C192.658 116.089 193.612 115.103 194.187 113.943C196.106 113.592 197.772 112.666 198.897 111.378Z" fill="#0F1A2A"/>
<path d="M187.322 130.982C189.204 130.428 190.201 128.186 189.55 125.975C188.899 123.764 186.845 122.421 184.963 122.975C183.081 123.53 182.084 125.771 182.735 127.983C183.386 130.194 185.44 131.537 187.322 130.982Z" fill="#CBE0FF"/>
<path d="M197.792 117.25C198.26 117.424 198.421 118.003 198.109 118.392L197.941 118.602" stroke="#0F1A2A" stroke-width="0.667162" stroke-linecap="round"/>
<path d="M176.566 140.067C178.165 136.604 181.46 134.232 185.251 133.815L202.745 131.891C207.674 131.349 212.346 134.211 214.103 138.849L221.561 158.54C224.079 165.188 219.647 172.424 212.581 173.201L177.653 177.042C169.244 177.966 163.046 169.357 166.592 161.675L176.566 140.067Z" fill="#7EA5F8"/>
<path d="M194.031 124.503C195.026 124.393 195.744 123.498 195.635 122.503C195.525 121.508 194.63 120.79 193.635 120.9C192.64 121.009 191.922 121.904 192.032 122.899C192.141 123.894 193.036 124.612 194.031 124.503Z" fill="#FFD4E7"/>
<path d="M203.245 117.105C204.24 116.996 204.958 116.1 204.848 115.105C204.739 114.111 203.844 113.393 202.849 113.502C201.854 113.612 201.136 114.507 201.245 115.502C201.355 116.497 202.25 117.214 203.245 117.105Z" fill="#FFD4E7"/>
</g>
<path d="M197.391 135.839C197.758 135.799 198.022 135.47 197.982 135.103C197.941 134.737 197.612 134.473 197.245 134.513C196.879 134.553 196.615 134.883 196.655 135.249C196.695 135.615 197.025 135.88 197.391 135.839Z" fill="#FCFCFD"/>
<path d="M197.646 138.16C198.013 138.119 198.277 137.79 198.237 137.424C198.196 137.057 197.867 136.793 197.501 136.833C197.134 136.874 196.87 137.203 196.91 137.569C196.951 137.936 197.28 138.2 197.646 138.16Z" fill="#FCFCFD"/>
<path d="M197.901 140.475C198.267 140.435 198.532 140.105 198.491 139.739C198.451 139.373 198.121 139.108 197.755 139.149C197.389 139.189 197.125 139.519 197.165 139.885C197.205 140.251 197.535 140.515 197.901 140.475Z" fill="#FCFCFD"/>
<path opacity="0.5" d="M245.116 134.885C246.128 134.773 246.858 133.863 246.747 132.85C246.636 131.838 245.725 131.108 244.713 131.219C243.701 131.331 242.971 132.241 243.082 133.254C243.193 134.266 244.104 134.996 245.116 134.885Z" fill="#DDE8FF"/>
<path opacity="0.5" d="M253.088 106.184C253.696 106.117 254.134 105.57 254.067 104.963C254 104.356 253.454 103.918 252.846 103.985C252.239 104.051 251.801 104.598 251.868 105.205C251.935 105.812 252.481 106.25 253.088 106.184Z" fill="#DDE8FF"/>
<path opacity="0.5" d="M121.168 142.13C121.766 142.008 122.153 141.424 122.032 140.825C121.91 140.227 121.326 139.84 120.727 139.961C120.129 140.083 119.742 140.667 119.863 141.266C119.985 141.864 120.569 142.251 121.168 142.13Z" fill="#DDE8FF"/>
<path opacity="0.5" d="M96.5719 29.4376C97.1792 29.3708 97.6173 28.8244 97.5505 28.2171C97.4838 27.6098 96.9373 27.1717 96.33 27.2385C95.7228 27.3052 95.2846 27.8517 95.3514 28.459C95.4182 29.0662 95.9646 29.5044 96.5719 29.4376Z" fill="#DDE8FF"/>
<path opacity="0.5" d="M190.981 14.0582C191.588 13.9914 192.026 13.445 191.959 12.8377C191.893 12.2304 191.346 11.7923 190.739 11.8591C190.132 11.9258 189.694 12.4723 189.76 13.0796C189.827 13.6868 190.374 14.125 190.981 14.0582Z" fill="#DDE8FF"/>
<path opacity="0.6" d="M139.285 147.481L136.833 150.713L139.477 152.719L141.929 149.487L139.285 147.481Z" fill="#FFBCCB"/>
<path opacity="0.6" d="M78.1176 42.9417L75.5969 42.498L75.2339 44.5604L77.7546 45.0041L78.1176 42.9417Z" fill="#FFBCCB"/>
<rect x="-8" y="-10" width="313" height="178" fill="url(#paint0_linear_2919_27830)"/>
<path d="M32.2344 97.2812V105.891H30.4844V97.2812H32.2344ZM27.7031 98.125V102.266H22.9219V103.781C25.3438 103.773 27.0547 103.695 29.0781 103.391L29.2969 104.781C27.0625 105.141 25.1562 105.203 22.4219 105.203H21.2188V100.969H25.9844V99.5469H21.1875V98.125H27.7031ZM27.4844 106.141C30.4844 106.141 32.3125 107.094 32.3125 108.766C32.3125 110.406 30.4844 111.375 27.4844 111.375C24.4688 111.375 22.6562 110.406 22.6562 108.766C22.6562 107.094 24.4688 106.141 27.4844 106.141ZM27.4844 107.5C25.4844 107.5 24.375 107.938 24.375 108.766C24.375 109.578 25.4844 110.016 27.4844 110.016C29.4688 110.016 30.5781 109.578 30.5781 108.766C30.5781 107.938 29.4688 107.5 27.4844 107.5ZM46.0312 97.2812V106.703H44.2969V97.2812H46.0312ZM42.2344 106.141C42.2188 107.922 43.9062 109.484 46.7656 109.938L46.0312 111.312C43.8359 110.914 42.1406 109.867 41.3125 108.375C40.4609 109.875 38.7266 110.938 36.4688 111.328L35.7812 109.953C38.6562 109.531 40.4062 107.922 40.4062 106.141V105.75H42.2344V106.141ZM41.8594 98.1875C41.8438 102.062 40 104.75 35.25 106.234L34.5781 104.844C36.75 104.195 38.1562 103.305 39 102.219L34.8125 102.531L34.5469 101.156L39.7031 100.969C39.875 100.523 39.9766 100.062 40.0312 99.5781H35.2656V98.1875H41.8594ZM60.3125 97.2656V111.391H58.6406V97.2656H60.3125ZM57.4062 97.5156V110.703H55.75V103.984H54.4062C54.2422 106.734 53.0625 108.438 51.3125 108.422C49.4688 108.438 48.2656 106.484 48.2656 103.375C48.2656 100.266 49.4688 98.3438 51.3125 98.3438C53.0234 98.3438 54.1875 99.9375 54.3906 102.578H55.75V97.5156H57.4062ZM51.3125 99.9844C50.4219 99.9688 49.8594 101.172 49.875 103.375C49.8594 105.578 50.4219 106.781 51.3125 106.766C52.25 106.781 52.8125 105.578 52.8125 103.375C52.8125 101.172 52.25 99.9688 51.3125 99.9844ZM76.8125 97.2656V102.781H78.9062V104.234H76.8125V111.359H75.0781V97.2656H76.8125ZM73.0781 98.7344C73.0781 102.891 71.3594 106.531 66.6562 108.844L65.6719 107.5C69.1094 105.789 70.9688 103.383 71.3281 100.172H66.4375V98.7344H73.0781ZM91.3438 97.2656V104.844H89.5938V97.2656H91.3438ZM83.7188 105.5V106.953H89.6094V105.5H91.3438V111.219H82V105.5H83.7188ZM83.7188 109.812H89.6094V108.312H83.7188V109.812ZM83.6406 97.8906C85.8125 97.875 87.4375 99.2344 87.4375 101.203C87.4375 103.125 85.8125 104.484 83.6406 104.484C81.4531 104.484 79.8281 103.125 79.8281 101.203C79.8281 99.2344 81.4531 97.875 83.6406 97.8906ZM83.6406 99.3438C82.4062 99.3438 81.5156 100.062 81.5312 101.203C81.5156 102.328 82.4062 103.047 83.6406 103.062C84.8594 103.047 85.7344 102.328 85.7344 101.203C85.7344 100.062 84.8594 99.3438 83.6406 99.3438ZM104.469 97.2656V102.891H106.641V104.328H104.469V111.391H102.75V97.2656H104.469ZM101.656 99.4375V100.828H93.3281V99.4375H96.6719V97.4688H98.4062V99.4375H101.656ZM97.5469 101.75C99.5781 101.75 101.094 103.125 101.094 105.078C101.094 107.031 99.5781 108.391 97.5469 108.391C95.4844 108.391 93.9688 107.031 93.9844 105.078C93.9688 103.125 95.4844 101.75 97.5469 101.75ZM97.5469 103.172C96.4375 103.172 95.6406 103.922 95.6406 105.078C95.6406 106.234 96.4375 106.969 97.5469 106.953C98.625 106.969 99.4219 106.234 99.4375 105.078C99.4219 103.922 98.625 103.172 97.5469 103.172ZM118.766 98.5625V99.9219C118.75 101.672 118.75 103.641 118.203 106.594L116.453 106.406C117 103.656 117 101.648 117.016 99.9531H108.578V98.5625H118.766ZM120.109 108.141V109.562H107.234V108.141H111.984V103.234H113.703V108.141H120.109ZM32.0469 121.266V126.578H33.625V128.047H32.0469V135.391H30.3281V121.266H32.0469ZM22.0781 122.562V125.953H23.2656V122.562H24.7031V132.062H20.6406V122.562H22.0781ZM22.0781 130.641H23.2656V127.328H22.0781V130.641ZM26.75 122.562V125.953H27.9375V122.562H29.375V132.062H25.3438V122.562H26.75ZM26.75 130.641H27.9375V127.328H26.75V130.641ZM47.2031 132.297V133.719H34.2969V132.297H47.2031ZM45.6719 122.266V126.812H37.5625V128.656H46V130.031H35.8281V125.422H43.9531V123.672H35.7969V122.266H45.6719ZM60.3125 121.266V135.391H58.6562V121.266H60.3125ZM57.3125 121.609V134.719H55.6719V128.219H53.1562C52.3281 129.844 51 131.25 49 132.406L48.0156 131.172C50.9453 129.445 52.2812 127.234 52.5469 124.391H48.7344V122.984H54.2656C54.2656 124.352 54.1016 125.633 53.7188 126.828H55.6719V121.609H57.3125ZM77.5938 121.281V131.969H75.8438V130.734H73.0781V129.516H75.8438V121.281H77.5938ZM77.9219 133.703V135.109H67.5625V130.938H69.2969V133.703H77.9219ZM65.6875 127.625C68.2969 127.609 71.7969 127.578 74.7969 127.203L74.8906 128.453C73.7266 128.648 72.5234 128.781 71.3281 128.859V131.578H69.5938V128.953C68.2734 129.008 67.0156 129.016 65.9062 129.016L65.6875 127.625ZM70.2969 121.797C72.3594 121.797 73.7969 122.812 73.8125 124.297C73.7969 125.812 72.3594 126.781 70.2969 126.781C68.2031 126.781 66.7656 125.812 66.7656 124.297C66.7656 122.812 68.2031 121.797 70.2969 121.797ZM70.2969 123.078C69.1719 123.078 68.4062 123.531 68.4062 124.297C68.4062 125.062 69.1719 125.516 70.2969 125.516C71.375 125.516 72.1406 125.062 72.1562 124.297C72.1406 123.531 71.375 123.078 70.2969 123.078ZM90.6406 121.266V126.891H92.8125V128.328H90.6406V135.391H88.9219V121.266H90.6406ZM87.8281 123.438V124.828H79.5V123.438H82.8438V121.469H84.5781V123.438H87.8281ZM83.7188 125.75C85.75 125.75 87.2656 127.125 87.2656 129.078C87.2656 131.031 85.75 132.391 83.7188 132.391C81.6562 132.391 80.1406 131.031 80.1562 129.078C80.1406 127.125 81.6562 125.75 83.7188 125.75ZM83.7188 127.172C82.6094 127.172 81.8125 127.922 81.8125 129.078C81.8125 130.234 82.6094 130.969 83.7188 130.953C84.7969 130.969 85.5938 130.234 85.6094 129.078C85.5938 127.922 84.7969 127.172 83.7188 127.172ZM104.844 125.266V126.641H95.0625V121.781H96.7812V125.266H104.844ZM106.297 128.281V129.656H93.3906V128.281H106.297ZM104.938 133.656V135.062H94.9375V130.906H96.6719V133.656H104.938ZM118.641 122.094V123.5H113.578V124.812H118.234V126.172H113.578V127.562C116.219 127.555 117.828 127.508 119.688 127.203L119.859 128.562C117.828 128.922 116.062 128.953 113.016 128.938H111.812V122.094H118.641ZM122.797 121.281V129.672H121.047V121.281H122.797ZM122.797 130.297V135.219H113.422V130.297H122.797ZM115.141 131.641V133.812H121.094V131.641H115.141ZM136.703 121.281V131.969H134.953V130.734H132.188V129.516H134.953V121.281H136.703ZM137.031 133.703V135.109H126.672V130.938H128.406V133.703H137.031ZM124.797 127.625C127.406 127.609 130.906 127.578 133.906 127.203L134 128.453C132.836 128.648 131.633 128.781 130.438 128.859V131.578H128.703V128.953C127.383 129.008 126.125 129.016 125.016 129.016L124.797 127.625ZM129.406 121.797C131.469 121.797 132.906 122.812 132.922 124.297C132.906 125.812 131.469 126.781 129.406 126.781C127.312 126.781 125.875 125.812 125.875 124.297C125.875 122.812 127.312 121.797 129.406 121.797ZM129.406 123.078C128.281 123.078 127.516 123.531 127.516 124.297C127.516 125.062 128.281 125.516 129.406 125.516C130.484 125.516 131.25 125.062 131.266 124.297C131.25 123.531 130.484 123.078 129.406 123.078ZM143.781 122.156L140.141 135.703H138.391L142.047 122.156H143.781ZM152.031 122.094V123.5H146.969V124.812H151.625V126.172H146.969V127.562C149.609 127.555 151.219 127.508 153.078 127.203L153.25 128.562C151.219 128.922 149.453 128.953 146.406 128.938H145.203V122.094H152.031ZM156.188 121.281V129.672H154.438V121.281H156.188ZM156.188 130.297V135.219H146.812V130.297H156.188ZM148.531 131.641V133.812H154.484V131.641H148.531ZM164.672 121.484C167.891 121.484 169.75 122.344 169.766 123.906C169.75 125.484 167.891 126.328 164.672 126.344C161.453 126.328 159.578 125.484 159.578 123.906C159.578 122.344 161.453 121.484 164.672 121.484ZM164.672 122.766C162.516 122.766 161.391 123.172 161.406 123.906C161.391 124.688 162.516 125.047 164.672 125.047C166.859 125.047 167.969 124.688 167.969 123.906C167.969 123.172 166.859 122.766 164.672 122.766ZM171.125 127.094V128.484H158.25V127.094H171.125ZM169.516 129.438V132.891H161.484V133.938H169.906V135.266H159.781V131.656H167.812V130.719H159.766V129.438H169.516ZM180.953 124.156C180.953 125.672 182.094 127.156 184.312 127.75L183.531 129.078C181.891 128.648 180.734 127.711 180.109 126.5C179.477 127.828 178.289 128.859 176.625 129.344L175.797 127.969C178.031 127.375 179.219 125.812 179.219 124.156V124.109H176.266V122.734H179.219V121.203H180.969V122.734H183.906V124.109H180.953V124.156ZM187.016 121.266V124.547H188.984V125.984H187.016V129.359H185.281V121.266H187.016ZM187.219 130.016V131.406H183.484C183.812 132.578 185.398 133.672 187.812 134.016L187.188 135.344C184.977 135.031 183.305 134.086 182.484 132.797C181.672 134.078 180.016 135 177.828 135.312L177.188 134C179.609 133.664 181.18 132.609 181.516 131.406H177.766V130.016H187.219ZM196.125 122.062C199.109 122.062 201.391 123.641 201.391 126.047C201.391 128.484 199.109 130.062 196.125 130.062C193.156 130.062 190.875 128.484 190.891 126.047C190.875 123.641 193.156 122.062 196.125 122.062ZM196.125 123.469C194.078 123.453 192.562 124.484 192.562 126.047C192.562 127.641 194.078 128.641 196.125 128.641C198.188 128.641 199.688 127.641 199.688 126.047C199.688 124.484 198.188 123.453 196.125 123.469ZM202.609 132.188V133.609H189.703V132.188H202.609ZM207.938 124.969C207.938 127.25 208.734 129.625 210.641 130.828L209.688 132.156C208.414 131.391 207.586 130.07 207.125 128.516C206.609 130.227 205.703 131.672 204.375 132.484L203.297 131.188C205.344 129.938 206.266 127.453 206.266 125.047V122.516H207.938V124.969ZM215.719 121.266V135.391H214.047V121.266H215.719ZM212.781 121.516V134.703H211.141V127.562H209.125V126.125H211.141V121.516H212.781ZM230.266 132.25V133.672H217.359V132.25H220.344V128.672C219.219 128.031 218.539 127.023 218.547 125.766C218.531 123.516 220.75 122.031 223.781 122.031C226.828 122.031 229.047 123.516 229.047 125.766C229.047 127 228.391 127.992 227.297 128.641V132.25H230.266ZM223.781 123.406C221.672 123.406 220.234 124.297 220.25 125.766C220.234 127.219 221.672 128.125 223.781 128.125C225.891 128.125 227.344 127.219 227.344 125.766C227.344 124.297 225.891 123.406 223.781 123.406ZM222.062 132.25H225.531V129.297C224.992 129.422 224.406 129.484 223.781 129.484C223.172 129.484 222.594 129.422 222.062 129.312V132.25Z" fill="white"/>
</g>
<defs>
<linearGradient id="paint0_linear_2919_27830" x1="148.5" y1="159" x2="148.5" y2="35.5" gradientUnits="userSpaceOnUse">
<stop stop-color="#061943" stop-opacity="0.6"/>
<stop offset="0.359935" stop-color="#061943" stop-opacity="0.3"/>
<stop offset="0.72772" stop-color="#153B8E" stop-opacity="0"/>
</linearGradient>
<clipPath id="clip0_2919_27830">
<rect width="300" height="158" rx="12" fill="white"/>
</clipPath>
</defs>
</svg>
