<svg width="256" height="144" viewBox="0 0 256 144" fill="none" xmlns="http://www.w3.org/2000/svg">
<rect width="256" height="144" rx="10" fill="#CBD4E1"/>
<path fill-rule="evenodd" clip-rule="evenodd" d="M125.056 59.4674C125.056 58.5664 125.787 57.8359 126.688 57.8359H131.8C132.701 57.8359 133.432 58.5664 133.432 59.4674V67.4995C133.432 68.953 135.189 69.6809 136.217 68.6531L142.453 62.4167C143.09 61.7796 144.123 61.7796 144.761 62.4167L148.494 66.1504C149.131 66.7875 149.131 67.8205 148.494 68.4576L141.481 75.4706C140.454 76.4983 141.181 78.2556 142.635 78.2556H150.647C151.548 78.2556 152.279 78.986 152.279 79.8871V85.1687C152.279 86.0697 151.548 86.8001 150.647 86.8001H134.491C133.59 86.8001 132.859 86.0697 132.859 85.1687V82.0634C132.859 81.6307 132.687 81.2157 132.382 80.9098L131.772 80.2998C131.466 79.9939 131.051 79.822 130.618 79.822H126.72C125.819 79.822 125.089 80.5524 125.089 81.4534V85.1687C125.089 86.0697 124.358 86.8001 123.457 86.8001H113.515C112.614 86.8001 111.883 86.0697 111.883 85.1687V81.6294C111.883 80.7284 111.153 79.998 110.252 79.998H105.749C104.848 79.998 104.117 79.2676 104.117 78.3666V59.6923C104.117 58.7913 104.848 58.0609 105.749 58.0609H111.029C111.93 58.0609 112.66 58.7913 112.66 59.6923V76.6242C112.66 77.5252 113.391 78.2556 114.292 78.2556H123.425C124.326 78.2556 125.056 77.5252 125.056 76.6242V59.4674Z" fill="#94A3B8"/>
</svg>
