<svg width="256" height="144" viewBox="0 0 256 144" fill="none" xmlns="http://www.w3.org/2000/svg">
<rect width="256" height="144" rx="10" fill="#CBD4E1"/>
<path fill-rule="evenodd" clip-rule="evenodd" d="M125.056 59.4674C125.056 58.5664 125.787 57.8359 126.688 57.8359H131.8C132.701 57.8359 133.432 58.5664 133.432 59.4674V67.4985C133.432 68.952 135.189 69.6799 136.217 68.6521L142.452 62.4167C143.089 61.7796 144.122 61.7796 144.76 62.4167L148.493 66.1504C149.13 66.7875 149.13 67.8205 148.493 68.4576L141.479 75.4716C140.451 76.4994 141.179 78.2567 142.633 78.2567H150.646C151.547 78.2567 152.278 78.9871 152.278 79.8881V85.1697C152.278 86.0707 151.547 86.8011 150.646 86.8011H134.49C133.589 86.8011 132.858 86.0707 132.858 85.1697V82.0634C132.858 81.6307 132.686 81.2157 132.38 80.9098L131.771 80.2998C131.465 79.9939 131.05 79.822 130.617 79.822H126.721C125.82 79.822 125.09 80.5524 125.09 81.4534V85.1697C125.09 86.0707 124.359 86.8011 123.458 86.8011H113.516C112.615 86.8011 111.884 86.0707 111.884 85.1697V81.6294C111.884 80.7284 111.154 79.998 110.253 79.998H105.749C104.848 79.998 104.117 79.2676 104.117 78.3666V59.6923C104.117 58.7913 104.848 58.0609 105.749 58.0609H111.029C111.93 58.0609 112.66 58.7913 112.66 59.6923V76.6252C112.66 77.5262 113.391 78.2567 114.292 78.2567H123.425C124.326 78.2567 125.056 77.5262 125.056 76.6252V59.4674Z" fill="#94A3B8"/>
</svg>
