<svg width="176" height="32" viewBox="0 0 176 32" fill="none" xmlns="http://www.w3.org/2000/svg">
<path opacity="0.9" fill-rule="evenodd" clip-rule="evenodd" d="M16 0C7.16344 0 0 7.16344 0 16C0 24.8366 7.16344 32 16 32H153C160.256 32 166.384 27.1701 168.344 20.55C168.373 20.4504 168.439 20.3651 168.529 20.3132L175.7 16.1732C175.833 16.0962 175.833 15.9038 175.7 15.8268L168.529 11.6868C168.439 11.6349 168.373 11.5496 168.344 11.45C166.384 4.82986 160.256 0 153 0H16Z" fill="url(#paint0_linear_1384_25755)"/>
<path d="M27.0684 10.582V11.8125H22.6387V12.9609H26.7129V14.1504H22.6387V15.3672C24.9492 15.3604 26.3574 15.3193 27.9844 15.0527L28.1348 16.2422C26.3574 16.5566 24.8125 16.584 22.1465 16.5703H21.0938V10.582H27.0684ZM30.7051 9.87109V17.2129H29.1738V9.87109H30.7051ZM30.7051 17.7598V22.0664H22.502V17.7598H30.7051ZM24.0059 18.9355V20.8359H29.2148V18.9355H24.0059ZM42.873 9.87109V19.2227H41.3418V18.1426H38.9219V17.0762H41.3418V9.87109H42.873ZM43.1602 20.7402V21.9707H34.0957V18.3203H35.6133V20.7402H43.1602ZM32.4551 15.4219C34.7383 15.4082 37.8008 15.3809 40.4258 15.0527L40.5078 16.1465C39.4893 16.3174 38.4365 16.4336 37.3906 16.502V18.8809H35.873V16.584C34.7178 16.6318 33.6172 16.6387 32.6465 16.6387L32.4551 15.4219ZM36.4883 10.3223C38.293 10.3223 39.5508 11.2109 39.5645 12.5098C39.5508 13.8359 38.293 14.6836 36.4883 14.6836C34.6562 14.6836 33.3984 13.8359 33.3984 12.5098C33.3984 11.2109 34.6562 10.3223 36.4883 10.3223ZM36.4883 11.4434C35.5039 11.4434 34.834 11.8398 34.834 12.5098C34.834 13.1797 35.5039 13.5762 36.4883 13.5762C37.4316 13.5762 38.1016 13.1797 38.1152 12.5098C38.1016 11.8398 37.4316 11.4434 36.4883 11.4434ZM50.2285 10.5547C52.8398 10.5547 54.8359 11.9355 54.8359 14.041C54.8359 16.1738 52.8398 17.5547 50.2285 17.5547C47.6309 17.5547 45.6348 16.1738 45.6484 14.041C45.6348 11.9355 47.6309 10.5547 50.2285 10.5547ZM50.2285 11.7852C48.4375 11.7715 47.1113 12.6738 47.1113 14.041C47.1113 15.4355 48.4375 16.3105 50.2285 16.3105C52.0332 16.3105 53.3457 15.4355 53.3457 14.041C53.3457 12.6738 52.0332 11.7715 50.2285 11.7852ZM55.9023 19.4141V20.6582H44.6094V19.4141H55.9023ZM68.002 19.5234V20.7812H56.709V19.5234H61.5762V17.5137H58.0488V13.4668H65.1582V11.9355H58.0215V10.7051H66.6621V14.6699H59.5664V16.2695H66.9492V17.5137H63.0801V19.5234H68.002ZM83.4238 19.5098V20.7539H72.1309V19.5098H77.0117V16.9531H78.5156V19.5098H83.4238ZM82.4121 11.6484V12.8789H78.5566C78.6592 14.417 80.2656 15.832 82.9316 16.1875L82.3711 17.377C80.2314 17.0762 78.584 16.126 77.7637 14.7656C76.9434 16.126 75.3096 17.0762 73.1699 17.377L72.5957 16.1875C75.2754 15.832 76.875 14.417 76.998 12.8789H73.1289V11.6484H77.0117V10.0488H78.5156V11.6484H82.4121ZM94.8672 9.85742V22.2168H93.418V15.9141H92.0234V21.5879H90.6289V10.0898H92.0234V14.6973H93.418V9.85742H94.8672ZM89.2344 11.3203V12.5508H86.1445V18.0469C87.4912 18.0332 88.5986 17.9648 89.8496 17.7324L89.959 18.9766C88.4688 19.2773 87.1699 19.3184 85.4473 19.332H84.6133V11.3203H89.2344ZM103.686 14.9844V16.2148H101.184V18.375C102.264 18.3271 103.344 18.252 104.369 18.1426L104.492 19.2637C101.771 19.6738 98.9141 19.7012 96.5762 19.7012L96.3848 18.4434C97.4033 18.4502 98.5176 18.4502 99.666 18.416V16.2148H97.2461V10.9922H103.631V12.1953H98.75V14.9844H103.686ZM106.625 9.85742V22.2305H105.107V9.85742H106.625ZM112.955 17.8691C112.941 18.915 113.42 19.9951 114.486 20.6855C115.553 19.9404 116.031 18.7988 116.045 17.8691V17.2949H117.535V17.8691C117.535 19.1543 118.287 20.3984 119.941 20.918L119.176 22.0527C117.979 21.6289 117.187 20.8359 116.77 19.8379C116.359 20.8223 115.621 21.6973 114.486 22.1484C113.338 21.7178 112.606 20.877 112.203 19.8789C111.766 20.8359 110.979 21.6221 109.838 22.0527L109.1 20.918C110.699 20.3711 111.465 19.0859 111.479 17.8691V17.2949H112.955V17.8691ZM111.861 10.5137C113.44 10.5137 114.712 11.4434 115.033 12.8105H117.262V9.85742H118.779V16.8301H117.262V14.041H115.047C114.753 15.4492 113.468 16.3926 111.861 16.3926C109.988 16.3926 108.594 15.1758 108.594 13.4531C108.594 11.7441 109.988 10.5137 111.861 10.5137ZM111.861 11.7852C110.822 11.7852 110.057 12.4414 110.057 13.4531C110.057 14.4512 110.822 15.1348 111.861 15.1348C112.873 15.1348 113.639 14.4512 113.639 13.4531C113.639 12.4414 112.873 11.7852 111.861 11.7852ZM123.906 10.7598C125.581 10.7598 126.818 12.1543 127.037 14.4102H129.389V9.85742H130.893V22.2305H129.389V15.6406H127.051C126.887 18.0264 125.629 19.4961 123.906 19.4961C122.047 19.4961 120.734 17.8145 120.734 15.1211C120.734 12.4551 122.047 10.7598 123.906 10.7598ZM123.906 12.127C122.881 12.127 122.184 13.2344 122.197 15.1211C122.184 17.0215 122.881 18.1289 123.906 18.1289C124.932 18.1289 125.615 17.0215 125.629 15.1211C125.615 13.2344 124.932 12.127 123.906 12.127ZM143.922 19.4688V20.7129H132.629V19.4688H135.24V16.3379C134.256 15.7773 133.661 14.8955 133.668 13.7949C133.654 11.8262 135.596 10.5273 138.248 10.5273C140.914 10.5273 142.855 11.8262 142.855 13.7949C142.855 14.875 142.281 15.7432 141.324 16.3105V19.4688H143.922ZM138.248 11.7305C136.402 11.7305 135.145 12.5098 135.158 13.7949C135.145 15.0664 136.402 15.8594 138.248 15.8594C140.094 15.8594 141.365 15.0664 141.365 13.7949C141.365 12.5098 140.094 11.7305 138.248 11.7305ZM136.744 19.4688H139.779V16.8848C139.308 16.9941 138.795 17.0488 138.248 17.0488C137.715 17.0488 137.209 16.9941 136.744 16.8984V19.4688ZM147.271 11.1016L147.121 18.0879H145.576L145.412 11.1016H147.271ZM146.355 21.1094C145.768 21.1094 145.289 20.6309 145.289 20.043C145.289 19.4688 145.768 18.9902 146.355 18.9902C146.916 18.9902 147.408 19.4688 147.408 20.043C147.408 20.6309 146.916 21.1094 146.355 21.1094Z" fill="white"/>
<defs>
<linearGradient id="paint0_linear_1384_25755" x1="0" y1="0" x2="213.257" y2="162.86" gradientUnits="userSpaceOnUse">
<stop stop-color="#4D82F3"/>
<stop offset="0.714747" stop-color="#FF345F"/>
</linearGradient>
</defs>
</svg>
