<svg width="126" height="126" viewBox="0 0 126 126" fill="none" xmlns="http://www.w3.org/2000/svg">
<g clip-path="url(#clip0_4201_6464)">
<rect x="0.631836" y="0.82959" width="124.681" height="124.681" rx="40.2198" fill="#E2E8F0"/>
<path d="M49.6668 50.1668H54.6668L58.0002 46.8335H68.0002L71.3335 50.1668H76.3335C77.2175 50.1668 78.0654 50.518 78.6905 51.1431C79.3156 51.7683 79.6668 52.6161 79.6668 53.5002V73.5002C79.6668 74.3842 79.3156 75.2321 78.6905 75.8572C78.0654 76.4823 77.2175 76.8335 76.3335 76.8335H49.6668C48.7828 76.8335 47.9349 76.4823 47.3098 75.8572C46.6847 75.2321 46.3335 74.3842 46.3335 73.5002V53.5002C46.3335 52.6161 46.6847 51.7683 47.3098 51.1431C47.9349 50.518 48.7828 50.1668 49.6668 50.1668ZM63.0002 55.1668C60.79 55.1668 58.6704 56.0448 57.1076 57.6076C55.5448 59.1704 54.6668 61.29 54.6668 63.5002C54.6668 65.7103 55.5448 67.8299 57.1076 69.3927C58.6704 70.9555 60.79 71.8335 63.0002 71.8335C65.2103 71.8335 67.3299 70.9555 68.8927 69.3927C70.4555 67.8299 71.3335 65.7103 71.3335 63.5002C71.3335 61.29 70.4555 59.1704 68.8927 57.6076C67.3299 56.0448 65.2103 55.1668 63.0002 55.1668ZM63.0002 58.5002C64.3262 58.5002 65.598 59.0269 66.5357 59.9646C67.4734 60.9023 68.0002 62.1741 68.0002 63.5002C68.0002 64.8262 67.4734 66.098 66.5357 67.0357C65.598 67.9734 64.3262 68.5002 63.0002 68.5002C61.6741 68.5002 60.4023 67.9734 59.4646 67.0357C58.5269 66.098 58.0002 64.8262 58.0002 63.5002C58.0002 62.1741 58.5269 60.9023 59.4646 59.9646C60.4023 59.0269 61.6741 58.5002 63.0002 58.5002Z" fill="#94A3B8"/>
</g>
<defs>
<clipPath id="clip0_4201_6464">
<rect x="0.631836" y="0.82959" width="124.681" height="124.681" rx="40.2198" fill="white"/>
</clipPath>
</defs>
</svg>
