<svg width="166" height="8" viewBox="0 0 166 8" fill="none" xmlns="http://www.w3.org/2000/svg">
<path id="Vector 18556" d="M158 4C158 1.79086 159.791 0 162 0C164.209 0 166 1.79086 166 4C166 6.20914 164.209 8 162 8C159.791 8 158 6.20914 158 4ZM0 3.25H0.987805V4.75H0V3.25ZM2.96341 3.25H4.93902V4.75H2.96341V3.25ZM6.91463 3.25H8.89024V4.75H6.91463V3.25ZM10.8659 3.25H12.8415V4.75H10.8659V3.25ZM14.8171 3.25H16.7927V4.75H14.8171V3.25ZM18.7683 3.25H20.7439V4.75H18.7683V3.25ZM22.7195 3.25H24.6951V4.75H22.7195V3.25ZM26.6707 3.25H28.6463V4.75H26.6707V3.25ZM30.6219 3.25H32.5976V4.75H30.6219V3.25ZM34.5732 3.25H36.5488V4.75H34.5732V3.25ZM38.5244 3.25H40.5V4.75H38.5244V3.25ZM42.4756 3.25H44.4512V4.75H42.4756V3.25ZM46.4268 3.25H48.4024V4.75H46.4268V3.25ZM50.378 3.25H52.3536V4.75H50.378V3.25ZM54.3293 3.25H56.3049V4.75H54.3293V3.25ZM58.2805 3.25H60.2561V4.75H58.2805V3.25ZM62.2317 3.25H64.2073V4.75H62.2317V3.25ZM66.1829 3.25H68.1585V4.75H66.1829V3.25ZM70.1341 3.25H72.1097V4.75H70.1341V3.25ZM74.0853 3.25H76.061V4.75H74.0853V3.25ZM78.0366 3.25H80.0122V4.75H78.0366V3.25ZM81.9878 3.25H83.9634V4.75H81.9878V3.25ZM85.939 3.25H87.9146V4.75H85.939V3.25ZM89.8902 3.25H91.8658V4.75H89.8902V3.25ZM93.8414 3.25H95.817V4.75H93.8414V3.25ZM97.7926 3.25H99.7683V4.75H97.7926V3.25ZM101.744 3.25H103.719V4.75H101.744V3.25ZM105.695 3.25H107.671V4.75H105.695V3.25ZM109.646 3.25H111.622V4.75H109.646V3.25ZM113.598 3.25H115.573V4.75H113.598V3.25ZM117.549 3.25H119.524V4.75H117.549V3.25ZM121.5 3.25H123.476V4.75H121.5V3.25ZM125.451 3.25H127.427V4.75H125.451V3.25ZM129.402 3.25H131.378V4.75H129.402V3.25ZM133.354 3.25H135.329V4.75H133.354V3.25ZM137.305 3.25H139.28V4.75H137.305V3.25ZM141.256 3.25H143.232V4.75H141.256V3.25ZM145.207 3.25H147.183V4.75H145.207V3.25ZM149.159 3.25H151.134V4.75H149.159V3.25ZM153.11 3.25H155.085V4.75H153.11V3.25ZM157.061 3.25H159.037V4.75H157.061V3.25ZM161.012 3.25H162V4.75H161.012V3.25Z" fill="url(#paint0_linear_8020_25002)"/>
<defs>
<linearGradient id="paint0_linear_8020_25002" x1="0" y1="3.5" x2="162" y2="3.5" gradientUnits="userSpaceOnUse">
<stop stop-color="#2563EB" stop-opacity="0"/>
<stop offset="1" stop-color="#2563EB"/>
</linearGradient>
</defs>
</svg>
