<svg width="166" height="8" viewBox="0 0 166 8" fill="none" xmlns="http://www.w3.org/2000/svg">
<path d="M8 4C8 1.79086 6.20914 0 4 0C1.79086 0 0 1.79086 0 4C0 6.20914 1.79086 8 4 8C6.20914 8 8 6.20914 8 4ZM166 3.25H165.012V4.75H166V3.25ZM163.037 3.25H161.061V4.75H163.037V3.25ZM159.085 3.25H157.11V4.75H159.085V3.25ZM155.134 3.25H153.159V4.75H155.134V3.25ZM151.183 3.25H149.207V4.75H151.183V3.25ZM147.232 3.25H145.256V4.75H147.232V3.25ZM143.28 3.25H141.305V4.75H143.28V3.25ZM139.329 3.25H137.354V4.75H139.329V3.25ZM135.378 3.25H133.402V4.75H135.378V3.25ZM131.427 3.25H129.451V4.75H131.427V3.25ZM127.476 3.25H125.5V4.75H127.476V3.25ZM123.524 3.25H121.549V4.75H123.524V3.25ZM119.573 3.25H117.598V4.75H119.573V3.25ZM115.622 3.25H113.646V4.75H115.622V3.25ZM111.671 3.25H109.695V4.75H111.671V3.25ZM107.72 3.25H105.744V4.75H107.72V3.25ZM103.768 3.25H101.793V4.75H103.768V3.25ZM99.8171 3.25H97.8415V4.75H99.8171V3.25ZM95.8659 3.25H93.8903V4.75H95.8659V3.25ZM91.9147 3.25H89.939V4.75H91.9147V3.25ZM87.9634 3.25H85.9878V4.75H87.9634V3.25ZM84.0122 3.25H82.0366V4.75H84.0122V3.25ZM80.061 3.25H78.0854V4.75H80.061V3.25ZM76.1098 3.25H74.1342V4.75H76.1098V3.25ZM72.1586 3.25H70.183V4.75H72.1586V3.25ZM68.2074 3.25H66.2317V4.75H68.2074V3.25ZM64.2561 3.25H62.2805V4.75H64.2561V3.25ZM60.3049 3.25H58.3293V4.75H60.3049V3.25ZM56.3537 3.25H54.3781V4.75H56.3537V3.25ZM52.4025 3.25H50.4269V4.75H52.4025V3.25ZM48.4513 3.25H46.4757V4.75H48.4513V3.25ZM44.5 3.25H42.5244V4.75H44.5V3.25ZM40.5488 3.25H38.5732V4.75H40.5488V3.25ZM36.5976 3.25H34.622V4.75H36.5976V3.25ZM32.6464 3.25H30.6708V4.75H32.6464V3.25ZM28.6951 3.25H26.7195V4.75H28.6951V3.25ZM24.7439 3.25H22.7683V4.75H24.7439V3.25ZM20.7927 3.25H18.8171V4.75H20.7927V3.25ZM16.8414 3.25H14.8658V4.75H16.8414V3.25ZM12.8902 3.25H10.9146V4.75H12.8902V3.25ZM8.93898 3.25H6.96336V4.75H8.93898V3.25ZM4.98775 3.25H4V4.75H4.98775V3.25Z" fill="#2664EC"/>
</svg>
