<svg width="9" height="91" viewBox="0 0 9 91" fill="none" xmlns="http://www.w3.org/2000/svg">
<path d="M0.5 4C0.5 6.20914 2.29086 8 4.5 8C6.70914 8 8.5 6.20914 8.5 4C8.5 1.79086 6.70914 0 4.5 0C2.29086 0 0.5 1.79086 0.5 4ZM3.75 4V5.97727H5.25V4H3.75ZM3.75 9.93182V13.8864H5.25V9.93182H3.75ZM3.75 17.8409V21.7955H5.25V17.8409H3.75ZM3.75 25.75V29.7045H5.25V25.75H3.75ZM3.75 33.6591V37.6136H5.25V33.6591H3.75ZM3.75 41.5682V45.5227H5.25V41.5682H3.75ZM3.75 49.4773V53.4318H5.25V49.4773H3.75ZM3.75 57.3864V61.3409H5.25V57.3864H3.75ZM3.75 65.2954V69.25H5.25V65.2954H3.75ZM3.75 73.2045V77.1591H5.25V73.2045H3.75ZM3.75 81.1136V85.0682H5.25V81.1136H3.75ZM3.75 89.0227V91H5.25V89.0227H3.75Z" fill="url(#paint0_linear_8020_24928)"/>
<defs>
<linearGradient id="paint0_linear_8020_24928" x1="5" y1="4" x2="5" y2="91" gradientUnits="userSpaceOnUse">
<stop stop-color="#2563EB"/>
<stop offset="1" stop-color="#2563EB" stop-opacity="0"/>
</linearGradient>
</defs>
</svg>
