<svg width="72" height="72" viewBox="0 0 72 72" fill="none" xmlns="http://www.w3.org/2000/svg">
<path d="M69.521 36C70.8901 36 72.0089 37.1113 71.9147 38.4772C71.4838 44.7255 69.4284 50.7691 65.9329 56.0005C61.9772 61.9207 56.3547 66.5349 49.7766 69.2597C43.1985 71.9844 35.9601 72.6973 28.9767 71.3083C21.9934 69.9192 15.5788 66.4905 10.5442 61.4558C5.50947 56.4212 2.0808 50.0066 0.69173 43.0233C-0.697338 36.0399 0.0155821 28.8015 2.74034 22.2234C5.46509 15.6453 10.0793 10.0228 15.9995 6.06709C21.2309 2.57157 27.2745 0.516229 33.5228 0.0853096C34.8887 -0.00888829 36 1.10989 36 2.47901C36 3.84814 34.8883 4.94774 33.5235 5.05695C28.2568 5.47843 23.1699 7.23897 18.754 10.1895C13.6492 13.6005 9.67045 18.4486 7.32096 24.1208C4.97147 29.7929 4.35673 36.0344 5.55449 42.056C6.75225 48.0775 9.70871 53.6087 14.05 57.95C18.3913 62.2913 23.9225 65.2477 29.944 66.4455C35.9656 67.6433 42.2071 67.0285 47.8792 64.679C53.5514 62.3295 58.3995 58.3508 61.8105 53.246C64.761 48.8301 66.5216 43.7432 66.943 38.4765C67.0523 37.1117 68.1519 36 69.521 36Z" fill="url(#paint0_angular_8020_24996)"/>
<defs>
<radialGradient id="paint0_angular_8020_24996" cx="0" cy="0" r="1" gradientUnits="userSpaceOnUse" gradientTransform="translate(37.08 37.44) rotate(-91.6523) scale(37.4556 36.8618)">
<stop stop-color="#E2E8F0"/>
<stop offset="1" stop-color="#2563EB"/>
</radialGradient>
</defs>
</svg>
