<svg width="1387" height="1131" viewBox="0 0 1387 1131" fill="none" xmlns="http://www.w3.org/2000/svg">
<g filter="url(#filter0_i_3212_2011)">
<path d="M307.852 160.995C302.708 165.014 301.796 172.443 305.815 177.587L404.91 304.423C408.93 309.568 416.358 310.48 421.503 306.46L540.875 213.197C546.019 209.177 546.932 201.749 542.912 196.604L443.817 69.7682C439.798 64.6238 432.369 63.7116 427.225 67.7309L307.852 160.995Z" fill="#F6F8FC"/>
<path d="M-31.9908 688.625C-37.1352 692.644 -38.0473 700.073 -34.028 705.217L58.1542 823.205C62.1735 828.349 61.2614 835.778 56.1169 839.797L-71.7832 939.724C-76.9277 943.743 -77.8398 951.172 -73.8205 956.316L59.073 1126.41C63.0922 1131.56 70.5209 1132.47 75.6653 1128.45L538.398 766.923C540.105 765.59 542.261 765.02 544.327 764.369C545.519 763.993 546.665 763.401 547.707 762.587L1001.54 408.01C1006.69 403.991 1014.12 404.903 1018.14 410.048L1117.33 537.015C1121.35 542.159 1128.78 543.071 1133.93 539.052L1353.6 367.428C1358.74 363.408 1359.65 355.98 1355.63 350.835L1282.84 257.671C1278.83 252.527 1279.74 245.098 1284.88 241.079L1382.25 165.01C1387.39 160.991 1388.3 153.563 1384.28 148.418L1271.9 4.57803C1267.88 -0.566429 1260.45 -1.47852 1255.31 2.54072L989.695 210.062C984.55 214.081 983.638 221.51 987.658 226.654L1060.4 319.762C1064.42 324.906 1063.51 332.335 1058.36 336.354L548.832 734.444C544.648 737.713 538.605 736.971 535.336 732.787L412.887 576.059C408.868 570.914 401.439 570.002 396.294 574.021L303.552 646.48C298.407 650.499 290.979 649.587 286.96 644.443L194.777 526.455C190.758 521.31 183.329 520.398 178.185 524.417L-31.9908 688.625Z" fill="#F6F8FC"/>
</g>
<defs>
<filter id="filter0_i_3212_2011" x="-78.2498" y="0.0343628" width="1465.04" height="1143.42" filterUnits="userSpaceOnUse" color-interpolation-filters="sRGB">
<feFlood flood-opacity="0" result="BackgroundImageFix"/>
<feBlend mode="normal" in="SourceGraphic" in2="BackgroundImageFix" result="shape"/>
<feColorMatrix in="SourceAlpha" type="matrix" values="0 0 0 0 0 0 0 0 0 0 0 0 0 0 0 0 0 0 127 0" result="hardAlpha"/>
<feOffset dx="-1.9229" dy="12.4989"/>
<feGaussianBlur stdDeviation="11.5374"/>
<feComposite in2="hardAlpha" operator="arithmetic" k2="-1" k3="1"/>
<feColorMatrix type="matrix" values="0 0 0 0 0.919672 0 0 0 0 0.929265 0 0 0 0 0.949135 0 0 0 1 0"/>
<feBlend mode="normal" in2="shape" result="effect1_innerShadow_3212_2011"/>
</filter>
</defs>
</svg>
