<svg width="170" height="33" viewBox="0 0 170 33" fill="none" xmlns="http://www.w3.org/2000/svg">
<g clip-path="url(#clip0_3144_498)">
<path fill-rule="evenodd" clip-rule="evenodd" d="M23.0221 2.03689C23.0221 1.04624 23.8252 0.243164 24.8158 0.243164H30.4372C31.4279 0.243164 32.2309 1.04624 32.2309 2.03689V10.8664C32.2309 12.4644 34.163 13.2648 35.293 12.1348L42.1482 5.27959C42.8487 4.5791 43.9844 4.5791 44.6849 5.27959L48.7901 9.38474C49.4906 10.0852 49.4906 11.221 48.7901 11.9215L41.0783 19.6332C39.9483 20.7632 40.7486 22.6953 42.3466 22.6953H51.1572C52.1478 22.6953 52.9509 23.4984 52.9509 24.4891V30.2961C52.9509 31.2868 52.1478 32.0898 51.1572 32.0898H33.3935C32.4028 32.0898 31.5997 31.2868 31.5997 30.2961V26.8807C31.5997 26.405 31.4108 25.9488 31.0744 25.6124L30.4037 24.9417C30.0673 24.6053 29.6111 24.4164 29.1354 24.4164H24.8528C23.8621 24.4164 23.059 25.2194 23.059 26.2101V30.2961C23.059 31.2868 22.256 32.0898 21.2653 32.0898H10.334C9.34334 32.0898 8.54027 31.2868 8.54027 30.2961V26.4036C8.54027 25.413 7.73719 24.6099 6.74654 24.6099H1.79373C0.803079 24.6099 0 23.8068 0 22.8162V2.2842C0 1.29355 0.803079 0.490472 1.79373 0.490472H7.59929C8.58994 0.490472 9.39302 1.29355 9.39302 2.2842V20.9016C9.39302 21.8923 10.1961 22.6953 11.1867 22.6953H21.2284C22.219 22.6953 23.0221 21.8923 23.0221 20.9016V2.03689Z" fill="#0F1A2A"/>
<path d="M79.1792 28.1735V4.92285H83.7062V24.1354H95.4402V28.1735H79.1792Z" fill="#0F1A2A"/>
<path d="M149.511 9.2695C149.42 9.14275 149.366 8.99789 149.33 8.85302C149.13 7.96573 149.33 7.24141 149.909 6.66195C150.489 6.10061 151.213 5.90142 152.1 6.0825C152.245 6.11871 152.408 6.17304 152.535 6.26358C153.277 6.75249 153.657 7.40438 153.657 8.20113C153.657 8.7987 153.44 9.32383 153.006 9.74031C152.571 10.1749 152.046 10.3741 151.448 10.3741C150.652 10.3922 150 10.03 149.511 9.2695Z" fill="#0F1A2A"/>
<path d="M99.2512 9.249C99.1606 9.12224 99.1063 8.97738 99.0701 8.83251C98.8709 7.94522 99.0701 7.2209 99.6496 6.64145C100.229 6.0801 100.953 5.88091 101.841 6.06199C101.985 6.0982 102.148 6.15253 102.275 6.24307C103.018 6.73198 103.398 7.38387 103.398 8.18062C103.398 8.77819 103.181 9.30332 102.746 9.7198C102.311 10.1544 101.786 10.3536 101.189 10.3536C100.392 10.3717 99.7401 10.0095 99.2512 9.249Z" fill="#0F1A2A"/>
<path d="M153.621 13.4707H149.312V28.0657H153.621V13.4707Z" fill="#0F1A2A"/>
<path d="M103.305 13.4707H98.9951V28.0657H103.305V13.4707Z" fill="#0F1A2A"/>
<path d="M108.134 28.1731V10.6083H112.425V12.4916L112.498 12.5278C114.218 10.9886 116.138 10.21 118.274 10.21C120.248 10.21 121.787 10.8256 122.91 12.057C123.906 13.1253 124.413 14.8456 124.413 17.2359V28.155H120.103V17.9783C120.103 16.5296 119.868 15.5337 119.397 14.9724C118.872 14.3386 118.093 14.0126 117.079 14.0126C115.359 14.0126 113.838 14.7551 112.48 16.2218V28.1369H108.134V28.1731Z" fill="#0F1A2A"/>
<path d="M129.411 28.065V4.85059H133.72V18.0694L133.793 18.1056L140.782 10.5003H145.925L138.573 18.3592L146.595 28.065H141.271L133.775 18.83L133.702 18.8662V28.0831H129.411V28.065Z" fill="#0F1A2A"/>
<path d="M161.372 26.7431C160.412 25.729 159.941 24.045 159.941 21.7091V14.1762H156.881V10.5002H159.941V5.82837L164.251 5.08594V10.5183H169.212V14.1943H164.251V21.1115C164.251 22.2523 164.414 23.1396 164.74 23.7734C165.066 24.4072 165.681 24.715 166.569 24.715C167.42 24.715 168.307 24.4615 169.212 23.9726V27.6485C168.289 28.1917 167.094 28.4634 165.645 28.4634C163.834 28.4634 162.404 27.8839 161.372 26.7431Z" fill="#0F1A2A"/>
</g>
<defs>
<clipPath id="clip0_3144_498">
<rect width="169.212" height="32.2309" fill="white" transform="translate(0 0.242188)"/>
</clipPath>
</defs>
</svg>
