<svg width="252" height="66" viewBox="0 0 252 66" fill="none" xmlns="http://www.w3.org/2000/svg">
<path d="M1.88601 64.9395C1.19038 64.9395 0.626465 64.3756 0.626465 63.6799V1.51501C0.626465 0.81938 1.19038 0.255463 1.88601 0.255463H11.9612C12.6568 0.255463 13.2207 0.819379 13.2207 1.515V52.4459C13.2207 53.1415 13.7846 53.7054 14.4802 53.7054H44.6054C45.3011 53.7054 45.865 54.2693 45.865 54.965V63.6799C45.865 64.3756 45.3011 64.9395 44.6054 64.9395H1.88601Z" fill="black"/>
<path d="M196.29 12.3462C196.038 11.9935 195.887 11.5905 195.786 11.1875C195.232 8.71904 195.786 6.70396 197.398 5.0919C199.01 3.53021 201.025 2.97606 203.494 3.47983C203.897 3.58058 204.35 3.73171 204.703 3.9836C206.768 5.34378 207.826 7.15735 207.826 9.37394C207.826 11.0364 207.222 12.4973 206.013 13.656C204.804 14.865 203.343 15.4192 201.68 15.4192C199.464 15.4696 197.65 14.462 196.29 12.3462Z" fill="black"/>
<path d="M56.4663 12.2922C56.2144 11.9396 56.0633 11.5366 55.9625 11.1336C55.4084 8.66509 55.9625 6.65 57.5746 5.03794C59.1866 3.47626 61.2017 2.9221 63.6702 3.42587C64.0732 3.52663 64.5266 3.67776 64.8792 3.92964C66.9447 5.28982 68.0026 7.1034 68.0026 9.31998C68.0026 10.9824 67.3981 12.4434 66.189 13.602C64.98 14.8111 63.519 15.3652 61.8566 15.3652C59.64 15.4156 57.8265 14.4081 56.4663 12.2922Z" fill="black"/>
<path d="M206.466 24.0336H196.995C196.3 24.0336 195.736 24.5975 195.736 25.2931V63.3779C195.736 64.0735 196.3 64.6374 196.995 64.6374H206.466C207.161 64.6374 207.725 64.0735 207.725 63.3779V25.2931C207.725 24.5975 207.161 24.0336 206.466 24.0336Z" fill="black"/>
<path d="M66.4841 24.0336H57.0134C56.3178 24.0336 55.7539 24.5975 55.7539 25.2931V63.3779C55.7539 64.0735 56.3178 64.6374 57.0134 64.6374H66.4841C67.1797 64.6374 67.7436 64.0735 67.7436 63.3779V25.2931C67.7436 24.5975 67.1797 24.0336 66.4841 24.0336Z" fill="black"/>
<path d="M81.1792 64.9397V17.3336C81.1792 16.638 81.7431 16.074 82.4387 16.074H91.859C92.5546 16.074 93.1185 16.638 93.1185 17.3336V21.2059C93.1185 21.2717 93.1557 21.3318 93.2145 21.3613C93.2782 21.3931 93.3552 21.3825 93.4085 21.3352C98.1716 17.1054 103.482 14.9658 109.39 14.9658C114.881 14.9658 119.163 16.6786 122.287 20.1042C125.058 23.0764 126.468 27.8623 126.468 34.512V63.6298C126.468 64.3254 125.904 64.8893 125.209 64.8893H115.738C115.042 64.8893 114.478 64.3254 114.478 63.6298V36.5775C114.478 32.5473 113.823 29.7766 112.514 28.2149C111.053 26.4517 108.887 25.5449 106.065 25.5449C101.422 25.5449 97.3005 27.4892 93.6084 31.3317C93.3886 31.5605 93.2697 31.8672 93.2697 32.1845V63.5794C93.2697 64.275 92.7058 64.8389 92.0101 64.8389H81.28C81.2243 64.8389 81.1792 64.884 81.1792 64.9397Z" fill="black"/>
<path d="M140.372 64.637V1.31331C140.372 0.617687 140.936 0.053772 141.632 0.053772H151.102C151.798 0.053772 152.362 0.617688 152.362 1.31331V36.7274C152.362 36.7897 152.397 36.8465 152.453 36.8744C152.518 36.9071 152.597 36.8925 152.647 36.8386L171.635 16.1786C171.873 15.9191 172.209 15.7714 172.562 15.7714H183.413C184.515 15.7714 185.085 17.0866 184.333 17.8914L166.62 36.826C166.187 37.2886 166.165 38.0006 166.569 38.4889L186.476 62.5751C187.154 63.3964 186.57 64.637 185.505 64.637H173.969C173.589 64.637 173.23 64.466 172.991 64.1713L152.593 39.0436C152.546 38.9859 152.466 38.9685 152.399 39.0017C152.345 39.0286 152.311 39.0835 152.311 39.1436V63.4279C152.311 64.1235 151.747 64.6874 151.052 64.6874H140.422C140.395 64.6874 140.372 64.6649 140.372 64.637Z" fill="black"/>
<path d="M229.287 60.9598C226.617 58.1387 225.307 53.4536 225.307 46.955V27.2577C225.307 26.5621 224.743 25.9982 224.048 25.9982H218.053C217.358 25.9982 216.794 25.4343 216.794 24.7387V17.0312C216.794 16.3356 217.358 15.7717 218.053 15.7717H224.048C224.743 15.7717 225.307 15.2077 225.307 14.5121V3.83553C225.307 3.22241 225.749 2.69836 226.353 2.59427L235.824 0.962771C236.594 0.830164 237.297 1.42293 237.297 2.20403V14.5625C237.297 15.2581 237.861 15.822 238.557 15.822H249.841C250.536 15.822 251.1 16.386 251.1 17.0816V24.789C251.1 25.4847 250.536 26.0486 249.841 26.0486H238.557C237.861 26.0486 237.297 26.6125 237.297 27.3081V45.2926C237.297 48.4663 237.751 50.9348 238.657 52.698C239.564 54.4612 241.277 55.3176 243.745 55.3176C245.513 55.3176 247.336 54.9246 249.195 54.1597C250.077 53.7968 251.1 54.41 251.1 55.3637V62.7583C251.1 63.2046 250.866 63.6216 250.47 63.8265C247.995 65.1059 244.884 65.7456 241.176 65.7456C236.138 65.7456 232.159 64.1336 229.287 60.9598Z" fill="black"/>
</svg>
