<svg width="148" height="89" viewBox="0 0 148 89" fill="none" xmlns="http://www.w3.org/2000/svg">
<path fill-rule="evenodd" clip-rule="evenodd" d="M64.3637 5.22262C64.3637 2.46661 66.5979 0.232422 69.3539 0.232422H84.9928C87.7488 0.232422 89.983 2.46661 89.983 5.22262V29.7859C89.983 34.2317 95.3581 36.4581 98.5018 33.3145L117.573 14.2431C119.522 12.2944 122.681 12.2944 124.63 14.2431L136.051 25.6638C138 27.6126 138 30.7722 136.051 32.721L114.595 54.177C111.451 57.3207 113.678 62.6958 118.124 62.6958H142.636C145.392 62.6958 147.626 64.93 147.626 67.686V83.8414C147.626 86.5974 145.392 88.8316 142.636 88.8316H93.2172C90.4612 88.8316 88.227 86.5974 88.227 83.8414V74.3382C88.227 73.0147 87.7012 71.7454 86.7654 70.8096L84.9004 68.9446C83.9646 68.0087 82.6953 67.483 81.3718 67.483H71.7459C68.9899 67.483 66.7557 69.7172 66.7557 72.4732V83.4536C66.7557 86.2096 64.5215 88.4438 61.7655 88.4438H28.9215C26.1655 88.4438 23.9313 86.2096 23.9313 83.4536V73.2813C23.9313 70.5253 21.6971 68.2911 18.9411 68.2911H4.9902C2.23419 68.2911 0 66.0569 0 63.3009V6.52558C0 3.76957 2.23419 1.53537 4.9902 1.53537H21.4602C24.2162 1.53537 26.4504 3.76956 26.4504 6.52557V57.0032C26.4504 59.7592 28.6846 61.9934 31.4406 61.9934H59.3735C62.1295 61.9934 64.3637 59.7592 64.3637 57.0032V5.22262Z" fill="black"/>
</svg>
