<svg width="84" height="84" viewBox="0 0 84 84" fill="none" xmlns="http://www.w3.org/2000/svg">
<g clip-path="url(#clip0_2362_1985)">
<rect width="84" height="84" rx="42" fill="#F6F8FC"/>
<g clip-path="url(#clip1_2362_1985)">
<rect width="84" height="84" transform="translate(0 0.560059)" fill="#F1F4F9"/>
<rect x="28" y="17.7908" width="25.8462" height="25.8462" rx="12.9231" fill="#CBD4E1"/>
<rect x="10.7693" y="50.0986" width="60.3077" height="45.2308" rx="22.6154" fill="#CBD4E1"/>
</g>
<rect opacity="0.4" y="50.3999" width="84" height="33.6" fill="#0F1A2A"/>
<path d="M40.4775 61.3556V67.4062H39.2306V64.3875H36.75V63.3769H39.2306V61.3556H40.4775ZM30.6337 66.4612C32.4712 65.8772 33.5672 64.4137 33.5737 62.76V61.7362H34.8075V62.76C34.8075 64.2562 35.8837 65.6475 37.6556 66.2119L36.9994 67.1831C35.7066 66.7369 34.7287 65.8509 34.2103 64.7287C33.6984 65.9953 32.6944 66.9797 31.3031 67.4587L30.6337 66.4612ZM32.7862 68.9419V67.9575H40.4775V70.8844H34.0331V71.9737H40.8844V72.9713H32.8125V69.9394H39.2437V68.9419H32.7862ZM52.0931 61.3556V68.3512H50.8462V65.3719H48.6544V64.3481H50.8462V61.3556H52.0931ZM42.2887 67.2881C44.1131 66.6516 45.2353 65.0634 45.2287 63.4425V63.18H42.6825V62.1694H49.0219V63.18H46.5019V63.4294C46.4953 64.9191 47.5584 66.3694 49.3369 66.9731L48.6937 67.9575C47.3747 67.5047 46.4034 66.5597 45.8916 65.3981C45.3797 66.7106 44.3494 67.7672 42.945 68.2856L42.2887 67.2881ZM44.1787 70.8975C44.1722 69.4997 45.6816 68.6859 48.1556 68.6794C50.6166 68.6859 52.1259 69.4997 52.1325 70.8975C52.1259 72.2953 50.6166 73.1091 48.1556 73.1156C45.6816 73.1091 44.1722 72.2953 44.1787 70.8975ZM45.4125 70.8975C45.4059 71.6916 46.4297 72.1444 48.1556 72.1313C49.8684 72.1444 50.8922 71.6916 50.8987 70.8975C50.8922 70.0969 49.8684 69.6441 48.1556 69.6506C46.4297 69.6441 45.4059 70.0969 45.4125 70.8975Z" fill="white"/>
</g>
<defs>
<clipPath id="clip0_2362_1985">
<rect width="84" height="84" rx="42" fill="white"/>
</clipPath>
<clipPath id="clip1_2362_1985">
<rect width="84" height="84" fill="white" transform="translate(0 0.560059)"/>
</clipPath>
</defs>
</svg>
