<svg width="23" height="24" viewBox="0 0 23 24" fill="none" xmlns="http://www.w3.org/2000/svg">
<rect width="23" height="23" transform="translate(0 0.5)" fill="white"/>
<path fill-rule="evenodd" clip-rule="evenodd" d="M22.08 12.2505C22.08 11.469 22.0099 10.7176 21.8796 9.99621H11.5V14.2593H17.4312C17.1757 15.6369 16.3993 16.8041 15.2321 17.5856V20.3508H18.7938C20.8777 18.4322 22.08 15.6068 22.08 12.2505Z" fill="#4285F4"/>
<path fill-rule="evenodd" clip-rule="evenodd" d="M11.5 23.0207C14.4756 23.0207 16.9703 22.0338 18.7938 20.3506L15.232 17.5854C14.2452 18.2467 12.9828 18.6374 11.5 18.6374C8.62956 18.6374 6.19997 16.6987 5.33333 14.0938H1.65137V16.9492C3.4648 20.551 7.19184 23.0207 11.5 23.0207Z" fill="#34A853"/>
<path fill-rule="evenodd" clip-rule="evenodd" d="M5.3333 14.094C5.11289 13.4328 4.98765 12.7264 4.98765 12.0001C4.98765 11.2737 5.11289 10.5674 5.3333 9.9061V7.0507H1.65134C0.904931 8.53852 0.479126 10.2217 0.479126 12.0001C0.479126 13.7784 0.904931 15.4616 1.65134 16.9494L5.3333 14.094Z" fill="#FBBC05"/>
<path fill-rule="evenodd" clip-rule="evenodd" d="M11.5 5.36246C13.118 5.36246 14.5708 5.91851 15.7129 7.01057L18.8739 3.8496C16.9653 2.07124 14.4706 0.979172 11.5 0.979172C7.19184 0.979172 3.4648 3.44884 1.65137 7.05065L5.33333 9.90605C6.19997 7.30112 8.62956 5.36246 11.5 5.36246Z" fill="#EA4335"/>
</svg>
